G04*
G04 #@! TF.GenerationSoftware,Altium Limited,Altium Designer,20.0.11 (256)*
G04*
G04 Layer_Physical_Order=2*
G04 Layer_Color=16711680*
%FSLAX44Y44*%
%MOMM*%
G71*
G01*
G75*
%ADD10C,0.2540*%
%ADD19C,1.0000*%
%ADD21C,2.0000*%
%ADD22C,1.9400*%
%ADD23C,2.2000*%
%ADD24C,1.4000*%
%ADD25C,1.6100*%
%ADD26R,1.6100X1.6100*%
%ADD27C,1.1000*%
%ADD28C,1.7000*%
%ADD29R,1.2500X1.7500*%
%ADD30O,1.6000X0.4500*%
%ADD31R,1.7500X1.2500*%
%ADD32C,0.3000*%
G36*
X1675000Y1700000D02*
X1825000D01*
Y1050000D01*
X1675000D01*
Y900000D01*
X1025000D01*
Y1050000D01*
X875000D01*
Y1700000D01*
X1025000D01*
Y1850000D01*
X1675000D01*
Y1700000D01*
D02*
G37*
%LPC*%
G36*
X1566850Y1777781D02*
Y1766570D01*
X1578061D01*
X1577797Y1768574D01*
X1576534Y1771624D01*
X1574524Y1774244D01*
X1571904Y1776254D01*
X1568854Y1777517D01*
X1566850Y1777781D01*
D02*
G37*
G36*
X1564310D02*
X1562306Y1777517D01*
X1559256Y1776254D01*
X1556636Y1774244D01*
X1554626Y1771624D01*
X1553363Y1768574D01*
X1553099Y1766570D01*
X1564310D01*
Y1777781D01*
D02*
G37*
G36*
X1327150D02*
Y1766570D01*
X1338361D01*
X1338097Y1768574D01*
X1336834Y1771624D01*
X1334824Y1774244D01*
X1332204Y1776254D01*
X1329154Y1777517D01*
X1327150Y1777781D01*
D02*
G37*
G36*
X1324610D02*
X1322606Y1777517D01*
X1319556Y1776254D01*
X1316936Y1774244D01*
X1314926Y1771624D01*
X1313663Y1768574D01*
X1313399Y1766570D01*
X1324610D01*
Y1777781D01*
D02*
G37*
G36*
X1465580Y1776899D02*
X1462578Y1776504D01*
X1459780Y1775345D01*
X1457378Y1773502D01*
X1455535Y1771100D01*
X1454376Y1768302D01*
X1453981Y1765300D01*
X1454376Y1762298D01*
X1455535Y1759500D01*
X1457378Y1757098D01*
X1459780Y1755255D01*
X1462578Y1754096D01*
X1465580Y1753701D01*
X1468582Y1754096D01*
X1471380Y1755255D01*
X1473782Y1757098D01*
X1475625Y1759500D01*
X1476784Y1762298D01*
X1477179Y1765300D01*
X1476784Y1768302D01*
X1475625Y1771100D01*
X1473782Y1773502D01*
X1471380Y1775345D01*
X1468582Y1776504D01*
X1465580Y1776899D01*
D02*
G37*
G36*
X1225880D02*
X1222878Y1776504D01*
X1220080Y1775345D01*
X1217678Y1773502D01*
X1215835Y1771100D01*
X1214676Y1768302D01*
X1214281Y1765300D01*
X1214676Y1762298D01*
X1215835Y1759500D01*
X1217678Y1757098D01*
X1220080Y1755255D01*
X1222878Y1754096D01*
X1225880Y1753701D01*
X1228882Y1754096D01*
X1231680Y1755255D01*
X1234082Y1757098D01*
X1235925Y1759500D01*
X1237084Y1762298D01*
X1237479Y1765300D01*
X1237084Y1768302D01*
X1235925Y1771100D01*
X1234082Y1773502D01*
X1231680Y1775345D01*
X1228882Y1776504D01*
X1225880Y1776899D01*
D02*
G37*
G36*
X1578061Y1764030D02*
X1566850D01*
Y1752819D01*
X1568854Y1753083D01*
X1571904Y1754346D01*
X1574524Y1756356D01*
X1576534Y1758976D01*
X1577797Y1762026D01*
X1578061Y1764030D01*
D02*
G37*
G36*
X1564310D02*
X1553099D01*
X1553363Y1762026D01*
X1554626Y1758976D01*
X1556636Y1756356D01*
X1559256Y1754346D01*
X1562306Y1753083D01*
X1564310Y1752819D01*
Y1764030D01*
D02*
G37*
G36*
X1338361D02*
X1327150D01*
Y1752819D01*
X1329154Y1753083D01*
X1332204Y1754346D01*
X1334824Y1756356D01*
X1336834Y1758976D01*
X1338097Y1762026D01*
X1338361Y1764030D01*
D02*
G37*
G36*
X1324610D02*
X1313399D01*
X1313663Y1762026D01*
X1314926Y1758976D01*
X1316936Y1756356D01*
X1319556Y1754346D01*
X1322606Y1753083D01*
X1324610Y1752819D01*
Y1764030D01*
D02*
G37*
G36*
X1566850Y1701581D02*
Y1690370D01*
X1578061D01*
X1577797Y1692374D01*
X1576534Y1695424D01*
X1574524Y1698044D01*
X1571904Y1700054D01*
X1568854Y1701317D01*
X1566850Y1701581D01*
D02*
G37*
G36*
X1564310D02*
X1562306Y1701317D01*
X1559256Y1700054D01*
X1556636Y1698044D01*
X1554626Y1695424D01*
X1553363Y1692374D01*
X1553099Y1690370D01*
X1564310D01*
Y1701581D01*
D02*
G37*
G36*
X1327150D02*
Y1690370D01*
X1338361D01*
X1338097Y1692374D01*
X1336834Y1695424D01*
X1334824Y1698044D01*
X1332204Y1700054D01*
X1329154Y1701317D01*
X1327150Y1701581D01*
D02*
G37*
G36*
X1324610D02*
X1322606Y1701317D01*
X1319556Y1700054D01*
X1316936Y1698044D01*
X1314926Y1695424D01*
X1313663Y1692374D01*
X1313399Y1690370D01*
X1324610D01*
Y1701581D01*
D02*
G37*
G36*
X1465580Y1700699D02*
X1462578Y1700304D01*
X1459780Y1699145D01*
X1457378Y1697302D01*
X1455535Y1694900D01*
X1454376Y1692102D01*
X1453981Y1689100D01*
X1454376Y1686098D01*
X1455535Y1683300D01*
X1457378Y1680898D01*
X1459780Y1679055D01*
X1462578Y1677896D01*
X1465580Y1677501D01*
X1468582Y1677896D01*
X1471380Y1679055D01*
X1473782Y1680898D01*
X1475625Y1683300D01*
X1476784Y1686098D01*
X1477179Y1689100D01*
X1476784Y1692102D01*
X1475625Y1694900D01*
X1473782Y1697302D01*
X1471380Y1699145D01*
X1468582Y1700304D01*
X1465580Y1700699D01*
D02*
G37*
G36*
X1225880D02*
X1222878Y1700304D01*
X1220080Y1699145D01*
X1217678Y1697302D01*
X1215835Y1694900D01*
X1214676Y1692102D01*
X1214281Y1689100D01*
X1214676Y1686098D01*
X1215835Y1683300D01*
X1217678Y1680898D01*
X1220080Y1679055D01*
X1222878Y1677896D01*
X1225880Y1677501D01*
X1228882Y1677896D01*
X1231680Y1679055D01*
X1234082Y1680898D01*
X1235925Y1683300D01*
X1237084Y1686098D01*
X1237479Y1689100D01*
X1237084Y1692102D01*
X1235925Y1694900D01*
X1234082Y1697302D01*
X1231680Y1699145D01*
X1228882Y1700304D01*
X1225880Y1700699D01*
D02*
G37*
G36*
X1578061Y1687830D02*
X1566850D01*
Y1676619D01*
X1568854Y1676883D01*
X1571904Y1678146D01*
X1574524Y1680156D01*
X1576534Y1682776D01*
X1577797Y1685826D01*
X1578061Y1687830D01*
D02*
G37*
G36*
X1564310D02*
X1553099D01*
X1553363Y1685826D01*
X1554626Y1682776D01*
X1556636Y1680156D01*
X1559256Y1678146D01*
X1562306Y1676883D01*
X1564310Y1676619D01*
Y1687830D01*
D02*
G37*
G36*
X1338361D02*
X1327150D01*
Y1676619D01*
X1329154Y1676883D01*
X1332204Y1678146D01*
X1334824Y1680156D01*
X1336834Y1682776D01*
X1338097Y1685826D01*
X1338361Y1687830D01*
D02*
G37*
G36*
X1324610D02*
X1313399D01*
X1313663Y1685826D01*
X1314926Y1682776D01*
X1316936Y1680156D01*
X1319556Y1678146D01*
X1322606Y1676883D01*
X1324610Y1676619D01*
Y1687830D01*
D02*
G37*
G36*
X942380Y1588521D02*
Y1577310D01*
X953591D01*
X953327Y1579314D01*
X952064Y1582364D01*
X950054Y1584984D01*
X947434Y1586994D01*
X944384Y1588257D01*
X942380Y1588521D01*
D02*
G37*
G36*
X939840D02*
X937836Y1588257D01*
X934786Y1586994D01*
X932166Y1584984D01*
X930156Y1582364D01*
X928893Y1579314D01*
X928629Y1577310D01*
X939840D01*
Y1588521D01*
D02*
G37*
G36*
X953591Y1574770D02*
X942380D01*
Y1563559D01*
X944384Y1563823D01*
X947434Y1565086D01*
X950054Y1567096D01*
X952064Y1569716D01*
X953327Y1572766D01*
X953591Y1574770D01*
D02*
G37*
G36*
X939840D02*
X928629D01*
X928893Y1572766D01*
X930156Y1569716D01*
X932166Y1567096D01*
X934786Y1565086D01*
X937836Y1563823D01*
X939840Y1563559D01*
Y1574770D01*
D02*
G37*
G36*
X942380Y1512321D02*
Y1501110D01*
X953591D01*
X953327Y1503114D01*
X952064Y1506164D01*
X950054Y1508784D01*
X947434Y1510794D01*
X944384Y1512057D01*
X942380Y1512321D01*
D02*
G37*
G36*
X1633730Y1510354D02*
Y1501110D01*
X1642974D01*
X1642777Y1502605D01*
X1641710Y1505181D01*
X1640013Y1507393D01*
X1637801Y1509090D01*
X1635224Y1510157D01*
X1633730Y1510354D01*
D02*
G37*
G36*
X1631190D02*
X1629695Y1510157D01*
X1627119Y1509090D01*
X1624907Y1507393D01*
X1623210Y1505181D01*
X1622143Y1502605D01*
X1621946Y1501110D01*
X1631190D01*
Y1510354D01*
D02*
G37*
G36*
X939840Y1512321D02*
X937836Y1512057D01*
X934786Y1510794D01*
X932166Y1508784D01*
X930156Y1506164D01*
X928893Y1503114D01*
X928629Y1501110D01*
X939840D01*
Y1512321D01*
D02*
G37*
G36*
X1718210Y1509390D02*
X1699110D01*
Y1490290D01*
X1718210D01*
Y1509390D01*
D02*
G37*
G36*
X1477480Y1809956D02*
X1313180D01*
X1311483Y1809733D01*
X1309902Y1809078D01*
X1308544Y1808036D01*
X1277230Y1776721D01*
X1275880Y1776899D01*
X1272878Y1776504D01*
X1270080Y1775345D01*
X1267678Y1773502D01*
X1265835Y1771100D01*
X1264676Y1768302D01*
X1264281Y1765300D01*
X1264676Y1762298D01*
X1265835Y1759500D01*
X1267678Y1757098D01*
X1269324Y1755835D01*
Y1698565D01*
X1267678Y1697302D01*
X1265835Y1694900D01*
X1264676Y1692102D01*
X1264281Y1689100D01*
X1264676Y1686098D01*
X1265835Y1683300D01*
X1267678Y1680898D01*
X1270080Y1679055D01*
X1272878Y1677896D01*
X1275880Y1677501D01*
X1278882Y1677896D01*
X1281680Y1679055D01*
X1284082Y1680898D01*
X1285925Y1683300D01*
X1287084Y1686098D01*
X1287479Y1689100D01*
X1287084Y1692102D01*
X1285925Y1694900D01*
X1284082Y1697302D01*
X1282436Y1698565D01*
Y1755835D01*
X1284082Y1757098D01*
X1285925Y1759500D01*
X1287084Y1762298D01*
X1287479Y1765300D01*
X1287115Y1768064D01*
X1315896Y1796844D01*
X1474764D01*
X1504252Y1767357D01*
X1503981Y1765300D01*
X1504376Y1762298D01*
X1505535Y1759500D01*
X1507378Y1757098D01*
X1509780Y1755255D01*
X1510334Y1755025D01*
Y1699375D01*
X1509780Y1699145D01*
X1507378Y1697302D01*
X1505535Y1694900D01*
X1504376Y1692102D01*
X1503981Y1689100D01*
X1504376Y1686098D01*
X1505535Y1683300D01*
X1507378Y1680898D01*
X1509780Y1679055D01*
X1512578Y1677896D01*
X1515580Y1677501D01*
X1517637Y1677771D01*
X1676704Y1518704D01*
Y1506847D01*
X1676449Y1506651D01*
X1674918Y1504656D01*
X1673956Y1502333D01*
X1673628Y1499840D01*
X1673956Y1497347D01*
X1674918Y1495024D01*
X1676449Y1493029D01*
X1678444Y1491498D01*
X1680767Y1490536D01*
X1683260Y1490208D01*
X1685753Y1490536D01*
X1688076Y1491498D01*
X1690071Y1493029D01*
X1691602Y1495024D01*
X1692564Y1497347D01*
X1692892Y1499840D01*
X1692564Y1502333D01*
X1691602Y1504656D01*
X1690071Y1506651D01*
X1689816Y1506847D01*
Y1521420D01*
X1689593Y1523117D01*
X1688938Y1524698D01*
X1687896Y1526056D01*
X1526909Y1687043D01*
X1527179Y1689100D01*
X1526784Y1692102D01*
X1525625Y1694900D01*
X1523782Y1697302D01*
X1523446Y1697560D01*
Y1756840D01*
X1523782Y1757098D01*
X1525625Y1759500D01*
X1526784Y1762298D01*
X1527179Y1765300D01*
X1526784Y1768302D01*
X1525625Y1771100D01*
X1523782Y1773502D01*
X1521380Y1775345D01*
X1518582Y1776504D01*
X1515580Y1776899D01*
X1513523Y1776629D01*
X1482116Y1808036D01*
X1480758Y1809078D01*
X1479177Y1809733D01*
X1477480Y1809956D01*
D02*
G37*
G36*
X1657860Y1509472D02*
X1655367Y1509144D01*
X1653044Y1508182D01*
X1651049Y1506651D01*
X1649518Y1504656D01*
X1648556Y1502333D01*
X1648228Y1499840D01*
X1648556Y1497347D01*
X1649518Y1495024D01*
X1651049Y1493029D01*
X1653044Y1491498D01*
X1655367Y1490536D01*
X1657860Y1490208D01*
X1660353Y1490536D01*
X1662676Y1491498D01*
X1664671Y1493029D01*
X1666202Y1495024D01*
X1667164Y1497347D01*
X1667492Y1499840D01*
X1667164Y1502333D01*
X1666202Y1504656D01*
X1664671Y1506651D01*
X1662676Y1508182D01*
X1660353Y1509144D01*
X1657860Y1509472D01*
D02*
G37*
G36*
X1415580Y1776899D02*
X1412578Y1776504D01*
X1409780Y1775345D01*
X1407378Y1773502D01*
X1405535Y1771100D01*
X1404376Y1768302D01*
X1403981Y1765300D01*
X1404376Y1762298D01*
X1405535Y1759500D01*
X1407378Y1757098D01*
X1409780Y1755255D01*
X1410334Y1755025D01*
Y1699375D01*
X1409780Y1699145D01*
X1407378Y1697302D01*
X1405535Y1694900D01*
X1404376Y1692102D01*
X1403981Y1689100D01*
X1404376Y1686098D01*
X1405535Y1683300D01*
X1407378Y1680898D01*
X1409780Y1679055D01*
X1412578Y1677896D01*
X1415580Y1677501D01*
X1418582Y1677896D01*
X1421380Y1679055D01*
X1421893Y1679448D01*
X1522075Y1579266D01*
X1522075Y1579266D01*
X1522991Y1578654D01*
X1524072Y1578439D01*
X1534373D01*
X1602959Y1509853D01*
X1602661Y1508355D01*
X1602244Y1508182D01*
X1600249Y1506651D01*
X1598718Y1504656D01*
X1597756Y1502333D01*
X1597428Y1499840D01*
X1597756Y1497347D01*
X1598718Y1495024D01*
X1600249Y1493029D01*
X1602244Y1491498D01*
X1604567Y1490536D01*
X1607060Y1490208D01*
X1609553Y1490536D01*
X1611876Y1491498D01*
X1613871Y1493029D01*
X1615402Y1495024D01*
X1616364Y1497347D01*
X1616692Y1499840D01*
X1616364Y1502333D01*
X1615402Y1504656D01*
X1613871Y1506651D01*
X1611876Y1508182D01*
X1609553Y1509144D01*
X1609418Y1509162D01*
Y1510212D01*
X1609203Y1511293D01*
X1608591Y1512209D01*
X1608591Y1512209D01*
X1537540Y1583260D01*
X1536624Y1583872D01*
X1535543Y1584087D01*
X1535543Y1584087D01*
X1525242D01*
X1425743Y1683586D01*
X1426784Y1686098D01*
X1427179Y1689100D01*
X1426784Y1692102D01*
X1425625Y1694900D01*
X1423782Y1697302D01*
X1423446Y1697560D01*
Y1756840D01*
X1423782Y1757098D01*
X1425625Y1759500D01*
X1426784Y1762298D01*
X1427179Y1765300D01*
X1426784Y1768302D01*
X1425625Y1771100D01*
X1423782Y1773502D01*
X1421380Y1775345D01*
X1418582Y1776504D01*
X1415580Y1776899D01*
D02*
G37*
G36*
X1175880D02*
X1172878Y1776504D01*
X1170080Y1775345D01*
X1167678Y1773502D01*
X1165835Y1771100D01*
X1164676Y1768302D01*
X1164281Y1765300D01*
X1164676Y1762298D01*
X1165835Y1759500D01*
X1167678Y1757098D01*
X1169324Y1755835D01*
Y1698565D01*
X1167678Y1697302D01*
X1165835Y1694900D01*
X1164676Y1692102D01*
X1164281Y1689100D01*
X1164676Y1686098D01*
X1165835Y1683300D01*
X1167678Y1680898D01*
X1170080Y1679055D01*
X1172878Y1677896D01*
X1175880Y1677501D01*
X1178882Y1677896D01*
X1181680Y1679055D01*
X1181822Y1679164D01*
X1303423Y1557563D01*
X1303423Y1557563D01*
X1304339Y1556951D01*
X1305420Y1556736D01*
X1538070D01*
X1578836Y1515970D01*
Y1509007D01*
X1576844Y1508182D01*
X1574849Y1506651D01*
X1573318Y1504656D01*
X1572356Y1502333D01*
X1572028Y1499840D01*
X1572356Y1497347D01*
X1573318Y1495024D01*
X1574849Y1493029D01*
X1576844Y1491498D01*
X1579167Y1490536D01*
X1581660Y1490208D01*
X1584153Y1490536D01*
X1586476Y1491498D01*
X1588471Y1493029D01*
X1590002Y1495024D01*
X1590964Y1497347D01*
X1591292Y1499840D01*
X1590964Y1502333D01*
X1590002Y1504656D01*
X1588471Y1506651D01*
X1586476Y1508182D01*
X1584484Y1509007D01*
Y1517140D01*
X1584269Y1518221D01*
X1583657Y1519137D01*
X1583657Y1519137D01*
X1541237Y1561557D01*
X1540321Y1562169D01*
X1539240Y1562384D01*
X1539240Y1562384D01*
X1306590D01*
X1185816Y1683158D01*
X1185925Y1683300D01*
X1187084Y1686098D01*
X1187479Y1689100D01*
X1187084Y1692102D01*
X1185925Y1694900D01*
X1184082Y1697302D01*
X1182436Y1698565D01*
Y1755835D01*
X1184082Y1757098D01*
X1185925Y1759500D01*
X1187084Y1762298D01*
X1187479Y1765300D01*
X1187084Y1768302D01*
X1185925Y1771100D01*
X1184082Y1773502D01*
X1181680Y1775345D01*
X1178882Y1776504D01*
X1175880Y1776899D01*
D02*
G37*
G36*
X1556260Y1509472D02*
X1553767Y1509144D01*
X1551444Y1508182D01*
X1549449Y1506651D01*
X1547918Y1504656D01*
X1546956Y1502333D01*
X1546628Y1499840D01*
X1546956Y1497347D01*
X1547918Y1495024D01*
X1549449Y1493029D01*
X1551444Y1491498D01*
X1553767Y1490536D01*
X1556260Y1490208D01*
X1558753Y1490536D01*
X1561076Y1491498D01*
X1563071Y1493029D01*
X1564602Y1495024D01*
X1565564Y1497347D01*
X1565892Y1499840D01*
X1565564Y1502333D01*
X1564602Y1504656D01*
X1563071Y1506651D01*
X1561076Y1508182D01*
X1558753Y1509144D01*
X1556260Y1509472D01*
D02*
G37*
G36*
X1530860D02*
X1528367Y1509144D01*
X1526044Y1508182D01*
X1524049Y1506651D01*
X1522518Y1504656D01*
X1521556Y1502333D01*
X1521228Y1499840D01*
X1521556Y1497347D01*
X1522518Y1495024D01*
X1524049Y1493029D01*
X1526044Y1491498D01*
X1528367Y1490536D01*
X1530860Y1490208D01*
X1533353Y1490536D01*
X1535676Y1491498D01*
X1537671Y1493029D01*
X1539202Y1495024D01*
X1540164Y1497347D01*
X1540492Y1499840D01*
X1540164Y1502333D01*
X1539202Y1504656D01*
X1537671Y1506651D01*
X1535676Y1508182D01*
X1533353Y1509144D01*
X1530860Y1509472D01*
D02*
G37*
G36*
X1505460D02*
X1502967Y1509144D01*
X1500644Y1508182D01*
X1498649Y1506651D01*
X1497118Y1504656D01*
X1496156Y1502333D01*
X1495828Y1499840D01*
X1496156Y1497347D01*
X1497118Y1495024D01*
X1498649Y1493029D01*
X1500644Y1491498D01*
X1502967Y1490536D01*
X1505460Y1490208D01*
X1507953Y1490536D01*
X1510276Y1491498D01*
X1512271Y1493029D01*
X1513802Y1495024D01*
X1514764Y1497347D01*
X1515092Y1499840D01*
X1514764Y1502333D01*
X1513802Y1504656D01*
X1512271Y1506651D01*
X1510276Y1508182D01*
X1507953Y1509144D01*
X1505460Y1509472D01*
D02*
G37*
G36*
X1480060D02*
X1477567Y1509144D01*
X1475244Y1508182D01*
X1473249Y1506651D01*
X1471718Y1504656D01*
X1470756Y1502333D01*
X1470428Y1499840D01*
X1470756Y1497347D01*
X1471718Y1495024D01*
X1473249Y1493029D01*
X1475244Y1491498D01*
X1477567Y1490536D01*
X1480060Y1490208D01*
X1482553Y1490536D01*
X1484876Y1491498D01*
X1486871Y1493029D01*
X1488402Y1495024D01*
X1489364Y1497347D01*
X1489692Y1499840D01*
X1489364Y1502333D01*
X1488402Y1504656D01*
X1486871Y1506651D01*
X1484876Y1508182D01*
X1482553Y1509144D01*
X1480060Y1509472D01*
D02*
G37*
G36*
X1454660D02*
X1452167Y1509144D01*
X1449844Y1508182D01*
X1447849Y1506651D01*
X1446318Y1504656D01*
X1445356Y1502333D01*
X1445028Y1499840D01*
X1445356Y1497347D01*
X1446318Y1495024D01*
X1447849Y1493029D01*
X1449844Y1491498D01*
X1452167Y1490536D01*
X1454660Y1490208D01*
X1457153Y1490536D01*
X1459476Y1491498D01*
X1461471Y1493029D01*
X1463002Y1495024D01*
X1463964Y1497347D01*
X1464292Y1499840D01*
X1463964Y1502333D01*
X1463002Y1504656D01*
X1461471Y1506651D01*
X1459476Y1508182D01*
X1457153Y1509144D01*
X1454660Y1509472D01*
D02*
G37*
G36*
X1429260D02*
X1426767Y1509144D01*
X1424444Y1508182D01*
X1422449Y1506651D01*
X1420918Y1504656D01*
X1419956Y1502333D01*
X1419628Y1499840D01*
X1419956Y1497347D01*
X1420918Y1495024D01*
X1422449Y1493029D01*
X1424444Y1491498D01*
X1426767Y1490536D01*
X1429260Y1490208D01*
X1431753Y1490536D01*
X1434076Y1491498D01*
X1436071Y1493029D01*
X1437602Y1495024D01*
X1438564Y1497347D01*
X1438892Y1499840D01*
X1438564Y1502333D01*
X1437602Y1504656D01*
X1436071Y1506651D01*
X1434076Y1508182D01*
X1431753Y1509144D01*
X1429260Y1509472D01*
D02*
G37*
G36*
X1403860D02*
X1401367Y1509144D01*
X1399044Y1508182D01*
X1397049Y1506651D01*
X1395518Y1504656D01*
X1394556Y1502333D01*
X1394228Y1499840D01*
X1394556Y1497347D01*
X1395518Y1495024D01*
X1397049Y1493029D01*
X1399044Y1491498D01*
X1401367Y1490536D01*
X1403860Y1490208D01*
X1406353Y1490536D01*
X1408676Y1491498D01*
X1410671Y1493029D01*
X1412202Y1495024D01*
X1413164Y1497347D01*
X1413492Y1499840D01*
X1413164Y1502333D01*
X1412202Y1504656D01*
X1410671Y1506651D01*
X1408676Y1508182D01*
X1406353Y1509144D01*
X1403860Y1509472D01*
D02*
G37*
G36*
X1378460D02*
X1375967Y1509144D01*
X1373644Y1508182D01*
X1371649Y1506651D01*
X1370118Y1504656D01*
X1369156Y1502333D01*
X1368828Y1499840D01*
X1369156Y1497347D01*
X1370118Y1495024D01*
X1371649Y1493029D01*
X1373644Y1491498D01*
X1375967Y1490536D01*
X1378460Y1490208D01*
X1380953Y1490536D01*
X1383276Y1491498D01*
X1385271Y1493029D01*
X1386802Y1495024D01*
X1387764Y1497347D01*
X1388092Y1499840D01*
X1387764Y1502333D01*
X1386802Y1504656D01*
X1385271Y1506651D01*
X1383276Y1508182D01*
X1380953Y1509144D01*
X1378460Y1509472D01*
D02*
G37*
G36*
X1353060D02*
X1350567Y1509144D01*
X1348244Y1508182D01*
X1346249Y1506651D01*
X1344718Y1504656D01*
X1343756Y1502333D01*
X1343428Y1499840D01*
X1343756Y1497347D01*
X1344718Y1495024D01*
X1346249Y1493029D01*
X1348244Y1491498D01*
X1350567Y1490536D01*
X1353060Y1490208D01*
X1355553Y1490536D01*
X1357876Y1491498D01*
X1359871Y1493029D01*
X1361402Y1495024D01*
X1362364Y1497347D01*
X1362692Y1499840D01*
X1362364Y1502333D01*
X1361402Y1504656D01*
X1359871Y1506651D01*
X1357876Y1508182D01*
X1355553Y1509144D01*
X1353060Y1509472D01*
D02*
G37*
G36*
X1327660D02*
X1325167Y1509144D01*
X1322844Y1508182D01*
X1320849Y1506651D01*
X1319318Y1504656D01*
X1318356Y1502333D01*
X1318028Y1499840D01*
X1318356Y1497347D01*
X1319318Y1495024D01*
X1320849Y1493029D01*
X1322844Y1491498D01*
X1325167Y1490536D01*
X1327660Y1490208D01*
X1330153Y1490536D01*
X1332476Y1491498D01*
X1334471Y1493029D01*
X1336002Y1495024D01*
X1336964Y1497347D01*
X1337292Y1499840D01*
X1336964Y1502333D01*
X1336002Y1504656D01*
X1334471Y1506651D01*
X1332476Y1508182D01*
X1330153Y1509144D01*
X1327660Y1509472D01*
D02*
G37*
G36*
X1642974Y1498570D02*
X1633730D01*
Y1489326D01*
X1635224Y1489523D01*
X1637801Y1490590D01*
X1640013Y1492287D01*
X1641710Y1494499D01*
X1642777Y1497076D01*
X1642974Y1498570D01*
D02*
G37*
G36*
X1631190D02*
X1621946D01*
X1622143Y1497076D01*
X1623210Y1494499D01*
X1624907Y1492287D01*
X1627119Y1490590D01*
X1629695Y1489523D01*
X1631190Y1489326D01*
Y1498570D01*
D02*
G37*
G36*
X953591D02*
X942380D01*
Y1487359D01*
X944384Y1487623D01*
X947434Y1488886D01*
X950054Y1490896D01*
X952064Y1493516D01*
X953327Y1496566D01*
X953591Y1498570D01*
D02*
G37*
G36*
X939840D02*
X928629D01*
X928893Y1496566D01*
X930156Y1493516D01*
X932166Y1490896D01*
X934786Y1488886D01*
X937836Y1487623D01*
X939840Y1487359D01*
Y1498570D01*
D02*
G37*
G36*
X1633730Y1484954D02*
Y1475710D01*
X1642974D01*
X1642777Y1477204D01*
X1641710Y1479781D01*
X1640013Y1481993D01*
X1637801Y1483690D01*
X1635224Y1484757D01*
X1633730Y1484954D01*
D02*
G37*
G36*
X1631190D02*
X1629695Y1484757D01*
X1627119Y1483690D01*
X1624907Y1481993D01*
X1623210Y1479781D01*
X1622143Y1477204D01*
X1621946Y1475710D01*
X1631190D01*
Y1484954D01*
D02*
G37*
G36*
X1718210Y1483990D02*
X1699110D01*
Y1464890D01*
X1718210D01*
Y1483990D01*
D02*
G37*
G36*
X1657860Y1484072D02*
X1655367Y1483744D01*
X1653044Y1482782D01*
X1651049Y1481251D01*
X1649518Y1479256D01*
X1648556Y1476933D01*
X1648228Y1474440D01*
X1648556Y1471947D01*
X1649518Y1469624D01*
X1651049Y1467629D01*
X1653044Y1466098D01*
X1655367Y1465136D01*
X1657860Y1464808D01*
X1660353Y1465136D01*
X1662676Y1466098D01*
X1664671Y1467629D01*
X1666202Y1469624D01*
X1667164Y1471947D01*
X1667492Y1474440D01*
X1667164Y1476933D01*
X1666202Y1479256D01*
X1664671Y1481251D01*
X1662676Y1482782D01*
X1660353Y1483744D01*
X1657860Y1484072D01*
D02*
G37*
G36*
X1607060D02*
X1604567Y1483744D01*
X1602244Y1482782D01*
X1600249Y1481251D01*
X1598718Y1479256D01*
X1597756Y1476933D01*
X1597428Y1474440D01*
X1597756Y1471947D01*
X1598718Y1469624D01*
X1600249Y1467629D01*
X1602244Y1466098D01*
X1604567Y1465136D01*
X1607060Y1464808D01*
X1609553Y1465136D01*
X1611876Y1466098D01*
X1613871Y1467629D01*
X1615402Y1469624D01*
X1616364Y1471947D01*
X1616692Y1474440D01*
X1616364Y1476933D01*
X1615402Y1479256D01*
X1613871Y1481251D01*
X1611876Y1482782D01*
X1609553Y1483744D01*
X1607060Y1484072D01*
D02*
G37*
G36*
X1581660D02*
X1579167Y1483744D01*
X1576844Y1482782D01*
X1574849Y1481251D01*
X1573318Y1479256D01*
X1572356Y1476933D01*
X1572028Y1474440D01*
X1572356Y1471947D01*
X1573318Y1469624D01*
X1574849Y1467629D01*
X1576844Y1466098D01*
X1579167Y1465136D01*
X1581660Y1464808D01*
X1584153Y1465136D01*
X1586476Y1466098D01*
X1588471Y1467629D01*
X1590002Y1469624D01*
X1590964Y1471947D01*
X1591292Y1474440D01*
X1590964Y1476933D01*
X1590002Y1479256D01*
X1588471Y1481251D01*
X1586476Y1482782D01*
X1584153Y1483744D01*
X1581660Y1484072D01*
D02*
G37*
G36*
X1556260D02*
X1553767Y1483744D01*
X1551444Y1482782D01*
X1549449Y1481251D01*
X1547918Y1479256D01*
X1546956Y1476933D01*
X1546628Y1474440D01*
X1546956Y1471947D01*
X1547918Y1469624D01*
X1549449Y1467629D01*
X1551444Y1466098D01*
X1553767Y1465136D01*
X1556260Y1464808D01*
X1558753Y1465136D01*
X1561076Y1466098D01*
X1563071Y1467629D01*
X1564602Y1469624D01*
X1565564Y1471947D01*
X1565892Y1474440D01*
X1565564Y1476933D01*
X1564602Y1479256D01*
X1563071Y1481251D01*
X1561076Y1482782D01*
X1558753Y1483744D01*
X1556260Y1484072D01*
D02*
G37*
G36*
X1530860D02*
X1528367Y1483744D01*
X1526044Y1482782D01*
X1524049Y1481251D01*
X1522518Y1479256D01*
X1521556Y1476933D01*
X1521228Y1474440D01*
X1521556Y1471947D01*
X1522518Y1469624D01*
X1524049Y1467629D01*
X1526044Y1466098D01*
X1528367Y1465136D01*
X1530860Y1464808D01*
X1533353Y1465136D01*
X1535676Y1466098D01*
X1537671Y1467629D01*
X1539202Y1469624D01*
X1540164Y1471947D01*
X1540492Y1474440D01*
X1540164Y1476933D01*
X1539202Y1479256D01*
X1537671Y1481251D01*
X1535676Y1482782D01*
X1533353Y1483744D01*
X1530860Y1484072D01*
D02*
G37*
G36*
X1505460D02*
X1502967Y1483744D01*
X1500644Y1482782D01*
X1498649Y1481251D01*
X1497118Y1479256D01*
X1496156Y1476933D01*
X1495828Y1474440D01*
X1496156Y1471947D01*
X1497118Y1469624D01*
X1498649Y1467629D01*
X1500644Y1466098D01*
X1502967Y1465136D01*
X1505460Y1464808D01*
X1507953Y1465136D01*
X1510276Y1466098D01*
X1512271Y1467629D01*
X1513802Y1469624D01*
X1514764Y1471947D01*
X1515092Y1474440D01*
X1514764Y1476933D01*
X1513802Y1479256D01*
X1512271Y1481251D01*
X1510276Y1482782D01*
X1507953Y1483744D01*
X1505460Y1484072D01*
D02*
G37*
G36*
X1480060D02*
X1477567Y1483744D01*
X1475244Y1482782D01*
X1473249Y1481251D01*
X1471718Y1479256D01*
X1470756Y1476933D01*
X1470428Y1474440D01*
X1470756Y1471947D01*
X1471718Y1469624D01*
X1473249Y1467629D01*
X1475244Y1466098D01*
X1477567Y1465136D01*
X1480060Y1464808D01*
X1482553Y1465136D01*
X1484876Y1466098D01*
X1486871Y1467629D01*
X1488402Y1469624D01*
X1489364Y1471947D01*
X1489692Y1474440D01*
X1489364Y1476933D01*
X1488402Y1479256D01*
X1486871Y1481251D01*
X1484876Y1482782D01*
X1482553Y1483744D01*
X1480060Y1484072D01*
D02*
G37*
G36*
X1454660D02*
X1452167Y1483744D01*
X1449844Y1482782D01*
X1447849Y1481251D01*
X1446318Y1479256D01*
X1445356Y1476933D01*
X1445028Y1474440D01*
X1445356Y1471947D01*
X1446318Y1469624D01*
X1447849Y1467629D01*
X1449844Y1466098D01*
X1452167Y1465136D01*
X1454660Y1464808D01*
X1457153Y1465136D01*
X1459476Y1466098D01*
X1461471Y1467629D01*
X1463002Y1469624D01*
X1463964Y1471947D01*
X1464292Y1474440D01*
X1463964Y1476933D01*
X1463002Y1479256D01*
X1461471Y1481251D01*
X1459476Y1482782D01*
X1457153Y1483744D01*
X1454660Y1484072D01*
D02*
G37*
G36*
X1429260D02*
X1426767Y1483744D01*
X1424444Y1482782D01*
X1422449Y1481251D01*
X1420918Y1479256D01*
X1419956Y1476933D01*
X1419628Y1474440D01*
X1419956Y1471947D01*
X1420918Y1469624D01*
X1422449Y1467629D01*
X1424444Y1466098D01*
X1426767Y1465136D01*
X1429260Y1464808D01*
X1431753Y1465136D01*
X1434076Y1466098D01*
X1436071Y1467629D01*
X1437602Y1469624D01*
X1438564Y1471947D01*
X1438892Y1474440D01*
X1438564Y1476933D01*
X1437602Y1479256D01*
X1436071Y1481251D01*
X1434076Y1482782D01*
X1431753Y1483744D01*
X1429260Y1484072D01*
D02*
G37*
G36*
X1403860D02*
X1401367Y1483744D01*
X1399044Y1482782D01*
X1397049Y1481251D01*
X1395518Y1479256D01*
X1394556Y1476933D01*
X1394228Y1474440D01*
X1394556Y1471947D01*
X1395518Y1469624D01*
X1397049Y1467629D01*
X1399044Y1466098D01*
X1401367Y1465136D01*
X1403860Y1464808D01*
X1406353Y1465136D01*
X1408676Y1466098D01*
X1410671Y1467629D01*
X1412202Y1469624D01*
X1413164Y1471947D01*
X1413492Y1474440D01*
X1413164Y1476933D01*
X1412202Y1479256D01*
X1410671Y1481251D01*
X1408676Y1482782D01*
X1406353Y1483744D01*
X1403860Y1484072D01*
D02*
G37*
G36*
X1378460D02*
X1375967Y1483744D01*
X1373644Y1482782D01*
X1371649Y1481251D01*
X1370118Y1479256D01*
X1369156Y1476933D01*
X1368828Y1474440D01*
X1369156Y1471947D01*
X1370118Y1469624D01*
X1371649Y1467629D01*
X1373644Y1466098D01*
X1375967Y1465136D01*
X1378460Y1464808D01*
X1380953Y1465136D01*
X1383276Y1466098D01*
X1385271Y1467629D01*
X1386802Y1469624D01*
X1387764Y1471947D01*
X1388092Y1474440D01*
X1387764Y1476933D01*
X1386802Y1479256D01*
X1385271Y1481251D01*
X1383276Y1482782D01*
X1380953Y1483744D01*
X1378460Y1484072D01*
D02*
G37*
G36*
X1353060D02*
X1350567Y1483744D01*
X1348244Y1482782D01*
X1346249Y1481251D01*
X1344718Y1479256D01*
X1343756Y1476933D01*
X1343428Y1474440D01*
X1343756Y1471947D01*
X1344718Y1469624D01*
X1346249Y1467629D01*
X1348244Y1466098D01*
X1350567Y1465136D01*
X1353060Y1464808D01*
X1355553Y1465136D01*
X1357876Y1466098D01*
X1359871Y1467629D01*
X1361402Y1469624D01*
X1362364Y1471947D01*
X1362692Y1474440D01*
X1362364Y1476933D01*
X1361402Y1479256D01*
X1359871Y1481251D01*
X1357876Y1482782D01*
X1355553Y1483744D01*
X1353060Y1484072D01*
D02*
G37*
G36*
X1327660D02*
X1325167Y1483744D01*
X1322844Y1482782D01*
X1320849Y1481251D01*
X1319318Y1479256D01*
X1318356Y1476933D01*
X1318028Y1474440D01*
X1318356Y1471947D01*
X1319318Y1469624D01*
X1320849Y1467629D01*
X1322844Y1466098D01*
X1325167Y1465136D01*
X1327660Y1464808D01*
X1330153Y1465136D01*
X1332476Y1466098D01*
X1334471Y1467629D01*
X1336002Y1469624D01*
X1336964Y1471947D01*
X1337292Y1474440D01*
X1336964Y1476933D01*
X1336002Y1479256D01*
X1334471Y1481251D01*
X1332476Y1482782D01*
X1330153Y1483744D01*
X1327660Y1484072D01*
D02*
G37*
G36*
X1642974Y1473170D02*
X1633730D01*
Y1463926D01*
X1635224Y1464123D01*
X1637801Y1465190D01*
X1640013Y1466887D01*
X1641710Y1469099D01*
X1642777Y1471676D01*
X1642974Y1473170D01*
D02*
G37*
G36*
X1631190D02*
X1621946D01*
X1622143Y1471676D01*
X1623210Y1469099D01*
X1624907Y1466887D01*
X1627119Y1465190D01*
X1629695Y1464123D01*
X1631190Y1463926D01*
Y1473170D01*
D02*
G37*
G36*
X1746760Y1471826D02*
X1744149Y1471483D01*
X1741717Y1470475D01*
X1739628Y1468872D01*
X1738025Y1466783D01*
X1737017Y1464350D01*
X1736674Y1461740D01*
X1737017Y1459129D01*
X1738025Y1456697D01*
X1739628Y1454608D01*
X1741717Y1453005D01*
X1744149Y1451997D01*
X1746760Y1451654D01*
X1749371Y1451997D01*
X1751803Y1453005D01*
X1753892Y1454608D01*
X1755495Y1456697D01*
X1756503Y1459129D01*
X1756846Y1461740D01*
X1756503Y1464350D01*
X1755495Y1466783D01*
X1753892Y1468872D01*
X1751803Y1470475D01*
X1749371Y1471483D01*
X1746760Y1471826D01*
D02*
G37*
G36*
X1264160D02*
X1261550Y1471483D01*
X1259117Y1470475D01*
X1257028Y1468872D01*
X1255425Y1466783D01*
X1254417Y1464350D01*
X1254074Y1461740D01*
X1254417Y1459129D01*
X1255425Y1456697D01*
X1257028Y1454608D01*
X1259117Y1453005D01*
X1261550Y1451997D01*
X1264160Y1451654D01*
X1266770Y1451997D01*
X1269203Y1453005D01*
X1271292Y1454608D01*
X1272895Y1456697D01*
X1273903Y1459129D01*
X1274246Y1461740D01*
X1273903Y1464350D01*
X1272895Y1466783D01*
X1271292Y1468872D01*
X1269203Y1470475D01*
X1266770Y1471483D01*
X1264160Y1471826D01*
D02*
G37*
G36*
X942380Y1410721D02*
Y1399510D01*
X953591D01*
X953327Y1401514D01*
X952064Y1404564D01*
X950054Y1407184D01*
X947434Y1409194D01*
X944384Y1410457D01*
X942380Y1410721D01*
D02*
G37*
G36*
X939840D02*
X937836Y1410457D01*
X934786Y1409194D01*
X932166Y1407184D01*
X930156Y1404564D01*
X928893Y1401514D01*
X928629Y1399510D01*
X939840D01*
Y1410721D01*
D02*
G37*
G36*
X953591Y1396970D02*
X942380D01*
Y1385759D01*
X944384Y1386023D01*
X947434Y1387286D01*
X950054Y1389296D01*
X952064Y1391916D01*
X953327Y1394966D01*
X953591Y1396970D01*
D02*
G37*
G36*
X939840D02*
X928629D01*
X928893Y1394966D01*
X930156Y1391916D01*
X932166Y1389296D01*
X934786Y1387286D01*
X937836Y1386023D01*
X939840Y1385759D01*
Y1396970D01*
D02*
G37*
G36*
X1161940Y1385534D02*
X1157460D01*
Y1381920D01*
X1166571D01*
X1166452Y1382519D01*
X1165393Y1384103D01*
X1163809Y1385162D01*
X1161940Y1385534D01*
D02*
G37*
G36*
X1154920D02*
X1150440D01*
X1148571Y1385162D01*
X1146987Y1384103D01*
X1145928Y1382519D01*
X1145809Y1381920D01*
X1154920D01*
Y1385534D01*
D02*
G37*
G36*
X1091110Y1587639D02*
X1088108Y1587244D01*
X1085310Y1586085D01*
X1082908Y1584242D01*
X1081065Y1581840D01*
X1079906Y1579042D01*
X1079511Y1576040D01*
X1079906Y1573038D01*
X1081065Y1570240D01*
X1082908Y1567838D01*
X1085310Y1565995D01*
X1088051Y1564859D01*
Y1511021D01*
X1085310Y1509885D01*
X1082908Y1508042D01*
X1081065Y1505640D01*
X1079906Y1502842D01*
X1079511Y1499840D01*
X1079906Y1496838D01*
X1081065Y1494040D01*
X1082908Y1491638D01*
X1085310Y1489795D01*
X1088051Y1488660D01*
Y1466642D01*
X1088051Y1466642D01*
X1088284Y1465471D01*
X1088947Y1464479D01*
X1170169Y1383257D01*
Y1359883D01*
X1167995Y1357709D01*
X1164926D01*
X1164594Y1358276D01*
X1164398Y1358979D01*
X1165001Y1359882D01*
X1165254Y1361150D01*
X1165001Y1362418D01*
X1164283Y1363493D01*
X1164069Y1363636D01*
Y1365164D01*
X1164283Y1365307D01*
X1165001Y1366382D01*
X1165254Y1367650D01*
X1165001Y1368918D01*
X1164283Y1369993D01*
X1164069Y1370136D01*
Y1371664D01*
X1164283Y1371807D01*
X1165001Y1372882D01*
X1165254Y1374150D01*
X1165001Y1375418D01*
X1164301Y1376467D01*
X1165393Y1377197D01*
X1166452Y1378781D01*
X1166571Y1379380D01*
X1156190D01*
X1145809D01*
X1145928Y1378781D01*
X1146987Y1377197D01*
X1148079Y1376467D01*
X1147379Y1375418D01*
X1147126Y1374150D01*
X1147379Y1372882D01*
X1148097Y1371807D01*
X1148311Y1371664D01*
Y1370136D01*
X1148097Y1369993D01*
X1147379Y1368918D01*
X1147126Y1367650D01*
X1147379Y1366382D01*
X1148097Y1365307D01*
X1148191Y1365244D01*
X1147805Y1363974D01*
X1145448D01*
X1118140Y1391282D01*
Y1423894D01*
X1117925Y1424975D01*
X1117313Y1425891D01*
X1117313Y1425891D01*
X1050291Y1492914D01*
X1051155Y1494040D01*
X1052314Y1496838D01*
X1052709Y1499840D01*
X1052314Y1502842D01*
X1051155Y1505640D01*
X1049312Y1508042D01*
X1046910Y1509885D01*
X1044112Y1511044D01*
X1043934Y1511067D01*
Y1564813D01*
X1044112Y1564836D01*
X1046910Y1565995D01*
X1049312Y1567838D01*
X1051155Y1570240D01*
X1052314Y1573038D01*
X1052709Y1576040D01*
X1052314Y1579042D01*
X1051155Y1581840D01*
X1049312Y1584242D01*
X1046910Y1586085D01*
X1044112Y1587244D01*
X1041110Y1587639D01*
X1038108Y1587244D01*
X1035310Y1586085D01*
X1032908Y1584242D01*
X1031065Y1581840D01*
X1029906Y1579042D01*
X1029511Y1576040D01*
X1029906Y1573038D01*
X1031065Y1570240D01*
X1032908Y1567838D01*
X1035310Y1565995D01*
X1038108Y1564836D01*
X1038286Y1564813D01*
Y1511067D01*
X1038108Y1511044D01*
X1035310Y1509885D01*
X1032908Y1508042D01*
X1031065Y1505640D01*
X1029906Y1502842D01*
X1029511Y1499840D01*
X1029906Y1496838D01*
X1031065Y1494040D01*
X1032908Y1491638D01*
X1035310Y1489795D01*
X1038108Y1488636D01*
X1041110Y1488241D01*
X1044112Y1488636D01*
X1045857Y1489359D01*
X1112492Y1422724D01*
Y1390112D01*
X1112492Y1390112D01*
X1112707Y1389031D01*
X1113319Y1388115D01*
X1142281Y1359153D01*
X1142281Y1359153D01*
X1143197Y1358541D01*
X1144278Y1358326D01*
X1147805D01*
X1148191Y1357056D01*
X1148097Y1356993D01*
X1147379Y1355918D01*
X1147126Y1354650D01*
X1147379Y1353382D01*
X1148097Y1352307D01*
X1148191Y1352244D01*
X1147805Y1350974D01*
X1141684D01*
X1108996Y1383662D01*
Y1404590D01*
X1108996Y1404590D01*
X1108781Y1405671D01*
X1108169Y1406587D01*
X1108169Y1406587D01*
X1097755Y1417001D01*
X1096839Y1417613D01*
X1095758Y1417828D01*
X1095758Y1417828D01*
X1057874D01*
X1057874Y1417828D01*
X1056793Y1417613D01*
X1055877Y1417001D01*
X1047052Y1408176D01*
X1046910Y1408285D01*
X1044112Y1409444D01*
X1041110Y1409839D01*
X1038108Y1409444D01*
X1035310Y1408285D01*
X1032908Y1406442D01*
X1031065Y1404040D01*
X1029906Y1401242D01*
X1029511Y1398240D01*
X1029906Y1395238D01*
X1031065Y1392440D01*
X1032908Y1390038D01*
X1035310Y1388195D01*
X1038108Y1387036D01*
X1038286Y1387013D01*
Y1333267D01*
X1038108Y1333244D01*
X1035310Y1332085D01*
X1032908Y1330242D01*
X1031065Y1327840D01*
X1029906Y1325042D01*
X1029511Y1322040D01*
X1029906Y1319038D01*
X1031065Y1316240D01*
X1032908Y1313838D01*
X1035310Y1311995D01*
X1038108Y1310836D01*
X1041110Y1310441D01*
X1044112Y1310836D01*
X1046910Y1311995D01*
X1049312Y1313838D01*
X1051155Y1316240D01*
X1052314Y1319038D01*
X1052709Y1322040D01*
X1052314Y1325042D01*
X1051155Y1327840D01*
X1049312Y1330242D01*
X1046910Y1332085D01*
X1044112Y1333244D01*
X1043934Y1333267D01*
Y1387013D01*
X1044112Y1387036D01*
X1046910Y1388195D01*
X1049312Y1390038D01*
X1051155Y1392440D01*
X1052314Y1395238D01*
X1052709Y1398240D01*
X1052314Y1401242D01*
X1051155Y1404040D01*
X1051046Y1404182D01*
X1059044Y1412180D01*
X1094588D01*
X1097248Y1409520D01*
X1096529Y1408443D01*
X1094112Y1409444D01*
X1091110Y1409839D01*
X1088108Y1409444D01*
X1085310Y1408285D01*
X1082908Y1406442D01*
X1081065Y1404040D01*
X1079906Y1401242D01*
X1079511Y1398240D01*
X1079906Y1395238D01*
X1081065Y1392440D01*
X1082908Y1390038D01*
X1085310Y1388195D01*
X1088108Y1387036D01*
X1088286Y1387013D01*
Y1333267D01*
X1088108Y1333244D01*
X1085310Y1332085D01*
X1082908Y1330242D01*
X1081065Y1327840D01*
X1079906Y1325042D01*
X1079511Y1322040D01*
X1079906Y1319038D01*
X1081065Y1316240D01*
X1082908Y1313838D01*
X1085310Y1311995D01*
X1088108Y1310836D01*
X1091110Y1310441D01*
X1094112Y1310836D01*
X1096910Y1311995D01*
X1099312Y1313838D01*
X1101155Y1316240D01*
X1102314Y1319038D01*
X1102709Y1322040D01*
X1102314Y1325042D01*
X1101155Y1327840D01*
X1101046Y1327982D01*
X1111890Y1338826D01*
X1140154D01*
X1140502Y1337556D01*
X1139891Y1337147D01*
X1040929Y1238185D01*
X1040317Y1237269D01*
X1040102Y1236188D01*
X1040102Y1236188D01*
Y1232012D01*
X1037308Y1231644D01*
X1034510Y1230485D01*
X1032108Y1228642D01*
X1030265Y1226240D01*
X1029106Y1223442D01*
X1028711Y1220440D01*
X1029106Y1217438D01*
X1030265Y1214640D01*
X1032108Y1212238D01*
X1034510Y1210395D01*
X1037308Y1209236D01*
X1037486Y1209213D01*
Y1155467D01*
X1037308Y1155444D01*
X1034510Y1154285D01*
X1032108Y1152442D01*
X1030265Y1150040D01*
X1029106Y1147242D01*
X1028711Y1144240D01*
X1029106Y1141238D01*
X1030265Y1138440D01*
X1032108Y1136038D01*
X1034510Y1134195D01*
X1037308Y1133036D01*
X1040310Y1132641D01*
X1043312Y1133036D01*
X1046110Y1134195D01*
X1048512Y1136038D01*
X1050355Y1138440D01*
X1051514Y1141238D01*
X1051909Y1144240D01*
X1051514Y1147242D01*
X1050355Y1150040D01*
X1048512Y1152442D01*
X1046110Y1154285D01*
X1043312Y1155444D01*
X1043134Y1155467D01*
Y1209213D01*
X1043312Y1209236D01*
X1046110Y1210395D01*
X1048512Y1212238D01*
X1050355Y1214640D01*
X1051514Y1217438D01*
X1051909Y1220440D01*
X1051514Y1223442D01*
X1050355Y1226240D01*
X1048512Y1228642D01*
X1046110Y1230485D01*
X1045750Y1230634D01*
Y1235018D01*
X1143058Y1332326D01*
X1144379D01*
X1144765Y1331056D01*
X1144401Y1330813D01*
X1088147Y1274559D01*
X1087484Y1273567D01*
X1087251Y1272396D01*
X1087251Y1272396D01*
Y1231620D01*
X1084510Y1230485D01*
X1082108Y1228642D01*
X1080265Y1226240D01*
X1079106Y1223442D01*
X1078711Y1220440D01*
X1079106Y1217438D01*
X1080265Y1214640D01*
X1082108Y1212238D01*
X1084510Y1210395D01*
X1087251Y1209259D01*
Y1155421D01*
X1084510Y1154285D01*
X1082108Y1152442D01*
X1080265Y1150040D01*
X1079106Y1147242D01*
X1078711Y1144240D01*
X1079106Y1141238D01*
X1080265Y1138440D01*
X1082108Y1136038D01*
X1084510Y1134195D01*
X1087308Y1133036D01*
X1090310Y1132641D01*
X1093312Y1133036D01*
X1096110Y1134195D01*
X1098512Y1136038D01*
X1100355Y1138440D01*
X1101514Y1141238D01*
X1101909Y1144240D01*
X1101514Y1147242D01*
X1100355Y1150040D01*
X1098512Y1152442D01*
X1096110Y1154285D01*
X1093369Y1155421D01*
Y1209259D01*
X1096110Y1210395D01*
X1098512Y1212238D01*
X1100355Y1214640D01*
X1101514Y1217438D01*
X1101909Y1220440D01*
X1101514Y1223442D01*
X1100355Y1226240D01*
X1098512Y1228642D01*
X1096110Y1230485D01*
X1093369Y1231620D01*
Y1271129D01*
X1145981Y1323741D01*
X1147304Y1323399D01*
X1147360Y1323324D01*
X1147126Y1322150D01*
X1147379Y1320882D01*
X1148079Y1319834D01*
X1146987Y1319103D01*
X1145928Y1317519D01*
X1145809Y1316920D01*
X1156190D01*
X1166571D01*
X1166452Y1317519D01*
X1166307Y1317736D01*
X1166900Y1318928D01*
X1167923Y1319033D01*
X1169866Y1317090D01*
Y1291650D01*
X1164940D01*
Y1271150D01*
X1180440D01*
Y1291650D01*
X1175514D01*
Y1318260D01*
X1175514Y1318260D01*
X1175299Y1319341D01*
X1174687Y1320257D01*
X1174687Y1320257D01*
X1170797Y1324147D01*
X1169881Y1324759D01*
X1168800Y1324974D01*
X1168800Y1324974D01*
X1164575D01*
X1164189Y1326244D01*
X1164283Y1326307D01*
X1165001Y1327382D01*
X1165254Y1328650D01*
X1165001Y1329918D01*
X1164283Y1330993D01*
X1164069Y1331136D01*
Y1332664D01*
X1164283Y1332807D01*
X1165001Y1333882D01*
X1165254Y1335150D01*
X1165001Y1336418D01*
X1164283Y1337493D01*
X1164069Y1337636D01*
Y1339164D01*
X1164283Y1339307D01*
X1165001Y1340382D01*
X1165254Y1341650D01*
X1165001Y1342918D01*
X1164283Y1343993D01*
X1164069Y1344136D01*
Y1345664D01*
X1164283Y1345807D01*
X1165001Y1346882D01*
X1165254Y1348150D01*
X1165001Y1349418D01*
X1164398Y1350321D01*
X1164594Y1351024D01*
X1164926Y1351591D01*
X1169262D01*
X1169262Y1351591D01*
X1170433Y1351824D01*
X1171425Y1352487D01*
X1175391Y1356453D01*
X1175391Y1356453D01*
X1176054Y1357446D01*
X1176287Y1358616D01*
X1176287Y1358616D01*
Y1384524D01*
X1176054Y1385694D01*
X1175391Y1386687D01*
X1094169Y1467909D01*
Y1488660D01*
X1096910Y1489795D01*
X1099312Y1491638D01*
X1101155Y1494040D01*
X1102314Y1496838D01*
X1102709Y1499840D01*
X1102314Y1502842D01*
X1101155Y1505640D01*
X1099312Y1508042D01*
X1096910Y1509885D01*
X1094169Y1511021D01*
Y1564859D01*
X1096910Y1565995D01*
X1099312Y1567838D01*
X1101155Y1570240D01*
X1102314Y1573038D01*
X1102709Y1576040D01*
X1102314Y1579042D01*
X1101155Y1581840D01*
X1099312Y1584242D01*
X1096910Y1586085D01*
X1094112Y1587244D01*
X1091110Y1587639D01*
D02*
G37*
G36*
X942380Y1334521D02*
Y1323310D01*
X953591D01*
X953327Y1325314D01*
X952064Y1328364D01*
X950054Y1330984D01*
X947434Y1332994D01*
X944384Y1334257D01*
X942380Y1334521D01*
D02*
G37*
G36*
X939840D02*
X937836Y1334257D01*
X934786Y1332994D01*
X932166Y1330984D01*
X930156Y1328364D01*
X928893Y1325314D01*
X928629Y1323310D01*
X939840D01*
Y1334521D01*
D02*
G37*
G36*
X1166571Y1314380D02*
X1156190D01*
X1145809D01*
X1145928Y1313781D01*
X1146851Y1312400D01*
X1145928Y1311019D01*
X1145809Y1310420D01*
X1156190D01*
X1166571D01*
X1166452Y1311019D01*
X1165529Y1312400D01*
X1166452Y1313781D01*
X1166571Y1314380D01*
D02*
G37*
G36*
X953591Y1320770D02*
X942380D01*
Y1309559D01*
X944384Y1309823D01*
X947434Y1311086D01*
X950054Y1313096D01*
X952064Y1315716D01*
X953327Y1318766D01*
X953591Y1320770D01*
D02*
G37*
G36*
X939840D02*
X928629D01*
X928893Y1318766D01*
X930156Y1315716D01*
X932166Y1313096D01*
X934786Y1311086D01*
X937836Y1309823D01*
X939840Y1309559D01*
Y1320770D01*
D02*
G37*
G36*
X1166571Y1307880D02*
X1157460D01*
Y1304266D01*
X1161940D01*
X1163809Y1304638D01*
X1165393Y1305697D01*
X1166452Y1307281D01*
X1166571Y1307880D01*
D02*
G37*
G36*
X1154920D02*
X1145809D01*
X1145928Y1307281D01*
X1146987Y1305697D01*
X1148571Y1304638D01*
X1150440Y1304266D01*
X1154920D01*
Y1307880D01*
D02*
G37*
G36*
X1746760Y1268626D02*
X1744149Y1268283D01*
X1741717Y1267275D01*
X1739628Y1265672D01*
X1738025Y1263583D01*
X1737017Y1261151D01*
X1736674Y1258540D01*
X1737017Y1255929D01*
X1738025Y1253497D01*
X1739628Y1251408D01*
X1741717Y1249805D01*
X1744149Y1248797D01*
X1746760Y1248454D01*
X1749371Y1248797D01*
X1751803Y1249805D01*
X1753892Y1251408D01*
X1755495Y1253497D01*
X1756503Y1255929D01*
X1756846Y1258540D01*
X1756503Y1261151D01*
X1755495Y1263583D01*
X1753892Y1265672D01*
X1751803Y1267275D01*
X1749371Y1268283D01*
X1746760Y1268626D01*
D02*
G37*
G36*
X1264160D02*
X1261550Y1268283D01*
X1259117Y1267275D01*
X1257028Y1265672D01*
X1255425Y1263583D01*
X1254417Y1261151D01*
X1254074Y1258540D01*
X1254417Y1255929D01*
X1255425Y1253497D01*
X1257028Y1251408D01*
X1259117Y1249805D01*
X1261550Y1248797D01*
X1264160Y1248454D01*
X1266770Y1248797D01*
X1269203Y1249805D01*
X1271292Y1251408D01*
X1272895Y1253497D01*
X1273903Y1255929D01*
X1274246Y1258540D01*
X1273903Y1261151D01*
X1272895Y1263583D01*
X1271292Y1265672D01*
X1269203Y1267275D01*
X1266770Y1268283D01*
X1264160Y1268626D01*
D02*
G37*
G36*
X1616610Y1255390D02*
X1597510D01*
Y1236290D01*
X1616610D01*
Y1255390D01*
D02*
G37*
G36*
X1581660Y1255472D02*
X1579167Y1255144D01*
X1576844Y1254182D01*
X1574849Y1252651D01*
X1573318Y1250656D01*
X1572356Y1248333D01*
X1572028Y1245840D01*
X1572356Y1243347D01*
X1573318Y1241024D01*
X1574849Y1239029D01*
X1576844Y1237498D01*
X1579167Y1236536D01*
X1581660Y1236208D01*
X1584153Y1236536D01*
X1586476Y1237498D01*
X1588471Y1239029D01*
X1590002Y1241024D01*
X1590964Y1243347D01*
X1591292Y1245840D01*
X1590964Y1248333D01*
X1590002Y1250656D01*
X1588471Y1252651D01*
X1586476Y1254182D01*
X1584153Y1255144D01*
X1581660Y1255472D01*
D02*
G37*
G36*
X1556260D02*
X1553767Y1255144D01*
X1551444Y1254182D01*
X1549449Y1252651D01*
X1547918Y1250656D01*
X1546956Y1248333D01*
X1546628Y1245840D01*
X1546956Y1243347D01*
X1547918Y1241024D01*
X1549449Y1239029D01*
X1551444Y1237498D01*
X1553767Y1236536D01*
X1556260Y1236208D01*
X1558753Y1236536D01*
X1561076Y1237498D01*
X1563071Y1239029D01*
X1564602Y1241024D01*
X1565564Y1243347D01*
X1565892Y1245840D01*
X1565564Y1248333D01*
X1564602Y1250656D01*
X1563071Y1252651D01*
X1561076Y1254182D01*
X1558753Y1255144D01*
X1556260Y1255472D01*
D02*
G37*
G36*
X1530860D02*
X1528367Y1255144D01*
X1526044Y1254182D01*
X1524049Y1252651D01*
X1522518Y1250656D01*
X1521556Y1248333D01*
X1521228Y1245840D01*
X1521556Y1243347D01*
X1522518Y1241024D01*
X1524049Y1239029D01*
X1526044Y1237498D01*
X1528367Y1236536D01*
X1530860Y1236208D01*
X1533353Y1236536D01*
X1535676Y1237498D01*
X1537671Y1239029D01*
X1539202Y1241024D01*
X1540164Y1243347D01*
X1540492Y1245840D01*
X1540164Y1248333D01*
X1539202Y1250656D01*
X1537671Y1252651D01*
X1535676Y1254182D01*
X1533353Y1255144D01*
X1530860Y1255472D01*
D02*
G37*
G36*
X1505460D02*
X1502967Y1255144D01*
X1500644Y1254182D01*
X1498649Y1252651D01*
X1497118Y1250656D01*
X1496156Y1248333D01*
X1495828Y1245840D01*
X1496156Y1243347D01*
X1497118Y1241024D01*
X1498649Y1239029D01*
X1500644Y1237498D01*
X1502967Y1236536D01*
X1505460Y1236208D01*
X1507953Y1236536D01*
X1510276Y1237498D01*
X1512271Y1239029D01*
X1513802Y1241024D01*
X1514764Y1243347D01*
X1515092Y1245840D01*
X1514764Y1248333D01*
X1513802Y1250656D01*
X1512271Y1252651D01*
X1510276Y1254182D01*
X1507953Y1255144D01*
X1505460Y1255472D01*
D02*
G37*
G36*
X1480060D02*
X1477567Y1255144D01*
X1475244Y1254182D01*
X1473249Y1252651D01*
X1471718Y1250656D01*
X1470756Y1248333D01*
X1470428Y1245840D01*
X1470756Y1243347D01*
X1471718Y1241024D01*
X1473249Y1239029D01*
X1475244Y1237498D01*
X1477567Y1236536D01*
X1480060Y1236208D01*
X1482553Y1236536D01*
X1484876Y1237498D01*
X1486871Y1239029D01*
X1488402Y1241024D01*
X1489364Y1243347D01*
X1489692Y1245840D01*
X1489364Y1248333D01*
X1488402Y1250656D01*
X1486871Y1252651D01*
X1484876Y1254182D01*
X1482553Y1255144D01*
X1480060Y1255472D01*
D02*
G37*
G36*
X1454660D02*
X1452167Y1255144D01*
X1449844Y1254182D01*
X1447849Y1252651D01*
X1446318Y1250656D01*
X1445356Y1248333D01*
X1445028Y1245840D01*
X1445356Y1243347D01*
X1446318Y1241024D01*
X1447849Y1239029D01*
X1449844Y1237498D01*
X1452167Y1236536D01*
X1454660Y1236208D01*
X1457153Y1236536D01*
X1459476Y1237498D01*
X1461471Y1239029D01*
X1463002Y1241024D01*
X1463964Y1243347D01*
X1464292Y1245840D01*
X1463964Y1248333D01*
X1463002Y1250656D01*
X1461471Y1252651D01*
X1459476Y1254182D01*
X1457153Y1255144D01*
X1454660Y1255472D01*
D02*
G37*
G36*
X1429260D02*
X1426767Y1255144D01*
X1424444Y1254182D01*
X1422449Y1252651D01*
X1420918Y1250656D01*
X1419956Y1248333D01*
X1419628Y1245840D01*
X1419956Y1243347D01*
X1420918Y1241024D01*
X1422449Y1239029D01*
X1424444Y1237498D01*
X1426767Y1236536D01*
X1429260Y1236208D01*
X1431753Y1236536D01*
X1434076Y1237498D01*
X1436071Y1239029D01*
X1437602Y1241024D01*
X1438564Y1243347D01*
X1438892Y1245840D01*
X1438564Y1248333D01*
X1437602Y1250656D01*
X1436071Y1252651D01*
X1434076Y1254182D01*
X1431753Y1255144D01*
X1429260Y1255472D01*
D02*
G37*
G36*
X1403860D02*
X1401367Y1255144D01*
X1399044Y1254182D01*
X1397049Y1252651D01*
X1395518Y1250656D01*
X1394556Y1248333D01*
X1394228Y1245840D01*
X1394556Y1243347D01*
X1395518Y1241024D01*
X1397049Y1239029D01*
X1399044Y1237498D01*
X1401367Y1236536D01*
X1403860Y1236208D01*
X1406353Y1236536D01*
X1408676Y1237498D01*
X1410671Y1239029D01*
X1412202Y1241024D01*
X1413164Y1243347D01*
X1413492Y1245840D01*
X1413164Y1248333D01*
X1412202Y1250656D01*
X1410671Y1252651D01*
X1408676Y1254182D01*
X1406353Y1255144D01*
X1403860Y1255472D01*
D02*
G37*
G36*
X1378460D02*
X1375967Y1255144D01*
X1373644Y1254182D01*
X1371649Y1252651D01*
X1370118Y1250656D01*
X1369156Y1248333D01*
X1368828Y1245840D01*
X1369156Y1243347D01*
X1370118Y1241024D01*
X1371649Y1239029D01*
X1373644Y1237498D01*
X1375967Y1236536D01*
X1378460Y1236208D01*
X1380953Y1236536D01*
X1383276Y1237498D01*
X1385271Y1239029D01*
X1386802Y1241024D01*
X1387764Y1243347D01*
X1388092Y1245840D01*
X1387764Y1248333D01*
X1386802Y1250656D01*
X1385271Y1252651D01*
X1383276Y1254182D01*
X1380953Y1255144D01*
X1378460Y1255472D01*
D02*
G37*
G36*
X941580Y1232921D02*
Y1221710D01*
X952791D01*
X952527Y1223714D01*
X951264Y1226764D01*
X949254Y1229384D01*
X946634Y1231394D01*
X943584Y1232657D01*
X941580Y1232921D01*
D02*
G37*
G36*
X939040D02*
X937036Y1232657D01*
X933986Y1231394D01*
X931366Y1229384D01*
X929356Y1226764D01*
X928093Y1223714D01*
X927829Y1221710D01*
X939040D01*
Y1232921D01*
D02*
G37*
G36*
X1616610Y1229990D02*
X1597510D01*
Y1210890D01*
X1616610D01*
Y1229990D01*
D02*
G37*
G36*
X1581660Y1230072D02*
X1579167Y1229744D01*
X1576844Y1228782D01*
X1574849Y1227251D01*
X1573318Y1225256D01*
X1572356Y1222933D01*
X1572028Y1220440D01*
X1572356Y1217947D01*
X1573318Y1215624D01*
X1574849Y1213629D01*
X1576844Y1212098D01*
X1579167Y1211136D01*
X1581660Y1210808D01*
X1584153Y1211136D01*
X1586476Y1212098D01*
X1588471Y1213629D01*
X1590002Y1215624D01*
X1590964Y1217947D01*
X1591292Y1220440D01*
X1590964Y1222933D01*
X1590002Y1225256D01*
X1588471Y1227251D01*
X1586476Y1228782D01*
X1584153Y1229744D01*
X1581660Y1230072D01*
D02*
G37*
G36*
X1556260D02*
X1553767Y1229744D01*
X1551444Y1228782D01*
X1549449Y1227251D01*
X1547918Y1225256D01*
X1546956Y1222933D01*
X1546628Y1220440D01*
X1546956Y1217947D01*
X1547918Y1215624D01*
X1549449Y1213629D01*
X1551444Y1212098D01*
X1553767Y1211136D01*
X1556260Y1210808D01*
X1558753Y1211136D01*
X1561076Y1212098D01*
X1563071Y1213629D01*
X1564602Y1215624D01*
X1565564Y1217947D01*
X1565892Y1220440D01*
X1565564Y1222933D01*
X1564602Y1225256D01*
X1563071Y1227251D01*
X1561076Y1228782D01*
X1558753Y1229744D01*
X1556260Y1230072D01*
D02*
G37*
G36*
X1530860D02*
X1528367Y1229744D01*
X1526044Y1228782D01*
X1524049Y1227251D01*
X1522518Y1225256D01*
X1521556Y1222933D01*
X1521228Y1220440D01*
X1521556Y1217947D01*
X1522518Y1215624D01*
X1524049Y1213629D01*
X1526044Y1212098D01*
X1528367Y1211136D01*
X1530860Y1210808D01*
X1533353Y1211136D01*
X1535676Y1212098D01*
X1537671Y1213629D01*
X1539202Y1215624D01*
X1540164Y1217947D01*
X1540492Y1220440D01*
X1540164Y1222933D01*
X1539202Y1225256D01*
X1537671Y1227251D01*
X1535676Y1228782D01*
X1533353Y1229744D01*
X1530860Y1230072D01*
D02*
G37*
G36*
X1505460D02*
X1502967Y1229744D01*
X1500644Y1228782D01*
X1498649Y1227251D01*
X1497118Y1225256D01*
X1496156Y1222933D01*
X1495828Y1220440D01*
X1496156Y1217947D01*
X1497118Y1215624D01*
X1498649Y1213629D01*
X1500644Y1212098D01*
X1502967Y1211136D01*
X1505460Y1210808D01*
X1507953Y1211136D01*
X1510276Y1212098D01*
X1512271Y1213629D01*
X1513802Y1215624D01*
X1514764Y1217947D01*
X1515092Y1220440D01*
X1514764Y1222933D01*
X1513802Y1225256D01*
X1512271Y1227251D01*
X1510276Y1228782D01*
X1507953Y1229744D01*
X1505460Y1230072D01*
D02*
G37*
G36*
X1480060D02*
X1477567Y1229744D01*
X1475244Y1228782D01*
X1473249Y1227251D01*
X1471718Y1225256D01*
X1470756Y1222933D01*
X1470428Y1220440D01*
X1470756Y1217947D01*
X1471718Y1215624D01*
X1473249Y1213629D01*
X1475244Y1212098D01*
X1477567Y1211136D01*
X1480060Y1210808D01*
X1482553Y1211136D01*
X1484876Y1212098D01*
X1486871Y1213629D01*
X1488402Y1215624D01*
X1489364Y1217947D01*
X1489692Y1220440D01*
X1489364Y1222933D01*
X1488402Y1225256D01*
X1486871Y1227251D01*
X1484876Y1228782D01*
X1482553Y1229744D01*
X1480060Y1230072D01*
D02*
G37*
G36*
X1378460D02*
X1375967Y1229744D01*
X1373644Y1228782D01*
X1371649Y1227251D01*
X1370118Y1225256D01*
X1369156Y1222933D01*
X1368828Y1220440D01*
X1369156Y1217947D01*
X1370118Y1215624D01*
X1371649Y1213629D01*
X1373644Y1212098D01*
X1375967Y1211136D01*
X1378460Y1210808D01*
X1380953Y1211136D01*
X1383276Y1212098D01*
X1385271Y1213629D01*
X1386802Y1215624D01*
X1387764Y1217947D01*
X1388092Y1220440D01*
X1387764Y1222933D01*
X1386802Y1225256D01*
X1385271Y1227251D01*
X1383276Y1228782D01*
X1380953Y1229744D01*
X1378460Y1230072D01*
D02*
G37*
G36*
X1353060D02*
X1350567Y1229744D01*
X1348244Y1228782D01*
X1346249Y1227251D01*
X1344718Y1225256D01*
X1343756Y1222933D01*
X1343428Y1220440D01*
X1343756Y1217947D01*
X1344718Y1215624D01*
X1346249Y1213629D01*
X1348244Y1212098D01*
X1350567Y1211136D01*
X1353060Y1210808D01*
X1355553Y1211136D01*
X1357876Y1212098D01*
X1359871Y1213629D01*
X1361402Y1215624D01*
X1362364Y1217947D01*
X1362692Y1220440D01*
X1362364Y1222933D01*
X1361402Y1225256D01*
X1359871Y1227251D01*
X1357876Y1228782D01*
X1355553Y1229744D01*
X1353060Y1230072D01*
D02*
G37*
G36*
X1327660D02*
X1325167Y1229744D01*
X1322844Y1228782D01*
X1320849Y1227251D01*
X1319318Y1225256D01*
X1318356Y1222933D01*
X1318028Y1220440D01*
X1318356Y1217947D01*
X1319318Y1215624D01*
X1320849Y1213629D01*
X1322844Y1212098D01*
X1325167Y1211136D01*
X1327660Y1210808D01*
X1330153Y1211136D01*
X1332476Y1212098D01*
X1334471Y1213629D01*
X1336002Y1215624D01*
X1336964Y1217947D01*
X1337292Y1220440D01*
X1336964Y1222933D01*
X1336002Y1225256D01*
X1334471Y1227251D01*
X1332476Y1228782D01*
X1330153Y1229744D01*
X1327660Y1230072D01*
D02*
G37*
G36*
X952791Y1219170D02*
X941580D01*
Y1207959D01*
X943584Y1208223D01*
X946634Y1209486D01*
X949254Y1211496D01*
X951264Y1214116D01*
X952527Y1217166D01*
X952791Y1219170D01*
D02*
G37*
G36*
X939040D02*
X927829D01*
X928093Y1217166D01*
X929356Y1214116D01*
X931366Y1211496D01*
X933986Y1209486D01*
X937036Y1208223D01*
X939040Y1207959D01*
Y1219170D01*
D02*
G37*
G36*
X1132588Y1623998D02*
X1032512D01*
X1030815Y1623775D01*
X1029234Y1623120D01*
X1027876Y1622078D01*
X993167Y1587368D01*
X991110Y1587639D01*
X988108Y1587244D01*
X985310Y1586085D01*
X982908Y1584242D01*
X981065Y1581840D01*
X979906Y1579042D01*
X979511Y1576040D01*
X979906Y1573038D01*
X981065Y1570240D01*
X982908Y1567838D01*
X984554Y1566575D01*
Y1509305D01*
X982908Y1508042D01*
X981065Y1505640D01*
X979906Y1502842D01*
X979511Y1499840D01*
X979906Y1496838D01*
X981065Y1494040D01*
X982908Y1491638D01*
X984554Y1490375D01*
Y1407705D01*
X982908Y1406442D01*
X981065Y1404040D01*
X979906Y1401242D01*
X979511Y1398240D01*
X979906Y1395238D01*
X981065Y1392440D01*
X982908Y1390038D01*
X984554Y1388775D01*
Y1331505D01*
X982908Y1330242D01*
X981065Y1327840D01*
X979906Y1325042D01*
X979511Y1322040D01*
X979906Y1319038D01*
X981065Y1316240D01*
X982908Y1313838D01*
X983754Y1313189D01*
Y1229905D01*
X982108Y1228642D01*
X980265Y1226240D01*
X979106Y1223442D01*
X978711Y1220440D01*
X979106Y1217438D01*
X980265Y1214640D01*
X982108Y1212238D01*
X983754Y1210975D01*
Y1153705D01*
X982108Y1152442D01*
X980265Y1150040D01*
X979106Y1147242D01*
X978711Y1144240D01*
X979106Y1141238D01*
X980265Y1138440D01*
X982108Y1136038D01*
X984510Y1134195D01*
X987308Y1133036D01*
X987486Y1133013D01*
Y1122970D01*
X987486Y1122970D01*
X987701Y1121889D01*
X988313Y1120973D01*
X998763Y1110523D01*
X998763Y1110523D01*
X999679Y1109911D01*
X1000760Y1109696D01*
X1000760Y1109696D01*
X1120140D01*
X1120140Y1109696D01*
X1121221Y1109911D01*
X1122137Y1110523D01*
X1202687Y1191073D01*
X1203299Y1191989D01*
X1203514Y1193070D01*
X1203514Y1193070D01*
Y1271150D01*
X1208440D01*
Y1291650D01*
X1203514D01*
Y1301850D01*
X1207990Y1306326D01*
X1209817D01*
X1210172Y1306089D01*
X1211440Y1305836D01*
X1222940D01*
X1224208Y1306089D01*
X1225283Y1306807D01*
X1226001Y1307882D01*
X1226254Y1309150D01*
X1226001Y1310418D01*
X1225283Y1311493D01*
X1225189Y1311556D01*
X1225575Y1312826D01*
X1275730D01*
X1324836Y1263720D01*
Y1255007D01*
X1322844Y1254182D01*
X1320849Y1252651D01*
X1319318Y1250656D01*
X1318356Y1248333D01*
X1318028Y1245840D01*
X1318356Y1243347D01*
X1319318Y1241024D01*
X1320849Y1239029D01*
X1322844Y1237498D01*
X1325167Y1236536D01*
X1327660Y1236208D01*
X1330153Y1236536D01*
X1332476Y1237498D01*
X1334471Y1239029D01*
X1336002Y1241024D01*
X1336964Y1243347D01*
X1337292Y1245840D01*
X1336964Y1248333D01*
X1336002Y1250656D01*
X1334471Y1252651D01*
X1332476Y1254182D01*
X1330484Y1255007D01*
Y1264890D01*
X1330269Y1265971D01*
X1329657Y1266887D01*
X1278897Y1317647D01*
X1278286Y1318056D01*
X1278634Y1319326D01*
X1300980D01*
X1350236Y1270070D01*
Y1255007D01*
X1348244Y1254182D01*
X1346249Y1252651D01*
X1344718Y1250656D01*
X1343756Y1248333D01*
X1343428Y1245840D01*
X1343756Y1243347D01*
X1344718Y1241024D01*
X1346249Y1239029D01*
X1348244Y1237498D01*
X1350567Y1236536D01*
X1353060Y1236208D01*
X1355553Y1236536D01*
X1357876Y1237498D01*
X1359871Y1239029D01*
X1361402Y1241024D01*
X1362364Y1243347D01*
X1362692Y1245840D01*
X1362364Y1248333D01*
X1361402Y1250656D01*
X1359871Y1252651D01*
X1357876Y1254182D01*
X1355884Y1255007D01*
Y1271240D01*
X1355669Y1272321D01*
X1355057Y1273237D01*
X1304147Y1324147D01*
X1303231Y1324759D01*
X1302150Y1324974D01*
X1302150Y1324974D01*
X1227772D01*
X1227093Y1326244D01*
X1227452Y1326781D01*
X1227571Y1327380D01*
X1217190D01*
Y1329920D01*
X1227571D01*
X1227452Y1330519D01*
X1226393Y1332103D01*
X1225301Y1332834D01*
X1226001Y1333882D01*
X1226254Y1335150D01*
X1226001Y1336418D01*
X1225283Y1337493D01*
X1225069Y1337636D01*
Y1339164D01*
X1225283Y1339307D01*
X1226001Y1340382D01*
X1226254Y1341650D01*
X1226001Y1342918D01*
X1225283Y1343993D01*
X1225069Y1344136D01*
Y1345664D01*
X1225283Y1345807D01*
X1226001Y1346882D01*
X1226254Y1348150D01*
X1226001Y1349418D01*
X1225283Y1350493D01*
X1225069Y1350636D01*
Y1352164D01*
X1225283Y1352307D01*
X1226001Y1353382D01*
X1226254Y1354650D01*
X1226001Y1355918D01*
X1225283Y1356993D01*
X1225069Y1357136D01*
Y1358664D01*
X1225283Y1358807D01*
X1226001Y1359882D01*
X1226254Y1361150D01*
X1226001Y1362418D01*
X1225283Y1363493D01*
X1225069Y1363636D01*
Y1365164D01*
X1225283Y1365307D01*
X1226001Y1366382D01*
X1226254Y1367650D01*
X1226001Y1368918D01*
X1225283Y1369993D01*
X1225069Y1370136D01*
Y1371664D01*
X1225283Y1371807D01*
X1226001Y1372882D01*
X1226254Y1374150D01*
X1226001Y1375418D01*
X1225283Y1376493D01*
X1225069Y1376636D01*
Y1378164D01*
X1225283Y1378307D01*
X1226001Y1379382D01*
X1226254Y1380650D01*
X1226001Y1381918D01*
X1225283Y1382993D01*
X1224208Y1383711D01*
X1222940Y1383964D01*
X1211440D01*
X1210172Y1383711D01*
X1209097Y1382993D01*
X1208379Y1381918D01*
X1208126Y1380650D01*
X1208379Y1379382D01*
X1209097Y1378307D01*
X1209311Y1378164D01*
Y1376636D01*
X1209097Y1376493D01*
X1208379Y1375418D01*
X1208126Y1374150D01*
X1208379Y1372882D01*
X1209097Y1371807D01*
X1209311Y1371664D01*
Y1370136D01*
X1209097Y1369993D01*
X1208379Y1368918D01*
X1208126Y1367650D01*
X1208379Y1366382D01*
X1209097Y1365307D01*
X1209311Y1365164D01*
Y1363636D01*
X1209097Y1363493D01*
X1208379Y1362418D01*
X1208126Y1361150D01*
X1208379Y1359882D01*
X1209097Y1358807D01*
X1209311Y1358664D01*
Y1357136D01*
X1209097Y1356993D01*
X1208379Y1355918D01*
X1208126Y1354650D01*
X1208379Y1353382D01*
X1209097Y1352307D01*
X1209311Y1352164D01*
Y1350636D01*
X1209097Y1350493D01*
X1208379Y1349418D01*
X1208126Y1348150D01*
X1208379Y1346882D01*
X1209097Y1345807D01*
X1209311Y1345664D01*
Y1344136D01*
X1209097Y1343993D01*
X1208379Y1342918D01*
X1208126Y1341650D01*
X1208379Y1340382D01*
X1209097Y1339307D01*
X1209311Y1339164D01*
Y1337636D01*
X1209097Y1337493D01*
X1208379Y1336418D01*
X1208126Y1335150D01*
X1208379Y1333882D01*
X1209079Y1332834D01*
X1207987Y1332103D01*
X1206928Y1330519D01*
X1206742Y1329583D01*
X1205364Y1329165D01*
X1197134Y1337395D01*
Y1378020D01*
X1214087Y1394973D01*
X1214087Y1394973D01*
X1214699Y1395889D01*
X1214914Y1396970D01*
Y1399350D01*
X1222340D01*
Y1414850D01*
X1201840D01*
Y1399350D01*
X1209121D01*
X1209206Y1398080D01*
X1192313Y1381187D01*
X1191701Y1380271D01*
X1191486Y1379190D01*
X1191486Y1379190D01*
Y1337005D01*
X1190216Y1336478D01*
X1188244Y1338450D01*
Y1399350D01*
X1195670D01*
Y1414850D01*
X1175170D01*
Y1399350D01*
X1182596D01*
Y1337280D01*
X1182596Y1337280D01*
X1182811Y1336199D01*
X1183423Y1335283D01*
X1205053Y1313653D01*
X1205053Y1313653D01*
X1205901Y1313086D01*
X1205940Y1312792D01*
X1205820Y1311776D01*
X1205739Y1311759D01*
X1204823Y1311147D01*
X1198693Y1305017D01*
X1198081Y1304101D01*
X1197866Y1303020D01*
X1197866Y1303020D01*
Y1291650D01*
X1192940D01*
Y1271150D01*
X1197866D01*
Y1194240D01*
X1118970Y1115344D01*
X1001930D01*
X993134Y1124140D01*
Y1133013D01*
X993312Y1133036D01*
X996110Y1134195D01*
X998512Y1136038D01*
X1000355Y1138440D01*
X1001514Y1141238D01*
X1001909Y1144240D01*
X1001514Y1147242D01*
X1000355Y1150040D01*
X998512Y1152442D01*
X996866Y1153705D01*
Y1210975D01*
X998512Y1212238D01*
X1000355Y1214640D01*
X1001514Y1217438D01*
X1001909Y1220440D01*
X1001514Y1223442D01*
X1000355Y1226240D01*
X998512Y1228642D01*
X996866Y1229905D01*
Y1311977D01*
X996910Y1311995D01*
X999312Y1313838D01*
X1001155Y1316240D01*
X1002314Y1319038D01*
X1002709Y1322040D01*
X1002314Y1325042D01*
X1001155Y1327840D01*
X999312Y1330242D01*
X997666Y1331505D01*
Y1388775D01*
X999312Y1390038D01*
X1001155Y1392440D01*
X1002314Y1395238D01*
X1002709Y1398240D01*
X1002314Y1401242D01*
X1001155Y1404040D01*
X999312Y1406442D01*
X997666Y1407705D01*
Y1490375D01*
X999312Y1491638D01*
X1001155Y1494040D01*
X1002314Y1496838D01*
X1002709Y1499840D01*
X1002314Y1502842D01*
X1001155Y1505640D01*
X999312Y1508042D01*
X997666Y1509305D01*
Y1566575D01*
X999312Y1567838D01*
X1001155Y1570240D01*
X1002314Y1573038D01*
X1002709Y1576040D01*
X1002439Y1578097D01*
X1035228Y1610886D01*
X1129872D01*
X1178864Y1561894D01*
Y1442850D01*
X1175170D01*
Y1427350D01*
X1195670D01*
Y1428544D01*
X1201840D01*
Y1427350D01*
X1222340D01*
Y1428544D01*
X1643920D01*
X1645617Y1428767D01*
X1647198Y1429422D01*
X1648556Y1430464D01*
X1675531Y1457439D01*
X1676704Y1456953D01*
Y1235856D01*
X1629744Y1188896D01*
X1546260D01*
Y1192590D01*
X1530760D01*
Y1172090D01*
X1546260D01*
Y1175784D01*
X1632460D01*
X1634157Y1176007D01*
X1635738Y1176662D01*
X1637096Y1177704D01*
X1687896Y1228504D01*
X1688938Y1229862D01*
X1689593Y1231443D01*
X1689816Y1233140D01*
Y1467433D01*
X1690071Y1467629D01*
X1691602Y1469624D01*
X1692564Y1471947D01*
X1692892Y1474440D01*
X1692564Y1476933D01*
X1691602Y1479256D01*
X1690071Y1481251D01*
X1688076Y1482782D01*
X1685753Y1483744D01*
X1683260Y1484072D01*
X1680767Y1483744D01*
X1678444Y1482782D01*
X1676449Y1481251D01*
X1674918Y1479256D01*
X1673956Y1476933D01*
X1673628Y1474440D01*
X1673670Y1474121D01*
X1641204Y1441656D01*
X1222340D01*
Y1442850D01*
X1201840D01*
Y1441656D01*
X1195670D01*
Y1442850D01*
X1191976D01*
Y1564610D01*
X1191753Y1566307D01*
X1191098Y1567888D01*
X1190056Y1569246D01*
X1137224Y1622078D01*
X1135866Y1623120D01*
X1134285Y1623775D01*
X1132588Y1623998D01*
D02*
G37*
G36*
X1429260Y1230072D02*
X1426767Y1229744D01*
X1424444Y1228782D01*
X1422449Y1227251D01*
X1420918Y1225256D01*
X1419956Y1222933D01*
X1419628Y1220440D01*
X1419956Y1217947D01*
X1420918Y1215624D01*
X1422449Y1213629D01*
X1422704Y1213433D01*
Y1191390D01*
X1419010D01*
Y1175890D01*
X1439510D01*
Y1191390D01*
X1435816D01*
Y1213433D01*
X1436071Y1213629D01*
X1437602Y1215624D01*
X1438564Y1217947D01*
X1438892Y1220440D01*
X1438564Y1222933D01*
X1437602Y1225256D01*
X1436071Y1227251D01*
X1434076Y1228782D01*
X1431753Y1229744D01*
X1429260Y1230072D01*
D02*
G37*
G36*
X1403860D02*
X1401367Y1229744D01*
X1399044Y1228782D01*
X1397049Y1227251D01*
X1395518Y1225256D01*
X1394556Y1222933D01*
X1394228Y1220440D01*
X1394556Y1217947D01*
X1395518Y1215624D01*
X1397049Y1213629D01*
X1397304Y1213433D01*
Y1191390D01*
X1393610D01*
Y1175890D01*
X1414110D01*
Y1191390D01*
X1410416D01*
Y1213433D01*
X1410671Y1213629D01*
X1412202Y1215624D01*
X1413164Y1217947D01*
X1413492Y1220440D01*
X1413164Y1222933D01*
X1412202Y1225256D01*
X1410671Y1227251D01*
X1408676Y1228782D01*
X1406353Y1229744D01*
X1403860Y1230072D01*
D02*
G37*
G36*
X941580Y1156721D02*
Y1145510D01*
X952791D01*
X952527Y1147514D01*
X951264Y1150564D01*
X949254Y1153184D01*
X946634Y1155194D01*
X943584Y1156457D01*
X941580Y1156721D01*
D02*
G37*
G36*
X939040D02*
X937036Y1156457D01*
X933986Y1155194D01*
X931366Y1153184D01*
X929356Y1150564D01*
X928093Y1147514D01*
X927829Y1145510D01*
X939040D01*
Y1156721D01*
D02*
G37*
G36*
X1414110Y1163390D02*
X1393610D01*
Y1147890D01*
X1394897D01*
Y1144549D01*
X1382869Y1132521D01*
X1382747Y1132615D01*
X1380679Y1133471D01*
X1378460Y1133763D01*
X1376241Y1133471D01*
X1374173Y1132615D01*
X1372398Y1131252D01*
X1371035Y1129477D01*
X1370179Y1127409D01*
X1369887Y1125190D01*
X1370179Y1122971D01*
X1371035Y1120903D01*
X1372398Y1119128D01*
X1374173Y1117765D01*
X1376241Y1116909D01*
X1378460Y1116617D01*
X1380679Y1116909D01*
X1382747Y1117765D01*
X1384522Y1119128D01*
X1384731Y1119399D01*
X1385575D01*
X1387272Y1119623D01*
X1388853Y1120278D01*
X1390211Y1121320D01*
X1406089Y1137198D01*
X1407131Y1138555D01*
X1407786Y1140137D01*
X1408009Y1141833D01*
Y1147890D01*
X1414110D01*
Y1163390D01*
D02*
G37*
G36*
X952791Y1142970D02*
X941580D01*
Y1131759D01*
X943584Y1132023D01*
X946634Y1133286D01*
X949254Y1135296D01*
X951264Y1137916D01*
X952527Y1140966D01*
X952791Y1142970D01*
D02*
G37*
G36*
X939040D02*
X927829D01*
X928093Y1140966D01*
X929356Y1137916D01*
X931366Y1135296D01*
X933986Y1133286D01*
X937036Y1132023D01*
X939040Y1131759D01*
Y1142970D01*
D02*
G37*
G36*
X1454660Y1230072D02*
X1452167Y1229744D01*
X1449844Y1228782D01*
X1447849Y1227251D01*
X1446318Y1225256D01*
X1445356Y1222933D01*
X1445028Y1220440D01*
X1445356Y1217947D01*
X1446318Y1215624D01*
X1447849Y1213629D01*
X1448104Y1213433D01*
Y1201390D01*
X1448327Y1199693D01*
X1448982Y1198112D01*
X1450024Y1196754D01*
X1469074Y1177704D01*
X1470432Y1176662D01*
X1472013Y1176007D01*
X1473710Y1175784D01*
X1502760D01*
Y1172090D01*
X1503954D01*
Y1146529D01*
X1503822Y1146428D01*
X1502027Y1144088D01*
X1500898Y1141364D01*
X1500513Y1138440D01*
X1500898Y1135516D01*
X1502027Y1132792D01*
X1503822Y1130452D01*
X1506162Y1128657D01*
X1508886Y1127528D01*
X1511810Y1127143D01*
X1514734Y1127528D01*
X1517458Y1128657D01*
X1519798Y1130452D01*
X1520897Y1131884D01*
X1567723D01*
X1568822Y1130452D01*
X1571162Y1128657D01*
X1573886Y1127528D01*
X1576810Y1127143D01*
X1579734Y1127528D01*
X1582458Y1128657D01*
X1584798Y1130452D01*
X1586593Y1132792D01*
X1587722Y1135516D01*
X1588107Y1138440D01*
X1587722Y1141364D01*
X1586593Y1144088D01*
X1584798Y1146428D01*
X1582458Y1148223D01*
X1579734Y1149352D01*
X1576810Y1149737D01*
X1573886Y1149352D01*
X1571162Y1148223D01*
X1568822Y1146428D01*
X1567723Y1144996D01*
X1520897D01*
X1519798Y1146428D01*
X1517458Y1148223D01*
X1517066Y1148386D01*
Y1172090D01*
X1518260D01*
Y1192590D01*
X1502760D01*
Y1188896D01*
X1476426D01*
X1461216Y1204106D01*
Y1213433D01*
X1461471Y1213629D01*
X1463002Y1215624D01*
X1463964Y1217947D01*
X1464292Y1220440D01*
X1463964Y1222933D01*
X1463002Y1225256D01*
X1461471Y1227251D01*
X1459476Y1228782D01*
X1457153Y1229744D01*
X1454660Y1230072D01*
D02*
G37*
G36*
X1439510Y1163390D02*
X1419010D01*
Y1147890D01*
X1422704D01*
Y1144240D01*
X1422927Y1142543D01*
X1423582Y1140962D01*
X1424624Y1139604D01*
X1439843Y1124386D01*
X1440029Y1122971D01*
X1440885Y1120903D01*
X1442248Y1119128D01*
X1444023Y1117765D01*
X1446091Y1116909D01*
X1448310Y1116617D01*
X1450529Y1116909D01*
X1452597Y1117765D01*
X1454372Y1119128D01*
X1455735Y1120903D01*
X1456591Y1122971D01*
X1456883Y1125190D01*
X1456591Y1127409D01*
X1455735Y1129477D01*
X1454372Y1131252D01*
X1452597Y1132615D01*
X1450529Y1133471D01*
X1449114Y1133658D01*
X1436152Y1146620D01*
X1436626Y1147890D01*
X1439510D01*
Y1163390D01*
D02*
G37*
G36*
X1748030Y1119630D02*
Y1107410D01*
X1760250D01*
X1759951Y1109675D01*
X1758587Y1112968D01*
X1756417Y1115797D01*
X1753588Y1117967D01*
X1750295Y1119332D01*
X1748030Y1119630D01*
D02*
G37*
G36*
X1745490D02*
X1743225Y1119332D01*
X1739932Y1117967D01*
X1737103Y1115797D01*
X1734933Y1112968D01*
X1733569Y1109675D01*
X1733270Y1107410D01*
X1745490D01*
Y1119630D01*
D02*
G37*
G36*
X1449580Y1109245D02*
Y1101060D01*
X1457765D01*
X1457605Y1102280D01*
X1456643Y1104601D01*
X1455114Y1106594D01*
X1453121Y1108123D01*
X1450800Y1109084D01*
X1449580Y1109245D01*
D02*
G37*
G36*
X1379730D02*
Y1101060D01*
X1387915D01*
X1387755Y1102280D01*
X1386793Y1104601D01*
X1385264Y1106594D01*
X1383271Y1108123D01*
X1380950Y1109084D01*
X1379730Y1109245D01*
D02*
G37*
G36*
X1447040D02*
X1445820Y1109084D01*
X1443499Y1108123D01*
X1441506Y1106594D01*
X1439977Y1104601D01*
X1439016Y1102280D01*
X1438855Y1101060D01*
X1447040D01*
Y1109245D01*
D02*
G37*
G36*
X1377190D02*
X1375970Y1109084D01*
X1373649Y1108123D01*
X1371656Y1106594D01*
X1370127Y1104601D01*
X1369166Y1102280D01*
X1369005Y1101060D01*
X1377190D01*
Y1109245D01*
D02*
G37*
G36*
X1578080Y1105618D02*
Y1094710D01*
X1588988D01*
X1588735Y1096635D01*
X1587502Y1099613D01*
X1585540Y1102170D01*
X1582983Y1104132D01*
X1580005Y1105365D01*
X1578080Y1105618D01*
D02*
G37*
G36*
X1513080D02*
Y1094710D01*
X1523988D01*
X1523735Y1096635D01*
X1522502Y1099613D01*
X1520540Y1102170D01*
X1517983Y1104132D01*
X1515005Y1105365D01*
X1513080Y1105618D01*
D02*
G37*
G36*
X1510540D02*
X1508615Y1105365D01*
X1505637Y1104132D01*
X1503080Y1102170D01*
X1501118Y1099613D01*
X1499885Y1096635D01*
X1499632Y1094710D01*
X1510540D01*
Y1105618D01*
D02*
G37*
G36*
X1575540Y1105618D02*
X1573615Y1105365D01*
X1570637Y1104132D01*
X1568080Y1102170D01*
X1566118Y1099613D01*
X1564885Y1096635D01*
X1564632Y1094710D01*
X1575540D01*
Y1105618D01*
D02*
G37*
G36*
X1796760Y1118748D02*
X1793497Y1118318D01*
X1790456Y1117059D01*
X1787845Y1115055D01*
X1785841Y1112444D01*
X1784582Y1109403D01*
X1784152Y1106140D01*
X1784582Y1102877D01*
X1785841Y1099836D01*
X1787845Y1097225D01*
X1790456Y1095221D01*
X1793497Y1093962D01*
X1796760Y1093532D01*
X1800023Y1093962D01*
X1803064Y1095221D01*
X1805675Y1097225D01*
X1807679Y1099836D01*
X1808938Y1102877D01*
X1809368Y1106140D01*
X1808938Y1109403D01*
X1807679Y1112444D01*
X1805675Y1115055D01*
X1803064Y1117059D01*
X1800023Y1118318D01*
X1796760Y1118748D01*
D02*
G37*
G36*
X1760250Y1104870D02*
X1748030D01*
Y1092650D01*
X1750295Y1092949D01*
X1753588Y1094313D01*
X1756417Y1096483D01*
X1758587Y1099312D01*
X1759951Y1102605D01*
X1760250Y1104870D01*
D02*
G37*
G36*
X1745490D02*
X1733270D01*
X1733569Y1102605D01*
X1734933Y1099312D01*
X1737103Y1096483D01*
X1739932Y1094313D01*
X1743225Y1092949D01*
X1745490Y1092650D01*
Y1104870D01*
D02*
G37*
G36*
X1457765Y1098520D02*
X1449580D01*
Y1090335D01*
X1450800Y1090496D01*
X1453121Y1091457D01*
X1455114Y1092986D01*
X1456643Y1094979D01*
X1457605Y1097300D01*
X1457765Y1098520D01*
D02*
G37*
G36*
X1387915D02*
X1379730D01*
Y1090335D01*
X1380950Y1090496D01*
X1383271Y1091457D01*
X1385264Y1092986D01*
X1386793Y1094979D01*
X1387755Y1097300D01*
X1387915Y1098520D01*
D02*
G37*
G36*
X1447040D02*
X1438855D01*
X1439016Y1097300D01*
X1439977Y1094979D01*
X1441506Y1092986D01*
X1443499Y1091457D01*
X1445820Y1090496D01*
X1447040Y1090335D01*
Y1098520D01*
D02*
G37*
G36*
X1377190D02*
X1369005D01*
X1369166Y1097300D01*
X1370127Y1094979D01*
X1371656Y1092986D01*
X1373649Y1091457D01*
X1375970Y1090496D01*
X1377190Y1090335D01*
Y1098520D01*
D02*
G37*
G36*
X1588988Y1092170D02*
X1578080D01*
Y1081262D01*
X1580005Y1081515D01*
X1582983Y1082748D01*
X1585540Y1084710D01*
X1587502Y1087267D01*
X1588735Y1090245D01*
X1588988Y1092170D01*
D02*
G37*
G36*
X1523988D02*
X1513080D01*
Y1081262D01*
X1515005Y1081515D01*
X1517983Y1082748D01*
X1520540Y1084710D01*
X1522502Y1087267D01*
X1523735Y1090245D01*
X1523988Y1092170D01*
D02*
G37*
G36*
X1510540D02*
X1499632D01*
X1499885Y1090245D01*
X1501118Y1087267D01*
X1503080Y1084710D01*
X1505637Y1082748D01*
X1508615Y1081515D01*
X1510540Y1081262D01*
Y1092170D01*
D02*
G37*
G36*
X1575540D02*
X1564632D01*
X1564885Y1090245D01*
X1566118Y1087267D01*
X1568080Y1084710D01*
X1570637Y1082748D01*
X1573615Y1081515D01*
X1575540Y1081262D01*
Y1092170D01*
D02*
G37*
%LPD*%
G36*
X1103348Y1394415D02*
Y1382492D01*
X1103348Y1382492D01*
X1103563Y1381411D01*
X1104175Y1380495D01*
X1138517Y1346153D01*
X1138517Y1346153D01*
X1139128Y1345744D01*
X1138780Y1344474D01*
X1110720D01*
X1110720Y1344474D01*
X1109639Y1344259D01*
X1108723Y1343647D01*
X1108723Y1343647D01*
X1097052Y1331976D01*
X1096910Y1332085D01*
X1094112Y1333244D01*
X1093934Y1333267D01*
Y1387013D01*
X1094112Y1387036D01*
X1096910Y1388195D01*
X1099312Y1390038D01*
X1101155Y1392440D01*
X1102078Y1394667D01*
X1103348Y1394415D01*
D02*
G37*
D10*
X1042926Y1223056D02*
Y1236188D01*
X1040310Y1220440D02*
X1042926Y1223056D01*
Y1236188D02*
X1141888Y1335150D01*
X1040310Y1144240D02*
Y1220440D01*
X990310Y1122970D02*
Y1144240D01*
Y1122970D02*
X1000760Y1112520D01*
X1120140D01*
X1200690Y1193070D02*
Y1281400D01*
X1120140Y1112520D02*
X1200690Y1193070D01*
X1581660Y1499840D02*
Y1517140D01*
X1539240Y1559560D02*
X1581660Y1517140D01*
X1175880Y1689100D02*
X1305420Y1559560D01*
X1539240D01*
X1524072Y1581263D02*
X1535543D01*
X1416890Y1688445D02*
X1524072Y1581263D01*
X1416235Y1689100D02*
X1416890Y1688445D01*
X1415580Y1689100D02*
X1416235D01*
X1327660Y1245840D02*
Y1264890D01*
X1276900Y1315650D02*
X1327660Y1264890D01*
X1217190Y1315650D02*
X1276900D01*
X1353060Y1245840D02*
Y1271240D01*
X1302150Y1322150D02*
X1353060Y1271240D01*
X1217190Y1322150D02*
X1302150D01*
X1185420Y1337280D02*
X1207050Y1315650D01*
X1185420Y1337280D02*
Y1407100D01*
X1207050Y1315650D02*
X1217190D01*
X1194310Y1379190D02*
X1212090Y1396970D01*
Y1407100D01*
X1194310Y1336225D02*
Y1379190D01*
Y1336225D02*
X1208167Y1322367D01*
X1216973D01*
X1217190Y1322150D01*
X1200690Y1281400D02*
Y1303020D01*
X1206820Y1309150D02*
X1217190D01*
X1200690Y1303020D02*
X1206820Y1309150D01*
X1168800Y1322150D02*
X1172690Y1318260D01*
Y1281400D02*
Y1318260D01*
X1156190Y1322150D02*
X1168800D01*
X1144278Y1361150D02*
X1156190D01*
X1115316Y1390112D02*
Y1423894D01*
Y1390112D02*
X1144278Y1361150D01*
X1041110Y1498100D02*
X1115316Y1423894D01*
X1041110Y1498100D02*
Y1499840D01*
Y1576040D01*
X1106172Y1382492D02*
X1140514Y1348150D01*
X1156190D01*
X1106172Y1382492D02*
Y1404590D01*
X1057874Y1415004D02*
X1095758D01*
X1106172Y1404590D01*
X1041110Y1398240D02*
X1057874Y1415004D01*
X1091110Y1322040D02*
X1110720Y1341650D01*
X1156190D01*
X1091110Y1322040D02*
Y1398240D01*
X1041110Y1322040D02*
Y1398240D01*
X1141888Y1335150D02*
X1156190D01*
X1535543Y1581263D02*
X1606594Y1510212D01*
Y1500306D02*
Y1510212D01*
Y1500306D02*
X1607060Y1499840D01*
D19*
X991110Y1398240D02*
Y1499840D01*
X1516890Y1686530D02*
Y1764000D01*
X1275880Y1765300D02*
Y1766100D01*
X1313180Y1803400D01*
X1477480D01*
X1515580Y1765300D01*
X1175880Y1689100D02*
Y1765300D01*
X1275880Y1689100D02*
Y1765300D01*
X1416890Y1688445D02*
Y1764000D01*
Y1687800D02*
Y1688445D01*
X1515580Y1689100D02*
X1683260Y1521420D01*
Y1499840D02*
Y1521420D01*
X1403860Y1183640D02*
Y1220440D01*
X1429260Y1183640D02*
Y1220440D01*
X1401453Y1141833D02*
Y1154390D01*
X1402703Y1155640D01*
X1403860D01*
X1379225Y1125955D02*
X1385575D01*
X1378460Y1125190D02*
X1379225Y1125955D01*
X1385575D02*
X1401453Y1141833D01*
X1430417Y1155640D02*
X1431667Y1154390D01*
X1429260Y1155640D02*
X1430417D01*
X1429260Y1144240D02*
Y1155640D01*
Y1144240D02*
X1448310Y1125190D01*
X1454660Y1201390D02*
X1473710Y1182340D01*
X1510510D01*
X1454660Y1201390D02*
Y1220440D01*
X1510510Y1139740D02*
X1511810Y1138440D01*
X1510510Y1139740D02*
Y1182340D01*
X1511810Y1138440D02*
X1576810D01*
X1538510Y1182340D02*
X1632460D01*
X1683260Y1233140D01*
Y1474440D01*
X990310Y1144240D02*
Y1220440D01*
Y1321240D02*
X991110Y1322040D01*
X990310Y1220440D02*
Y1321240D01*
X991110Y1322040D02*
Y1398240D01*
Y1499840D02*
Y1576040D01*
X1032512Y1617442D01*
X1132588D01*
X1185420Y1564610D01*
Y1435100D02*
Y1564610D01*
Y1435100D02*
X1212090D01*
X1643920D02*
X1683260Y1474440D01*
X1212090Y1435100D02*
X1643920D01*
D21*
X1090310Y1220440D02*
D03*
X1040310D02*
D03*
X990310D02*
D03*
X940310D02*
D03*
X1090310Y1144240D02*
D03*
X1040310D02*
D03*
X990310D02*
D03*
X940310D02*
D03*
X941110Y1322040D02*
D03*
X991110D02*
D03*
X1041110D02*
D03*
X1091110D02*
D03*
X941110Y1398240D02*
D03*
X991110D02*
D03*
X1041110D02*
D03*
X1091110D02*
D03*
Y1576040D02*
D03*
X1041110D02*
D03*
X991110D02*
D03*
X941110D02*
D03*
X1091110Y1499840D02*
D03*
X1041110D02*
D03*
X991110D02*
D03*
X941110D02*
D03*
X1565580Y1765300D02*
D03*
X1515580D02*
D03*
X1465580D02*
D03*
X1415580D02*
D03*
X1565580Y1689100D02*
D03*
X1515580D02*
D03*
X1465580D02*
D03*
X1415580D02*
D03*
X1175880D02*
D03*
X1225880D02*
D03*
X1275880D02*
D03*
X1325880D02*
D03*
X1175880Y1765300D02*
D03*
X1225880D02*
D03*
X1275880D02*
D03*
X1325880D02*
D03*
D22*
X1576810Y1093440D02*
D03*
X1511810D02*
D03*
X1576810Y1138440D02*
D03*
X1511810D02*
D03*
D23*
X1746760Y1106140D02*
D03*
X1796760D02*
D03*
D24*
X1378460Y1099790D02*
D03*
Y1125190D02*
D03*
X1448310Y1099790D02*
D03*
Y1125190D02*
D03*
D25*
X1429260Y1474440D02*
D03*
X1454660D02*
D03*
X1480060D02*
D03*
X1505460D02*
D03*
X1530860D02*
D03*
X1683260D02*
D03*
X1657860D02*
D03*
X1632460D02*
D03*
X1607060D02*
D03*
X1581660D02*
D03*
X1556260D02*
D03*
X1403860D02*
D03*
X1378460D02*
D03*
X1353060D02*
D03*
X1327660D02*
D03*
Y1245840D02*
D03*
X1353060D02*
D03*
X1378460D02*
D03*
X1403860D02*
D03*
X1429260D02*
D03*
X1581660D02*
D03*
X1556260D02*
D03*
X1530860D02*
D03*
X1505460D02*
D03*
X1480060D02*
D03*
X1454660D02*
D03*
X1429260Y1499840D02*
D03*
X1454660D02*
D03*
X1480060D02*
D03*
X1505460D02*
D03*
X1530860D02*
D03*
X1683260D02*
D03*
X1657860D02*
D03*
X1632460D02*
D03*
X1607060D02*
D03*
X1581660D02*
D03*
X1556260D02*
D03*
X1403860D02*
D03*
X1378460D02*
D03*
X1353060D02*
D03*
X1327660D02*
D03*
Y1220440D02*
D03*
X1353060D02*
D03*
X1378460D02*
D03*
X1403860D02*
D03*
X1429260D02*
D03*
X1581660D02*
D03*
X1556260D02*
D03*
X1530860D02*
D03*
X1505460D02*
D03*
X1480060D02*
D03*
X1454660D02*
D03*
D26*
X1708660Y1474440D02*
D03*
X1607060Y1245840D02*
D03*
X1708660Y1499840D02*
D03*
X1607060Y1220440D02*
D03*
D27*
X1750000Y1650000D02*
D03*
X1775000Y1600000D02*
D03*
X1750000Y1550000D02*
D03*
X1775000Y1500000D02*
D03*
Y1400000D02*
D03*
X1750000Y1350000D02*
D03*
X1775000Y1300000D02*
D03*
Y1200000D02*
D03*
Y1100000D02*
D03*
X1700000Y1650000D02*
D03*
X1725000Y1600000D02*
D03*
X1700000Y1550000D02*
D03*
Y1450000D02*
D03*
X1725000Y1400000D02*
D03*
X1700000Y1350000D02*
D03*
X1725000Y1300000D02*
D03*
X1700000Y1250000D02*
D03*
X1725000Y1200000D02*
D03*
X1700000Y1150000D02*
D03*
X1725000Y1100000D02*
D03*
X1650000Y1750000D02*
D03*
Y1650000D02*
D03*
X1675000Y1600000D02*
D03*
X1650000Y1350000D02*
D03*
Y1250000D02*
D03*
X1675000Y1200000D02*
D03*
X1650000Y1150000D02*
D03*
X1675000Y1100000D02*
D03*
X1650000Y1050000D02*
D03*
Y950000D02*
D03*
X1625000Y1800000D02*
D03*
X1600000Y1750000D02*
D03*
X1625000Y1700000D02*
D03*
X1600000Y1650000D02*
D03*
X1625000Y1600000D02*
D03*
X1600000Y1550000D02*
D03*
Y1450000D02*
D03*
X1625000Y1400000D02*
D03*
X1600000Y1350000D02*
D03*
X1625000Y1300000D02*
D03*
Y1200000D02*
D03*
X1600000Y1150000D02*
D03*
X1625000Y1100000D02*
D03*
X1600000Y1050000D02*
D03*
X1625000Y1000000D02*
D03*
X1600000Y950000D02*
D03*
X1575000Y1800000D02*
D03*
X1550000Y1750000D02*
D03*
X1575000Y1600000D02*
D03*
X1550000Y1450000D02*
D03*
X1575000Y1400000D02*
D03*
X1550000Y1350000D02*
D03*
X1575000Y1300000D02*
D03*
Y1200000D02*
D03*
X1550000Y1050000D02*
D03*
X1575000Y1000000D02*
D03*
X1550000Y950000D02*
D03*
X1525000Y1800000D02*
D03*
X1500000Y1750000D02*
D03*
Y1650000D02*
D03*
X1525000Y1600000D02*
D03*
X1500000Y1450000D02*
D03*
X1525000Y1400000D02*
D03*
X1500000Y1350000D02*
D03*
X1525000Y1300000D02*
D03*
Y1200000D02*
D03*
X1500000Y1050000D02*
D03*
X1525000Y1000000D02*
D03*
X1500000Y950000D02*
D03*
X1450000Y1750000D02*
D03*
X1475000Y1600000D02*
D03*
X1450000Y1450000D02*
D03*
X1475000Y1400000D02*
D03*
X1450000Y1350000D02*
D03*
X1475000Y1300000D02*
D03*
X1450000Y1150000D02*
D03*
X1475000Y1100000D02*
D03*
X1450000Y1050000D02*
D03*
X1475000Y1000000D02*
D03*
X1450000Y950000D02*
D03*
X1400000Y1750000D02*
D03*
Y1650000D02*
D03*
X1425000Y1600000D02*
D03*
X1400000Y1450000D02*
D03*
X1425000Y1400000D02*
D03*
X1400000Y1350000D02*
D03*
X1425000Y1300000D02*
D03*
Y1100000D02*
D03*
X1400000Y1050000D02*
D03*
X1425000Y1000000D02*
D03*
X1400000Y950000D02*
D03*
X1350000Y1750000D02*
D03*
X1375000Y1700000D02*
D03*
X1350000Y1650000D02*
D03*
X1375000Y1600000D02*
D03*
X1350000Y1450000D02*
D03*
X1375000Y1400000D02*
D03*
X1350000Y1350000D02*
D03*
X1375000Y1300000D02*
D03*
Y1200000D02*
D03*
X1350000Y1150000D02*
D03*
Y1050000D02*
D03*
X1375000Y1000000D02*
D03*
X1350000Y950000D02*
D03*
X1300000Y1750000D02*
D03*
Y1650000D02*
D03*
X1325000Y1600000D02*
D03*
X1300000Y1550000D02*
D03*
Y1450000D02*
D03*
X1325000Y1400000D02*
D03*
X1300000Y1350000D02*
D03*
Y1250000D02*
D03*
X1325000Y1200000D02*
D03*
X1300000Y1150000D02*
D03*
X1325000Y1100000D02*
D03*
X1300000Y1050000D02*
D03*
X1325000Y1000000D02*
D03*
X1300000Y950000D02*
D03*
X1275000Y1800000D02*
D03*
X1250000Y1750000D02*
D03*
Y1650000D02*
D03*
Y1550000D02*
D03*
X1275000Y1500000D02*
D03*
X1250000Y1450000D02*
D03*
X1275000Y1400000D02*
D03*
X1250000Y1350000D02*
D03*
X1275000Y1300000D02*
D03*
Y1200000D02*
D03*
X1250000Y1150000D02*
D03*
X1275000Y1100000D02*
D03*
X1250000Y1050000D02*
D03*
X1275000Y1000000D02*
D03*
X1250000Y950000D02*
D03*
X1225000Y1800000D02*
D03*
X1200000Y1750000D02*
D03*
Y1650000D02*
D03*
X1225000Y1600000D02*
D03*
X1200000Y1550000D02*
D03*
X1225000Y1500000D02*
D03*
X1200000Y1450000D02*
D03*
X1225000Y1300000D02*
D03*
Y1200000D02*
D03*
X1200000Y1150000D02*
D03*
X1225000Y1100000D02*
D03*
X1200000Y1050000D02*
D03*
X1225000Y1000000D02*
D03*
X1200000Y950000D02*
D03*
X1175000Y1800000D02*
D03*
X1150000Y1750000D02*
D03*
Y1650000D02*
D03*
X1175000Y1600000D02*
D03*
X1150000Y1550000D02*
D03*
Y1450000D02*
D03*
Y1250000D02*
D03*
X1175000Y1200000D02*
D03*
Y1100000D02*
D03*
X1150000Y1050000D02*
D03*
X1175000Y1000000D02*
D03*
X1150000Y950000D02*
D03*
X1125000Y1800000D02*
D03*
X1100000Y1750000D02*
D03*
X1125000Y1700000D02*
D03*
X1100000Y1650000D02*
D03*
X1125000Y1600000D02*
D03*
Y1500000D02*
D03*
Y1200000D02*
D03*
Y1100000D02*
D03*
X1100000Y1050000D02*
D03*
X1125000Y1000000D02*
D03*
X1100000Y950000D02*
D03*
X1075000Y1800000D02*
D03*
X1050000Y1750000D02*
D03*
X1075000Y1700000D02*
D03*
X1050000Y1650000D02*
D03*
X1075000Y1600000D02*
D03*
X1050000Y1450000D02*
D03*
X1075000Y1300000D02*
D03*
Y1200000D02*
D03*
Y1100000D02*
D03*
X1050000Y1050000D02*
D03*
X1075000Y1000000D02*
D03*
X1050000Y950000D02*
D03*
X1000000Y1650000D02*
D03*
X1025000Y1300000D02*
D03*
Y1200000D02*
D03*
Y1100000D02*
D03*
X950000Y1650000D02*
D03*
X975000Y1600000D02*
D03*
X950000Y1550000D02*
D03*
Y1450000D02*
D03*
Y1350000D02*
D03*
X975000Y1300000D02*
D03*
X950000Y1250000D02*
D03*
X975000Y1200000D02*
D03*
Y1100000D02*
D03*
X900000Y1650000D02*
D03*
X925000Y1600000D02*
D03*
X900000Y1550000D02*
D03*
Y1450000D02*
D03*
Y1350000D02*
D03*
X925000Y1300000D02*
D03*
X900000Y1250000D02*
D03*
X925000Y1200000D02*
D03*
X900000Y1150000D02*
D03*
X925000Y1100000D02*
D03*
D28*
X1746760Y1461740D02*
D03*
Y1258540D02*
D03*
X1264160Y1461740D02*
D03*
Y1258540D02*
D03*
D29*
X1172690Y1281400D02*
D03*
X1200690D02*
D03*
X1510510Y1182340D02*
D03*
X1538510D02*
D03*
D30*
X1156190Y1309150D02*
D03*
Y1315650D02*
D03*
Y1322150D02*
D03*
Y1328650D02*
D03*
Y1335150D02*
D03*
Y1341650D02*
D03*
Y1348150D02*
D03*
Y1354650D02*
D03*
Y1361150D02*
D03*
Y1367650D02*
D03*
Y1374150D02*
D03*
Y1380650D02*
D03*
X1217190Y1309150D02*
D03*
Y1315650D02*
D03*
Y1322150D02*
D03*
Y1328650D02*
D03*
Y1335150D02*
D03*
Y1341650D02*
D03*
Y1348150D02*
D03*
Y1354650D02*
D03*
Y1361150D02*
D03*
Y1367650D02*
D03*
Y1374150D02*
D03*
Y1380650D02*
D03*
D31*
X1185420Y1435100D02*
D03*
Y1407100D02*
D03*
X1212090Y1435100D02*
D03*
Y1407100D02*
D03*
X1403860Y1183640D02*
D03*
Y1155640D02*
D03*
X1429260Y1183640D02*
D03*
Y1155640D02*
D03*
D32*
X1090310Y1144240D02*
Y1220440D01*
Y1272396D01*
X1146564Y1328650D01*
X1156190D01*
Y1354650D02*
X1169262D01*
X1173228Y1358616D01*
X1091110Y1466642D02*
X1173228Y1384524D01*
Y1358616D02*
Y1384524D01*
X1091110Y1466642D02*
Y1499840D01*
Y1576040D01*
M02*
