G04*
G04 #@! TF.GenerationSoftware,Altium Limited,Altium Designer,20.0.11 (256)*
G04*
G04 Layer_Color=8388736*
%FSLAX44Y44*%
%MOMM*%
G71*
G01*
G75*
%ADD12C,2.2032*%
%ADD13C,2.1432*%
%ADD14C,2.4032*%
%ADD15C,1.6032*%
%ADD16C,1.8132*%
%ADD17R,1.8132X1.8132*%
%ADD18C,1.9032*%
D12*
X1090310Y1220440D02*
D03*
X1040310D02*
D03*
X990310D02*
D03*
X940310D02*
D03*
X1090310Y1144240D02*
D03*
X1040310D02*
D03*
X990310D02*
D03*
X940310D02*
D03*
X941110Y1322040D02*
D03*
X991110D02*
D03*
X1041110D02*
D03*
X1091110D02*
D03*
X941110Y1398240D02*
D03*
X991110D02*
D03*
X1041110D02*
D03*
X1091110D02*
D03*
Y1576040D02*
D03*
X1041110D02*
D03*
X991110D02*
D03*
X941110D02*
D03*
X1091110Y1499840D02*
D03*
X1041110D02*
D03*
X991110D02*
D03*
X941110D02*
D03*
X1565580Y1765300D02*
D03*
X1515580D02*
D03*
X1465580D02*
D03*
X1415580D02*
D03*
X1565580Y1689100D02*
D03*
X1515580D02*
D03*
X1465580D02*
D03*
X1415580D02*
D03*
X1175880D02*
D03*
X1225880D02*
D03*
X1275880D02*
D03*
X1325880D02*
D03*
X1175880Y1765300D02*
D03*
X1225880D02*
D03*
X1275880D02*
D03*
X1325880D02*
D03*
D13*
X1576810Y1093440D02*
D03*
X1511810D02*
D03*
X1576810Y1138440D02*
D03*
X1511810D02*
D03*
D14*
X1746760Y1106140D02*
D03*
X1796760D02*
D03*
D15*
X1378460Y1099790D02*
D03*
Y1125190D02*
D03*
X1448310Y1099790D02*
D03*
Y1125190D02*
D03*
D16*
X1429260Y1474440D02*
D03*
X1454660D02*
D03*
X1480060D02*
D03*
X1505460D02*
D03*
X1530860D02*
D03*
X1683260D02*
D03*
X1657860D02*
D03*
X1632460D02*
D03*
X1607060D02*
D03*
X1581660D02*
D03*
X1556260D02*
D03*
X1403860D02*
D03*
X1378460D02*
D03*
X1353060D02*
D03*
X1327660D02*
D03*
Y1245840D02*
D03*
X1353060D02*
D03*
X1378460D02*
D03*
X1403860D02*
D03*
X1429260D02*
D03*
X1581660D02*
D03*
X1556260D02*
D03*
X1530860D02*
D03*
X1505460D02*
D03*
X1480060D02*
D03*
X1454660D02*
D03*
X1429260Y1499840D02*
D03*
X1454660D02*
D03*
X1480060D02*
D03*
X1505460D02*
D03*
X1530860D02*
D03*
X1683260D02*
D03*
X1657860D02*
D03*
X1632460D02*
D03*
X1607060D02*
D03*
X1581660D02*
D03*
X1556260D02*
D03*
X1403860D02*
D03*
X1378460D02*
D03*
X1353060D02*
D03*
X1327660D02*
D03*
Y1220440D02*
D03*
X1353060D02*
D03*
X1378460D02*
D03*
X1403860D02*
D03*
X1429260D02*
D03*
X1581660D02*
D03*
X1556260D02*
D03*
X1530860D02*
D03*
X1505460D02*
D03*
X1480060D02*
D03*
X1454660D02*
D03*
D17*
X1708660Y1474440D02*
D03*
X1607060Y1245840D02*
D03*
X1708660Y1499840D02*
D03*
X1607060Y1220440D02*
D03*
D18*
X1746760Y1461740D02*
D03*
Y1258540D02*
D03*
X1264160Y1461740D02*
D03*
Y1258540D02*
D03*
M02*
