G04*
G04 #@! TF.GenerationSoftware,Altium Limited,Altium Designer,20.0.11 (256)*
G04*
G04 Layer_Physical_Order=1*
G04 Layer_Color=255*
%FSLAX44Y44*%
%MOMM*%
G71*
G01*
G75*
%ADD19C,1.0000*%
%ADD20C,0.5000*%
%ADD21C,2.0000*%
%ADD22C,1.9400*%
%ADD23C,2.2000*%
%ADD24C,1.4000*%
%ADD25C,1.6100*%
%ADD26R,1.6100X1.6100*%
%ADD27C,1.1000*%
%ADD28C,1.7000*%
G36*
X1675000Y1700000D02*
X1825000D01*
Y1050000D01*
X1675000D01*
Y900000D01*
X1025000D01*
Y1050000D01*
X875000D01*
Y1700000D01*
X1025000D01*
Y1850000D01*
X1675000D01*
Y1700000D01*
D02*
G37*
%LPC*%
G36*
X1566850Y1777781D02*
Y1766570D01*
X1578061D01*
X1577797Y1768574D01*
X1576534Y1771624D01*
X1574524Y1774244D01*
X1571904Y1776254D01*
X1568854Y1777517D01*
X1566850Y1777781D01*
D02*
G37*
G36*
X1564310D02*
X1562306Y1777517D01*
X1559256Y1776254D01*
X1556636Y1774244D01*
X1554626Y1771624D01*
X1553363Y1768574D01*
X1553099Y1766570D01*
X1564310D01*
Y1777781D01*
D02*
G37*
G36*
X1327150D02*
Y1766570D01*
X1338361D01*
X1338097Y1768574D01*
X1336834Y1771624D01*
X1334824Y1774244D01*
X1332204Y1776254D01*
X1329154Y1777517D01*
X1327150Y1777781D01*
D02*
G37*
G36*
X1324610D02*
X1322606Y1777517D01*
X1319556Y1776254D01*
X1316936Y1774244D01*
X1314926Y1771624D01*
X1313663Y1768574D01*
X1313399Y1766570D01*
X1324610D01*
Y1777781D01*
D02*
G37*
G36*
X1515580Y1776899D02*
X1512578Y1776504D01*
X1509780Y1775345D01*
X1507378Y1773502D01*
X1505535Y1771100D01*
X1504376Y1768302D01*
X1503981Y1765300D01*
X1504376Y1762298D01*
X1505535Y1759500D01*
X1507378Y1757098D01*
X1509780Y1755255D01*
X1512578Y1754096D01*
X1515580Y1753701D01*
X1518582Y1754096D01*
X1521380Y1755255D01*
X1523782Y1757098D01*
X1525625Y1759500D01*
X1526784Y1762298D01*
X1527179Y1765300D01*
X1526784Y1768302D01*
X1525625Y1771100D01*
X1523782Y1773502D01*
X1521380Y1775345D01*
X1518582Y1776504D01*
X1515580Y1776899D01*
D02*
G37*
G36*
X1465580D02*
X1462578Y1776504D01*
X1459780Y1775345D01*
X1457378Y1773502D01*
X1455535Y1771100D01*
X1454376Y1768302D01*
X1453981Y1765300D01*
X1454376Y1762298D01*
X1455535Y1759500D01*
X1457378Y1757098D01*
X1459780Y1755255D01*
X1462578Y1754096D01*
X1465580Y1753701D01*
X1468582Y1754096D01*
X1471380Y1755255D01*
X1473782Y1757098D01*
X1475625Y1759500D01*
X1476784Y1762298D01*
X1477179Y1765300D01*
X1476784Y1768302D01*
X1475625Y1771100D01*
X1473782Y1773502D01*
X1471380Y1775345D01*
X1468582Y1776504D01*
X1465580Y1776899D01*
D02*
G37*
G36*
X1415580D02*
X1412578Y1776504D01*
X1409780Y1775345D01*
X1407378Y1773502D01*
X1405535Y1771100D01*
X1404376Y1768302D01*
X1403981Y1765300D01*
X1404376Y1762298D01*
X1405535Y1759500D01*
X1407378Y1757098D01*
X1409780Y1755255D01*
X1412578Y1754096D01*
X1415580Y1753701D01*
X1418582Y1754096D01*
X1421380Y1755255D01*
X1423782Y1757098D01*
X1425625Y1759500D01*
X1426784Y1762298D01*
X1427179Y1765300D01*
X1426784Y1768302D01*
X1425625Y1771100D01*
X1423782Y1773502D01*
X1421380Y1775345D01*
X1418582Y1776504D01*
X1415580Y1776899D01*
D02*
G37*
G36*
X1275880D02*
X1272878Y1776504D01*
X1270080Y1775345D01*
X1267678Y1773502D01*
X1265835Y1771100D01*
X1264676Y1768302D01*
X1264281Y1765300D01*
X1264676Y1762298D01*
X1265835Y1759500D01*
X1267678Y1757098D01*
X1270080Y1755255D01*
X1272878Y1754096D01*
X1275880Y1753701D01*
X1278882Y1754096D01*
X1281680Y1755255D01*
X1284082Y1757098D01*
X1285925Y1759500D01*
X1287084Y1762298D01*
X1287479Y1765300D01*
X1287084Y1768302D01*
X1285925Y1771100D01*
X1284082Y1773502D01*
X1281680Y1775345D01*
X1278882Y1776504D01*
X1275880Y1776899D01*
D02*
G37*
G36*
X1225880D02*
X1222878Y1776504D01*
X1220080Y1775345D01*
X1217678Y1773502D01*
X1215835Y1771100D01*
X1214676Y1768302D01*
X1214281Y1765300D01*
X1214676Y1762298D01*
X1215835Y1759500D01*
X1217678Y1757098D01*
X1220080Y1755255D01*
X1222878Y1754096D01*
X1225880Y1753701D01*
X1228882Y1754096D01*
X1231680Y1755255D01*
X1234082Y1757098D01*
X1235925Y1759500D01*
X1237084Y1762298D01*
X1237479Y1765300D01*
X1237084Y1768302D01*
X1235925Y1771100D01*
X1234082Y1773502D01*
X1231680Y1775345D01*
X1228882Y1776504D01*
X1225880Y1776899D01*
D02*
G37*
G36*
X1175880D02*
X1172878Y1776504D01*
X1170080Y1775345D01*
X1167678Y1773502D01*
X1165835Y1771100D01*
X1164676Y1768302D01*
X1164281Y1765300D01*
X1164676Y1762298D01*
X1165835Y1759500D01*
X1167678Y1757098D01*
X1170080Y1755255D01*
X1172878Y1754096D01*
X1175880Y1753701D01*
X1178882Y1754096D01*
X1181680Y1755255D01*
X1184082Y1757098D01*
X1185925Y1759500D01*
X1187084Y1762298D01*
X1187479Y1765300D01*
X1187084Y1768302D01*
X1185925Y1771100D01*
X1184082Y1773502D01*
X1181680Y1775345D01*
X1178882Y1776504D01*
X1175880Y1776899D01*
D02*
G37*
G36*
X1578061Y1764030D02*
X1566850D01*
Y1752819D01*
X1568854Y1753083D01*
X1571904Y1754346D01*
X1574524Y1756356D01*
X1576534Y1758976D01*
X1577797Y1762026D01*
X1578061Y1764030D01*
D02*
G37*
G36*
X1564310D02*
X1553099D01*
X1553363Y1762026D01*
X1554626Y1758976D01*
X1556636Y1756356D01*
X1559256Y1754346D01*
X1562306Y1753083D01*
X1564310Y1752819D01*
Y1764030D01*
D02*
G37*
G36*
X1338361D02*
X1327150D01*
Y1752819D01*
X1329154Y1753083D01*
X1332204Y1754346D01*
X1334824Y1756356D01*
X1336834Y1758976D01*
X1338097Y1762026D01*
X1338361Y1764030D01*
D02*
G37*
G36*
X1324610D02*
X1313399D01*
X1313663Y1762026D01*
X1314926Y1758976D01*
X1316936Y1756356D01*
X1319556Y1754346D01*
X1322606Y1753083D01*
X1324610Y1752819D01*
Y1764030D01*
D02*
G37*
G36*
X1566850Y1701581D02*
Y1690370D01*
X1578061D01*
X1577797Y1692374D01*
X1576534Y1695424D01*
X1574524Y1698044D01*
X1571904Y1700054D01*
X1568854Y1701317D01*
X1566850Y1701581D01*
D02*
G37*
G36*
X1564310D02*
X1562306Y1701317D01*
X1559256Y1700054D01*
X1556636Y1698044D01*
X1554626Y1695424D01*
X1553363Y1692374D01*
X1553099Y1690370D01*
X1564310D01*
Y1701581D01*
D02*
G37*
G36*
X1327150D02*
Y1690370D01*
X1338361D01*
X1338097Y1692374D01*
X1336834Y1695424D01*
X1334824Y1698044D01*
X1332204Y1700054D01*
X1329154Y1701317D01*
X1327150Y1701581D01*
D02*
G37*
G36*
X1324610D02*
X1322606Y1701317D01*
X1319556Y1700054D01*
X1316936Y1698044D01*
X1314926Y1695424D01*
X1313663Y1692374D01*
X1313399Y1690370D01*
X1324610D01*
Y1701581D01*
D02*
G37*
G36*
X1515580Y1700699D02*
X1512578Y1700304D01*
X1509780Y1699145D01*
X1507378Y1697302D01*
X1505535Y1694900D01*
X1504376Y1692102D01*
X1503981Y1689100D01*
X1504376Y1686098D01*
X1505535Y1683300D01*
X1507378Y1680898D01*
X1509780Y1679055D01*
X1512578Y1677896D01*
X1515580Y1677501D01*
X1518582Y1677896D01*
X1521380Y1679055D01*
X1523782Y1680898D01*
X1525625Y1683300D01*
X1526784Y1686098D01*
X1527179Y1689100D01*
X1526784Y1692102D01*
X1525625Y1694900D01*
X1523782Y1697302D01*
X1521380Y1699145D01*
X1518582Y1700304D01*
X1515580Y1700699D01*
D02*
G37*
G36*
X1465580D02*
X1462578Y1700304D01*
X1459780Y1699145D01*
X1457378Y1697302D01*
X1455535Y1694900D01*
X1454376Y1692102D01*
X1453981Y1689100D01*
X1454376Y1686098D01*
X1455535Y1683300D01*
X1457378Y1680898D01*
X1459780Y1679055D01*
X1462578Y1677896D01*
X1465580Y1677501D01*
X1468582Y1677896D01*
X1471380Y1679055D01*
X1473782Y1680898D01*
X1475625Y1683300D01*
X1476784Y1686098D01*
X1477179Y1689100D01*
X1476784Y1692102D01*
X1475625Y1694900D01*
X1473782Y1697302D01*
X1471380Y1699145D01*
X1468582Y1700304D01*
X1465580Y1700699D01*
D02*
G37*
G36*
X1415580D02*
X1412578Y1700304D01*
X1409780Y1699145D01*
X1407378Y1697302D01*
X1405535Y1694900D01*
X1404376Y1692102D01*
X1403981Y1689100D01*
X1404376Y1686098D01*
X1405535Y1683300D01*
X1407378Y1680898D01*
X1409780Y1679055D01*
X1412578Y1677896D01*
X1415580Y1677501D01*
X1418582Y1677896D01*
X1421380Y1679055D01*
X1423782Y1680898D01*
X1425625Y1683300D01*
X1426784Y1686098D01*
X1427179Y1689100D01*
X1426784Y1692102D01*
X1425625Y1694900D01*
X1423782Y1697302D01*
X1421380Y1699145D01*
X1418582Y1700304D01*
X1415580Y1700699D01*
D02*
G37*
G36*
X1275880D02*
X1272878Y1700304D01*
X1270080Y1699145D01*
X1267678Y1697302D01*
X1265835Y1694900D01*
X1264676Y1692102D01*
X1264281Y1689100D01*
X1264676Y1686098D01*
X1265835Y1683300D01*
X1267678Y1680898D01*
X1270080Y1679055D01*
X1272878Y1677896D01*
X1275880Y1677501D01*
X1278882Y1677896D01*
X1281680Y1679055D01*
X1284082Y1680898D01*
X1285925Y1683300D01*
X1287084Y1686098D01*
X1287479Y1689100D01*
X1287084Y1692102D01*
X1285925Y1694900D01*
X1284082Y1697302D01*
X1281680Y1699145D01*
X1278882Y1700304D01*
X1275880Y1700699D01*
D02*
G37*
G36*
X1225880D02*
X1222878Y1700304D01*
X1220080Y1699145D01*
X1217678Y1697302D01*
X1215835Y1694900D01*
X1214676Y1692102D01*
X1214281Y1689100D01*
X1214676Y1686098D01*
X1215835Y1683300D01*
X1217678Y1680898D01*
X1220080Y1679055D01*
X1222878Y1677896D01*
X1225880Y1677501D01*
X1228882Y1677896D01*
X1231680Y1679055D01*
X1234082Y1680898D01*
X1235925Y1683300D01*
X1237084Y1686098D01*
X1237479Y1689100D01*
X1237084Y1692102D01*
X1235925Y1694900D01*
X1234082Y1697302D01*
X1231680Y1699145D01*
X1228882Y1700304D01*
X1225880Y1700699D01*
D02*
G37*
G36*
X1175880D02*
X1172878Y1700304D01*
X1170080Y1699145D01*
X1167678Y1697302D01*
X1165835Y1694900D01*
X1164676Y1692102D01*
X1164281Y1689100D01*
X1164676Y1686098D01*
X1165835Y1683300D01*
X1167678Y1680898D01*
X1170080Y1679055D01*
X1172878Y1677896D01*
X1175880Y1677501D01*
X1178882Y1677896D01*
X1181680Y1679055D01*
X1184082Y1680898D01*
X1185925Y1683300D01*
X1187084Y1686098D01*
X1187479Y1689100D01*
X1187084Y1692102D01*
X1185925Y1694900D01*
X1184082Y1697302D01*
X1181680Y1699145D01*
X1178882Y1700304D01*
X1175880Y1700699D01*
D02*
G37*
G36*
X1578061Y1687830D02*
X1566850D01*
Y1676619D01*
X1568854Y1676883D01*
X1571904Y1678146D01*
X1574524Y1680156D01*
X1576534Y1682776D01*
X1577797Y1685826D01*
X1578061Y1687830D01*
D02*
G37*
G36*
X1564310D02*
X1553099D01*
X1553363Y1685826D01*
X1554626Y1682776D01*
X1556636Y1680156D01*
X1559256Y1678146D01*
X1562306Y1676883D01*
X1564310Y1676619D01*
Y1687830D01*
D02*
G37*
G36*
X1338361D02*
X1327150D01*
Y1676619D01*
X1329154Y1676883D01*
X1332204Y1678146D01*
X1334824Y1680156D01*
X1336834Y1682776D01*
X1338097Y1685826D01*
X1338361Y1687830D01*
D02*
G37*
G36*
X1324610D02*
X1313399D01*
X1313663Y1685826D01*
X1314926Y1682776D01*
X1316936Y1680156D01*
X1319556Y1678146D01*
X1322606Y1676883D01*
X1324610Y1676619D01*
Y1687830D01*
D02*
G37*
G36*
X942380Y1588521D02*
Y1577310D01*
X953591D01*
X953327Y1579314D01*
X952064Y1582364D01*
X950054Y1584984D01*
X947434Y1586994D01*
X944384Y1588257D01*
X942380Y1588521D01*
D02*
G37*
G36*
X939840D02*
X937836Y1588257D01*
X934786Y1586994D01*
X932166Y1584984D01*
X930156Y1582364D01*
X928893Y1579314D01*
X928629Y1577310D01*
X939840D01*
Y1588521D01*
D02*
G37*
G36*
X1091110Y1587639D02*
X1088108Y1587244D01*
X1085310Y1586085D01*
X1082908Y1584242D01*
X1081065Y1581840D01*
X1079906Y1579042D01*
X1079511Y1576040D01*
X1079906Y1573038D01*
X1081065Y1570240D01*
X1082908Y1567838D01*
X1085310Y1565995D01*
X1088108Y1564836D01*
X1091110Y1564441D01*
X1094112Y1564836D01*
X1096910Y1565995D01*
X1099312Y1567838D01*
X1101155Y1570240D01*
X1102314Y1573038D01*
X1102709Y1576040D01*
X1102314Y1579042D01*
X1101155Y1581840D01*
X1099312Y1584242D01*
X1096910Y1586085D01*
X1094112Y1587244D01*
X1091110Y1587639D01*
D02*
G37*
G36*
X1041110D02*
X1038108Y1587244D01*
X1035310Y1586085D01*
X1032908Y1584242D01*
X1031065Y1581840D01*
X1029906Y1579042D01*
X1029511Y1576040D01*
X1029906Y1573038D01*
X1031065Y1570240D01*
X1032908Y1567838D01*
X1035310Y1565995D01*
X1038108Y1564836D01*
X1041110Y1564441D01*
X1044112Y1564836D01*
X1046910Y1565995D01*
X1049312Y1567838D01*
X1051155Y1570240D01*
X1052314Y1573038D01*
X1052709Y1576040D01*
X1052314Y1579042D01*
X1051155Y1581840D01*
X1049312Y1584242D01*
X1046910Y1586085D01*
X1044112Y1587244D01*
X1041110Y1587639D01*
D02*
G37*
G36*
X991110D02*
X988108Y1587244D01*
X985310Y1586085D01*
X982908Y1584242D01*
X981065Y1581840D01*
X979906Y1579042D01*
X979511Y1576040D01*
X979906Y1573038D01*
X981065Y1570240D01*
X982908Y1567838D01*
X985310Y1565995D01*
X988108Y1564836D01*
X991110Y1564441D01*
X994112Y1564836D01*
X996910Y1565995D01*
X999312Y1567838D01*
X1001155Y1570240D01*
X1002314Y1573038D01*
X1002709Y1576040D01*
X1002314Y1579042D01*
X1001155Y1581840D01*
X999312Y1584242D01*
X996910Y1586085D01*
X994112Y1587244D01*
X991110Y1587639D01*
D02*
G37*
G36*
X953591Y1574770D02*
X942380D01*
Y1563559D01*
X944384Y1563823D01*
X947434Y1565086D01*
X950054Y1567096D01*
X952064Y1569716D01*
X953327Y1572766D01*
X953591Y1574770D01*
D02*
G37*
G36*
X939840D02*
X928629D01*
X928893Y1572766D01*
X930156Y1569716D01*
X932166Y1567096D01*
X934786Y1565086D01*
X937836Y1563823D01*
X939840Y1563559D01*
Y1574770D01*
D02*
G37*
G36*
X942380Y1512321D02*
Y1501110D01*
X953591D01*
X953327Y1503114D01*
X952064Y1506164D01*
X950054Y1508784D01*
X947434Y1510794D01*
X944384Y1512057D01*
X942380Y1512321D01*
D02*
G37*
G36*
X1633730Y1510354D02*
Y1501110D01*
X1642974D01*
X1642777Y1502605D01*
X1641710Y1505181D01*
X1640013Y1507393D01*
X1637801Y1509090D01*
X1635224Y1510157D01*
X1633730Y1510354D01*
D02*
G37*
G36*
X1631190D02*
X1629695Y1510157D01*
X1627119Y1509090D01*
X1624907Y1507393D01*
X1623210Y1505181D01*
X1622143Y1502605D01*
X1621946Y1501110D01*
X1631190D01*
Y1510354D01*
D02*
G37*
G36*
X939840Y1512321D02*
X937836Y1512057D01*
X934786Y1510794D01*
X932166Y1508784D01*
X930156Y1506164D01*
X928893Y1503114D01*
X928629Y1501110D01*
X939840D01*
Y1512321D01*
D02*
G37*
G36*
X1642974Y1498570D02*
X1633730D01*
Y1489326D01*
X1635224Y1489523D01*
X1637801Y1490590D01*
X1640013Y1492287D01*
X1641710Y1494499D01*
X1642777Y1497076D01*
X1642974Y1498570D01*
D02*
G37*
G36*
X1631190D02*
X1621946D01*
X1622143Y1497076D01*
X1623210Y1494499D01*
X1624907Y1492287D01*
X1627119Y1490590D01*
X1629695Y1489523D01*
X1631190Y1489326D01*
Y1498570D01*
D02*
G37*
G36*
X1091110Y1511439D02*
X1088108Y1511044D01*
X1085310Y1509885D01*
X1082908Y1508042D01*
X1081065Y1505640D01*
X1079906Y1502842D01*
X1079511Y1499840D01*
X1079906Y1496838D01*
X1081065Y1494040D01*
X1082908Y1491638D01*
X1085310Y1489795D01*
X1088108Y1488636D01*
X1091110Y1488241D01*
X1094112Y1488636D01*
X1096910Y1489795D01*
X1099312Y1491638D01*
X1101155Y1494040D01*
X1102314Y1496838D01*
X1102709Y1499840D01*
X1102314Y1502842D01*
X1101155Y1505640D01*
X1099312Y1508042D01*
X1096910Y1509885D01*
X1094112Y1511044D01*
X1091110Y1511439D01*
D02*
G37*
G36*
X1041110D02*
X1038108Y1511044D01*
X1035310Y1509885D01*
X1032908Y1508042D01*
X1031065Y1505640D01*
X1029906Y1502842D01*
X1029511Y1499840D01*
X1029906Y1496838D01*
X1031065Y1494040D01*
X1032908Y1491638D01*
X1035310Y1489795D01*
X1038108Y1488636D01*
X1041110Y1488241D01*
X1044112Y1488636D01*
X1046910Y1489795D01*
X1049312Y1491638D01*
X1051155Y1494040D01*
X1052314Y1496838D01*
X1052709Y1499840D01*
X1052314Y1502842D01*
X1051155Y1505640D01*
X1049312Y1508042D01*
X1046910Y1509885D01*
X1044112Y1511044D01*
X1041110Y1511439D01*
D02*
G37*
G36*
X991110D02*
X988108Y1511044D01*
X985310Y1509885D01*
X982908Y1508042D01*
X981065Y1505640D01*
X979906Y1502842D01*
X979511Y1499840D01*
X979906Y1496838D01*
X981065Y1494040D01*
X982908Y1491638D01*
X985310Y1489795D01*
X988108Y1488636D01*
X991110Y1488241D01*
X994112Y1488636D01*
X996910Y1489795D01*
X999312Y1491638D01*
X1001155Y1494040D01*
X1002314Y1496838D01*
X1002709Y1499840D01*
X1002314Y1502842D01*
X1001155Y1505640D01*
X999312Y1508042D01*
X996910Y1509885D01*
X994112Y1511044D01*
X991110Y1511439D01*
D02*
G37*
G36*
X953591Y1498570D02*
X942380D01*
Y1487359D01*
X944384Y1487623D01*
X947434Y1488886D01*
X950054Y1490896D01*
X952064Y1493516D01*
X953327Y1496566D01*
X953591Y1498570D01*
D02*
G37*
G36*
X939840D02*
X928629D01*
X928893Y1496566D01*
X930156Y1493516D01*
X932166Y1490896D01*
X934786Y1488886D01*
X937836Y1487623D01*
X939840Y1487359D01*
Y1498570D01*
D02*
G37*
G36*
X1633730Y1484954D02*
Y1475710D01*
X1642974D01*
X1642777Y1477204D01*
X1641710Y1479781D01*
X1640013Y1481993D01*
X1637801Y1483690D01*
X1635224Y1484757D01*
X1633730Y1484954D01*
D02*
G37*
G36*
X1631190D02*
X1629695Y1484757D01*
X1627119Y1483690D01*
X1624907Y1481993D01*
X1623210Y1479781D01*
X1622143Y1477204D01*
X1621946Y1475710D01*
X1631190D01*
Y1484954D01*
D02*
G37*
G36*
X1718210Y1509390D02*
X1699110D01*
Y1490290D01*
X1702104D01*
Y1483990D01*
X1699110D01*
Y1464890D01*
X1718210D01*
Y1483990D01*
X1715216D01*
Y1490290D01*
X1718210D01*
Y1509390D01*
D02*
G37*
G36*
X1683260Y1509472D02*
X1680767Y1509144D01*
X1678444Y1508182D01*
X1676449Y1506651D01*
X1674918Y1504656D01*
X1673956Y1502333D01*
X1673628Y1499840D01*
X1673956Y1497347D01*
X1674918Y1495024D01*
X1676449Y1493029D01*
X1676704Y1492833D01*
Y1481447D01*
X1676449Y1481251D01*
X1674918Y1479256D01*
X1673956Y1476933D01*
X1673628Y1474440D01*
X1673956Y1471947D01*
X1674918Y1469624D01*
X1676449Y1467629D01*
X1678444Y1466098D01*
X1680767Y1465136D01*
X1683260Y1464808D01*
X1685753Y1465136D01*
X1688076Y1466098D01*
X1690071Y1467629D01*
X1691602Y1469624D01*
X1692564Y1471947D01*
X1692892Y1474440D01*
X1692564Y1476933D01*
X1691602Y1479256D01*
X1690071Y1481251D01*
X1689816Y1481447D01*
Y1492833D01*
X1690071Y1493029D01*
X1691602Y1495024D01*
X1692564Y1497347D01*
X1692892Y1499840D01*
X1692564Y1502333D01*
X1691602Y1504656D01*
X1690071Y1506651D01*
X1688076Y1508182D01*
X1685753Y1509144D01*
X1683260Y1509472D01*
D02*
G37*
G36*
X1657860D02*
X1655367Y1509144D01*
X1653044Y1508182D01*
X1651049Y1506651D01*
X1649518Y1504656D01*
X1648556Y1502333D01*
X1648228Y1499840D01*
X1648556Y1497347D01*
X1649518Y1495024D01*
X1651049Y1493029D01*
X1651304Y1492833D01*
Y1481447D01*
X1651049Y1481251D01*
X1649518Y1479256D01*
X1648556Y1476933D01*
X1648228Y1474440D01*
X1648556Y1471947D01*
X1649518Y1469624D01*
X1651049Y1467629D01*
X1653044Y1466098D01*
X1655367Y1465136D01*
X1657860Y1464808D01*
X1660353Y1465136D01*
X1662676Y1466098D01*
X1664671Y1467629D01*
X1666202Y1469624D01*
X1667164Y1471947D01*
X1667492Y1474440D01*
X1667164Y1476933D01*
X1666202Y1479256D01*
X1664671Y1481251D01*
X1664416Y1481447D01*
Y1492833D01*
X1664671Y1493029D01*
X1666202Y1495024D01*
X1667164Y1497347D01*
X1667492Y1499840D01*
X1667164Y1502333D01*
X1666202Y1504656D01*
X1664671Y1506651D01*
X1662676Y1508182D01*
X1660353Y1509144D01*
X1657860Y1509472D01*
D02*
G37*
G36*
X1607060D02*
X1604567Y1509144D01*
X1602244Y1508182D01*
X1600249Y1506651D01*
X1598718Y1504656D01*
X1597756Y1502333D01*
X1597428Y1499840D01*
X1597756Y1497347D01*
X1598718Y1495024D01*
X1600249Y1493029D01*
X1600504Y1492833D01*
Y1481447D01*
X1600249Y1481251D01*
X1598718Y1479256D01*
X1597756Y1476933D01*
X1597428Y1474440D01*
X1597756Y1471947D01*
X1598718Y1469624D01*
X1600249Y1467629D01*
X1602244Y1466098D01*
X1604567Y1465136D01*
X1607060Y1464808D01*
X1609553Y1465136D01*
X1611876Y1466098D01*
X1613871Y1467629D01*
X1615402Y1469624D01*
X1616364Y1471947D01*
X1616692Y1474440D01*
X1616364Y1476933D01*
X1615402Y1479256D01*
X1613871Y1481251D01*
X1613616Y1481447D01*
Y1492833D01*
X1613871Y1493029D01*
X1615402Y1495024D01*
X1616364Y1497347D01*
X1616692Y1499840D01*
X1616364Y1502333D01*
X1615402Y1504656D01*
X1613871Y1506651D01*
X1611876Y1508182D01*
X1609553Y1509144D01*
X1607060Y1509472D01*
D02*
G37*
G36*
X1581660D02*
X1579167Y1509144D01*
X1576844Y1508182D01*
X1574849Y1506651D01*
X1573318Y1504656D01*
X1572356Y1502333D01*
X1572028Y1499840D01*
X1572356Y1497347D01*
X1573318Y1495024D01*
X1574849Y1493029D01*
X1575104Y1492833D01*
Y1481447D01*
X1574849Y1481251D01*
X1573318Y1479256D01*
X1572356Y1476933D01*
X1572028Y1474440D01*
X1572356Y1471947D01*
X1573318Y1469624D01*
X1574849Y1467629D01*
X1576844Y1466098D01*
X1579167Y1465136D01*
X1581660Y1464808D01*
X1584153Y1465136D01*
X1586476Y1466098D01*
X1588471Y1467629D01*
X1590002Y1469624D01*
X1590964Y1471947D01*
X1591292Y1474440D01*
X1590964Y1476933D01*
X1590002Y1479256D01*
X1588471Y1481251D01*
X1588216Y1481447D01*
Y1492833D01*
X1588471Y1493029D01*
X1590002Y1495024D01*
X1590964Y1497347D01*
X1591292Y1499840D01*
X1590964Y1502333D01*
X1590002Y1504656D01*
X1588471Y1506651D01*
X1586476Y1508182D01*
X1584153Y1509144D01*
X1581660Y1509472D01*
D02*
G37*
G36*
X1556260D02*
X1553767Y1509144D01*
X1551444Y1508182D01*
X1549449Y1506651D01*
X1547918Y1504656D01*
X1546956Y1502333D01*
X1546628Y1499840D01*
X1546956Y1497347D01*
X1547918Y1495024D01*
X1549449Y1493029D01*
X1549704Y1492833D01*
Y1481447D01*
X1549449Y1481251D01*
X1547918Y1479256D01*
X1546956Y1476933D01*
X1546628Y1474440D01*
X1546956Y1471947D01*
X1547918Y1469624D01*
X1549449Y1467629D01*
X1551444Y1466098D01*
X1553767Y1465136D01*
X1556260Y1464808D01*
X1558753Y1465136D01*
X1561076Y1466098D01*
X1563071Y1467629D01*
X1564602Y1469624D01*
X1565564Y1471947D01*
X1565892Y1474440D01*
X1565564Y1476933D01*
X1564602Y1479256D01*
X1563071Y1481251D01*
X1562816Y1481447D01*
Y1492833D01*
X1563071Y1493029D01*
X1564602Y1495024D01*
X1565564Y1497347D01*
X1565892Y1499840D01*
X1565564Y1502333D01*
X1564602Y1504656D01*
X1563071Y1506651D01*
X1561076Y1508182D01*
X1558753Y1509144D01*
X1556260Y1509472D01*
D02*
G37*
G36*
X1530860D02*
X1528367Y1509144D01*
X1526044Y1508182D01*
X1524049Y1506651D01*
X1522518Y1504656D01*
X1521556Y1502333D01*
X1521228Y1499840D01*
X1521556Y1497347D01*
X1522518Y1495024D01*
X1524049Y1493029D01*
X1524304Y1492833D01*
Y1481447D01*
X1524049Y1481251D01*
X1522518Y1479256D01*
X1521556Y1476933D01*
X1521228Y1474440D01*
X1521556Y1471947D01*
X1522518Y1469624D01*
X1524049Y1467629D01*
X1526044Y1466098D01*
X1528367Y1465136D01*
X1530860Y1464808D01*
X1533353Y1465136D01*
X1535676Y1466098D01*
X1537671Y1467629D01*
X1539202Y1469624D01*
X1540164Y1471947D01*
X1540492Y1474440D01*
X1540164Y1476933D01*
X1539202Y1479256D01*
X1537671Y1481251D01*
X1537416Y1481447D01*
Y1492833D01*
X1537671Y1493029D01*
X1539202Y1495024D01*
X1540164Y1497347D01*
X1540492Y1499840D01*
X1540164Y1502333D01*
X1539202Y1504656D01*
X1537671Y1506651D01*
X1535676Y1508182D01*
X1533353Y1509144D01*
X1530860Y1509472D01*
D02*
G37*
G36*
X1505460D02*
X1502967Y1509144D01*
X1500644Y1508182D01*
X1498649Y1506651D01*
X1497118Y1504656D01*
X1496156Y1502333D01*
X1495828Y1499840D01*
X1496156Y1497347D01*
X1497118Y1495024D01*
X1498649Y1493029D01*
X1498904Y1492833D01*
Y1481447D01*
X1498649Y1481251D01*
X1497118Y1479256D01*
X1496156Y1476933D01*
X1495828Y1474440D01*
X1496156Y1471947D01*
X1497118Y1469624D01*
X1498649Y1467629D01*
X1500644Y1466098D01*
X1502967Y1465136D01*
X1505460Y1464808D01*
X1507953Y1465136D01*
X1510276Y1466098D01*
X1512271Y1467629D01*
X1513802Y1469624D01*
X1514764Y1471947D01*
X1515092Y1474440D01*
X1514764Y1476933D01*
X1513802Y1479256D01*
X1512271Y1481251D01*
X1512016Y1481447D01*
Y1492833D01*
X1512271Y1493029D01*
X1513802Y1495024D01*
X1514764Y1497347D01*
X1515092Y1499840D01*
X1514764Y1502333D01*
X1513802Y1504656D01*
X1512271Y1506651D01*
X1510276Y1508182D01*
X1507953Y1509144D01*
X1505460Y1509472D01*
D02*
G37*
G36*
X1480060D02*
X1477567Y1509144D01*
X1475244Y1508182D01*
X1473249Y1506651D01*
X1471718Y1504656D01*
X1470756Y1502333D01*
X1470428Y1499840D01*
X1470756Y1497347D01*
X1471718Y1495024D01*
X1473249Y1493029D01*
X1473504Y1492833D01*
Y1481447D01*
X1473249Y1481251D01*
X1471718Y1479256D01*
X1470756Y1476933D01*
X1470428Y1474440D01*
X1470756Y1471947D01*
X1471718Y1469624D01*
X1473249Y1467629D01*
X1475244Y1466098D01*
X1477567Y1465136D01*
X1480060Y1464808D01*
X1482553Y1465136D01*
X1484876Y1466098D01*
X1486871Y1467629D01*
X1488402Y1469624D01*
X1489364Y1471947D01*
X1489692Y1474440D01*
X1489364Y1476933D01*
X1488402Y1479256D01*
X1486871Y1481251D01*
X1486616Y1481447D01*
Y1492833D01*
X1486871Y1493029D01*
X1488402Y1495024D01*
X1489364Y1497347D01*
X1489692Y1499840D01*
X1489364Y1502333D01*
X1488402Y1504656D01*
X1486871Y1506651D01*
X1484876Y1508182D01*
X1482553Y1509144D01*
X1480060Y1509472D01*
D02*
G37*
G36*
X1454660D02*
X1452167Y1509144D01*
X1449844Y1508182D01*
X1447849Y1506651D01*
X1446318Y1504656D01*
X1445356Y1502333D01*
X1445028Y1499840D01*
X1445356Y1497347D01*
X1446318Y1495024D01*
X1447849Y1493029D01*
X1448104Y1492833D01*
Y1481447D01*
X1447849Y1481251D01*
X1446318Y1479256D01*
X1445356Y1476933D01*
X1445028Y1474440D01*
X1445356Y1471947D01*
X1446318Y1469624D01*
X1447849Y1467629D01*
X1449844Y1466098D01*
X1452167Y1465136D01*
X1454660Y1464808D01*
X1457153Y1465136D01*
X1459476Y1466098D01*
X1461471Y1467629D01*
X1463002Y1469624D01*
X1463964Y1471947D01*
X1464292Y1474440D01*
X1463964Y1476933D01*
X1463002Y1479256D01*
X1461471Y1481251D01*
X1461216Y1481447D01*
Y1492833D01*
X1461471Y1493029D01*
X1463002Y1495024D01*
X1463964Y1497347D01*
X1464292Y1499840D01*
X1463964Y1502333D01*
X1463002Y1504656D01*
X1461471Y1506651D01*
X1459476Y1508182D01*
X1457153Y1509144D01*
X1454660Y1509472D01*
D02*
G37*
G36*
X1429260D02*
X1426767Y1509144D01*
X1424444Y1508182D01*
X1422449Y1506651D01*
X1420918Y1504656D01*
X1419956Y1502333D01*
X1419628Y1499840D01*
X1419956Y1497347D01*
X1420918Y1495024D01*
X1422449Y1493029D01*
X1422704Y1492833D01*
Y1481447D01*
X1422449Y1481251D01*
X1420918Y1479256D01*
X1419956Y1476933D01*
X1419628Y1474440D01*
X1419956Y1471947D01*
X1420918Y1469624D01*
X1422449Y1467629D01*
X1424444Y1466098D01*
X1426767Y1465136D01*
X1429260Y1464808D01*
X1431753Y1465136D01*
X1434076Y1466098D01*
X1436071Y1467629D01*
X1437602Y1469624D01*
X1438564Y1471947D01*
X1438892Y1474440D01*
X1438564Y1476933D01*
X1437602Y1479256D01*
X1436071Y1481251D01*
X1435816Y1481447D01*
Y1492833D01*
X1436071Y1493029D01*
X1437602Y1495024D01*
X1438564Y1497347D01*
X1438892Y1499840D01*
X1438564Y1502333D01*
X1437602Y1504656D01*
X1436071Y1506651D01*
X1434076Y1508182D01*
X1431753Y1509144D01*
X1429260Y1509472D01*
D02*
G37*
G36*
X1403860D02*
X1401367Y1509144D01*
X1399044Y1508182D01*
X1397049Y1506651D01*
X1395518Y1504656D01*
X1394556Y1502333D01*
X1394228Y1499840D01*
X1394556Y1497347D01*
X1395518Y1495024D01*
X1397049Y1493029D01*
X1397304Y1492833D01*
Y1481447D01*
X1397049Y1481251D01*
X1395518Y1479256D01*
X1394556Y1476933D01*
X1394228Y1474440D01*
X1394556Y1471947D01*
X1395518Y1469624D01*
X1397049Y1467629D01*
X1399044Y1466098D01*
X1401367Y1465136D01*
X1403860Y1464808D01*
X1406353Y1465136D01*
X1408676Y1466098D01*
X1410671Y1467629D01*
X1412202Y1469624D01*
X1413164Y1471947D01*
X1413492Y1474440D01*
X1413164Y1476933D01*
X1412202Y1479256D01*
X1410671Y1481251D01*
X1410416Y1481447D01*
Y1492833D01*
X1410671Y1493029D01*
X1412202Y1495024D01*
X1413164Y1497347D01*
X1413492Y1499840D01*
X1413164Y1502333D01*
X1412202Y1504656D01*
X1410671Y1506651D01*
X1408676Y1508182D01*
X1406353Y1509144D01*
X1403860Y1509472D01*
D02*
G37*
G36*
X1378460D02*
X1375967Y1509144D01*
X1373644Y1508182D01*
X1371649Y1506651D01*
X1370118Y1504656D01*
X1369156Y1502333D01*
X1368828Y1499840D01*
X1369156Y1497347D01*
X1370118Y1495024D01*
X1371649Y1493029D01*
X1371904Y1492833D01*
Y1481447D01*
X1371649Y1481251D01*
X1370118Y1479256D01*
X1369156Y1476933D01*
X1368828Y1474440D01*
X1369156Y1471947D01*
X1370118Y1469624D01*
X1371649Y1467629D01*
X1373644Y1466098D01*
X1375967Y1465136D01*
X1378460Y1464808D01*
X1380953Y1465136D01*
X1383276Y1466098D01*
X1385271Y1467629D01*
X1386802Y1469624D01*
X1387764Y1471947D01*
X1388092Y1474440D01*
X1387764Y1476933D01*
X1386802Y1479256D01*
X1385271Y1481251D01*
X1385016Y1481447D01*
Y1492833D01*
X1385271Y1493029D01*
X1386802Y1495024D01*
X1387764Y1497347D01*
X1388092Y1499840D01*
X1387764Y1502333D01*
X1386802Y1504656D01*
X1385271Y1506651D01*
X1383276Y1508182D01*
X1380953Y1509144D01*
X1378460Y1509472D01*
D02*
G37*
G36*
X1353060D02*
X1350567Y1509144D01*
X1348244Y1508182D01*
X1346249Y1506651D01*
X1344718Y1504656D01*
X1343756Y1502333D01*
X1343428Y1499840D01*
X1343756Y1497347D01*
X1344718Y1495024D01*
X1346249Y1493029D01*
X1346504Y1492833D01*
Y1481447D01*
X1346249Y1481251D01*
X1344718Y1479256D01*
X1343756Y1476933D01*
X1343428Y1474440D01*
X1343756Y1471947D01*
X1344718Y1469624D01*
X1346249Y1467629D01*
X1348244Y1466098D01*
X1350567Y1465136D01*
X1353060Y1464808D01*
X1355553Y1465136D01*
X1357876Y1466098D01*
X1359871Y1467629D01*
X1361402Y1469624D01*
X1362364Y1471947D01*
X1362692Y1474440D01*
X1362364Y1476933D01*
X1361402Y1479256D01*
X1359871Y1481251D01*
X1359616Y1481447D01*
Y1492833D01*
X1359871Y1493029D01*
X1361402Y1495024D01*
X1362364Y1497347D01*
X1362692Y1499840D01*
X1362364Y1502333D01*
X1361402Y1504656D01*
X1359871Y1506651D01*
X1357876Y1508182D01*
X1355553Y1509144D01*
X1353060Y1509472D01*
D02*
G37*
G36*
X1327660D02*
X1325167Y1509144D01*
X1322844Y1508182D01*
X1320849Y1506651D01*
X1319318Y1504656D01*
X1318356Y1502333D01*
X1318028Y1499840D01*
X1318356Y1497347D01*
X1319318Y1495024D01*
X1320849Y1493029D01*
X1321104Y1492833D01*
Y1481447D01*
X1320849Y1481251D01*
X1319318Y1479256D01*
X1318356Y1476933D01*
X1318028Y1474440D01*
X1318356Y1471947D01*
X1319318Y1469624D01*
X1320849Y1467629D01*
X1322844Y1466098D01*
X1325167Y1465136D01*
X1327660Y1464808D01*
X1330153Y1465136D01*
X1332476Y1466098D01*
X1334471Y1467629D01*
X1336002Y1469624D01*
X1336964Y1471947D01*
X1337292Y1474440D01*
X1336964Y1476933D01*
X1336002Y1479256D01*
X1334471Y1481251D01*
X1334216Y1481447D01*
Y1492833D01*
X1334471Y1493029D01*
X1336002Y1495024D01*
X1336964Y1497347D01*
X1337292Y1499840D01*
X1336964Y1502333D01*
X1336002Y1504656D01*
X1334471Y1506651D01*
X1332476Y1508182D01*
X1330153Y1509144D01*
X1327660Y1509472D01*
D02*
G37*
G36*
X1642974Y1473170D02*
X1633730D01*
Y1463926D01*
X1635224Y1464123D01*
X1637801Y1465190D01*
X1640013Y1466887D01*
X1641710Y1469099D01*
X1642777Y1471676D01*
X1642974Y1473170D01*
D02*
G37*
G36*
X1631190D02*
X1621946D01*
X1622143Y1471676D01*
X1623210Y1469099D01*
X1624907Y1466887D01*
X1627119Y1465190D01*
X1629695Y1464123D01*
X1631190Y1463926D01*
Y1473170D01*
D02*
G37*
G36*
X1746760Y1471826D02*
X1744149Y1471483D01*
X1741717Y1470475D01*
X1739628Y1468872D01*
X1738025Y1466783D01*
X1737017Y1464350D01*
X1736674Y1461740D01*
X1737017Y1459129D01*
X1738025Y1456697D01*
X1739628Y1454608D01*
X1741717Y1453005D01*
X1744149Y1451997D01*
X1746760Y1451654D01*
X1749371Y1451997D01*
X1751803Y1453005D01*
X1753892Y1454608D01*
X1755495Y1456697D01*
X1756503Y1459129D01*
X1756846Y1461740D01*
X1756503Y1464350D01*
X1755495Y1466783D01*
X1753892Y1468872D01*
X1751803Y1470475D01*
X1749371Y1471483D01*
X1746760Y1471826D01*
D02*
G37*
G36*
X1264160D02*
X1261550Y1471483D01*
X1259117Y1470475D01*
X1257028Y1468872D01*
X1255425Y1466783D01*
X1254417Y1464350D01*
X1254074Y1461740D01*
X1254417Y1459129D01*
X1255425Y1456697D01*
X1257028Y1454608D01*
X1259117Y1453005D01*
X1261550Y1451997D01*
X1264160Y1451654D01*
X1266770Y1451997D01*
X1269203Y1453005D01*
X1271292Y1454608D01*
X1272895Y1456697D01*
X1273903Y1459129D01*
X1274246Y1461740D01*
X1273903Y1464350D01*
X1272895Y1466783D01*
X1271292Y1468872D01*
X1269203Y1470475D01*
X1266770Y1471483D01*
X1264160Y1471826D01*
D02*
G37*
G36*
X942380Y1410721D02*
Y1399510D01*
X953591D01*
X953327Y1401514D01*
X952064Y1404564D01*
X950054Y1407184D01*
X947434Y1409194D01*
X944384Y1410457D01*
X942380Y1410721D01*
D02*
G37*
G36*
X939840D02*
X937836Y1410457D01*
X934786Y1409194D01*
X932166Y1407184D01*
X930156Y1404564D01*
X928893Y1401514D01*
X928629Y1399510D01*
X939840D01*
Y1410721D01*
D02*
G37*
G36*
X1091110Y1409839D02*
X1088108Y1409444D01*
X1085310Y1408285D01*
X1082908Y1406442D01*
X1081065Y1404040D01*
X1079906Y1401242D01*
X1079511Y1398240D01*
X1079906Y1395238D01*
X1081065Y1392440D01*
X1082908Y1390038D01*
X1085310Y1388195D01*
X1088108Y1387036D01*
X1091110Y1386641D01*
X1094112Y1387036D01*
X1096910Y1388195D01*
X1099312Y1390038D01*
X1101155Y1392440D01*
X1102314Y1395238D01*
X1102709Y1398240D01*
X1102314Y1401242D01*
X1101155Y1404040D01*
X1099312Y1406442D01*
X1096910Y1408285D01*
X1094112Y1409444D01*
X1091110Y1409839D01*
D02*
G37*
G36*
X1041110D02*
X1038108Y1409444D01*
X1035310Y1408285D01*
X1032908Y1406442D01*
X1031065Y1404040D01*
X1029906Y1401242D01*
X1029511Y1398240D01*
X1029906Y1395238D01*
X1031065Y1392440D01*
X1032908Y1390038D01*
X1035310Y1388195D01*
X1038108Y1387036D01*
X1041110Y1386641D01*
X1044112Y1387036D01*
X1046910Y1388195D01*
X1049312Y1390038D01*
X1051155Y1392440D01*
X1052314Y1395238D01*
X1052709Y1398240D01*
X1052314Y1401242D01*
X1051155Y1404040D01*
X1049312Y1406442D01*
X1046910Y1408285D01*
X1044112Y1409444D01*
X1041110Y1409839D01*
D02*
G37*
G36*
X991110D02*
X988108Y1409444D01*
X985310Y1408285D01*
X982908Y1406442D01*
X981065Y1404040D01*
X979906Y1401242D01*
X979511Y1398240D01*
X979906Y1395238D01*
X981065Y1392440D01*
X982908Y1390038D01*
X985310Y1388195D01*
X988108Y1387036D01*
X991110Y1386641D01*
X994112Y1387036D01*
X996910Y1388195D01*
X999312Y1390038D01*
X1001155Y1392440D01*
X1002314Y1395238D01*
X1002709Y1398240D01*
X1002314Y1401242D01*
X1001155Y1404040D01*
X999312Y1406442D01*
X996910Y1408285D01*
X994112Y1409444D01*
X991110Y1409839D01*
D02*
G37*
G36*
X953591Y1396970D02*
X942380D01*
Y1385759D01*
X944384Y1386023D01*
X947434Y1387286D01*
X950054Y1389296D01*
X952064Y1391916D01*
X953327Y1394966D01*
X953591Y1396970D01*
D02*
G37*
G36*
X939840D02*
X928629D01*
X928893Y1394966D01*
X930156Y1391916D01*
X932166Y1389296D01*
X934786Y1387286D01*
X937836Y1386023D01*
X939840Y1385759D01*
Y1396970D01*
D02*
G37*
G36*
X942380Y1334521D02*
Y1323310D01*
X953591D01*
X953327Y1325314D01*
X952064Y1328364D01*
X950054Y1330984D01*
X947434Y1332994D01*
X944384Y1334257D01*
X942380Y1334521D01*
D02*
G37*
G36*
X939840D02*
X937836Y1334257D01*
X934786Y1332994D01*
X932166Y1330984D01*
X930156Y1328364D01*
X928893Y1325314D01*
X928629Y1323310D01*
X939840D01*
Y1334521D01*
D02*
G37*
G36*
X1091110Y1333639D02*
X1088108Y1333244D01*
X1085310Y1332085D01*
X1082908Y1330242D01*
X1081065Y1327840D01*
X1079906Y1325042D01*
X1079511Y1322040D01*
X1079906Y1319038D01*
X1081065Y1316240D01*
X1082908Y1313838D01*
X1085310Y1311995D01*
X1088108Y1310836D01*
X1091110Y1310441D01*
X1094112Y1310836D01*
X1096910Y1311995D01*
X1099312Y1313838D01*
X1101155Y1316240D01*
X1102314Y1319038D01*
X1102709Y1322040D01*
X1102314Y1325042D01*
X1101155Y1327840D01*
X1099312Y1330242D01*
X1096910Y1332085D01*
X1094112Y1333244D01*
X1091110Y1333639D01*
D02*
G37*
G36*
X1041110D02*
X1038108Y1333244D01*
X1035310Y1332085D01*
X1032908Y1330242D01*
X1031065Y1327840D01*
X1029906Y1325042D01*
X1029511Y1322040D01*
X1029906Y1319038D01*
X1031065Y1316240D01*
X1032908Y1313838D01*
X1035310Y1311995D01*
X1038108Y1310836D01*
X1041110Y1310441D01*
X1044112Y1310836D01*
X1046910Y1311995D01*
X1049312Y1313838D01*
X1051155Y1316240D01*
X1052314Y1319038D01*
X1052709Y1322040D01*
X1052314Y1325042D01*
X1051155Y1327840D01*
X1049312Y1330242D01*
X1046910Y1332085D01*
X1044112Y1333244D01*
X1041110Y1333639D01*
D02*
G37*
G36*
X991110D02*
X988108Y1333244D01*
X985310Y1332085D01*
X982908Y1330242D01*
X981065Y1327840D01*
X979906Y1325042D01*
X979511Y1322040D01*
X979906Y1319038D01*
X981065Y1316240D01*
X982908Y1313838D01*
X985310Y1311995D01*
X988108Y1310836D01*
X991110Y1310441D01*
X994112Y1310836D01*
X996910Y1311995D01*
X999312Y1313838D01*
X1001155Y1316240D01*
X1002314Y1319038D01*
X1002709Y1322040D01*
X1002314Y1325042D01*
X1001155Y1327840D01*
X999312Y1330242D01*
X996910Y1332085D01*
X994112Y1333244D01*
X991110Y1333639D01*
D02*
G37*
G36*
X953591Y1320770D02*
X942380D01*
Y1309559D01*
X944384Y1309823D01*
X947434Y1311086D01*
X950054Y1313096D01*
X952064Y1315716D01*
X953327Y1318766D01*
X953591Y1320770D01*
D02*
G37*
G36*
X939840D02*
X928629D01*
X928893Y1318766D01*
X930156Y1315716D01*
X932166Y1313096D01*
X934786Y1311086D01*
X937836Y1309823D01*
X939840Y1309559D01*
Y1320770D01*
D02*
G37*
G36*
X1746760Y1268626D02*
X1744149Y1268283D01*
X1741717Y1267275D01*
X1739628Y1265672D01*
X1738025Y1263583D01*
X1737017Y1261151D01*
X1736674Y1258540D01*
X1737017Y1255929D01*
X1738025Y1253497D01*
X1739628Y1251408D01*
X1741717Y1249805D01*
X1744149Y1248797D01*
X1746760Y1248454D01*
X1749371Y1248797D01*
X1751803Y1249805D01*
X1753892Y1251408D01*
X1755495Y1253497D01*
X1756503Y1255929D01*
X1756846Y1258540D01*
X1756503Y1261151D01*
X1755495Y1263583D01*
X1753892Y1265672D01*
X1751803Y1267275D01*
X1749371Y1268283D01*
X1746760Y1268626D01*
D02*
G37*
G36*
X1264160D02*
X1261550Y1268283D01*
X1259117Y1267275D01*
X1257028Y1265672D01*
X1255425Y1263583D01*
X1254417Y1261151D01*
X1254074Y1258540D01*
X1254417Y1255929D01*
X1255425Y1253497D01*
X1257028Y1251408D01*
X1259117Y1249805D01*
X1261550Y1248797D01*
X1264160Y1248454D01*
X1266770Y1248797D01*
X1269203Y1249805D01*
X1271292Y1251408D01*
X1272895Y1253497D01*
X1273903Y1255929D01*
X1274246Y1258540D01*
X1273903Y1261151D01*
X1272895Y1263583D01*
X1271292Y1265672D01*
X1269203Y1267275D01*
X1266770Y1268283D01*
X1264160Y1268626D01*
D02*
G37*
G36*
X941580Y1232921D02*
Y1221710D01*
X952791D01*
X952527Y1223714D01*
X951264Y1226764D01*
X949254Y1229384D01*
X946634Y1231394D01*
X943584Y1232657D01*
X941580Y1232921D01*
D02*
G37*
G36*
X939040D02*
X937036Y1232657D01*
X933986Y1231394D01*
X931366Y1229384D01*
X929356Y1226764D01*
X928093Y1223714D01*
X927829Y1221710D01*
X939040D01*
Y1232921D01*
D02*
G37*
G36*
X1581660Y1255472D02*
X1579167Y1255144D01*
X1576844Y1254182D01*
X1574849Y1252651D01*
X1573318Y1250656D01*
X1572356Y1248333D01*
X1572028Y1245840D01*
X1572356Y1243347D01*
X1573318Y1241024D01*
X1574849Y1239029D01*
X1575104Y1238833D01*
Y1227447D01*
X1574849Y1227251D01*
X1573318Y1225256D01*
X1572356Y1222933D01*
X1572028Y1220440D01*
X1572356Y1217947D01*
X1573318Y1215624D01*
X1574849Y1213629D01*
X1576844Y1212098D01*
X1579167Y1211136D01*
X1581660Y1210808D01*
X1584153Y1211136D01*
X1586476Y1212098D01*
X1588471Y1213629D01*
X1590002Y1215624D01*
X1590964Y1217947D01*
X1591292Y1220440D01*
X1590964Y1222933D01*
X1590002Y1225256D01*
X1588471Y1227251D01*
X1588216Y1227447D01*
Y1238833D01*
X1588471Y1239029D01*
X1590002Y1241024D01*
X1590964Y1243347D01*
X1591292Y1245840D01*
X1590964Y1248333D01*
X1590002Y1250656D01*
X1588471Y1252651D01*
X1586476Y1254182D01*
X1584153Y1255144D01*
X1581660Y1255472D01*
D02*
G37*
G36*
X1556260D02*
X1553767Y1255144D01*
X1551444Y1254182D01*
X1549449Y1252651D01*
X1547918Y1250656D01*
X1546956Y1248333D01*
X1546628Y1245840D01*
X1546956Y1243347D01*
X1547918Y1241024D01*
X1549449Y1239029D01*
X1549704Y1238833D01*
Y1227447D01*
X1549449Y1227251D01*
X1547918Y1225256D01*
X1546956Y1222933D01*
X1546628Y1220440D01*
X1546956Y1217947D01*
X1547918Y1215624D01*
X1549449Y1213629D01*
X1551444Y1212098D01*
X1553767Y1211136D01*
X1556260Y1210808D01*
X1558753Y1211136D01*
X1561076Y1212098D01*
X1563071Y1213629D01*
X1564602Y1215624D01*
X1565564Y1217947D01*
X1565892Y1220440D01*
X1565564Y1222933D01*
X1564602Y1225256D01*
X1563071Y1227251D01*
X1562816Y1227447D01*
Y1238833D01*
X1563071Y1239029D01*
X1564602Y1241024D01*
X1565564Y1243347D01*
X1565892Y1245840D01*
X1565564Y1248333D01*
X1564602Y1250656D01*
X1563071Y1252651D01*
X1561076Y1254182D01*
X1558753Y1255144D01*
X1556260Y1255472D01*
D02*
G37*
G36*
X1530860D02*
X1528367Y1255144D01*
X1526044Y1254182D01*
X1524049Y1252651D01*
X1522518Y1250656D01*
X1521556Y1248333D01*
X1521228Y1245840D01*
X1521556Y1243347D01*
X1522518Y1241024D01*
X1524049Y1239029D01*
X1524304Y1238833D01*
Y1227447D01*
X1524049Y1227251D01*
X1522518Y1225256D01*
X1521556Y1222933D01*
X1521228Y1220440D01*
X1521556Y1217947D01*
X1522518Y1215624D01*
X1524049Y1213629D01*
X1526044Y1212098D01*
X1528367Y1211136D01*
X1530860Y1210808D01*
X1533353Y1211136D01*
X1535676Y1212098D01*
X1537671Y1213629D01*
X1539202Y1215624D01*
X1540164Y1217947D01*
X1540492Y1220440D01*
X1540164Y1222933D01*
X1539202Y1225256D01*
X1537671Y1227251D01*
X1537416Y1227447D01*
Y1238833D01*
X1537671Y1239029D01*
X1539202Y1241024D01*
X1540164Y1243347D01*
X1540492Y1245840D01*
X1540164Y1248333D01*
X1539202Y1250656D01*
X1537671Y1252651D01*
X1535676Y1254182D01*
X1533353Y1255144D01*
X1530860Y1255472D01*
D02*
G37*
G36*
X1505460D02*
X1502967Y1255144D01*
X1500644Y1254182D01*
X1498649Y1252651D01*
X1497118Y1250656D01*
X1496156Y1248333D01*
X1495828Y1245840D01*
X1496156Y1243347D01*
X1497118Y1241024D01*
X1498649Y1239029D01*
X1498904Y1238833D01*
Y1227447D01*
X1498649Y1227251D01*
X1497118Y1225256D01*
X1496156Y1222933D01*
X1495828Y1220440D01*
X1496156Y1217947D01*
X1497118Y1215624D01*
X1498649Y1213629D01*
X1500644Y1212098D01*
X1502967Y1211136D01*
X1505460Y1210808D01*
X1507953Y1211136D01*
X1510276Y1212098D01*
X1512271Y1213629D01*
X1513802Y1215624D01*
X1514764Y1217947D01*
X1515092Y1220440D01*
X1514764Y1222933D01*
X1513802Y1225256D01*
X1512271Y1227251D01*
X1512016Y1227447D01*
Y1238833D01*
X1512271Y1239029D01*
X1513802Y1241024D01*
X1514764Y1243347D01*
X1515092Y1245840D01*
X1514764Y1248333D01*
X1513802Y1250656D01*
X1512271Y1252651D01*
X1510276Y1254182D01*
X1507953Y1255144D01*
X1505460Y1255472D01*
D02*
G37*
G36*
X1480060D02*
X1477567Y1255144D01*
X1475244Y1254182D01*
X1473249Y1252651D01*
X1471718Y1250656D01*
X1470756Y1248333D01*
X1470428Y1245840D01*
X1470756Y1243347D01*
X1471718Y1241024D01*
X1473249Y1239029D01*
X1473504Y1238833D01*
Y1227447D01*
X1473249Y1227251D01*
X1471718Y1225256D01*
X1470756Y1222933D01*
X1470428Y1220440D01*
X1470756Y1217947D01*
X1471718Y1215624D01*
X1473249Y1213629D01*
X1475244Y1212098D01*
X1477567Y1211136D01*
X1480060Y1210808D01*
X1482553Y1211136D01*
X1484876Y1212098D01*
X1486871Y1213629D01*
X1488402Y1215624D01*
X1489364Y1217947D01*
X1489692Y1220440D01*
X1489364Y1222933D01*
X1488402Y1225256D01*
X1486871Y1227251D01*
X1486616Y1227447D01*
Y1238833D01*
X1486871Y1239029D01*
X1488402Y1241024D01*
X1489364Y1243347D01*
X1489692Y1245840D01*
X1489364Y1248333D01*
X1488402Y1250656D01*
X1486871Y1252651D01*
X1484876Y1254182D01*
X1482553Y1255144D01*
X1480060Y1255472D01*
D02*
G37*
G36*
X1454660D02*
X1452167Y1255144D01*
X1449844Y1254182D01*
X1447849Y1252651D01*
X1446318Y1250656D01*
X1445356Y1248333D01*
X1445028Y1245840D01*
X1445356Y1243347D01*
X1446318Y1241024D01*
X1447849Y1239029D01*
X1448104Y1238833D01*
Y1227447D01*
X1447849Y1227251D01*
X1446318Y1225256D01*
X1445356Y1222933D01*
X1445028Y1220440D01*
X1445356Y1217947D01*
X1446318Y1215624D01*
X1447849Y1213629D01*
X1449844Y1212098D01*
X1452167Y1211136D01*
X1454660Y1210808D01*
X1457153Y1211136D01*
X1459476Y1212098D01*
X1461471Y1213629D01*
X1463002Y1215624D01*
X1463964Y1217947D01*
X1464292Y1220440D01*
X1463964Y1222933D01*
X1463002Y1225256D01*
X1461471Y1227251D01*
X1461216Y1227447D01*
Y1238833D01*
X1461471Y1239029D01*
X1463002Y1241024D01*
X1463964Y1243347D01*
X1464292Y1245840D01*
X1463964Y1248333D01*
X1463002Y1250656D01*
X1461471Y1252651D01*
X1459476Y1254182D01*
X1457153Y1255144D01*
X1454660Y1255472D01*
D02*
G37*
G36*
X1429260D02*
X1426767Y1255144D01*
X1424444Y1254182D01*
X1422449Y1252651D01*
X1420918Y1250656D01*
X1419956Y1248333D01*
X1419628Y1245840D01*
X1419956Y1243347D01*
X1420918Y1241024D01*
X1422449Y1239029D01*
X1422704Y1238833D01*
Y1227447D01*
X1422449Y1227251D01*
X1420918Y1225256D01*
X1419956Y1222933D01*
X1419628Y1220440D01*
X1419956Y1217947D01*
X1420918Y1215624D01*
X1422449Y1213629D01*
X1424444Y1212098D01*
X1426767Y1211136D01*
X1429260Y1210808D01*
X1431753Y1211136D01*
X1434076Y1212098D01*
X1436071Y1213629D01*
X1437602Y1215624D01*
X1438564Y1217947D01*
X1438892Y1220440D01*
X1438564Y1222933D01*
X1437602Y1225256D01*
X1436071Y1227251D01*
X1435816Y1227447D01*
Y1238833D01*
X1436071Y1239029D01*
X1437602Y1241024D01*
X1438564Y1243347D01*
X1438892Y1245840D01*
X1438564Y1248333D01*
X1437602Y1250656D01*
X1436071Y1252651D01*
X1434076Y1254182D01*
X1431753Y1255144D01*
X1429260Y1255472D01*
D02*
G37*
G36*
X1403860D02*
X1401367Y1255144D01*
X1399044Y1254182D01*
X1397049Y1252651D01*
X1395518Y1250656D01*
X1394556Y1248333D01*
X1394228Y1245840D01*
X1394556Y1243347D01*
X1395518Y1241024D01*
X1397049Y1239029D01*
X1397304Y1238833D01*
Y1227447D01*
X1397049Y1227251D01*
X1395518Y1225256D01*
X1394556Y1222933D01*
X1394228Y1220440D01*
X1394556Y1217947D01*
X1395518Y1215624D01*
X1397049Y1213629D01*
X1399044Y1212098D01*
X1401367Y1211136D01*
X1403860Y1210808D01*
X1406353Y1211136D01*
X1408676Y1212098D01*
X1410671Y1213629D01*
X1412202Y1215624D01*
X1413164Y1217947D01*
X1413492Y1220440D01*
X1413164Y1222933D01*
X1412202Y1225256D01*
X1410671Y1227251D01*
X1410416Y1227447D01*
Y1238833D01*
X1410671Y1239029D01*
X1412202Y1241024D01*
X1413164Y1243347D01*
X1413492Y1245840D01*
X1413164Y1248333D01*
X1412202Y1250656D01*
X1410671Y1252651D01*
X1408676Y1254182D01*
X1406353Y1255144D01*
X1403860Y1255472D01*
D02*
G37*
G36*
X1378460D02*
X1375967Y1255144D01*
X1373644Y1254182D01*
X1371649Y1252651D01*
X1370118Y1250656D01*
X1369156Y1248333D01*
X1368828Y1245840D01*
X1369156Y1243347D01*
X1370118Y1241024D01*
X1371649Y1239029D01*
X1371904Y1238833D01*
Y1227447D01*
X1371649Y1227251D01*
X1370118Y1225256D01*
X1369156Y1222933D01*
X1368828Y1220440D01*
X1369156Y1217947D01*
X1370118Y1215624D01*
X1371649Y1213629D01*
X1373644Y1212098D01*
X1375967Y1211136D01*
X1378460Y1210808D01*
X1380953Y1211136D01*
X1383276Y1212098D01*
X1385271Y1213629D01*
X1386802Y1215624D01*
X1387764Y1217947D01*
X1388092Y1220440D01*
X1387764Y1222933D01*
X1386802Y1225256D01*
X1385271Y1227251D01*
X1385016Y1227447D01*
Y1238833D01*
X1385271Y1239029D01*
X1386802Y1241024D01*
X1387764Y1243347D01*
X1388092Y1245840D01*
X1387764Y1248333D01*
X1386802Y1250656D01*
X1385271Y1252651D01*
X1383276Y1254182D01*
X1380953Y1255144D01*
X1378460Y1255472D01*
D02*
G37*
G36*
X1353060D02*
X1350567Y1255144D01*
X1348244Y1254182D01*
X1346249Y1252651D01*
X1344718Y1250656D01*
X1343756Y1248333D01*
X1343428Y1245840D01*
X1343756Y1243347D01*
X1344718Y1241024D01*
X1346249Y1239029D01*
X1346504Y1238833D01*
Y1227447D01*
X1346249Y1227251D01*
X1344718Y1225256D01*
X1343756Y1222933D01*
X1343428Y1220440D01*
X1343756Y1217947D01*
X1344718Y1215624D01*
X1346249Y1213629D01*
X1348244Y1212098D01*
X1350567Y1211136D01*
X1353060Y1210808D01*
X1355553Y1211136D01*
X1357876Y1212098D01*
X1359871Y1213629D01*
X1361402Y1215624D01*
X1362364Y1217947D01*
X1362692Y1220440D01*
X1362364Y1222933D01*
X1361402Y1225256D01*
X1359871Y1227251D01*
X1359616Y1227447D01*
Y1238833D01*
X1359871Y1239029D01*
X1361402Y1241024D01*
X1362364Y1243347D01*
X1362692Y1245840D01*
X1362364Y1248333D01*
X1361402Y1250656D01*
X1359871Y1252651D01*
X1357876Y1254182D01*
X1355553Y1255144D01*
X1353060Y1255472D01*
D02*
G37*
G36*
X1327660D02*
X1325167Y1255144D01*
X1322844Y1254182D01*
X1320849Y1252651D01*
X1319318Y1250656D01*
X1318356Y1248333D01*
X1318028Y1245840D01*
X1318356Y1243347D01*
X1319318Y1241024D01*
X1320849Y1239029D01*
X1321104Y1238833D01*
Y1227447D01*
X1320849Y1227251D01*
X1319318Y1225256D01*
X1318356Y1222933D01*
X1318028Y1220440D01*
X1318356Y1217947D01*
X1319318Y1215624D01*
X1320849Y1213629D01*
X1322844Y1212098D01*
X1325167Y1211136D01*
X1327660Y1210808D01*
X1330153Y1211136D01*
X1332476Y1212098D01*
X1334471Y1213629D01*
X1336002Y1215624D01*
X1336964Y1217947D01*
X1337292Y1220440D01*
X1336964Y1222933D01*
X1336002Y1225256D01*
X1334471Y1227251D01*
X1334216Y1227447D01*
Y1238833D01*
X1334471Y1239029D01*
X1336002Y1241024D01*
X1336964Y1243347D01*
X1337292Y1245840D01*
X1336964Y1248333D01*
X1336002Y1250656D01*
X1334471Y1252651D01*
X1332476Y1254182D01*
X1330153Y1255144D01*
X1327660Y1255472D01*
D02*
G37*
G36*
X1090310Y1232039D02*
X1087308Y1231644D01*
X1084510Y1230485D01*
X1082108Y1228642D01*
X1080265Y1226240D01*
X1079106Y1223442D01*
X1078711Y1220440D01*
X1079106Y1217438D01*
X1080265Y1214640D01*
X1082108Y1212238D01*
X1084510Y1210395D01*
X1087308Y1209236D01*
X1090310Y1208841D01*
X1093312Y1209236D01*
X1096110Y1210395D01*
X1098512Y1212238D01*
X1100355Y1214640D01*
X1101514Y1217438D01*
X1101909Y1220440D01*
X1101514Y1223442D01*
X1100355Y1226240D01*
X1098512Y1228642D01*
X1096110Y1230485D01*
X1093312Y1231644D01*
X1090310Y1232039D01*
D02*
G37*
G36*
X1040310D02*
X1037308Y1231644D01*
X1034510Y1230485D01*
X1032108Y1228642D01*
X1030265Y1226240D01*
X1029106Y1223442D01*
X1028711Y1220440D01*
X1029106Y1217438D01*
X1030265Y1214640D01*
X1032108Y1212238D01*
X1034510Y1210395D01*
X1037308Y1209236D01*
X1040310Y1208841D01*
X1043312Y1209236D01*
X1046110Y1210395D01*
X1048512Y1212238D01*
X1050355Y1214640D01*
X1051514Y1217438D01*
X1051909Y1220440D01*
X1051514Y1223442D01*
X1050355Y1226240D01*
X1048512Y1228642D01*
X1046110Y1230485D01*
X1043312Y1231644D01*
X1040310Y1232039D01*
D02*
G37*
G36*
X990310D02*
X987308Y1231644D01*
X984510Y1230485D01*
X982108Y1228642D01*
X980265Y1226240D01*
X979106Y1223442D01*
X978711Y1220440D01*
X979106Y1217438D01*
X980265Y1214640D01*
X982108Y1212238D01*
X984510Y1210395D01*
X987308Y1209236D01*
X990310Y1208841D01*
X993312Y1209236D01*
X996110Y1210395D01*
X998512Y1212238D01*
X1000355Y1214640D01*
X1001514Y1217438D01*
X1001909Y1220440D01*
X1001514Y1223442D01*
X1000355Y1226240D01*
X998512Y1228642D01*
X996110Y1230485D01*
X993312Y1231644D01*
X990310Y1232039D01*
D02*
G37*
G36*
X952791Y1219170D02*
X941580D01*
Y1207959D01*
X943584Y1208223D01*
X946634Y1209486D01*
X949254Y1211496D01*
X951264Y1214116D01*
X952527Y1217166D01*
X952791Y1219170D01*
D02*
G37*
G36*
X939040D02*
X927829D01*
X928093Y1217166D01*
X929356Y1214116D01*
X931366Y1211496D01*
X933986Y1209486D01*
X937036Y1208223D01*
X939040Y1207959D01*
Y1219170D01*
D02*
G37*
G36*
X941580Y1156721D02*
Y1145510D01*
X952791D01*
X952527Y1147514D01*
X951264Y1150564D01*
X949254Y1153184D01*
X946634Y1155194D01*
X943584Y1156457D01*
X941580Y1156721D01*
D02*
G37*
G36*
X939040D02*
X937036Y1156457D01*
X933986Y1155194D01*
X931366Y1153184D01*
X929356Y1150564D01*
X928093Y1147514D01*
X927829Y1145510D01*
X939040D01*
Y1156721D01*
D02*
G37*
G36*
X1090310Y1155839D02*
X1087308Y1155444D01*
X1084510Y1154285D01*
X1082108Y1152442D01*
X1080265Y1150040D01*
X1079106Y1147242D01*
X1078711Y1144240D01*
X1079106Y1141238D01*
X1080265Y1138440D01*
X1082108Y1136038D01*
X1084510Y1134195D01*
X1087308Y1133036D01*
X1090310Y1132641D01*
X1093312Y1133036D01*
X1096110Y1134195D01*
X1098512Y1136038D01*
X1100355Y1138440D01*
X1101514Y1141238D01*
X1101909Y1144240D01*
X1101514Y1147242D01*
X1100355Y1150040D01*
X1098512Y1152442D01*
X1096110Y1154285D01*
X1093312Y1155444D01*
X1090310Y1155839D01*
D02*
G37*
G36*
X1040310D02*
X1037308Y1155444D01*
X1034510Y1154285D01*
X1032108Y1152442D01*
X1030265Y1150040D01*
X1029106Y1147242D01*
X1028711Y1144240D01*
X1029106Y1141238D01*
X1030265Y1138440D01*
X1032108Y1136038D01*
X1034510Y1134195D01*
X1037308Y1133036D01*
X1040310Y1132641D01*
X1043312Y1133036D01*
X1046110Y1134195D01*
X1048512Y1136038D01*
X1050355Y1138440D01*
X1051514Y1141238D01*
X1051909Y1144240D01*
X1051514Y1147242D01*
X1050355Y1150040D01*
X1048512Y1152442D01*
X1046110Y1154285D01*
X1043312Y1155444D01*
X1040310Y1155839D01*
D02*
G37*
G36*
X990310D02*
X987308Y1155444D01*
X984510Y1154285D01*
X982108Y1152442D01*
X980265Y1150040D01*
X979106Y1147242D01*
X978711Y1144240D01*
X979106Y1141238D01*
X980265Y1138440D01*
X982108Y1136038D01*
X984510Y1134195D01*
X987308Y1133036D01*
X990310Y1132641D01*
X993312Y1133036D01*
X996110Y1134195D01*
X998512Y1136038D01*
X1000355Y1138440D01*
X1001514Y1141238D01*
X1001909Y1144240D01*
X1001514Y1147242D01*
X1000355Y1150040D01*
X998512Y1152442D01*
X996110Y1154285D01*
X993312Y1155444D01*
X990310Y1155839D01*
D02*
G37*
G36*
X952791Y1142970D02*
X941580D01*
Y1131759D01*
X943584Y1132023D01*
X946634Y1133286D01*
X949254Y1135296D01*
X951264Y1137916D01*
X952527Y1140966D01*
X952791Y1142970D01*
D02*
G37*
G36*
X939040D02*
X927829D01*
X928093Y1140966D01*
X929356Y1137916D01*
X931366Y1135296D01*
X933986Y1133286D01*
X937036Y1132023D01*
X939040Y1131759D01*
Y1142970D01*
D02*
G37*
G36*
X1576810Y1149737D02*
X1573886Y1149352D01*
X1571162Y1148223D01*
X1568822Y1146428D01*
X1567027Y1144088D01*
X1565898Y1141364D01*
X1565513Y1138440D01*
X1565898Y1135516D01*
X1567027Y1132792D01*
X1568822Y1130452D01*
X1571162Y1128657D01*
X1573886Y1127528D01*
X1576810Y1127143D01*
X1579734Y1127528D01*
X1582458Y1128657D01*
X1584798Y1130452D01*
X1586593Y1132792D01*
X1587722Y1135516D01*
X1588107Y1138440D01*
X1587722Y1141364D01*
X1586593Y1144088D01*
X1584798Y1146428D01*
X1582458Y1148223D01*
X1579734Y1149352D01*
X1576810Y1149737D01*
D02*
G37*
G36*
X1511810D02*
X1508886Y1149352D01*
X1506162Y1148223D01*
X1503822Y1146428D01*
X1502027Y1144088D01*
X1500898Y1141364D01*
X1500513Y1138440D01*
X1500898Y1135516D01*
X1502027Y1132792D01*
X1503822Y1130452D01*
X1506162Y1128657D01*
X1508886Y1127528D01*
X1511810Y1127143D01*
X1514734Y1127528D01*
X1517458Y1128657D01*
X1519798Y1130452D01*
X1521593Y1132792D01*
X1522722Y1135516D01*
X1523107Y1138440D01*
X1522722Y1141364D01*
X1521593Y1144088D01*
X1519798Y1146428D01*
X1517458Y1148223D01*
X1514734Y1149352D01*
X1511810Y1149737D01*
D02*
G37*
G36*
X1448310Y1133763D02*
X1446091Y1133471D01*
X1444023Y1132615D01*
X1442248Y1131252D01*
X1440885Y1129477D01*
X1440029Y1127409D01*
X1439737Y1125190D01*
X1440029Y1122971D01*
X1440885Y1120903D01*
X1442248Y1119128D01*
X1444023Y1117765D01*
X1446091Y1116909D01*
X1448310Y1116617D01*
X1450529Y1116909D01*
X1452597Y1117765D01*
X1454372Y1119128D01*
X1455735Y1120903D01*
X1456591Y1122971D01*
X1456883Y1125190D01*
X1456591Y1127409D01*
X1455735Y1129477D01*
X1454372Y1131252D01*
X1452597Y1132615D01*
X1450529Y1133471D01*
X1448310Y1133763D01*
D02*
G37*
G36*
X1378460D02*
X1376241Y1133471D01*
X1374173Y1132615D01*
X1372398Y1131252D01*
X1371035Y1129477D01*
X1370179Y1127409D01*
X1369887Y1125190D01*
X1370179Y1122971D01*
X1371035Y1120903D01*
X1372398Y1119128D01*
X1374173Y1117765D01*
X1376241Y1116909D01*
X1378460Y1116617D01*
X1380679Y1116909D01*
X1382747Y1117765D01*
X1384522Y1119128D01*
X1385885Y1120903D01*
X1386741Y1122971D01*
X1387033Y1125190D01*
X1386741Y1127409D01*
X1385885Y1129477D01*
X1384522Y1131252D01*
X1382747Y1132615D01*
X1380679Y1133471D01*
X1378460Y1133763D01*
D02*
G37*
G36*
X1748030Y1119630D02*
Y1107410D01*
X1760250D01*
X1759951Y1109675D01*
X1758587Y1112968D01*
X1756417Y1115797D01*
X1753588Y1117967D01*
X1750295Y1119332D01*
X1748030Y1119630D01*
D02*
G37*
G36*
X1745490D02*
X1743225Y1119332D01*
X1739932Y1117967D01*
X1737103Y1115797D01*
X1734933Y1112968D01*
X1733569Y1109675D01*
X1733270Y1107410D01*
X1745490D01*
Y1119630D01*
D02*
G37*
G36*
X1449580Y1109245D02*
Y1101060D01*
X1457765D01*
X1457605Y1102280D01*
X1456643Y1104601D01*
X1455114Y1106594D01*
X1453121Y1108123D01*
X1450800Y1109084D01*
X1449580Y1109245D01*
D02*
G37*
G36*
X1379730D02*
Y1101060D01*
X1387915D01*
X1387755Y1102280D01*
X1386793Y1104601D01*
X1385264Y1106594D01*
X1383271Y1108123D01*
X1380950Y1109084D01*
X1379730Y1109245D01*
D02*
G37*
G36*
X1447040D02*
X1445820Y1109084D01*
X1443499Y1108123D01*
X1441506Y1106594D01*
X1439977Y1104601D01*
X1439016Y1102280D01*
X1438855Y1101060D01*
X1447040D01*
Y1109245D01*
D02*
G37*
G36*
X1377190D02*
X1375970Y1109084D01*
X1373649Y1108123D01*
X1371656Y1106594D01*
X1370127Y1104601D01*
X1369166Y1102280D01*
X1369005Y1101060D01*
X1377190D01*
Y1109245D01*
D02*
G37*
G36*
X1578080Y1105618D02*
Y1094710D01*
X1588988D01*
X1588735Y1096635D01*
X1587502Y1099613D01*
X1585540Y1102170D01*
X1582983Y1104132D01*
X1580005Y1105365D01*
X1578080Y1105618D01*
D02*
G37*
G36*
X1513080D02*
Y1094710D01*
X1523988D01*
X1523735Y1096635D01*
X1522502Y1099613D01*
X1520540Y1102170D01*
X1517983Y1104132D01*
X1515005Y1105365D01*
X1513080Y1105618D01*
D02*
G37*
G36*
X1510540D02*
X1508615Y1105365D01*
X1505637Y1104132D01*
X1503080Y1102170D01*
X1501118Y1099613D01*
X1499885Y1096635D01*
X1499632Y1094710D01*
X1510540D01*
Y1105618D01*
D02*
G37*
G36*
X1575540Y1105618D02*
X1573615Y1105365D01*
X1570637Y1104132D01*
X1568080Y1102170D01*
X1566118Y1099613D01*
X1564885Y1096635D01*
X1564632Y1094710D01*
X1575540D01*
Y1105618D01*
D02*
G37*
G36*
X1616610Y1255390D02*
X1597510D01*
Y1236290D01*
X1600504D01*
Y1229990D01*
X1597510D01*
Y1210890D01*
X1616610D01*
Y1213884D01*
X1679744D01*
X1784540Y1109088D01*
X1784152Y1106140D01*
X1784582Y1102877D01*
X1785841Y1099836D01*
X1787845Y1097225D01*
X1790456Y1095221D01*
X1793497Y1093962D01*
X1796760Y1093532D01*
X1800023Y1093962D01*
X1803064Y1095221D01*
X1805675Y1097225D01*
X1807679Y1099836D01*
X1808938Y1102877D01*
X1809368Y1106140D01*
X1808938Y1109403D01*
X1807679Y1112444D01*
X1805675Y1115055D01*
X1803064Y1117059D01*
X1800023Y1118318D01*
X1796760Y1118748D01*
X1793812Y1118360D01*
X1687096Y1225076D01*
X1685738Y1226118D01*
X1684812Y1226501D01*
X1684157Y1226773D01*
X1682460Y1226996D01*
X1616610D01*
Y1229990D01*
X1613616D01*
Y1236290D01*
X1616610D01*
Y1255390D01*
D02*
G37*
G36*
X1760250Y1104870D02*
X1748030D01*
Y1092650D01*
X1750295Y1092949D01*
X1753588Y1094313D01*
X1756417Y1096483D01*
X1758587Y1099312D01*
X1759951Y1102605D01*
X1760250Y1104870D01*
D02*
G37*
G36*
X1745490D02*
X1733270D01*
X1733569Y1102605D01*
X1734933Y1099312D01*
X1737103Y1096483D01*
X1739932Y1094313D01*
X1743225Y1092949D01*
X1745490Y1092650D01*
Y1104870D01*
D02*
G37*
G36*
X1457765Y1098520D02*
X1449580D01*
Y1090335D01*
X1450800Y1090496D01*
X1453121Y1091457D01*
X1455114Y1092986D01*
X1456643Y1094979D01*
X1457605Y1097300D01*
X1457765Y1098520D01*
D02*
G37*
G36*
X1387915D02*
X1379730D01*
Y1090335D01*
X1380950Y1090496D01*
X1383271Y1091457D01*
X1385264Y1092986D01*
X1386793Y1094979D01*
X1387755Y1097300D01*
X1387915Y1098520D01*
D02*
G37*
G36*
X1447040D02*
X1438855D01*
X1439016Y1097300D01*
X1439977Y1094979D01*
X1441506Y1092986D01*
X1443499Y1091457D01*
X1445820Y1090496D01*
X1447040Y1090335D01*
Y1098520D01*
D02*
G37*
G36*
X1377190D02*
X1369005D01*
X1369166Y1097300D01*
X1370127Y1094979D01*
X1371656Y1092986D01*
X1373649Y1091457D01*
X1375970Y1090496D01*
X1377190Y1090335D01*
Y1098520D01*
D02*
G37*
G36*
X1588988Y1092170D02*
X1578080D01*
Y1081262D01*
X1580005Y1081515D01*
X1582983Y1082748D01*
X1585540Y1084710D01*
X1587502Y1087267D01*
X1588735Y1090245D01*
X1588988Y1092170D01*
D02*
G37*
G36*
X1523988D02*
X1513080D01*
Y1081262D01*
X1515005Y1081515D01*
X1517983Y1082748D01*
X1520540Y1084710D01*
X1522502Y1087267D01*
X1523735Y1090245D01*
X1523988Y1092170D01*
D02*
G37*
G36*
X1510540D02*
X1499632D01*
X1499885Y1090245D01*
X1501118Y1087267D01*
X1503080Y1084710D01*
X1505637Y1082748D01*
X1508615Y1081515D01*
X1510540Y1081262D01*
Y1092170D01*
D02*
G37*
G36*
X1575540D02*
X1564632D01*
X1564885Y1090245D01*
X1566118Y1087267D01*
X1568080Y1084710D01*
X1570637Y1082748D01*
X1573615Y1081515D01*
X1575540Y1081262D01*
Y1092170D01*
D02*
G37*
%LPD*%
D19*
X1607060Y1220440D02*
X1682460D01*
X1796760Y1106140D01*
X1607060Y1220440D02*
Y1245840D01*
X1683260Y1474440D02*
Y1499840D01*
X1708660Y1474440D02*
Y1499840D01*
X1657860Y1474440D02*
Y1499840D01*
X1607060Y1474440D02*
Y1499840D01*
X1581660Y1474440D02*
Y1499840D01*
X1556260Y1474440D02*
Y1499840D01*
X1530860Y1474440D02*
Y1499840D01*
X1505460Y1474440D02*
Y1499840D01*
X1480060Y1474440D02*
Y1499840D01*
X1454660Y1474440D02*
Y1499840D01*
X1429260Y1474440D02*
Y1499840D01*
X1403860Y1474440D02*
Y1499840D01*
X1378460Y1474440D02*
Y1499840D01*
X1353060Y1474440D02*
Y1499840D01*
X1327660Y1474440D02*
Y1499840D01*
Y1220440D02*
Y1245840D01*
X1353060Y1220440D02*
Y1245840D01*
X1378460Y1220440D02*
Y1245840D01*
X1403860Y1220440D02*
Y1245840D01*
X1429260Y1220440D02*
Y1245840D01*
X1454660Y1220440D02*
Y1245840D01*
X1480060Y1220440D02*
Y1245840D01*
X1505460Y1220440D02*
Y1245840D01*
X1530860Y1220440D02*
Y1245840D01*
X1556260Y1220440D02*
Y1245840D01*
X1581660Y1220440D02*
Y1245840D01*
D20*
X1632460Y1474440D02*
Y1499840D01*
D21*
X1090310Y1220440D02*
D03*
X1040310D02*
D03*
X990310D02*
D03*
X940310D02*
D03*
X1090310Y1144240D02*
D03*
X1040310D02*
D03*
X990310D02*
D03*
X940310D02*
D03*
X941110Y1322040D02*
D03*
X991110D02*
D03*
X1041110D02*
D03*
X1091110D02*
D03*
X941110Y1398240D02*
D03*
X991110D02*
D03*
X1041110D02*
D03*
X1091110D02*
D03*
Y1576040D02*
D03*
X1041110D02*
D03*
X991110D02*
D03*
X941110D02*
D03*
X1091110Y1499840D02*
D03*
X1041110D02*
D03*
X991110D02*
D03*
X941110D02*
D03*
X1565580Y1765300D02*
D03*
X1515580D02*
D03*
X1465580D02*
D03*
X1415580D02*
D03*
X1565580Y1689100D02*
D03*
X1515580D02*
D03*
X1465580D02*
D03*
X1415580D02*
D03*
X1175880D02*
D03*
X1225880D02*
D03*
X1275880D02*
D03*
X1325880D02*
D03*
X1175880Y1765300D02*
D03*
X1225880D02*
D03*
X1275880D02*
D03*
X1325880D02*
D03*
D22*
X1576810Y1093440D02*
D03*
X1511810D02*
D03*
X1576810Y1138440D02*
D03*
X1511810D02*
D03*
D23*
X1746760Y1106140D02*
D03*
X1796760D02*
D03*
D24*
X1378460Y1099790D02*
D03*
Y1125190D02*
D03*
X1448310Y1099790D02*
D03*
Y1125190D02*
D03*
D25*
X1429260Y1474440D02*
D03*
X1454660D02*
D03*
X1480060D02*
D03*
X1505460D02*
D03*
X1530860D02*
D03*
X1683260D02*
D03*
X1657860D02*
D03*
X1632460D02*
D03*
X1607060D02*
D03*
X1581660D02*
D03*
X1556260D02*
D03*
X1403860D02*
D03*
X1378460D02*
D03*
X1353060D02*
D03*
X1327660D02*
D03*
Y1245840D02*
D03*
X1353060D02*
D03*
X1378460D02*
D03*
X1403860D02*
D03*
X1429260D02*
D03*
X1581660D02*
D03*
X1556260D02*
D03*
X1530860D02*
D03*
X1505460D02*
D03*
X1480060D02*
D03*
X1454660D02*
D03*
X1429260Y1499840D02*
D03*
X1454660D02*
D03*
X1480060D02*
D03*
X1505460D02*
D03*
X1530860D02*
D03*
X1683260D02*
D03*
X1657860D02*
D03*
X1632460D02*
D03*
X1607060D02*
D03*
X1581660D02*
D03*
X1556260D02*
D03*
X1403860D02*
D03*
X1378460D02*
D03*
X1353060D02*
D03*
X1327660D02*
D03*
Y1220440D02*
D03*
X1353060D02*
D03*
X1378460D02*
D03*
X1403860D02*
D03*
X1429260D02*
D03*
X1581660D02*
D03*
X1556260D02*
D03*
X1530860D02*
D03*
X1505460D02*
D03*
X1480060D02*
D03*
X1454660D02*
D03*
D26*
X1708660Y1474440D02*
D03*
X1607060Y1245840D02*
D03*
X1708660Y1499840D02*
D03*
X1607060Y1220440D02*
D03*
D27*
X1750000Y1650000D02*
D03*
X1775000Y1600000D02*
D03*
X1750000Y1550000D02*
D03*
X1775000Y1500000D02*
D03*
Y1400000D02*
D03*
X1750000Y1350000D02*
D03*
X1775000Y1300000D02*
D03*
Y1200000D02*
D03*
Y1100000D02*
D03*
X1700000Y1650000D02*
D03*
X1725000Y1600000D02*
D03*
X1700000Y1550000D02*
D03*
Y1450000D02*
D03*
X1725000Y1400000D02*
D03*
X1700000Y1350000D02*
D03*
X1725000Y1300000D02*
D03*
X1700000Y1250000D02*
D03*
X1725000Y1200000D02*
D03*
X1700000Y1150000D02*
D03*
X1725000Y1100000D02*
D03*
X1650000Y1750000D02*
D03*
Y1650000D02*
D03*
X1675000Y1600000D02*
D03*
X1650000Y1350000D02*
D03*
Y1250000D02*
D03*
X1675000Y1200000D02*
D03*
X1650000Y1150000D02*
D03*
X1675000Y1100000D02*
D03*
X1650000Y1050000D02*
D03*
Y950000D02*
D03*
X1625000Y1800000D02*
D03*
X1600000Y1750000D02*
D03*
X1625000Y1700000D02*
D03*
X1600000Y1650000D02*
D03*
X1625000Y1600000D02*
D03*
X1600000Y1550000D02*
D03*
Y1450000D02*
D03*
X1625000Y1400000D02*
D03*
X1600000Y1350000D02*
D03*
X1625000Y1300000D02*
D03*
Y1200000D02*
D03*
X1600000Y1150000D02*
D03*
X1625000Y1100000D02*
D03*
X1600000Y1050000D02*
D03*
X1625000Y1000000D02*
D03*
X1600000Y950000D02*
D03*
X1575000Y1800000D02*
D03*
X1550000Y1750000D02*
D03*
X1575000Y1600000D02*
D03*
X1550000Y1450000D02*
D03*
X1575000Y1400000D02*
D03*
X1550000Y1350000D02*
D03*
X1575000Y1300000D02*
D03*
Y1200000D02*
D03*
X1550000Y1050000D02*
D03*
X1575000Y1000000D02*
D03*
X1550000Y950000D02*
D03*
X1525000Y1800000D02*
D03*
X1500000Y1750000D02*
D03*
Y1650000D02*
D03*
X1525000Y1600000D02*
D03*
X1500000Y1450000D02*
D03*
X1525000Y1400000D02*
D03*
X1500000Y1350000D02*
D03*
X1525000Y1300000D02*
D03*
Y1200000D02*
D03*
X1500000Y1050000D02*
D03*
X1525000Y1000000D02*
D03*
X1500000Y950000D02*
D03*
X1450000Y1750000D02*
D03*
X1475000Y1600000D02*
D03*
X1450000Y1450000D02*
D03*
X1475000Y1400000D02*
D03*
X1450000Y1350000D02*
D03*
X1475000Y1300000D02*
D03*
X1450000Y1150000D02*
D03*
X1475000Y1100000D02*
D03*
X1450000Y1050000D02*
D03*
X1475000Y1000000D02*
D03*
X1450000Y950000D02*
D03*
X1400000Y1750000D02*
D03*
Y1650000D02*
D03*
X1425000Y1600000D02*
D03*
X1400000Y1450000D02*
D03*
X1425000Y1400000D02*
D03*
X1400000Y1350000D02*
D03*
X1425000Y1300000D02*
D03*
Y1100000D02*
D03*
X1400000Y1050000D02*
D03*
X1425000Y1000000D02*
D03*
X1400000Y950000D02*
D03*
X1350000Y1750000D02*
D03*
X1375000Y1700000D02*
D03*
X1350000Y1650000D02*
D03*
X1375000Y1600000D02*
D03*
X1350000Y1450000D02*
D03*
X1375000Y1400000D02*
D03*
X1350000Y1350000D02*
D03*
X1375000Y1300000D02*
D03*
Y1200000D02*
D03*
X1350000Y1150000D02*
D03*
Y1050000D02*
D03*
X1375000Y1000000D02*
D03*
X1350000Y950000D02*
D03*
X1300000Y1750000D02*
D03*
Y1650000D02*
D03*
X1325000Y1600000D02*
D03*
X1300000Y1550000D02*
D03*
Y1450000D02*
D03*
X1325000Y1400000D02*
D03*
X1300000Y1350000D02*
D03*
Y1250000D02*
D03*
X1325000Y1200000D02*
D03*
X1300000Y1150000D02*
D03*
X1325000Y1100000D02*
D03*
X1300000Y1050000D02*
D03*
X1325000Y1000000D02*
D03*
X1300000Y950000D02*
D03*
X1275000Y1800000D02*
D03*
X1250000Y1750000D02*
D03*
Y1650000D02*
D03*
Y1550000D02*
D03*
X1275000Y1500000D02*
D03*
X1250000Y1450000D02*
D03*
X1275000Y1400000D02*
D03*
X1250000Y1350000D02*
D03*
X1275000Y1300000D02*
D03*
Y1200000D02*
D03*
X1250000Y1150000D02*
D03*
X1275000Y1100000D02*
D03*
X1250000Y1050000D02*
D03*
X1275000Y1000000D02*
D03*
X1250000Y950000D02*
D03*
X1225000Y1800000D02*
D03*
X1200000Y1750000D02*
D03*
Y1650000D02*
D03*
X1225000Y1600000D02*
D03*
X1200000Y1550000D02*
D03*
X1225000Y1500000D02*
D03*
X1200000Y1450000D02*
D03*
X1225000Y1300000D02*
D03*
Y1200000D02*
D03*
X1200000Y1150000D02*
D03*
X1225000Y1100000D02*
D03*
X1200000Y1050000D02*
D03*
X1225000Y1000000D02*
D03*
X1200000Y950000D02*
D03*
X1175000Y1800000D02*
D03*
X1150000Y1750000D02*
D03*
Y1650000D02*
D03*
X1175000Y1600000D02*
D03*
X1150000Y1550000D02*
D03*
Y1450000D02*
D03*
Y1250000D02*
D03*
X1175000Y1200000D02*
D03*
Y1100000D02*
D03*
X1150000Y1050000D02*
D03*
X1175000Y1000000D02*
D03*
X1150000Y950000D02*
D03*
X1125000Y1800000D02*
D03*
X1100000Y1750000D02*
D03*
X1125000Y1700000D02*
D03*
X1100000Y1650000D02*
D03*
X1125000Y1600000D02*
D03*
Y1500000D02*
D03*
Y1200000D02*
D03*
Y1100000D02*
D03*
X1100000Y1050000D02*
D03*
X1125000Y1000000D02*
D03*
X1100000Y950000D02*
D03*
X1075000Y1800000D02*
D03*
X1050000Y1750000D02*
D03*
X1075000Y1700000D02*
D03*
X1050000Y1650000D02*
D03*
X1075000Y1600000D02*
D03*
X1050000Y1450000D02*
D03*
X1075000Y1300000D02*
D03*
Y1200000D02*
D03*
Y1100000D02*
D03*
X1050000Y1050000D02*
D03*
X1075000Y1000000D02*
D03*
X1050000Y950000D02*
D03*
X1000000Y1650000D02*
D03*
X1025000Y1300000D02*
D03*
Y1200000D02*
D03*
Y1100000D02*
D03*
X950000Y1650000D02*
D03*
X975000Y1600000D02*
D03*
X950000Y1550000D02*
D03*
Y1450000D02*
D03*
Y1350000D02*
D03*
X975000Y1300000D02*
D03*
X950000Y1250000D02*
D03*
X975000Y1200000D02*
D03*
Y1100000D02*
D03*
X900000Y1650000D02*
D03*
X925000Y1600000D02*
D03*
X900000Y1550000D02*
D03*
Y1450000D02*
D03*
Y1350000D02*
D03*
X925000Y1300000D02*
D03*
X900000Y1250000D02*
D03*
X925000Y1200000D02*
D03*
X900000Y1150000D02*
D03*
X925000Y1100000D02*
D03*
D28*
X1746760Y1461740D02*
D03*
Y1258540D02*
D03*
X1264160Y1461740D02*
D03*
Y1258540D02*
D03*
M02*
