G04 Layer_Color=128*
%FSLAX44Y44*%
%MOMM*%
G71*
G01*
G75*
%ADD22R,1.2500X1.7500*%
%ADD23R,1.5000X1.4000*%
%ADD24R,1.4000X1.5000*%
%ADD25R,1.0500X2.2000*%
%ADD26R,1.0500X1.0000*%
%ADD27O,3.5000X1.4500*%
%ADD28R,0.7000X0.9500*%
%ADD29R,0.9500X0.7000*%
%ADD30R,0.8000X0.7000*%
%ADD31R,2.3500X1.0000*%
%ADD32R,2.3500X3.3000*%
D22*
X777210Y501650D02*
D03*
X805210D02*
D03*
D23*
X957580Y520044D02*
D03*
Y501544D02*
D03*
X1008380Y673460D02*
D03*
Y654960D02*
D03*
X982980Y673460D02*
D03*
Y654960D02*
D03*
X658622Y1151022D02*
D03*
Y1169522D02*
D03*
X671576Y1037738D02*
D03*
Y1056238D02*
D03*
X703326D02*
D03*
Y1037738D02*
D03*
D24*
X1034436Y501650D02*
D03*
X1052936D02*
D03*
X1003660D02*
D03*
X985160D02*
D03*
D25*
X832340Y734060D02*
D03*
X861840D02*
D03*
D26*
X847090Y749560D02*
D03*
D27*
X969010Y933750D02*
D03*
Y913750D02*
D03*
Y893750D02*
D03*
Y873750D02*
D03*
Y853750D02*
D03*
Y833750D02*
D03*
Y813750D02*
D03*
Y793750D02*
D03*
X808550Y933600D02*
D03*
Y913600D02*
D03*
Y893600D02*
D03*
Y873600D02*
D03*
Y853600D02*
D03*
Y833600D02*
D03*
Y813600D02*
D03*
Y793600D02*
D03*
D28*
X493664Y1068070D02*
D03*
X479664D02*
D03*
D29*
X447040Y1147176D02*
D03*
Y1161176D02*
D03*
D30*
X633450Y1169670D02*
D03*
X598450D02*
D03*
D31*
X752118Y1145426D02*
D03*
Y1122426D02*
D03*
Y1099426D02*
D03*
D32*
X691618Y1122426D02*
D03*
M02*
