G04 Layer_Color=8388736*
%FSLAX44Y44*%
%MOMM*%
G71*
G01*
G75*
%ADD36R,1.7032X1.6032*%
%ADD37R,1.6032X1.7032*%
%ADD38R,1.1532X0.9032*%
%ADD39R,1.1516X2.3016*%
%ADD40R,1.1516X1.1016*%
%ADD41O,3.7032X1.6532*%
%ADD42R,1.0032X0.9032*%
%ADD43R,1.4532X1.9532*%
%ADD44R,2.5532X1.2032*%
%ADD45R,2.5532X3.5032*%
%ADD46C,1.8132*%
%ADD47C,2.1732*%
%ADD48R,1.6862X1.6862*%
%ADD49C,1.6862*%
%ADD50C,1.5832*%
%ADD51C,2.2032*%
%ADD52C,2.1432*%
%ADD53C,1.4732*%
D36*
X1008380Y673460D02*
D03*
Y654960D02*
D03*
X982980Y673460D02*
D03*
Y654960D02*
D03*
X956310Y507090D02*
D03*
Y488590D02*
D03*
X635000Y1126130D02*
D03*
Y1144630D02*
D03*
D37*
X648060Y1037590D02*
D03*
X629560D02*
D03*
X1035960Y501650D02*
D03*
X1054460D02*
D03*
X1003660D02*
D03*
X985160D02*
D03*
X628290Y1069340D02*
D03*
X646790D02*
D03*
D38*
X483870Y1156320D02*
D03*
Y1170320D02*
D03*
Y1120760D02*
D03*
Y1134760D02*
D03*
D39*
X839960Y993140D02*
D03*
X869460D02*
D03*
D40*
X854710Y977640D02*
D03*
D41*
X977900Y790910D02*
D03*
Y810910D02*
D03*
Y830910D02*
D03*
Y850910D02*
D03*
Y870910D02*
D03*
Y890910D02*
D03*
Y910910D02*
D03*
Y930910D02*
D03*
X817440Y791060D02*
D03*
Y811060D02*
D03*
Y831060D02*
D03*
Y851060D02*
D03*
Y871060D02*
D03*
Y891060D02*
D03*
Y911060D02*
D03*
Y931060D02*
D03*
D42*
X633450Y1169670D02*
D03*
X598450D02*
D03*
D43*
X775940Y499110D02*
D03*
X803940D02*
D03*
D44*
X674370Y1145540D02*
D03*
Y1122540D02*
D03*
Y1099540D02*
D03*
D45*
X734870Y1122540D02*
D03*
D46*
X985520Y336550D02*
D03*
X960120D02*
D03*
X934720D02*
D03*
X1010920D02*
D03*
X1040130Y769620D02*
D03*
Y795020D02*
D03*
Y820420D02*
D03*
Y845820D02*
D03*
Y871220D02*
D03*
Y896620D02*
D03*
Y922020D02*
D03*
Y947420D02*
D03*
X755650Y769620D02*
D03*
Y795020D02*
D03*
Y820420D02*
D03*
Y845820D02*
D03*
Y871220D02*
D03*
Y896620D02*
D03*
Y922020D02*
D03*
Y947420D02*
D03*
D47*
X1134110Y1009650D02*
D03*
X1159510D02*
D03*
X1134110Y984250D02*
D03*
X1159510D02*
D03*
X1134110Y958850D02*
D03*
X1159510D02*
D03*
X1134110Y933450D02*
D03*
X1159510D02*
D03*
X1134110Y908050D02*
D03*
X1159510D02*
D03*
D48*
X805180Y530860D02*
D03*
D49*
X830580D02*
D03*
X855980D02*
D03*
X881380D02*
D03*
X906780D02*
D03*
X932180D02*
D03*
X957580D02*
D03*
X982980D02*
D03*
X1008380D02*
D03*
X1033780D02*
D03*
X1059180D02*
D03*
X1084580D02*
D03*
X1109980D02*
D03*
X1135380D02*
D03*
Y632460D02*
D03*
X1109980D02*
D03*
X1084580D02*
D03*
X1059180D02*
D03*
X1033780D02*
D03*
X1008380D02*
D03*
X982980D02*
D03*
X957580D02*
D03*
X932180D02*
D03*
X906780D02*
D03*
X881380D02*
D03*
X855980D02*
D03*
X830580D02*
D03*
X805180D02*
D03*
D50*
X998220Y459740D02*
D03*
X1047020D02*
D03*
D51*
X548640Y989000D02*
D03*
Y939000D02*
D03*
Y839000D02*
D03*
Y889000D02*
D03*
X370840Y989800D02*
D03*
Y939800D02*
D03*
Y839800D02*
D03*
Y889800D02*
D03*
X548640Y751840D02*
D03*
Y701840D02*
D03*
Y601840D02*
D03*
Y651840D02*
D03*
X370840Y751840D02*
D03*
Y701840D02*
D03*
Y601840D02*
D03*
Y651840D02*
D03*
X547370Y1170140D02*
D03*
Y1120140D02*
D03*
D52*
X805180Y459740D02*
D03*
Y394740D02*
D03*
X760180Y459740D02*
D03*
Y394740D02*
D03*
D53*
X505460Y1134110D02*
D03*
X855980Y1021080D02*
D03*
X842010Y678180D02*
D03*
X635000Y1106170D02*
D03*
X890270Y993140D02*
D03*
X816610D02*
D03*
M02*
