G04 Layer_Color=16711935*
%FSLAX44Y44*%
%MOMM*%
G71*
G01*
G75*
%ADD34C,1.9132*%
%ADD35C,1.7032*%
%ADD36C,1.6862*%
%ADD37R,1.6862X1.6862*%
%ADD38C,1.8132*%
%ADD39C,2.1732*%
%ADD40C,1.5832*%
%ADD41C,2.2032*%
%ADD42C,2.1432*%
%ADD43C,1.4732*%
%ADD44R,1.4532X1.9532*%
%ADD45R,1.7032X1.6032*%
%ADD46R,1.6032X1.7032*%
%ADD47R,1.1516X2.3016*%
%ADD48R,1.1516X1.1016*%
%ADD49O,3.7032X1.6532*%
%ADD50R,0.9032X1.1532*%
%ADD51R,1.1532X0.9032*%
%ADD52R,1.0032X0.9032*%
%ADD53R,2.5532X1.2032*%
%ADD54R,2.5532X3.5032*%
D34*
X601980Y1202690D02*
D03*
X671980D02*
D03*
D35*
X849630Y1037844D02*
D03*
X813054Y1037590D02*
D03*
X850252Y1122540D02*
D03*
X811390D02*
D03*
X526918Y1068070D02*
D03*
X446918D02*
D03*
X447040Y1110620D02*
D03*
Y1190620D02*
D03*
D36*
X805180Y632460D02*
D03*
X830580D02*
D03*
X855980D02*
D03*
X881380D02*
D03*
X906780D02*
D03*
X932180D02*
D03*
X957580D02*
D03*
X982980D02*
D03*
X1008380D02*
D03*
X1033780D02*
D03*
X1059180D02*
D03*
X1084580D02*
D03*
X1109980D02*
D03*
X1135380D02*
D03*
Y551180D02*
D03*
X1109980D02*
D03*
X1084580D02*
D03*
X1059180D02*
D03*
X1033780D02*
D03*
X1008380D02*
D03*
X982980D02*
D03*
X957580D02*
D03*
X932180D02*
D03*
X906780D02*
D03*
X881380D02*
D03*
X855980D02*
D03*
X830580D02*
D03*
D37*
X805180D02*
D03*
D38*
X985520Y336550D02*
D03*
X960120D02*
D03*
X934720D02*
D03*
X1010920D02*
D03*
X1016000Y939800D02*
D03*
Y914400D02*
D03*
Y889000D02*
D03*
Y863600D02*
D03*
Y838200D02*
D03*
Y812800D02*
D03*
Y787400D02*
D03*
Y762000D02*
D03*
X762000Y955040D02*
D03*
Y929640D02*
D03*
Y904240D02*
D03*
Y878840D02*
D03*
Y853440D02*
D03*
Y828040D02*
D03*
Y802640D02*
D03*
Y777240D02*
D03*
D39*
X1134110Y1009650D02*
D03*
X1159510D02*
D03*
X1134110Y984250D02*
D03*
X1159510D02*
D03*
X1134110Y958850D02*
D03*
X1159510D02*
D03*
X1134110Y933450D02*
D03*
X1159510D02*
D03*
X1134110Y908050D02*
D03*
X1159510D02*
D03*
D40*
X998220Y459740D02*
D03*
X1047020D02*
D03*
D41*
X548640Y989000D02*
D03*
Y939000D02*
D03*
Y839000D02*
D03*
Y889000D02*
D03*
X370840Y989800D02*
D03*
Y939800D02*
D03*
Y839800D02*
D03*
Y889800D02*
D03*
X548640Y751840D02*
D03*
Y701840D02*
D03*
Y601840D02*
D03*
Y651840D02*
D03*
X370840Y751840D02*
D03*
Y701840D02*
D03*
Y601840D02*
D03*
Y651840D02*
D03*
X547370Y1170140D02*
D03*
Y1120140D02*
D03*
D42*
X805180Y459740D02*
D03*
Y394740D02*
D03*
X760180Y459740D02*
D03*
Y394740D02*
D03*
D43*
X1084580Y777240D02*
D03*
X843534Y664210D02*
D03*
X458470Y839724D02*
D03*
X671830Y1006856D02*
D03*
X1080516Y958850D02*
D03*
D44*
X777210Y501650D02*
D03*
X805210D02*
D03*
D45*
X957580Y520044D02*
D03*
Y501544D02*
D03*
X1008380Y673460D02*
D03*
Y654960D02*
D03*
X982980Y673460D02*
D03*
Y654960D02*
D03*
X658622Y1151022D02*
D03*
Y1169522D02*
D03*
X671576Y1037738D02*
D03*
Y1056238D02*
D03*
X703326D02*
D03*
Y1037738D02*
D03*
D46*
X1034436Y501650D02*
D03*
X1052936D02*
D03*
X1003660D02*
D03*
X985160D02*
D03*
D47*
X832340Y734060D02*
D03*
X861840D02*
D03*
D48*
X847090Y749560D02*
D03*
D49*
X969010Y933750D02*
D03*
Y913750D02*
D03*
Y893750D02*
D03*
Y873750D02*
D03*
Y853750D02*
D03*
Y833750D02*
D03*
Y813750D02*
D03*
Y793750D02*
D03*
X808550Y933600D02*
D03*
Y913600D02*
D03*
Y893600D02*
D03*
Y873600D02*
D03*
Y853600D02*
D03*
Y833600D02*
D03*
Y813600D02*
D03*
Y793600D02*
D03*
D50*
X493664Y1068070D02*
D03*
X479664D02*
D03*
D51*
X447040Y1147176D02*
D03*
Y1161176D02*
D03*
D52*
X633450Y1169670D02*
D03*
X598450D02*
D03*
D53*
X752118Y1145426D02*
D03*
Y1122426D02*
D03*
Y1099426D02*
D03*
D54*
X691618Y1122426D02*
D03*
M02*
