G04 Layer_Physical_Order=2*
G04 Layer_Color=16711680*
%FSLAX44Y44*%
%MOMM*%
G71*
G01*
G75*
%ADD10C,0.2540*%
%ADD11C,0.5000*%
%ADD12C,1.7100*%
%ADD13C,1.5000*%
%ADD14C,1.4830*%
%ADD15R,1.4830X1.4830*%
%ADD16C,1.6100*%
%ADD17C,1.9700*%
%ADD18C,1.3800*%
%ADD19C,2.0000*%
%ADD20C,1.9400*%
%ADD21C,1.2700*%
%ADD22R,1.2500X1.7500*%
%ADD23R,1.5000X1.4000*%
%ADD24R,1.4000X1.5000*%
%ADD25R,1.0500X2.2000*%
%ADD26R,1.0500X1.0000*%
%ADD27O,3.5000X1.4500*%
%ADD28R,0.7000X0.9500*%
%ADD29R,0.9500X0.7000*%
%ADD30R,0.8000X0.7000*%
%ADD31R,2.3500X1.0000*%
%ADD32R,2.3500X3.3000*%
G36*
X1092200Y1092200D02*
X1244600D01*
Y406400D01*
X1092200D01*
Y259080D01*
X411480D01*
Y411480D01*
X259080D01*
Y1092200D01*
X411480D01*
Y1244600D01*
X1092200D01*
Y1092200D01*
D02*
G37*
%LPC*%
G36*
X1007110Y683000D02*
X998340D01*
Y674730D01*
X1007110D01*
Y683000D01*
D02*
G37*
G36*
X993020D02*
X984250D01*
Y674730D01*
X993020D01*
Y683000D01*
D02*
G37*
G36*
X981710D02*
X972940D01*
Y674730D01*
X981710D01*
Y683000D01*
D02*
G37*
G36*
X1018420D02*
X1009650D01*
Y674730D01*
X1018420D01*
Y683000D01*
D02*
G37*
G36*
X869630Y732790D02*
X863110D01*
Y720520D01*
X869630D01*
Y732790D01*
D02*
G37*
G36*
X828507Y812330D02*
X808550D01*
X788593D01*
X788762Y811044D01*
X789749Y808663D01*
X791318Y806618D01*
X793363Y805049D01*
X795744Y804062D01*
X796457Y803968D01*
Y802687D01*
X795885Y802612D01*
X793635Y801680D01*
X791703Y800197D01*
X790220Y798265D01*
X789669Y796934D01*
X786234D01*
X784958Y796680D01*
X783876Y795957D01*
X771220Y783301D01*
X769953Y783384D01*
X769168Y784408D01*
X767068Y786019D01*
X764624Y787031D01*
X762000Y787377D01*
X759376Y787031D01*
X756932Y786019D01*
X754832Y784408D01*
X753221Y782308D01*
X752209Y779864D01*
X751863Y777240D01*
X752209Y774616D01*
X753221Y772172D01*
X754832Y770072D01*
X756932Y768461D01*
X759376Y767449D01*
X762000Y767103D01*
X764624Y767449D01*
X767068Y768461D01*
X769168Y770072D01*
X770779Y772172D01*
X771775Y774578D01*
X772232Y774883D01*
X787615Y790266D01*
X789669D01*
X790220Y788935D01*
X791703Y787003D01*
X793635Y785520D01*
X795885Y784588D01*
X798300Y784270D01*
X818800D01*
X821215Y784588D01*
X823465Y785520D01*
X825397Y787003D01*
X826880Y788935D01*
X827431Y790266D01*
X832651D01*
X843756Y779161D01*
Y756560D01*
X839840D01*
Y747600D01*
X833610D01*
Y734060D01*
Y720520D01*
X840130D01*
Y722630D01*
X854050D01*
Y720520D01*
X860570D01*
Y734060D01*
Y747600D01*
X854340D01*
Y756560D01*
X850424D01*
Y780542D01*
X850170Y781818D01*
X849447Y782899D01*
X836389Y795957D01*
X835308Y796680D01*
X834032Y796934D01*
X827431D01*
X826880Y798265D01*
X825397Y800197D01*
X823465Y801680D01*
X821215Y802612D01*
X820643Y802687D01*
Y803968D01*
X821356Y804062D01*
X823737Y805049D01*
X825782Y806618D01*
X827352Y808663D01*
X828338Y811044D01*
X828507Y812330D01*
D02*
G37*
G36*
X831070Y732790D02*
X824550D01*
Y720520D01*
X831070D01*
Y732790D01*
D02*
G37*
G36*
X370840Y951904D02*
X367707Y951491D01*
X364788Y950282D01*
X362281Y948359D01*
X360358Y945852D01*
X359232Y943134D01*
X351282D01*
X350006Y942880D01*
X348924Y942158D01*
X335970Y929203D01*
X335248Y928122D01*
X334994Y926846D01*
Y879094D01*
X335248Y877818D01*
X335970Y876737D01*
X352734Y859973D01*
X353816Y859250D01*
X355092Y858996D01*
X555133D01*
X568674Y845455D01*
Y726589D01*
X554490Y712405D01*
X551773Y713531D01*
X548640Y713944D01*
X545507Y713531D01*
X542588Y712322D01*
X540081Y710398D01*
X538158Y707892D01*
X537032Y705174D01*
X382448D01*
X381322Y707892D01*
X379398Y710398D01*
X376892Y712322D01*
X373973Y713531D01*
X370840Y713944D01*
X367707Y713531D01*
X364788Y712322D01*
X362281Y710398D01*
X360358Y707892D01*
X359149Y704973D01*
X358736Y701840D01*
X359149Y698707D01*
X360358Y695788D01*
X362281Y693281D01*
X364788Y691358D01*
X367707Y690149D01*
X370840Y689736D01*
X373973Y690149D01*
X376892Y691358D01*
X379398Y693281D01*
X381322Y695788D01*
X382448Y698506D01*
X537032D01*
X538158Y695788D01*
X540081Y693281D01*
X542588Y691358D01*
X545507Y690149D01*
X548640Y689736D01*
X551773Y690149D01*
X554692Y691358D01*
X557198Y693281D01*
X559122Y695788D01*
X560331Y698707D01*
X560744Y701840D01*
X560331Y704973D01*
X559205Y707690D01*
X574366Y722850D01*
X575088Y723932D01*
X575342Y725208D01*
Y846836D01*
X575088Y848112D01*
X574366Y849193D01*
X558871Y864688D01*
X557790Y865410D01*
X556514Y865664D01*
X356473D01*
X341662Y880475D01*
Y925465D01*
X352663Y936466D01*
X359232D01*
X360358Y933748D01*
X362281Y931242D01*
X364788Y929318D01*
X367707Y928109D01*
X370840Y927696D01*
X373973Y928109D01*
X376892Y929318D01*
X379398Y931242D01*
X381322Y933748D01*
X382116Y935666D01*
X537032D01*
X538158Y932948D01*
X540081Y930442D01*
X542588Y928518D01*
X545507Y927309D01*
X548640Y926896D01*
X551773Y927309D01*
X554692Y928518D01*
X557198Y930442D01*
X559122Y932948D01*
X560248Y935666D01*
X592509D01*
X701262Y826913D01*
Y770128D01*
X701516Y768852D01*
X702238Y767770D01*
X827246Y642763D01*
Y641270D01*
X825832Y640684D01*
X823865Y639175D01*
X822356Y637208D01*
X821407Y634918D01*
X821084Y632460D01*
X821407Y630002D01*
X822356Y627712D01*
X823865Y625745D01*
X825832Y624236D01*
X828122Y623287D01*
X830580Y622964D01*
X833038Y623287D01*
X835328Y624236D01*
X837295Y625745D01*
X838804Y627712D01*
X838930Y628016D01*
X840200Y627763D01*
Y613521D01*
X802822Y576143D01*
X802100Y575062D01*
X801846Y573786D01*
Y560595D01*
X795765D01*
Y541765D01*
X801846D01*
Y512400D01*
X796960D01*
Y490900D01*
X801876D01*
Y471035D01*
X799279Y469960D01*
X796835Y468084D01*
X794960Y465640D01*
X793781Y462794D01*
X793379Y459740D01*
X793781Y456686D01*
X794960Y453839D01*
X796835Y451395D01*
X799279Y449520D01*
X801846Y448457D01*
Y406023D01*
X799279Y404960D01*
X796835Y403084D01*
X794960Y400640D01*
X793781Y397794D01*
X793379Y394740D01*
X793781Y391686D01*
X794960Y388839D01*
X796835Y386395D01*
X799279Y384520D01*
X802126Y383341D01*
X805180Y382939D01*
X808234Y383341D01*
X811080Y384520D01*
X813524Y386395D01*
X815400Y388839D01*
X816579Y391686D01*
X816981Y394740D01*
X816579Y397794D01*
X815400Y400640D01*
X813524Y403084D01*
X811080Y404960D01*
X808514Y406023D01*
Y448457D01*
X811080Y449520D01*
X813524Y451395D01*
X815400Y453839D01*
X816579Y456686D01*
X816981Y459740D01*
X816579Y462794D01*
X815400Y465640D01*
X813524Y468084D01*
X811080Y469960D01*
X808544Y471011D01*
Y490900D01*
X813460D01*
Y512400D01*
X808514D01*
Y541765D01*
X814595D01*
Y560595D01*
X808514D01*
Y572405D01*
X846400Y610290D01*
X847122Y611372D01*
X847376Y612648D01*
X847122Y613924D01*
X846868Y614304D01*
Y626783D01*
X848138Y627214D01*
X849265Y625745D01*
X851232Y624236D01*
X853522Y623287D01*
X855980Y622964D01*
X858438Y623287D01*
X860728Y624236D01*
X862695Y625745D01*
X864204Y627712D01*
X865153Y630002D01*
X865476Y632460D01*
X865153Y634918D01*
X864204Y637208D01*
X862695Y639175D01*
X860728Y640684D01*
X858438Y641633D01*
X855980Y641956D01*
X853522Y641633D01*
X851232Y640684D01*
X849265Y639175D01*
X848138Y637706D01*
X846868Y638137D01*
Y656553D01*
X847745Y656916D01*
X849489Y658255D01*
X850828Y659999D01*
X851669Y662030D01*
X851956Y664210D01*
X851669Y666390D01*
X850828Y668421D01*
X849489Y670165D01*
X847745Y671504D01*
X845714Y672345D01*
X843534Y672632D01*
X841354Y672345D01*
X839323Y671504D01*
X837579Y670165D01*
X836240Y668421D01*
X835399Y666390D01*
X835112Y664210D01*
X835399Y662030D01*
X836240Y659999D01*
X837579Y658255D01*
X839323Y656916D01*
X840200Y656553D01*
Y637157D01*
X838930Y636904D01*
X838804Y637208D01*
X837295Y639175D01*
X835328Y640684D01*
X833914Y641270D01*
Y644144D01*
X833660Y645420D01*
X832937Y646501D01*
X707930Y771509D01*
Y828294D01*
X707676Y829570D01*
X706954Y830652D01*
X596247Y941357D01*
X595166Y942080D01*
X593890Y942334D01*
X560248D01*
X559122Y945052D01*
X557198Y947559D01*
X554692Y949482D01*
X551773Y950691D01*
X548640Y951104D01*
X545507Y950691D01*
X542588Y949482D01*
X540081Y947559D01*
X538158Y945052D01*
X537032Y942334D01*
X382610D01*
X382531Y942933D01*
X381322Y945852D01*
X379398Y948359D01*
X376892Y950282D01*
X373973Y951491D01*
X370840Y951904D01*
D02*
G37*
G36*
X967454Y631190D02*
X958850D01*
Y622586D01*
X960179Y622761D01*
X962600Y623764D01*
X964680Y625360D01*
X966276Y627439D01*
X967279Y629861D01*
X967454Y631190D01*
D02*
G37*
G36*
X956310D02*
X947706D01*
X947881Y629861D01*
X948884Y627439D01*
X950480Y625360D01*
X952560Y623764D01*
X954981Y622761D01*
X956310Y622586D01*
Y631190D01*
D02*
G37*
G36*
X993020Y672190D02*
X972940D01*
Y663920D01*
X973480D01*
Y645960D01*
X979646D01*
Y641270D01*
X978232Y640684D01*
X976265Y639175D01*
X974756Y637208D01*
X973807Y634918D01*
X973484Y632460D01*
X973807Y630002D01*
X974756Y627712D01*
X976265Y625745D01*
X978232Y624236D01*
X980522Y623287D01*
X982980Y622964D01*
X985438Y623287D01*
X987728Y624236D01*
X989695Y625745D01*
X991204Y627712D01*
X992153Y630002D01*
X992476Y632460D01*
X992153Y634918D01*
X991204Y637208D01*
X989695Y639175D01*
X987728Y640684D01*
X986314Y641270D01*
Y645960D01*
X992480D01*
Y663920D01*
X993020D01*
Y672190D01*
D02*
G37*
G36*
X370840Y901904D02*
X367707Y901491D01*
X364788Y900282D01*
X362281Y898359D01*
X360358Y895852D01*
X359149Y892933D01*
X358736Y889800D01*
X359149Y886667D01*
X360358Y883748D01*
X362281Y881242D01*
X364788Y879318D01*
X367707Y878109D01*
X370840Y877696D01*
X373973Y878109D01*
X376892Y879318D01*
X379398Y881242D01*
X381322Y883748D01*
X382448Y886466D01*
X536870D01*
X536949Y885867D01*
X538158Y882948D01*
X540081Y880442D01*
X542588Y878518D01*
X545507Y877309D01*
X548640Y876896D01*
X551773Y877309D01*
X554490Y878435D01*
X580866Y852059D01*
Y688781D01*
X554490Y662405D01*
X551773Y663531D01*
X548640Y663944D01*
X545507Y663531D01*
X542588Y662322D01*
X540081Y660398D01*
X538158Y657892D01*
X537032Y655174D01*
X382448D01*
X381322Y657892D01*
X379398Y660398D01*
X376892Y662322D01*
X373973Y663531D01*
X370840Y663944D01*
X367707Y663531D01*
X364788Y662322D01*
X362281Y660398D01*
X360358Y657892D01*
X359149Y654973D01*
X358736Y651840D01*
X359149Y648707D01*
X360358Y645788D01*
X362281Y643281D01*
X364788Y641358D01*
X367707Y640149D01*
X370840Y639736D01*
X373973Y640149D01*
X376892Y641358D01*
X379398Y643281D01*
X381322Y645788D01*
X382448Y648506D01*
X537032D01*
X538158Y645788D01*
X540081Y643281D01*
X542588Y641358D01*
X545507Y640149D01*
X548640Y639736D01*
X551773Y640149D01*
X554692Y641358D01*
X557198Y643281D01*
X559122Y645788D01*
X560248Y648506D01*
X763591D01*
X781994Y630102D01*
X783076Y629380D01*
X784352Y629126D01*
X796370D01*
X796956Y627712D01*
X798465Y625745D01*
X800432Y624236D01*
X802722Y623287D01*
X805180Y622964D01*
X807638Y623287D01*
X809928Y624236D01*
X811895Y625745D01*
X813404Y627712D01*
X814353Y630002D01*
X814676Y632460D01*
X814353Y634918D01*
X813404Y637208D01*
X811895Y639175D01*
X809928Y640684D01*
X807638Y641633D01*
X805180Y641956D01*
X802722Y641633D01*
X800432Y640684D01*
X798465Y639175D01*
X796956Y637208D01*
X796370Y635794D01*
X785733D01*
X767329Y654197D01*
X766248Y654920D01*
X764972Y655174D01*
X560248D01*
X559205Y657690D01*
X586558Y685042D01*
X587280Y686124D01*
X587534Y687400D01*
Y853440D01*
X587280Y854716D01*
X586558Y855798D01*
X559205Y883150D01*
X560331Y885867D01*
X560744Y889000D01*
X560331Y892133D01*
X559122Y895052D01*
X557198Y897559D01*
X554692Y899482D01*
X551773Y900691D01*
X548640Y901104D01*
X545507Y900691D01*
X542588Y899482D01*
X540081Y897559D01*
X538158Y895052D01*
X537364Y893134D01*
X382448D01*
X381322Y895852D01*
X379398Y898359D01*
X376892Y900282D01*
X373973Y901491D01*
X370840Y901904D01*
D02*
G37*
G36*
X958850Y642334D02*
Y633730D01*
X967454D01*
X967279Y635059D01*
X966276Y637481D01*
X964680Y639560D01*
X962600Y641156D01*
X960179Y642159D01*
X958850Y642334D01*
D02*
G37*
G36*
X956310D02*
X954981Y642159D01*
X952560Y641156D01*
X950480Y639560D01*
X948884Y637481D01*
X947881Y635059D01*
X947706Y633730D01*
X956310D01*
Y642334D01*
D02*
G37*
G36*
X831070Y747600D02*
X824550D01*
Y735330D01*
X831070D01*
Y747600D01*
D02*
G37*
G36*
X760730Y801370D02*
X751486D01*
X751683Y799875D01*
X752750Y797299D01*
X754447Y795087D01*
X756659Y793390D01*
X759236Y792323D01*
X760730Y792126D01*
Y801370D01*
D02*
G37*
G36*
X549910Y764321D02*
Y753110D01*
X561121D01*
X560857Y755114D01*
X559594Y758164D01*
X557584Y760784D01*
X554964Y762794D01*
X551914Y764057D01*
X549910Y764321D01*
D02*
G37*
G36*
X372110D02*
Y753110D01*
X383321D01*
X383057Y755114D01*
X381794Y758164D01*
X379784Y760784D01*
X377164Y762794D01*
X374114Y764057D01*
X372110Y764321D01*
D02*
G37*
G36*
X772514Y801370D02*
X763270D01*
Y792126D01*
X764764Y792323D01*
X767341Y793390D01*
X769553Y795087D01*
X771250Y797299D01*
X772317Y799875D01*
X772514Y801370D01*
D02*
G37*
G36*
X818800Y842930D02*
X798300D01*
X795885Y842612D01*
X793635Y841680D01*
X791703Y840197D01*
X790220Y838265D01*
X789288Y836015D01*
X788970Y833600D01*
X789288Y831185D01*
X790220Y828935D01*
X791703Y827003D01*
X793635Y825520D01*
X795885Y824588D01*
X796457Y824513D01*
Y823232D01*
X795744Y823138D01*
X793363Y822151D01*
X791318Y820582D01*
X789749Y818537D01*
X788762Y816156D01*
X788593Y814870D01*
X808550D01*
X828507D01*
X828338Y816156D01*
X827352Y818537D01*
X825782Y820582D01*
X823737Y822151D01*
X821356Y823138D01*
X820643Y823232D01*
Y824513D01*
X821215Y824588D01*
X823465Y825520D01*
X825397Y827003D01*
X826880Y828935D01*
X827812Y831185D01*
X828130Y833600D01*
X827812Y836015D01*
X826880Y838265D01*
X825397Y840197D01*
X823465Y841680D01*
X821215Y842612D01*
X818800Y842930D01*
D02*
G37*
G36*
X763270Y813154D02*
Y803910D01*
X772514D01*
X772317Y805405D01*
X771250Y807981D01*
X769553Y810193D01*
X767341Y811890D01*
X764764Y812957D01*
X763270Y813154D01*
D02*
G37*
G36*
X760730D02*
X759236Y812957D01*
X756659Y811890D01*
X754447Y810193D01*
X752750Y807981D01*
X751683Y805405D01*
X751486Y803910D01*
X760730D01*
Y813154D01*
D02*
G37*
G36*
X547370Y750570D02*
X536159D01*
X536423Y748566D01*
X537686Y745516D01*
X539696Y742896D01*
X542316Y740886D01*
X545366Y739623D01*
X547370Y739359D01*
Y750570D01*
D02*
G37*
G36*
X369570D02*
X358359D01*
X358623Y748566D01*
X359886Y745516D01*
X361896Y742896D01*
X364516Y740886D01*
X367566Y739623D01*
X369570Y739359D01*
Y750570D01*
D02*
G37*
G36*
X869630Y747600D02*
X863110D01*
Y735330D01*
X869630D01*
Y747600D01*
D02*
G37*
G36*
X383321Y750570D02*
X372110D01*
Y739359D01*
X374114Y739623D01*
X377164Y740886D01*
X379784Y742896D01*
X381794Y745516D01*
X383057Y748566D01*
X383321Y750570D01*
D02*
G37*
G36*
X547370Y764321D02*
X545366Y764057D01*
X542316Y762794D01*
X539696Y760784D01*
X537686Y758164D01*
X536423Y755114D01*
X536159Y753110D01*
X547370D01*
Y764321D01*
D02*
G37*
G36*
X369570D02*
X367566Y764057D01*
X364516Y762794D01*
X361896Y760784D01*
X359886Y758164D01*
X358623Y755114D01*
X358359Y753110D01*
X369570D01*
Y764321D01*
D02*
G37*
G36*
X561121Y750570D02*
X549910D01*
Y739359D01*
X551914Y739623D01*
X554964Y740886D01*
X557584Y742896D01*
X559594Y745516D01*
X560857Y748566D01*
X561121Y750570D01*
D02*
G37*
G36*
X984250Y561054D02*
Y552450D01*
X992854D01*
X992679Y553779D01*
X991676Y556200D01*
X990080Y558280D01*
X988000Y559876D01*
X985579Y560879D01*
X984250Y561054D01*
D02*
G37*
G36*
X761450Y406918D02*
Y396010D01*
X772358D01*
X772105Y397935D01*
X770872Y400913D01*
X768910Y403470D01*
X766353Y405432D01*
X763375Y406665D01*
X761450Y406918D01*
D02*
G37*
G36*
X758910D02*
X756985Y406665D01*
X754007Y405432D01*
X751450Y403470D01*
X749488Y400913D01*
X748255Y397935D01*
X748002Y396010D01*
X758910D01*
Y406918D01*
D02*
G37*
G36*
X772358Y393470D02*
X761450D01*
Y382562D01*
X763375Y382815D01*
X766353Y384048D01*
X768910Y386010D01*
X770872Y388567D01*
X772105Y391545D01*
X772358Y393470D01*
D02*
G37*
G36*
X758910Y458470D02*
X748002D01*
X748255Y456545D01*
X749488Y453567D01*
X751450Y451010D01*
X754007Y449048D01*
X756985Y447815D01*
X758910Y447562D01*
Y458470D01*
D02*
G37*
G36*
X761450Y471918D02*
Y461010D01*
X772358D01*
X772105Y462935D01*
X770872Y465913D01*
X768910Y468470D01*
X766353Y470432D01*
X763375Y471665D01*
X761450Y471918D01*
D02*
G37*
G36*
X758910D02*
X756985Y471665D01*
X754007Y470432D01*
X751450Y468470D01*
X749488Y465913D01*
X748255Y462935D01*
X748002Y461010D01*
X758910D01*
Y471918D01*
D02*
G37*
G36*
X772358Y458470D02*
X761450D01*
Y447562D01*
X763375Y447815D01*
X766353Y449048D01*
X768910Y451010D01*
X770872Y453567D01*
X772105Y456545D01*
X772358Y458470D01*
D02*
G37*
G36*
X830580Y560676D02*
X828122Y560353D01*
X825832Y559404D01*
X823865Y557895D01*
X822356Y555928D01*
X821407Y553638D01*
X821084Y551180D01*
X821407Y548722D01*
X822356Y546432D01*
X823865Y544465D01*
X825832Y542956D01*
X827246Y542370D01*
Y505714D01*
X827500Y504438D01*
X828223Y503357D01*
X956786Y374793D01*
Y346047D01*
X955052Y345329D01*
X952952Y343718D01*
X951341Y341618D01*
X950329Y339174D01*
X949983Y336550D01*
X950329Y333926D01*
X951341Y331482D01*
X952952Y329382D01*
X955052Y327771D01*
X957496Y326759D01*
X960120Y326413D01*
X962744Y326759D01*
X965188Y327771D01*
X967288Y329382D01*
X968899Y331482D01*
X969911Y333926D01*
X970257Y336550D01*
X969911Y339174D01*
X968899Y341618D01*
X967288Y343718D01*
X965188Y345329D01*
X963454Y346047D01*
Y376174D01*
X963200Y377450D01*
X962477Y378531D01*
X833914Y507095D01*
Y542370D01*
X835328Y542956D01*
X837295Y544465D01*
X838804Y546432D01*
X839753Y548722D01*
X840076Y551180D01*
X839753Y553638D01*
X838804Y555928D01*
X837295Y557895D01*
X835328Y559404D01*
X833038Y560353D01*
X830580Y560676D01*
D02*
G37*
G36*
X1021434Y335280D02*
X1012190D01*
Y326036D01*
X1013684Y326233D01*
X1016261Y327300D01*
X1018473Y328997D01*
X1020170Y331209D01*
X1021237Y333786D01*
X1021434Y335280D01*
D02*
G37*
G36*
X1009650D02*
X1000406D01*
X1000603Y333786D01*
X1001670Y331209D01*
X1003367Y328997D01*
X1005579Y327300D01*
X1008156Y326233D01*
X1009650Y326036D01*
Y335280D01*
D02*
G37*
G36*
X855980Y560676D02*
X853522Y560353D01*
X851232Y559404D01*
X849265Y557895D01*
X847756Y555928D01*
X846807Y553638D01*
X846484Y551180D01*
X846807Y548722D01*
X847756Y546432D01*
X849265Y544465D01*
X851232Y542956D01*
X852646Y542370D01*
Y507492D01*
X852900Y506216D01*
X853623Y505135D01*
X982186Y376571D01*
Y346047D01*
X980452Y345329D01*
X978352Y343718D01*
X976741Y341618D01*
X975729Y339174D01*
X975383Y336550D01*
X975729Y333926D01*
X976741Y331482D01*
X978352Y329382D01*
X980452Y327771D01*
X982896Y326759D01*
X985520Y326413D01*
X988144Y326759D01*
X990588Y327771D01*
X992688Y329382D01*
X994299Y331482D01*
X995311Y333926D01*
X995657Y336550D01*
X995311Y339174D01*
X994299Y341618D01*
X992688Y343718D01*
X990588Y345329D01*
X988854Y346047D01*
Y377952D01*
X988600Y379228D01*
X987878Y380309D01*
X859314Y508873D01*
Y542370D01*
X860728Y542956D01*
X862695Y544465D01*
X864204Y546432D01*
X865153Y548722D01*
X865476Y551180D01*
X865153Y553638D01*
X864204Y555928D01*
X862695Y557895D01*
X860728Y559404D01*
X858438Y560353D01*
X855980Y560676D01*
D02*
G37*
G36*
X758910Y393470D02*
X748002D01*
X748255Y391545D01*
X749488Y388567D01*
X751450Y386010D01*
X754007Y384048D01*
X756985Y382815D01*
X758910Y382562D01*
Y393470D01*
D02*
G37*
G36*
X1012190Y347064D02*
Y337820D01*
X1021434D01*
X1021237Y339314D01*
X1020170Y341891D01*
X1018473Y344103D01*
X1016261Y345800D01*
X1013684Y346867D01*
X1012190Y347064D01*
D02*
G37*
G36*
X1009650D02*
X1008156Y346867D01*
X1005579Y345800D01*
X1003367Y344103D01*
X1001670Y341891D01*
X1000603Y339314D01*
X1000406Y337820D01*
X1009650D01*
Y347064D01*
D02*
G37*
G36*
X983890Y500380D02*
X975620D01*
Y491610D01*
X983890D01*
Y500380D01*
D02*
G37*
G36*
X932180Y560676D02*
X929722Y560353D01*
X927432Y559404D01*
X925465Y557895D01*
X923956Y555928D01*
X923007Y553638D01*
X922684Y551180D01*
X923007Y548722D01*
X923956Y546432D01*
X925465Y544465D01*
X927432Y542956D01*
X929722Y542007D01*
X932180Y541684D01*
X934638Y542007D01*
X936928Y542956D01*
X938895Y544465D01*
X940404Y546432D01*
X941353Y548722D01*
X941676Y551180D01*
X941353Y553638D01*
X940404Y555928D01*
X938895Y557895D01*
X936928Y559404D01*
X934638Y560353D01*
X932180Y560676D01*
D02*
G37*
G36*
X992854Y549910D02*
X984250D01*
Y541306D01*
X985579Y541481D01*
X988000Y542484D01*
X990080Y544080D01*
X991676Y546160D01*
X992679Y548581D01*
X992854Y549910D01*
D02*
G37*
G36*
X981710D02*
X973106D01*
X973281Y548581D01*
X974284Y546160D01*
X975880Y544080D01*
X977960Y542484D01*
X980381Y541481D01*
X981710Y541306D01*
Y549910D01*
D02*
G37*
G36*
X1084580Y560676D02*
X1082122Y560353D01*
X1079832Y559404D01*
X1077865Y557895D01*
X1076356Y555928D01*
X1075407Y553638D01*
X1075084Y551180D01*
X1075407Y548722D01*
X1076356Y546432D01*
X1077865Y544465D01*
X1079832Y542956D01*
X1082122Y542007D01*
X1084580Y541684D01*
X1087038Y542007D01*
X1089328Y542956D01*
X1091295Y544465D01*
X1092804Y546432D01*
X1093753Y548722D01*
X1094076Y551180D01*
X1093753Y553638D01*
X1092804Y555928D01*
X1091295Y557895D01*
X1089328Y559404D01*
X1087038Y560353D01*
X1084580Y560676D01*
D02*
G37*
G36*
X981710Y561054D02*
X980381Y560879D01*
X977960Y559876D01*
X975880Y558280D01*
X974284Y556200D01*
X973281Y553779D01*
X973106Y552450D01*
X981710D01*
Y561054D01*
D02*
G37*
G36*
X1135380Y560676D02*
X1132922Y560353D01*
X1130632Y559404D01*
X1128665Y557895D01*
X1127156Y555928D01*
X1126207Y553638D01*
X1125884Y551180D01*
X1126207Y548722D01*
X1127156Y546432D01*
X1128665Y544465D01*
X1130632Y542956D01*
X1132922Y542007D01*
X1135380Y541684D01*
X1137838Y542007D01*
X1140128Y542956D01*
X1142095Y544465D01*
X1143604Y546432D01*
X1144553Y548722D01*
X1144876Y551180D01*
X1144553Y553638D01*
X1143604Y555928D01*
X1142095Y557895D01*
X1140128Y559404D01*
X1137838Y560353D01*
X1135380Y560676D01*
D02*
G37*
G36*
X1109980D02*
X1107522Y560353D01*
X1105232Y559404D01*
X1103265Y557895D01*
X1101756Y555928D01*
X1100807Y553638D01*
X1100484Y551180D01*
X1100807Y548722D01*
X1101756Y546432D01*
X1103265Y544465D01*
X1105232Y542956D01*
X1107522Y542007D01*
X1109980Y541684D01*
X1112438Y542007D01*
X1114728Y542956D01*
X1116695Y544465D01*
X1118204Y546432D01*
X1119153Y548722D01*
X1119476Y551180D01*
X1119153Y553638D01*
X1118204Y555928D01*
X1116695Y557895D01*
X1114728Y559404D01*
X1112438Y560353D01*
X1109980Y560676D01*
D02*
G37*
G36*
X956310Y500274D02*
X947540D01*
Y492004D01*
X956310D01*
Y500274D01*
D02*
G37*
G36*
X1062476Y500380D02*
X1054206D01*
Y491610D01*
X1062476D01*
Y500380D01*
D02*
G37*
G36*
X1033780Y560676D02*
X1031322Y560353D01*
X1029032Y559404D01*
X1027065Y557895D01*
X1025556Y555928D01*
X1024607Y553638D01*
X1024284Y551180D01*
X1024607Y548722D01*
X1025556Y546432D01*
X1027065Y544465D01*
X1029032Y542956D01*
X1030446Y542370D01*
Y511150D01*
X1025436D01*
Y492150D01*
X1031102D01*
Y472324D01*
X1031356Y471048D01*
X1032078Y469967D01*
X1038827Y463218D01*
X1038349Y462063D01*
X1038043Y459740D01*
X1038349Y457417D01*
X1039246Y455252D01*
X1040672Y453392D01*
X1042532Y451966D01*
X1044697Y451069D01*
X1047020Y450763D01*
X1049343Y451069D01*
X1051508Y451966D01*
X1053368Y453392D01*
X1054794Y455252D01*
X1055691Y457417D01*
X1055997Y459740D01*
X1055691Y462063D01*
X1054794Y464228D01*
X1053368Y466088D01*
X1051508Y467514D01*
X1049343Y468411D01*
X1047020Y468717D01*
X1044697Y468411D01*
X1043542Y467933D01*
X1037770Y473705D01*
Y492150D01*
X1043396D01*
Y491610D01*
X1051666D01*
Y501650D01*
Y511690D01*
X1043396D01*
Y511150D01*
X1037114D01*
Y542370D01*
X1038528Y542956D01*
X1040495Y544465D01*
X1042004Y546432D01*
X1042953Y548722D01*
X1043276Y551180D01*
X1042953Y553638D01*
X1042004Y555928D01*
X1040495Y557895D01*
X1038528Y559404D01*
X1036238Y560353D01*
X1033780Y560676D01*
D02*
G37*
G36*
X967620Y500274D02*
X958850D01*
Y492004D01*
X967620D01*
Y500274D01*
D02*
G37*
G36*
X1008380Y560676D02*
X1005922Y560353D01*
X1003632Y559404D01*
X1001665Y557895D01*
X1000156Y555928D01*
X999207Y553638D01*
X998884Y551180D01*
X999207Y548722D01*
X1000156Y546432D01*
X1001665Y544465D01*
X1003632Y542956D01*
X1005046Y542370D01*
Y526907D01*
X1001302Y523163D01*
X1000580Y522082D01*
X1000326Y520806D01*
Y511150D01*
X994700D01*
Y511690D01*
X986430D01*
Y501650D01*
Y491610D01*
X994700D01*
Y492150D01*
X1000326D01*
Y469403D01*
X999371Y468565D01*
X998220Y468717D01*
X995897Y468411D01*
X993732Y467514D01*
X991872Y466088D01*
X990446Y464228D01*
X989549Y462063D01*
X989243Y459740D01*
X989549Y457417D01*
X990446Y455252D01*
X991872Y453392D01*
X993732Y451966D01*
X995897Y451069D01*
X998220Y450763D01*
X1000543Y451069D01*
X1002708Y451966D01*
X1004568Y453392D01*
X1005994Y455252D01*
X1006891Y457417D01*
X1007197Y459740D01*
X1006891Y462063D01*
X1006363Y463339D01*
X1006740Y463904D01*
X1006994Y465180D01*
Y492150D01*
X1012660D01*
Y511150D01*
X1006994D01*
Y519425D01*
X1010738Y523168D01*
X1011460Y524250D01*
X1011714Y525526D01*
Y542370D01*
X1013128Y542956D01*
X1015095Y544465D01*
X1016604Y546432D01*
X1017553Y548722D01*
X1017876Y551180D01*
X1017553Y553638D01*
X1016604Y555928D01*
X1015095Y557895D01*
X1013128Y559404D01*
X1010838Y560353D01*
X1008380Y560676D01*
D02*
G37*
G36*
X1062476Y511690D02*
X1054206D01*
Y502920D01*
X1062476D01*
Y511690D01*
D02*
G37*
G36*
X983890D02*
X975620D01*
Y502920D01*
X983890D01*
Y511690D01*
D02*
G37*
G36*
X713366Y1065778D02*
X704596D01*
Y1057508D01*
X713366D01*
Y1065778D01*
D02*
G37*
G36*
X681616D02*
X672846D01*
Y1057508D01*
X681616D01*
Y1065778D01*
D02*
G37*
G36*
X702056D02*
X693286D01*
Y1057508D01*
X702056D01*
Y1065778D01*
D02*
G37*
G36*
X525648Y1066800D02*
X516959D01*
X517136Y1065449D01*
X518148Y1063007D01*
X519757Y1060909D01*
X521855Y1059300D01*
X524297Y1058288D01*
X525648Y1058111D01*
Y1066800D01*
D02*
G37*
G36*
X499704Y1066800D02*
X494934D01*
Y1060780D01*
X499704D01*
Y1066800D01*
D02*
G37*
G36*
X492394D02*
X487624D01*
Y1060780D01*
X492394D01*
Y1066800D01*
D02*
G37*
G36*
X536877Y1066800D02*
X528188D01*
Y1058111D01*
X529539Y1058288D01*
X531981Y1059300D01*
X534079Y1060909D01*
X535688Y1063007D01*
X536700Y1065449D01*
X536877Y1066800D01*
D02*
G37*
G36*
X670306Y1065778D02*
X661536D01*
Y1057508D01*
X670306D01*
Y1065778D01*
D02*
G37*
G36*
X1134110Y1021602D02*
X1131016Y1021195D01*
X1128134Y1020001D01*
X1125658Y1018102D01*
X1123759Y1015626D01*
X1122665Y1012984D01*
X1092454D01*
X1091178Y1012730D01*
X1090096Y1012008D01*
X1048186Y970098D01*
X1047464Y969016D01*
X1047210Y967740D01*
Y900287D01*
X1039257Y892334D01*
X1025497D01*
X1024779Y894068D01*
X1023168Y896168D01*
X1021068Y897779D01*
X1018624Y898791D01*
X1016000Y899137D01*
X1013376Y898791D01*
X1010932Y897779D01*
X1008832Y896168D01*
X1007221Y894068D01*
X1006503Y892334D01*
X1004681D01*
X1000908Y896107D01*
X999826Y896830D01*
X998550Y897084D01*
X987891D01*
X987340Y898415D01*
X985857Y900347D01*
X983925Y901830D01*
X981675Y902762D01*
X979260Y903080D01*
X958760D01*
X956345Y902762D01*
X954095Y901830D01*
X952163Y900347D01*
X950680Y898415D01*
X949748Y896165D01*
X949430Y893750D01*
X949748Y891335D01*
X950680Y889085D01*
X952163Y887153D01*
X954095Y885670D01*
X956345Y884738D01*
X958760Y884420D01*
X979260D01*
X981675Y884738D01*
X983925Y885670D01*
X985857Y887153D01*
X987340Y889085D01*
X987891Y890416D01*
X997169D01*
X1000943Y886643D01*
X1002024Y885920D01*
X1003300Y885666D01*
X1006503D01*
X1007221Y883932D01*
X1008832Y881832D01*
X1010932Y880221D01*
X1013376Y879209D01*
X1016000Y878863D01*
X1018624Y879209D01*
X1021068Y880221D01*
X1023168Y881832D01*
X1024779Y883932D01*
X1025497Y885666D01*
X1040638D01*
X1041914Y885920D01*
X1042996Y886643D01*
X1052902Y896548D01*
X1053624Y897630D01*
X1053878Y898906D01*
Y966359D01*
X1093835Y1006316D01*
X1122665D01*
X1123759Y1003674D01*
X1125658Y1001199D01*
X1128134Y999299D01*
X1131016Y998105D01*
X1134110Y997698D01*
X1137204Y998105D01*
X1140086Y999299D01*
X1142561Y1001199D01*
X1144461Y1003674D01*
X1145655Y1006556D01*
X1146062Y1009650D01*
X1145655Y1012744D01*
X1144461Y1015626D01*
X1142561Y1018102D01*
X1140086Y1020001D01*
X1137204Y1021195D01*
X1134110Y1021602D01*
D02*
G37*
G36*
X372110Y1002281D02*
Y991070D01*
X383321D01*
X383057Y993074D01*
X381794Y996124D01*
X379784Y998744D01*
X377164Y1000754D01*
X374114Y1002017D01*
X372110Y1002281D01*
D02*
G37*
G36*
X369570D02*
X367566Y1002017D01*
X364516Y1000754D01*
X361896Y998744D01*
X359886Y996124D01*
X358623Y993074D01*
X358359Y991070D01*
X369570D01*
Y1002281D01*
D02*
G37*
G36*
X766408Y1129966D02*
X753388D01*
Y1123696D01*
X766408D01*
Y1129966D01*
D02*
G37*
G36*
X765868Y1106426D02*
X738368D01*
Y1092426D01*
X765868D01*
Y1094952D01*
X772064D01*
X780526Y1086489D01*
Y1042326D01*
X712826D01*
Y1046698D01*
X713366D01*
Y1054968D01*
X703326D01*
Y1056238D01*
D01*
Y1054968D01*
X693286D01*
Y1046698D01*
X693826D01*
Y1042326D01*
X681076D01*
Y1046698D01*
X681616D01*
Y1054968D01*
X671576D01*
X661536D01*
Y1046698D01*
X662076D01*
Y1028738D01*
X666988D01*
Y1013665D01*
X665875Y1012811D01*
X664536Y1011067D01*
X663695Y1009036D01*
X663408Y1006856D01*
X663695Y1004676D01*
X664536Y1002645D01*
X665875Y1000901D01*
X667619Y999562D01*
X669650Y998721D01*
X671830Y998434D01*
X674010Y998721D01*
X676041Y999562D01*
X677785Y1000901D01*
X679124Y1002645D01*
X679965Y1004676D01*
X680252Y1006856D01*
X679965Y1009036D01*
X679124Y1011067D01*
X677785Y1012811D01*
X676164Y1014055D01*
Y1028738D01*
X681076D01*
Y1033150D01*
X693826D01*
Y1028738D01*
X712826D01*
Y1033150D01*
X804611D01*
X804756Y1032799D01*
X806279Y1030815D01*
X808263Y1029292D01*
X810574Y1028335D01*
X813054Y1028008D01*
X815534Y1028335D01*
X817845Y1029292D01*
X819829Y1030815D01*
X821352Y1032799D01*
X821497Y1033150D01*
X841292D01*
X841332Y1033053D01*
X842855Y1031068D01*
X844839Y1029546D01*
X847150Y1028588D01*
X849630Y1028262D01*
X852110Y1028588D01*
X854421Y1029546D01*
X856405Y1031068D01*
X857928Y1033053D01*
X857968Y1033150D01*
X1148317D01*
X1154922Y1026545D01*
Y1020576D01*
X1153534Y1020001D01*
X1151059Y1018102D01*
X1149159Y1015626D01*
X1147965Y1012744D01*
X1147558Y1009650D01*
X1147965Y1006556D01*
X1149159Y1003674D01*
X1151059Y1001199D01*
X1153534Y999299D01*
X1156416Y998105D01*
X1158256Y997863D01*
Y996582D01*
X1156276Y996321D01*
X1153261Y995073D01*
X1150673Y993087D01*
X1148687Y990499D01*
X1147439Y987484D01*
X1147178Y985504D01*
X1145897D01*
X1145655Y987344D01*
X1144461Y990226D01*
X1142561Y992701D01*
X1140086Y994601D01*
X1137204Y995795D01*
X1134110Y996202D01*
X1131016Y995795D01*
X1128134Y994601D01*
X1125658Y992701D01*
X1123759Y990226D01*
X1122565Y987344D01*
X1122158Y984250D01*
X1122565Y981156D01*
X1123759Y978274D01*
X1125658Y975798D01*
X1128134Y973899D01*
X1131016Y972705D01*
X1134110Y972298D01*
X1137204Y972705D01*
X1140086Y973899D01*
X1142561Y975798D01*
X1144461Y978274D01*
X1145655Y981156D01*
X1145897Y982996D01*
X1147178D01*
X1147439Y981016D01*
X1148687Y978001D01*
X1150673Y975413D01*
X1153261Y973427D01*
X1156275Y972179D01*
Y970921D01*
X1153261Y969673D01*
X1150673Y967687D01*
X1148687Y965098D01*
X1147439Y962084D01*
X1147178Y960104D01*
X1145897D01*
X1145655Y961944D01*
X1144461Y964826D01*
X1142561Y967301D01*
X1140086Y969201D01*
X1137204Y970395D01*
X1134110Y970802D01*
X1131016Y970395D01*
X1128134Y969201D01*
X1125658Y967301D01*
X1123759Y964826D01*
X1122665Y962184D01*
X1088173D01*
X1087810Y963061D01*
X1086471Y964805D01*
X1084727Y966144D01*
X1082696Y966985D01*
X1080516Y967272D01*
X1078336Y966985D01*
X1076305Y966144D01*
X1074561Y964805D01*
X1073222Y963061D01*
X1072381Y961030D01*
X1072094Y958850D01*
X1072381Y956670D01*
X1073222Y954639D01*
X1074561Y952895D01*
X1076305Y951556D01*
X1078336Y950715D01*
X1080516Y950428D01*
X1082696Y950715D01*
X1084727Y951556D01*
X1086471Y952895D01*
X1087810Y954639D01*
X1088173Y955516D01*
X1122665D01*
X1123759Y952874D01*
X1125658Y950398D01*
X1128134Y948499D01*
X1131016Y947305D01*
X1134110Y946898D01*
X1137204Y947305D01*
X1140086Y948499D01*
X1142561Y950398D01*
X1144461Y952874D01*
X1145655Y955757D01*
X1145897Y957596D01*
X1147178D01*
X1147439Y955616D01*
X1148687Y952601D01*
X1150673Y950013D01*
X1153261Y948027D01*
X1156275Y946779D01*
Y945521D01*
X1153261Y944273D01*
X1150673Y942287D01*
X1148687Y939698D01*
X1147439Y936684D01*
X1147178Y934704D01*
X1145897D01*
X1145655Y936544D01*
X1144461Y939426D01*
X1142561Y941901D01*
X1140086Y943801D01*
X1137204Y944995D01*
X1134110Y945402D01*
X1131016Y944995D01*
X1128134Y943801D01*
X1125658Y941901D01*
X1123759Y939426D01*
X1122665Y936784D01*
X1116330D01*
X1115054Y936530D01*
X1113972Y935807D01*
X1045099Y866934D01*
X1025497D01*
X1024779Y868668D01*
X1023168Y870768D01*
X1021068Y872379D01*
X1018624Y873391D01*
X1016000Y873737D01*
X1013376Y873391D01*
X1010932Y872379D01*
X1008832Y870768D01*
X1007221Y868668D01*
X1007002Y868139D01*
X1005756Y867891D01*
X997540Y876107D01*
X996458Y876830D01*
X995182Y877084D01*
X987891D01*
X987340Y878415D01*
X985857Y880347D01*
X983925Y881830D01*
X981675Y882762D01*
X979260Y883080D01*
X958760D01*
X956345Y882762D01*
X954095Y881830D01*
X952163Y880347D01*
X950680Y878415D01*
X950129Y877084D01*
X946902D01*
X945626Y876830D01*
X944544Y876107D01*
X917122Y848686D01*
X916400Y847604D01*
X916146Y846328D01*
Y764540D01*
X916400Y763264D01*
X917122Y762182D01*
X983163Y696143D01*
X984244Y695420D01*
X985520Y695166D01*
X1019699D01*
X1030446Y684419D01*
Y641270D01*
X1029032Y640684D01*
X1027065Y639175D01*
X1025556Y637208D01*
X1024607Y634918D01*
X1024284Y632460D01*
X1024607Y630002D01*
X1025556Y627712D01*
X1027065Y625745D01*
X1029032Y624236D01*
X1031322Y623287D01*
X1033780Y622964D01*
X1036238Y623287D01*
X1038528Y624236D01*
X1040495Y625745D01*
X1042004Y627712D01*
X1042130Y628016D01*
X1043400Y627763D01*
Y603758D01*
X1043654Y602482D01*
X1044377Y601400D01*
X1055936Y589841D01*
Y560027D01*
X1054432Y559404D01*
X1052465Y557895D01*
X1050956Y555928D01*
X1050007Y553638D01*
X1049684Y551180D01*
X1050007Y548722D01*
X1050956Y546432D01*
X1052465Y544465D01*
X1054432Y542956D01*
X1056722Y542007D01*
X1059180Y541684D01*
X1061638Y542007D01*
X1063928Y542956D01*
X1065895Y544465D01*
X1067404Y546432D01*
X1068353Y548722D01*
X1068676Y551180D01*
X1068353Y553638D01*
X1067404Y555928D01*
X1065895Y557895D01*
X1063928Y559404D01*
X1062604Y559952D01*
Y591222D01*
X1062350Y592498D01*
X1061628Y593579D01*
X1050068Y605139D01*
Y626783D01*
X1051338Y627214D01*
X1052465Y625745D01*
X1054432Y624236D01*
X1055846Y623650D01*
Y616712D01*
X1056100Y615436D01*
X1056823Y614355D01*
X1082804Y588372D01*
X1083886Y587650D01*
X1085162Y587396D01*
X1153840D01*
X1155116Y587650D01*
X1156197Y588372D01*
X1186759Y618935D01*
X1187482Y620016D01*
X1187736Y621292D01*
Y827024D01*
X1187482Y828300D01*
X1186759Y829381D01*
X1137444Y878697D01*
Y896605D01*
X1140086Y897699D01*
X1142561Y899598D01*
X1144461Y902074D01*
X1145655Y904957D01*
X1145897Y906796D01*
X1147178D01*
X1147439Y904816D01*
X1148687Y901802D01*
X1150673Y899213D01*
X1153261Y897227D01*
X1156276Y895979D01*
X1158240Y895720D01*
Y908050D01*
X1159510D01*
Y909320D01*
X1171840D01*
X1171581Y911284D01*
X1170333Y914298D01*
X1168347Y916887D01*
X1165759Y918873D01*
X1162745Y920121D01*
Y921379D01*
X1165759Y922627D01*
X1168347Y924613D01*
X1170333Y927202D01*
X1171581Y930216D01*
X1171840Y932180D01*
X1159510D01*
Y934720D01*
X1171840D01*
X1171581Y936684D01*
X1170333Y939698D01*
X1168347Y942287D01*
X1165759Y944273D01*
X1162745Y945521D01*
Y946779D01*
X1165759Y948027D01*
X1168347Y950013D01*
X1170333Y952601D01*
X1171581Y955616D01*
X1171840Y957580D01*
X1159510D01*
Y960120D01*
X1171840D01*
X1171581Y962084D01*
X1170333Y965098D01*
X1168347Y967687D01*
X1165759Y969673D01*
X1162745Y970921D01*
Y972179D01*
X1165759Y973427D01*
X1168347Y975413D01*
X1170333Y978001D01*
X1171581Y981016D01*
X1171840Y982980D01*
X1159510D01*
Y985520D01*
X1171840D01*
X1171581Y987484D01*
X1170333Y990499D01*
X1168347Y993087D01*
X1165759Y995073D01*
X1162744Y996321D01*
X1160764Y996582D01*
Y997863D01*
X1162604Y998105D01*
X1165486Y999299D01*
X1167962Y1001199D01*
X1169861Y1003674D01*
X1171055Y1006556D01*
X1171462Y1009650D01*
X1171055Y1012744D01*
X1169861Y1015626D01*
X1167962Y1018102D01*
X1165486Y1020001D01*
X1164098Y1020576D01*
Y1028446D01*
X1163749Y1030202D01*
X1162754Y1031690D01*
X1153462Y1040982D01*
X1151974Y1041977D01*
X1150218Y1042326D01*
X858056D01*
X857928Y1042635D01*
X856405Y1044620D01*
X854421Y1046142D01*
X852110Y1047100D01*
X849630Y1047426D01*
X847150Y1047100D01*
X844839Y1046142D01*
X842855Y1044620D01*
X841332Y1042635D01*
X841204Y1042326D01*
X821375D01*
X821352Y1042381D01*
X819829Y1044365D01*
X817845Y1045888D01*
X815534Y1046845D01*
X813054Y1047172D01*
X810574Y1046845D01*
X808263Y1045888D01*
X806279Y1044365D01*
X804756Y1042381D01*
X804733Y1042326D01*
X789702D01*
Y1088390D01*
X789353Y1090146D01*
X788358Y1091634D01*
X777208Y1102784D01*
X775720Y1103779D01*
X773964Y1104128D01*
X765868D01*
Y1106426D01*
D02*
G37*
G36*
X548640Y1132621D02*
Y1121410D01*
X559851D01*
X559587Y1123414D01*
X558324Y1126464D01*
X556314Y1129084D01*
X553694Y1131094D01*
X550644Y1132357D01*
X548640Y1132621D01*
D02*
G37*
G36*
X750848Y1129966D02*
X737828D01*
Y1123696D01*
X750848D01*
Y1129966D01*
D02*
G37*
G36*
X848982Y1121270D02*
X840293D01*
X840470Y1119919D01*
X841482Y1117477D01*
X843091Y1115379D01*
X845189Y1113770D01*
X847631Y1112758D01*
X848982Y1112581D01*
Y1121270D01*
D02*
G37*
G36*
X821349D02*
X812660D01*
Y1112581D01*
X814011Y1112758D01*
X816453Y1113770D01*
X818551Y1115379D01*
X820160Y1117477D01*
X821172Y1119919D01*
X821349Y1121270D01*
D02*
G37*
G36*
X810120D02*
X801431D01*
X801608Y1119919D01*
X802620Y1117477D01*
X804229Y1115379D01*
X806327Y1113770D01*
X808769Y1112758D01*
X810120Y1112581D01*
Y1121270D01*
D02*
G37*
G36*
X860211D02*
X851522D01*
Y1112581D01*
X852873Y1112758D01*
X855315Y1113770D01*
X857413Y1115379D01*
X859022Y1117477D01*
X860034Y1119919D01*
X860211Y1121270D01*
D02*
G37*
G36*
X546100Y1132621D02*
X544096Y1132357D01*
X541046Y1131094D01*
X538426Y1129084D01*
X536416Y1126464D01*
X535153Y1123414D01*
X534889Y1121410D01*
X546100D01*
Y1132621D01*
D02*
G37*
G36*
X766408Y1121156D02*
X753388D01*
Y1114886D01*
X766408D01*
Y1121156D01*
D02*
G37*
G36*
X750848D02*
X737828D01*
Y1114886D01*
X750848D01*
Y1121156D01*
D02*
G37*
G36*
X559851Y1118870D02*
X548640D01*
Y1107659D01*
X550644Y1107923D01*
X553694Y1109186D01*
X556314Y1111196D01*
X558324Y1113816D01*
X559587Y1116866D01*
X559851Y1118870D01*
D02*
G37*
G36*
X499704Y1075360D02*
X494934D01*
Y1069340D01*
X499704D01*
Y1075360D01*
D02*
G37*
G36*
X492394D02*
X487624D01*
Y1069340D01*
X492394D01*
Y1075360D01*
D02*
G37*
G36*
X453790Y1152676D02*
X440290D01*
Y1141676D01*
X443706D01*
Y1119522D01*
X442249Y1118918D01*
X440265Y1117395D01*
X438742Y1115411D01*
X437785Y1113100D01*
X437458Y1110620D01*
X437785Y1108140D01*
X438742Y1105829D01*
X440265Y1103845D01*
X442249Y1102322D01*
X443706Y1101718D01*
Y1077022D01*
X442127Y1076368D01*
X440143Y1074845D01*
X438620Y1072861D01*
X437663Y1070550D01*
X437336Y1068070D01*
X437663Y1065590D01*
X438620Y1063279D01*
X440143Y1061294D01*
X442127Y1059772D01*
X444438Y1058814D01*
X446918Y1058488D01*
X449398Y1058814D01*
X450496Y1059269D01*
X465008Y1044758D01*
X466089Y1044035D01*
X467365Y1043781D01*
X580660D01*
X652962Y971479D01*
X654044Y970756D01*
X655320Y970502D01*
X829199D01*
X903446Y896255D01*
Y717804D01*
X903700Y716528D01*
X904423Y715446D01*
X928846Y691023D01*
Y641270D01*
X927432Y640684D01*
X925465Y639175D01*
X924338Y637706D01*
X923068Y638137D01*
Y654622D01*
X922814Y655897D01*
X922092Y656979D01*
X897414Y681656D01*
Y860298D01*
X897160Y861574D01*
X896438Y862656D01*
X843136Y915957D01*
X842054Y916680D01*
X840778Y916934D01*
X827431D01*
X826880Y918265D01*
X825397Y920197D01*
X823465Y921680D01*
X821215Y922612D01*
X818800Y922930D01*
X798300D01*
X795885Y922612D01*
X793635Y921680D01*
X791703Y920197D01*
X790220Y918265D01*
X790000Y917734D01*
X778621D01*
X771073Y925282D01*
X771791Y927016D01*
X772137Y929640D01*
X771791Y932264D01*
X770779Y934708D01*
X769168Y936808D01*
X767068Y938419D01*
X764624Y939431D01*
X762000Y939777D01*
X759376Y939431D01*
X756932Y938419D01*
X754832Y936808D01*
X753221Y934708D01*
X752209Y932264D01*
X751863Y929640D01*
X752209Y927016D01*
X753221Y924572D01*
X754832Y922472D01*
X756932Y920861D01*
X759376Y919849D01*
X762000Y919503D01*
X764624Y919849D01*
X766358Y920567D01*
X774883Y912042D01*
X775964Y911320D01*
X777240Y911066D01*
X789337D01*
X790220Y908935D01*
X791703Y907003D01*
X793635Y905520D01*
X795885Y904588D01*
X798300Y904270D01*
X818800D01*
X821215Y904588D01*
X823465Y905520D01*
X825397Y907003D01*
X826880Y908935D01*
X827431Y910266D01*
X839397D01*
X890746Y858917D01*
Y680275D01*
X891000Y679000D01*
X891722Y677918D01*
X916400Y653241D01*
Y637157D01*
X915130Y636904D01*
X915004Y637208D01*
X913495Y639175D01*
X911528Y640684D01*
X909238Y641633D01*
X906780Y641956D01*
X904322Y641633D01*
X902032Y640684D01*
X900065Y639175D01*
X898938Y637706D01*
X897668Y638137D01*
Y656665D01*
X897414Y657941D01*
X896692Y659023D01*
X884714Y671000D01*
Y849630D01*
X884460Y850906D01*
X883737Y851988D01*
X839768Y895957D01*
X838686Y896680D01*
X837410Y896934D01*
X827431D01*
X826880Y898265D01*
X825397Y900197D01*
X823465Y901680D01*
X821215Y902612D01*
X818800Y902930D01*
X798300D01*
X795885Y902612D01*
X793635Y901680D01*
X791703Y900197D01*
X790220Y898265D01*
X789669Y896934D01*
X774021D01*
X771073Y899882D01*
X771791Y901616D01*
X772137Y904240D01*
X771791Y906864D01*
X770779Y909308D01*
X769168Y911408D01*
X767068Y913019D01*
X764624Y914031D01*
X762000Y914377D01*
X759376Y914031D01*
X756932Y913019D01*
X754832Y911408D01*
X753221Y909308D01*
X752209Y906864D01*
X751863Y904240D01*
X752209Y901616D01*
X753221Y899172D01*
X754832Y897072D01*
X756932Y895461D01*
X759376Y894449D01*
X762000Y894103D01*
X764624Y894449D01*
X766358Y895167D01*
X770283Y891243D01*
X771364Y890520D01*
X772640Y890266D01*
X789669D01*
X790220Y888935D01*
X791703Y887003D01*
X793635Y885520D01*
X795885Y884588D01*
X798300Y884270D01*
X818800D01*
X821215Y884588D01*
X823465Y885520D01*
X825397Y887003D01*
X826880Y888935D01*
X827431Y890266D01*
X836029D01*
X878046Y848249D01*
Y669619D01*
X878300Y668343D01*
X879023Y667261D01*
X891000Y655284D01*
Y637157D01*
X889730Y636904D01*
X889604Y637208D01*
X888095Y639175D01*
X886128Y640684D01*
X883838Y641633D01*
X881380Y641956D01*
X878922Y641633D01*
X876632Y640684D01*
X874665Y639175D01*
X873156Y637208D01*
X872207Y634918D01*
X871884Y632460D01*
X872207Y630002D01*
X873156Y627712D01*
X874665Y625745D01*
X876632Y624236D01*
X878922Y623287D01*
X881380Y622964D01*
X883838Y623287D01*
X886128Y624236D01*
X888095Y625745D01*
X889604Y627712D01*
X889730Y628016D01*
X891000Y627763D01*
Y614537D01*
X879023Y602560D01*
X878300Y601478D01*
X878046Y600202D01*
Y559990D01*
X876632Y559404D01*
X874665Y557895D01*
X873156Y555928D01*
X872207Y553638D01*
X871884Y551180D01*
X872207Y548722D01*
X873156Y546432D01*
X874665Y544465D01*
X876632Y542956D01*
X878922Y542007D01*
X881380Y541684D01*
X883838Y542007D01*
X886128Y542956D01*
X888095Y544465D01*
X889604Y546432D01*
X890553Y548722D01*
X890876Y551180D01*
X890553Y553638D01*
X889604Y555928D01*
X888095Y557895D01*
X886128Y559404D01*
X884714Y559990D01*
Y598821D01*
X896692Y610798D01*
X897414Y611880D01*
X897668Y613156D01*
Y626783D01*
X898938Y627214D01*
X900065Y625745D01*
X902032Y624236D01*
X904322Y623287D01*
X906780Y622964D01*
X909238Y623287D01*
X911528Y624236D01*
X913495Y625745D01*
X915004Y627712D01*
X915130Y628016D01*
X916400Y627763D01*
Y595995D01*
X904423Y584017D01*
X903700Y582936D01*
X903446Y581660D01*
Y559990D01*
X902032Y559404D01*
X900065Y557895D01*
X898556Y555928D01*
X897607Y553638D01*
X897284Y551180D01*
X897607Y548722D01*
X898556Y546432D01*
X900065Y544465D01*
X902032Y542956D01*
X904322Y542007D01*
X906780Y541684D01*
X909238Y542007D01*
X911528Y542956D01*
X913495Y544465D01*
X915004Y546432D01*
X915953Y548722D01*
X916276Y551180D01*
X915953Y553638D01*
X915004Y555928D01*
X913495Y557895D01*
X911528Y559404D01*
X910114Y559990D01*
Y580279D01*
X922092Y592257D01*
X922814Y593338D01*
X923068Y594614D01*
Y626783D01*
X924338Y627214D01*
X925465Y625745D01*
X927432Y624236D01*
X929722Y623287D01*
X932180Y622964D01*
X934638Y623287D01*
X936928Y624236D01*
X938895Y625745D01*
X940404Y627712D01*
X941353Y630002D01*
X941676Y632460D01*
X941353Y634918D01*
X940404Y637208D01*
X938895Y639175D01*
X936928Y640684D01*
X935514Y641270D01*
Y692404D01*
X935260Y693680D01*
X934538Y694762D01*
X910114Y719185D01*
Y897636D01*
X909860Y898912D01*
X909137Y899994D01*
X832937Y976193D01*
X831856Y976916D01*
X830580Y977170D01*
X656701D01*
X584398Y1049473D01*
X583317Y1050195D01*
X582041Y1050449D01*
X468746D01*
X455665Y1063530D01*
X456165Y1064736D01*
X474164D01*
Y1061320D01*
X485164D01*
Y1074820D01*
X474164D01*
Y1071404D01*
X455820D01*
X455216Y1072861D01*
X453694Y1074845D01*
X451709Y1076368D01*
X450374Y1076921D01*
Y1101718D01*
X451831Y1102322D01*
X453815Y1103845D01*
X455338Y1105829D01*
X456296Y1108140D01*
X456622Y1110620D01*
X456296Y1113100D01*
X455338Y1115411D01*
X453815Y1117395D01*
X451831Y1118918D01*
X450374Y1119522D01*
Y1141676D01*
X453790D01*
Y1152676D01*
D02*
G37*
G36*
X525648Y1078029D02*
X524297Y1077852D01*
X521855Y1076840D01*
X519757Y1075231D01*
X518148Y1073133D01*
X517136Y1070691D01*
X516959Y1069340D01*
X525648D01*
Y1078029D01*
D02*
G37*
G36*
X546100Y1118870D02*
X534889D01*
X535153Y1116866D01*
X536416Y1113816D01*
X538426Y1111196D01*
X541046Y1109186D01*
X544096Y1107923D01*
X546100Y1107659D01*
Y1118870D01*
D02*
G37*
G36*
X705368Y1140926D02*
X677868D01*
Y1103926D01*
X705368D01*
Y1140926D01*
D02*
G37*
G36*
X528188Y1078029D02*
Y1069340D01*
X536877D01*
X536700Y1070691D01*
X535688Y1073133D01*
X534079Y1075231D01*
X531981Y1076840D01*
X529539Y1077852D01*
X528188Y1078029D01*
D02*
G37*
G36*
X851522Y1132499D02*
Y1123810D01*
X860211D01*
X860034Y1125161D01*
X859022Y1127603D01*
X857413Y1129701D01*
X855315Y1131310D01*
X852873Y1132322D01*
X851522Y1132499D01*
D02*
G37*
G36*
X657352Y1149752D02*
X648582D01*
Y1141482D01*
X657352D01*
Y1149752D01*
D02*
G37*
G36*
X668662D02*
X659892D01*
Y1141482D01*
X668662D01*
Y1149752D01*
D02*
G37*
G36*
X848982Y1132499D02*
X847631Y1132322D01*
X845189Y1131310D01*
X843091Y1129701D01*
X841482Y1127603D01*
X840470Y1125161D01*
X840293Y1123810D01*
X848982D01*
Y1132499D01*
D02*
G37*
G36*
X818800Y942930D02*
X798300D01*
X795885Y942612D01*
X793635Y941680D01*
X791703Y940197D01*
X790220Y938265D01*
X789288Y936015D01*
X788970Y933600D01*
X789288Y931185D01*
X790220Y928935D01*
X791703Y927003D01*
X793635Y925520D01*
X795885Y924588D01*
X798300Y924270D01*
X818800D01*
X821215Y924588D01*
X823465Y925520D01*
X825397Y927003D01*
X826880Y928935D01*
X827812Y931185D01*
X828130Y933600D01*
X827812Y936015D01*
X826880Y938265D01*
X825397Y940197D01*
X823465Y941680D01*
X821215Y942612D01*
X818800Y942930D01*
D02*
G37*
G36*
X988967Y932480D02*
X969010D01*
X949053D01*
X949222Y931194D01*
X950209Y928813D01*
X951778Y926768D01*
X953823Y925199D01*
X956204Y924212D01*
X956917Y924118D01*
Y922837D01*
X956345Y922762D01*
X954095Y921830D01*
X952163Y920347D01*
X950680Y918415D01*
X949748Y916165D01*
X949430Y913750D01*
X949748Y911335D01*
X950680Y909085D01*
X952163Y907153D01*
X954095Y905670D01*
X956345Y904738D01*
X958760Y904420D01*
X979260D01*
X981675Y904738D01*
X983925Y905670D01*
X985857Y907153D01*
X987340Y909085D01*
X988160Y911066D01*
X1006503D01*
X1007221Y909332D01*
X1008832Y907232D01*
X1010932Y905621D01*
X1013376Y904609D01*
X1016000Y904263D01*
X1018624Y904609D01*
X1021068Y905621D01*
X1023168Y907232D01*
X1024779Y909332D01*
X1025791Y911776D01*
X1026137Y914400D01*
X1025791Y917024D01*
X1024779Y919468D01*
X1023168Y921568D01*
X1021068Y923179D01*
X1018624Y924191D01*
X1016000Y924537D01*
X1013376Y924191D01*
X1010932Y923179D01*
X1008832Y921568D01*
X1007221Y919468D01*
X1006503Y917734D01*
X987622D01*
X987340Y918415D01*
X985857Y920347D01*
X983925Y921830D01*
X981675Y922762D01*
X981103Y922837D01*
Y924118D01*
X981816Y924212D01*
X984197Y925199D01*
X986242Y926768D01*
X987812Y928813D01*
X988798Y931194D01*
X988967Y932480D01*
D02*
G37*
G36*
X1171840Y906780D02*
X1160780D01*
Y895720D01*
X1162744Y895979D01*
X1165759Y897227D01*
X1168347Y899213D01*
X1170333Y901802D01*
X1171581Y904816D01*
X1171840Y906780D01*
D02*
G37*
G36*
X762000Y863577D02*
X759376Y863231D01*
X756932Y862219D01*
X754832Y860608D01*
X753221Y858508D01*
X752209Y856064D01*
X751863Y853440D01*
X752209Y850816D01*
X753221Y848372D01*
X754832Y846272D01*
X756932Y844661D01*
X759376Y843649D01*
X762000Y843303D01*
X764624Y843649D01*
X767068Y844661D01*
X769168Y846272D01*
X770779Y848372D01*
X771791Y850816D01*
X772137Y853440D01*
X771791Y856064D01*
X770779Y858508D01*
X769168Y860608D01*
X767068Y862219D01*
X764624Y863231D01*
X762000Y863577D01*
D02*
G37*
G36*
X370840Y851904D02*
X367707Y851491D01*
X364788Y850282D01*
X362281Y848359D01*
X360358Y845852D01*
X359752Y844388D01*
X348056D01*
X346300Y844039D01*
X344812Y843044D01*
X316288Y814520D01*
X315293Y813032D01*
X314944Y811276D01*
Y629666D01*
X315293Y627910D01*
X316288Y626422D01*
X344114Y598596D01*
X345602Y597601D01*
X347358Y597252D01*
X359752D01*
X360358Y595788D01*
X362281Y593282D01*
X364788Y591358D01*
X367707Y590149D01*
X370840Y589736D01*
X373973Y590149D01*
X376892Y591358D01*
X379398Y593282D01*
X381322Y595788D01*
X381928Y597252D01*
X537552D01*
X538158Y595788D01*
X540081Y593282D01*
X542588Y591358D01*
X545507Y590149D01*
X548640Y589736D01*
X551773Y590149D01*
X554692Y591358D01*
X557198Y593282D01*
X559122Y595788D01*
X559728Y597252D01*
X629430D01*
X728276Y498406D01*
X729764Y497411D01*
X731520Y497062D01*
X768960D01*
Y490900D01*
X772622D01*
Y478820D01*
X772971Y477064D01*
X773966Y475576D01*
X778240Y471301D01*
Y370332D01*
X778589Y368576D01*
X779584Y367088D01*
X813366Y333306D01*
X814854Y332311D01*
X816610Y331962D01*
X925742D01*
X925941Y331482D01*
X927552Y329382D01*
X929652Y327771D01*
X930132Y327572D01*
Y313690D01*
X930481Y311934D01*
X931476Y310446D01*
X940874Y301048D01*
X942362Y300053D01*
X944118Y299704D01*
X1028954D01*
X1030710Y300053D01*
X1032198Y301048D01*
X1054550Y323400D01*
X1055545Y324888D01*
X1055894Y326644D01*
Y361442D01*
X1055545Y363198D01*
X1054550Y364686D01*
X938292Y480945D01*
Y511688D01*
X942060Y515456D01*
X948080D01*
Y511084D01*
X947540D01*
Y502814D01*
X967620D01*
Y511084D01*
X967080D01*
Y529044D01*
X962168D01*
Y542890D01*
X962328Y542956D01*
X964295Y544465D01*
X965804Y546432D01*
X966753Y548722D01*
X967076Y551180D01*
X966753Y553638D01*
X965804Y555928D01*
X964295Y557895D01*
X962328Y559404D01*
X962168Y559470D01*
Y565789D01*
X1011624Y615246D01*
X1012619Y616734D01*
X1012968Y618490D01*
Y624170D01*
X1013128Y624236D01*
X1015095Y625745D01*
X1016604Y627712D01*
X1017553Y630002D01*
X1017876Y632460D01*
X1017553Y634918D01*
X1016604Y637208D01*
X1015095Y639175D01*
X1013128Y640684D01*
X1012968Y640750D01*
Y645960D01*
X1017880D01*
Y663920D01*
X1018420D01*
Y672190D01*
X998340D01*
Y663920D01*
X998880D01*
Y645960D01*
X1003792D01*
Y640750D01*
X1003632Y640684D01*
X1001665Y639175D01*
X1000156Y637208D01*
X999207Y634918D01*
X998884Y632460D01*
X999207Y630002D01*
X1000156Y627712D01*
X1001665Y625745D01*
X1003632Y624236D01*
X1003792Y624170D01*
Y620391D01*
X954336Y570934D01*
X953341Y569446D01*
X952992Y567690D01*
Y559470D01*
X952832Y559404D01*
X950865Y557895D01*
X949356Y555928D01*
X948407Y553638D01*
X948084Y551180D01*
X948407Y548722D01*
X949356Y546432D01*
X950865Y544465D01*
X952832Y542956D01*
X952992Y542890D01*
Y529044D01*
X948080D01*
Y524632D01*
X940160D01*
X938404Y524283D01*
X936916Y523288D01*
X930460Y516832D01*
X929465Y515344D01*
X929116Y513588D01*
Y479044D01*
X929465Y477288D01*
X930460Y475800D01*
X1046718Y359542D01*
Y328545D01*
X1027054Y308880D01*
X946019D01*
X939308Y315590D01*
Y327572D01*
X939788Y327771D01*
X941888Y329382D01*
X943499Y331482D01*
X944511Y333926D01*
X944857Y336550D01*
X944511Y339174D01*
X943499Y341618D01*
X941888Y343718D01*
X939788Y345329D01*
X937344Y346341D01*
X934720Y346687D01*
X932096Y346341D01*
X929652Y345329D01*
X927552Y343718D01*
X925941Y341618D01*
X925742Y341138D01*
X818511D01*
X787416Y372233D01*
Y473202D01*
X787067Y474958D01*
X786072Y476446D01*
X781798Y480720D01*
Y490900D01*
X785460D01*
Y512400D01*
X768960D01*
Y506238D01*
X733420D01*
X634574Y605084D01*
X633086Y606079D01*
X631330Y606428D01*
X559728D01*
X559122Y607892D01*
X557198Y610398D01*
X554692Y612322D01*
X551773Y613531D01*
X548640Y613944D01*
X545507Y613531D01*
X542588Y612322D01*
X540081Y610398D01*
X538158Y607892D01*
X537552Y606428D01*
X381928D01*
X381322Y607892D01*
X379398Y610398D01*
X376892Y612322D01*
X373973Y613531D01*
X370840Y613944D01*
X367707Y613531D01*
X364788Y612322D01*
X362281Y610398D01*
X360358Y607892D01*
X359752Y606428D01*
X349258D01*
X324120Y631567D01*
Y809376D01*
X349957Y835212D01*
X359752D01*
X360358Y833748D01*
X362281Y831242D01*
X364788Y829318D01*
X367707Y828109D01*
X370840Y827696D01*
X373973Y828109D01*
X376892Y829318D01*
X379398Y831242D01*
X381322Y833748D01*
X381928Y835212D01*
X451407D01*
X452515Y833769D01*
X454259Y832430D01*
X456290Y831589D01*
X458470Y831302D01*
X460650Y831589D01*
X462681Y832430D01*
X464425Y833769D01*
X465533Y835212D01*
X537220D01*
X538158Y832948D01*
X540081Y830442D01*
X542588Y828518D01*
X545507Y827309D01*
X548640Y826896D01*
X551773Y827309D01*
X554692Y828518D01*
X557198Y830442D01*
X559122Y832948D01*
X560331Y835867D01*
X560744Y839000D01*
X560331Y842133D01*
X559122Y845052D01*
X557198Y847559D01*
X554692Y849482D01*
X551773Y850691D01*
X548640Y851104D01*
X545507Y850691D01*
X542588Y849482D01*
X540081Y847559D01*
X538158Y845052D01*
X537883Y844388D01*
X465416D01*
X464425Y845679D01*
X462681Y847018D01*
X460650Y847859D01*
X458470Y848146D01*
X456290Y847859D01*
X454259Y847018D01*
X452515Y845679D01*
X451524Y844388D01*
X381928D01*
X381322Y845852D01*
X379398Y848359D01*
X376892Y850282D01*
X373973Y851491D01*
X370840Y851904D01*
D02*
G37*
G36*
X762000Y838177D02*
X759376Y837831D01*
X756932Y836819D01*
X754832Y835208D01*
X753221Y833108D01*
X752209Y830664D01*
X751863Y828040D01*
X752209Y825416D01*
X753221Y822972D01*
X754832Y820872D01*
X756932Y819261D01*
X759376Y818249D01*
X762000Y817903D01*
X764624Y818249D01*
X767068Y819261D01*
X769168Y820872D01*
X770779Y822972D01*
X771791Y825416D01*
X772137Y828040D01*
X771791Y830664D01*
X770779Y833108D01*
X769168Y835208D01*
X767068Y836819D01*
X764624Y837831D01*
X762000Y838177D01*
D02*
G37*
G36*
X671980Y1213331D02*
X669226Y1212968D01*
X666659Y1211905D01*
X664456Y1210214D01*
X662765Y1208010D01*
X661702Y1205444D01*
X661339Y1202690D01*
X661702Y1199936D01*
X662524Y1197949D01*
X656920Y1192346D01*
X656198Y1191264D01*
X655944Y1189988D01*
Y1178522D01*
X649122D01*
Y1173004D01*
X639450D01*
Y1175170D01*
X627450D01*
Y1164170D01*
X639450D01*
Y1166336D01*
X649122D01*
Y1160562D01*
X648582D01*
Y1152292D01*
X668662D01*
Y1160562D01*
X668122D01*
Y1166230D01*
X700781D01*
X723828Y1143183D01*
X724910Y1142460D01*
X726186Y1142206D01*
X738368D01*
Y1138426D01*
X765868D01*
Y1152426D01*
X738368D01*
Y1148874D01*
X727567D01*
X704520Y1171921D01*
X703438Y1172644D01*
X702162Y1172898D01*
X668122D01*
Y1178522D01*
X662612D01*
Y1188607D01*
X667240Y1193234D01*
X669226Y1192412D01*
X671980Y1192049D01*
X674734Y1192412D01*
X677300Y1193475D01*
X679504Y1195166D01*
X681195Y1197370D01*
X682259Y1199936D01*
X682621Y1202690D01*
X682259Y1205444D01*
X681195Y1208010D01*
X679504Y1210214D01*
X677300Y1211905D01*
X674734Y1212968D01*
X671980Y1213331D01*
D02*
G37*
G36*
X601980D02*
X599226Y1212968D01*
X596660Y1211905D01*
X594456Y1210214D01*
X592765Y1208010D01*
X591942Y1206024D01*
X565404D01*
X564128Y1205770D01*
X563046Y1205048D01*
X545013Y1187013D01*
X544290Y1185932D01*
X544036Y1184656D01*
Y1181748D01*
X541318Y1180622D01*
X538811Y1178699D01*
X536888Y1176192D01*
X535762Y1173474D01*
X499513D01*
X480009Y1192978D01*
X478928Y1193700D01*
X477652Y1193954D01*
X455942D01*
X455338Y1195411D01*
X453815Y1197395D01*
X451831Y1198918D01*
X449520Y1199875D01*
X447040Y1200202D01*
X444560Y1199875D01*
X442249Y1198918D01*
X440265Y1197395D01*
X438742Y1195411D01*
X437785Y1193100D01*
X437458Y1190620D01*
X437785Y1188140D01*
X438742Y1185829D01*
X440265Y1183845D01*
X442249Y1182322D01*
X443706Y1181718D01*
Y1166676D01*
X440290D01*
Y1155676D01*
X453790D01*
Y1166676D01*
X450374D01*
Y1181718D01*
X451831Y1182322D01*
X453815Y1183845D01*
X455338Y1185829D01*
X455942Y1187286D01*
X476271D01*
X495774Y1167783D01*
X496856Y1167060D01*
X498132Y1166806D01*
X535762D01*
X536888Y1164088D01*
X538811Y1161581D01*
X541318Y1159658D01*
X544237Y1158449D01*
X547370Y1158036D01*
X550503Y1158449D01*
X553422Y1159658D01*
X555928Y1161581D01*
X557852Y1164088D01*
X558978Y1166806D01*
X592450D01*
Y1164170D01*
X604450D01*
Y1175170D01*
X592450D01*
Y1173474D01*
X558978D01*
X557852Y1176192D01*
X555928Y1178699D01*
X553422Y1180622D01*
X550704Y1181748D01*
Y1183275D01*
X566785Y1199356D01*
X591942D01*
X592765Y1197370D01*
X594456Y1195166D01*
X596660Y1193475D01*
X599226Y1192412D01*
X601980Y1192049D01*
X604734Y1192412D01*
X607300Y1193475D01*
X609504Y1195166D01*
X611195Y1197370D01*
X612258Y1199936D01*
X612621Y1202690D01*
X612258Y1205444D01*
X611195Y1208010D01*
X609504Y1210214D01*
X607300Y1211905D01*
X604734Y1212968D01*
X601980Y1213331D01*
D02*
G37*
G36*
X762000Y888977D02*
X759376Y888631D01*
X756932Y887619D01*
X754832Y886008D01*
X753221Y883908D01*
X752209Y881464D01*
X751863Y878840D01*
X752209Y876216D01*
X753221Y873772D01*
X754832Y871672D01*
X756932Y870061D01*
X759376Y869049D01*
X762000Y868703D01*
X764624Y869049D01*
X767068Y870061D01*
X769168Y871672D01*
X770779Y873772D01*
X771497Y875506D01*
X775859D01*
X780123Y871243D01*
X781204Y870520D01*
X782480Y870266D01*
X789669D01*
X790220Y868935D01*
X791703Y867003D01*
X793635Y865520D01*
X795885Y864588D01*
X798300Y864270D01*
X818800D01*
X821215Y864588D01*
X823465Y865520D01*
X825397Y867003D01*
X826880Y868935D01*
X827812Y871185D01*
X828130Y873600D01*
X827812Y876015D01*
X826880Y878265D01*
X825397Y880197D01*
X823465Y881680D01*
X821215Y882612D01*
X818800Y882930D01*
X798300D01*
X795885Y882612D01*
X793635Y881680D01*
X791703Y880197D01*
X790220Y878265D01*
X789669Y876934D01*
X783861D01*
X779597Y881198D01*
X778516Y881920D01*
X777240Y882174D01*
X771497D01*
X770779Y883908D01*
X769168Y886008D01*
X767068Y887619D01*
X764624Y888631D01*
X762000Y888977D01*
D02*
G37*
G36*
X818800Y862930D02*
X798300D01*
X795885Y862612D01*
X793635Y861680D01*
X791703Y860197D01*
X790220Y858265D01*
X789288Y856015D01*
X788970Y853600D01*
X789288Y851185D01*
X790220Y848935D01*
X791703Y847003D01*
X793635Y845520D01*
X795885Y844588D01*
X798300Y844270D01*
X818800D01*
X821215Y844588D01*
X823465Y845520D01*
X825397Y847003D01*
X826880Y848935D01*
X827812Y851185D01*
X828130Y853600D01*
X827812Y856015D01*
X826880Y858265D01*
X825397Y860197D01*
X823465Y861680D01*
X821215Y862612D01*
X818800Y862930D01*
D02*
G37*
G36*
X812660Y1132499D02*
Y1123810D01*
X821349D01*
X821172Y1125161D01*
X820160Y1127603D01*
X818551Y1129701D01*
X816453Y1131310D01*
X814011Y1132322D01*
X812660Y1132499D01*
D02*
G37*
G36*
X561121Y987730D02*
X549910D01*
Y976519D01*
X551914Y976783D01*
X554964Y978046D01*
X557584Y980056D01*
X559594Y982676D01*
X560857Y985726D01*
X561121Y987730D01*
D02*
G37*
G36*
X547370D02*
X536159D01*
X536423Y985726D01*
X537686Y982676D01*
X539696Y980056D01*
X542316Y978046D01*
X545366Y976783D01*
X547370Y976519D01*
Y987730D01*
D02*
G37*
G36*
X762000Y965177D02*
X759376Y964831D01*
X756932Y963819D01*
X754832Y962208D01*
X753221Y960108D01*
X752209Y957664D01*
X751863Y955040D01*
X752209Y952416D01*
X753221Y949972D01*
X754832Y947872D01*
X756932Y946261D01*
X759376Y945249D01*
X762000Y944903D01*
X764624Y945249D01*
X767068Y946261D01*
X769168Y947872D01*
X770779Y949972D01*
X771791Y952416D01*
X772137Y955040D01*
X771791Y957664D01*
X770779Y960108D01*
X769168Y962208D01*
X767068Y963819D01*
X764624Y964831D01*
X762000Y965177D01*
D02*
G37*
G36*
X369570Y988530D02*
X358359D01*
X358623Y986526D01*
X359886Y983476D01*
X361896Y980856D01*
X364516Y978846D01*
X367566Y977583D01*
X369570Y977319D01*
Y988530D01*
D02*
G37*
G36*
X549910Y1001481D02*
Y990270D01*
X561121D01*
X560857Y992274D01*
X559594Y995324D01*
X557584Y997944D01*
X554964Y999954D01*
X551914Y1001217D01*
X549910Y1001481D01*
D02*
G37*
G36*
X547370D02*
X545366Y1001217D01*
X542316Y999954D01*
X539696Y997944D01*
X537686Y995324D01*
X536423Y992274D01*
X536159Y990270D01*
X547370D01*
Y1001481D01*
D02*
G37*
G36*
X383321Y988530D02*
X372110D01*
Y977319D01*
X374114Y977583D01*
X377164Y978846D01*
X379784Y980856D01*
X381794Y983476D01*
X383057Y986526D01*
X383321Y988530D01*
D02*
G37*
G36*
X1017270Y950314D02*
Y941070D01*
X1026514D01*
X1026317Y942564D01*
X1025250Y945141D01*
X1023553Y947353D01*
X1021341Y949050D01*
X1018764Y950117D01*
X1017270Y950314D01*
D02*
G37*
G36*
X1026514Y938530D02*
X1017270D01*
Y929286D01*
X1018764Y929483D01*
X1021341Y930550D01*
X1023553Y932247D01*
X1025250Y934459D01*
X1026317Y937036D01*
X1026514Y938530D01*
D02*
G37*
G36*
X1014730D02*
X1005486D01*
X1005683Y937036D01*
X1006750Y934459D01*
X1008447Y932247D01*
X1010659Y930550D01*
X1013235Y929483D01*
X1014730Y929286D01*
Y938530D01*
D02*
G37*
G36*
X810120Y1132499D02*
X808769Y1132322D01*
X806327Y1131310D01*
X804229Y1129701D01*
X802620Y1127603D01*
X801608Y1125161D01*
X801431Y1123810D01*
X810120D01*
Y1132499D01*
D02*
G37*
G36*
X1014730Y950314D02*
X1013235Y950117D01*
X1010659Y949050D01*
X1008447Y947353D01*
X1006750Y945141D01*
X1005683Y942564D01*
X1005486Y941070D01*
X1014730D01*
Y950314D01*
D02*
G37*
G36*
X979260Y943624D02*
X970280D01*
Y935020D01*
X988967D01*
X988798Y936306D01*
X987812Y938687D01*
X986242Y940732D01*
X984197Y942301D01*
X981816Y943288D01*
X979260Y943624D01*
D02*
G37*
G36*
X967740D02*
X958760D01*
X956204Y943288D01*
X953823Y942301D01*
X951778Y940732D01*
X950209Y938687D01*
X949222Y936306D01*
X949053Y935020D01*
X967740D01*
Y943624D01*
D02*
G37*
%LPD*%
G36*
X1147439Y930216D02*
X1148687Y927202D01*
X1150673Y924613D01*
X1153261Y922627D01*
X1156275Y921379D01*
Y920121D01*
X1153261Y918873D01*
X1150673Y916887D01*
X1148687Y914298D01*
X1147439Y911284D01*
X1147178Y909304D01*
X1145897D01*
X1145655Y911143D01*
X1144461Y914026D01*
X1142561Y916501D01*
X1140086Y918401D01*
X1137204Y919595D01*
X1134110Y920002D01*
X1131016Y919595D01*
X1128134Y918401D01*
X1125658Y916501D01*
X1123759Y914026D01*
X1122565Y911143D01*
X1122158Y908050D01*
X1122565Y904957D01*
X1123759Y902074D01*
X1125658Y899598D01*
X1128134Y897699D01*
X1130776Y896605D01*
Y877316D01*
X1131030Y876040D01*
X1131752Y874958D01*
X1181068Y825643D01*
Y622673D01*
X1152459Y594064D01*
X1086543D01*
X1062514Y618093D01*
Y623650D01*
X1063928Y624236D01*
X1065895Y625745D01*
X1067404Y627712D01*
X1068353Y630002D01*
X1068676Y632460D01*
X1068353Y634918D01*
X1067404Y637208D01*
X1065895Y639175D01*
X1063928Y640684D01*
X1061638Y641633D01*
X1059180Y641956D01*
X1056722Y641633D01*
X1054432Y640684D01*
X1052465Y639175D01*
X1051338Y637706D01*
X1050068Y638137D01*
Y695706D01*
X1049814Y696982D01*
X1049091Y698064D01*
X1028518Y718637D01*
X1027436Y719360D01*
X1026160Y719614D01*
X989441D01*
X940594Y768461D01*
Y824119D01*
X946891Y830416D01*
X950129D01*
X950680Y829085D01*
X952163Y827153D01*
X954095Y825670D01*
X956345Y824738D01*
X958760Y824420D01*
X979260D01*
X981675Y824738D01*
X983925Y825670D01*
X985857Y827153D01*
X987340Y829085D01*
X987891Y830416D01*
X992399D01*
X1006555Y816260D01*
X1006209Y815424D01*
X1005863Y812800D01*
X1006209Y810176D01*
X1007221Y807732D01*
X1008832Y805632D01*
X1010932Y804021D01*
X1013376Y803009D01*
X1016000Y802663D01*
X1018624Y803009D01*
X1021068Y804021D01*
X1023168Y805632D01*
X1024779Y807732D01*
X1025791Y810176D01*
X1026137Y812800D01*
X1025791Y815424D01*
X1024779Y817868D01*
X1023168Y819968D01*
X1021068Y821579D01*
X1018624Y822591D01*
X1016000Y822937D01*
X1013376Y822591D01*
X1010932Y821579D01*
X1010782Y821463D01*
X996137Y836107D01*
X995056Y836830D01*
X993780Y837084D01*
X987891D01*
X987340Y838415D01*
X985857Y840347D01*
X983925Y841830D01*
X981675Y842762D01*
X979260Y843080D01*
X958760D01*
X956345Y842762D01*
X954095Y841830D01*
X952163Y840347D01*
X950680Y838415D01*
X950129Y837084D01*
X945510D01*
X944234Y836830D01*
X943152Y836107D01*
X934902Y827858D01*
X934180Y826776D01*
X933926Y825500D01*
Y767080D01*
X934180Y765804D01*
X934902Y764723D01*
X985703Y713923D01*
X986784Y713200D01*
X988060Y712946D01*
X1024779D01*
X1043400Y694325D01*
Y637157D01*
X1042130Y636904D01*
X1042004Y637208D01*
X1040495Y639175D01*
X1038528Y640684D01*
X1037114Y641270D01*
Y685800D01*
X1036860Y687076D01*
X1036137Y688158D01*
X1023438Y700857D01*
X1022356Y701580D01*
X1021080Y701834D01*
X986901D01*
X922814Y765921D01*
Y844947D01*
X948283Y870416D01*
X950129D01*
X950680Y869085D01*
X952163Y867153D01*
X954095Y865670D01*
X956345Y864738D01*
X958760Y864420D01*
X979260D01*
X981675Y864738D01*
X983925Y865670D01*
X985857Y867153D01*
X987340Y869085D01*
X987891Y870416D01*
X993801D01*
X1002974Y861243D01*
X1004056Y860520D01*
X1005332Y860266D01*
X1006503D01*
X1007221Y858532D01*
X1008832Y856432D01*
X1010932Y854821D01*
X1013376Y853809D01*
X1016000Y853463D01*
X1018624Y853809D01*
X1021068Y854821D01*
X1023168Y856432D01*
X1024779Y858532D01*
X1025497Y860266D01*
X1046480D01*
X1047756Y860520D01*
X1048838Y861243D01*
X1117711Y930116D01*
X1122665D01*
X1123759Y927474D01*
X1125658Y924998D01*
X1128134Y923099D01*
X1131016Y921905D01*
X1134110Y921498D01*
X1137204Y921905D01*
X1140086Y923099D01*
X1142561Y924998D01*
X1144461Y927474D01*
X1145655Y930357D01*
X1145897Y932196D01*
X1147178D01*
X1147439Y930216D01*
D02*
G37*
%LPC*%
G36*
X1016000Y797537D02*
X1013376Y797191D01*
X1010932Y796179D01*
X1008832Y794568D01*
X1007221Y792468D01*
X1006209Y790024D01*
X1005863Y787400D01*
X1006209Y784776D01*
X1007221Y782332D01*
X1008832Y780232D01*
X1010932Y778621D01*
X1013376Y777609D01*
X1016000Y777263D01*
X1018624Y777609D01*
X1021068Y778621D01*
X1023168Y780232D01*
X1024779Y782332D01*
X1025791Y784776D01*
X1026137Y787400D01*
X1025791Y790024D01*
X1024779Y792468D01*
X1023168Y794568D01*
X1021068Y796179D01*
X1018624Y797191D01*
X1016000Y797537D01*
D02*
G37*
G36*
X1017270Y772514D02*
Y763270D01*
X1026514D01*
X1026317Y764764D01*
X1025250Y767341D01*
X1023553Y769553D01*
X1021341Y771250D01*
X1018764Y772317D01*
X1017270Y772514D01*
D02*
G37*
G36*
X967740Y792480D02*
X949053D01*
X949222Y791194D01*
X950209Y788813D01*
X951778Y786768D01*
X953823Y785199D01*
X956204Y784212D01*
X958760Y783876D01*
X967740D01*
Y792480D01*
D02*
G37*
G36*
X979260Y823080D02*
X958760D01*
X956345Y822762D01*
X954095Y821830D01*
X952163Y820347D01*
X950680Y818415D01*
X949748Y816165D01*
X949430Y813750D01*
X949748Y811335D01*
X950680Y809085D01*
X952163Y807153D01*
X954095Y805670D01*
X956345Y804738D01*
X956917Y804663D01*
Y803382D01*
X956204Y803288D01*
X953823Y802301D01*
X951778Y800732D01*
X950209Y798687D01*
X949222Y796306D01*
X949053Y795020D01*
X969010D01*
X988967D01*
X988798Y796306D01*
X987812Y798687D01*
X986242Y800732D01*
X984197Y802301D01*
X981816Y803288D01*
X981103Y803382D01*
Y804663D01*
X981675Y804738D01*
X983925Y805670D01*
X985857Y807153D01*
X987340Y809085D01*
X988272Y811335D01*
X988590Y813750D01*
X988272Y816165D01*
X987340Y818415D01*
X985857Y820347D01*
X983925Y821830D01*
X981675Y822762D01*
X979260Y823080D01*
D02*
G37*
G36*
X988967Y792480D02*
X970280D01*
Y783876D01*
X979260D01*
X981816Y784212D01*
X984197Y785199D01*
X986242Y786768D01*
X987812Y788813D01*
X988798Y791194D01*
X988967Y792480D01*
D02*
G37*
G36*
X1014730Y772514D02*
X1013235Y772317D01*
X1010659Y771250D01*
X1008447Y769553D01*
X1006750Y767341D01*
X1005683Y764764D01*
X1005486Y763270D01*
X1014730D01*
Y772514D01*
D02*
G37*
G36*
X979260Y863080D02*
X958760D01*
X956345Y862762D01*
X954095Y861830D01*
X952163Y860347D01*
X950680Y858415D01*
X949748Y856165D01*
X949430Y853750D01*
X949748Y851335D01*
X950680Y849085D01*
X952163Y847153D01*
X954095Y845670D01*
X956345Y844738D01*
X958760Y844420D01*
X979260D01*
X981675Y844738D01*
X983925Y845670D01*
X985857Y847153D01*
X987340Y849085D01*
X987891Y850416D01*
X991703D01*
X1006158Y835961D01*
X1006209Y835576D01*
X1007221Y833132D01*
X1008832Y831032D01*
X1010932Y829421D01*
X1013376Y828409D01*
X1016000Y828063D01*
X1018624Y828409D01*
X1021068Y829421D01*
X1023168Y831032D01*
X1024779Y833132D01*
X1025497Y834866D01*
X1054243D01*
X1106646Y782463D01*
Y641270D01*
X1105232Y640684D01*
X1103265Y639175D01*
X1101756Y637208D01*
X1100807Y634918D01*
X1100484Y632460D01*
X1100807Y630002D01*
X1101756Y627712D01*
X1103265Y625745D01*
X1105232Y624236D01*
X1107522Y623287D01*
X1109980Y622964D01*
X1112438Y623287D01*
X1114728Y624236D01*
X1116695Y625745D01*
X1118204Y627712D01*
X1119153Y630002D01*
X1119476Y632460D01*
X1119153Y634918D01*
X1118204Y637208D01*
X1116695Y639175D01*
X1114728Y640684D01*
X1113314Y641270D01*
Y783844D01*
X1113060Y785120D01*
X1112337Y786201D01*
X1057981Y840557D01*
X1056900Y841280D01*
X1055624Y841534D01*
X1025497D01*
X1024779Y843268D01*
X1023168Y845368D01*
X1021068Y846979D01*
X1018624Y847991D01*
X1016000Y848337D01*
X1013376Y847991D01*
X1010932Y846979D01*
X1008832Y845368D01*
X1008268Y844632D01*
X1007000Y844549D01*
X995442Y856107D01*
X994360Y856830D01*
X993084Y857084D01*
X987891D01*
X987340Y858415D01*
X985857Y860347D01*
X983925Y861830D01*
X981675Y862762D01*
X979260Y863080D01*
D02*
G37*
G36*
X1084580Y785662D02*
X1082400Y785375D01*
X1080369Y784534D01*
X1078625Y783195D01*
X1077286Y781451D01*
X1076445Y779420D01*
X1076158Y777240D01*
X1076445Y775060D01*
X1077286Y773029D01*
X1078625Y771285D01*
X1080369Y769946D01*
X1081246Y769583D01*
Y641270D01*
X1079832Y640684D01*
X1077865Y639175D01*
X1076356Y637208D01*
X1075407Y634918D01*
X1075084Y632460D01*
X1075407Y630002D01*
X1076356Y627712D01*
X1077865Y625745D01*
X1079832Y624236D01*
X1082122Y623287D01*
X1084580Y622964D01*
X1087038Y623287D01*
X1089328Y624236D01*
X1091295Y625745D01*
X1092804Y627712D01*
X1093753Y630002D01*
X1094076Y632460D01*
X1093753Y634918D01*
X1092804Y637208D01*
X1091295Y639175D01*
X1089328Y640684D01*
X1087914Y641270D01*
Y769583D01*
X1088791Y769946D01*
X1090535Y771285D01*
X1091874Y773029D01*
X1092715Y775060D01*
X1093002Y777240D01*
X1092715Y779420D01*
X1091874Y781451D01*
X1090535Y783195D01*
X1088791Y784534D01*
X1086760Y785375D01*
X1084580Y785662D01*
D02*
G37*
G36*
X1135380Y641956D02*
X1132922Y641633D01*
X1130632Y640684D01*
X1128665Y639175D01*
X1127156Y637208D01*
X1126207Y634918D01*
X1125884Y632460D01*
X1126207Y630002D01*
X1127156Y627712D01*
X1128665Y625745D01*
X1130632Y624236D01*
X1132922Y623287D01*
X1135380Y622964D01*
X1137838Y623287D01*
X1140128Y624236D01*
X1142095Y625745D01*
X1143604Y627712D01*
X1144553Y630002D01*
X1144876Y632460D01*
X1144553Y634918D01*
X1143604Y637208D01*
X1142095Y639175D01*
X1140128Y640684D01*
X1137838Y641633D01*
X1135380Y641956D01*
D02*
G37*
G36*
X1026514Y760730D02*
X1017270D01*
Y751486D01*
X1018764Y751683D01*
X1021341Y752750D01*
X1023553Y754447D01*
X1025250Y756659D01*
X1026317Y759236D01*
X1026514Y760730D01*
D02*
G37*
G36*
X1014730D02*
X1005486D01*
X1005683Y759236D01*
X1006750Y756659D01*
X1008447Y754447D01*
X1010659Y752750D01*
X1013235Y751683D01*
X1014730Y751486D01*
Y760730D01*
D02*
G37*
%LPD*%
D10*
X734870Y1122540D02*
X811390D01*
X782480Y873600D02*
X808550D01*
X777240Y878840D02*
X782480Y873600D01*
X762000Y878840D02*
X777240D01*
X762000Y904240D02*
X772640Y893600D01*
X762000Y929640D02*
X777240Y914400D01*
X807750D01*
X762000Y777240D02*
X769874D01*
X1084580Y632460D02*
Y777240D01*
X1055624Y838200D02*
X1109980Y783844D01*
X1016000Y838200D02*
X1055624D01*
X1109980Y632460D02*
Y783844D01*
X945510Y833750D02*
X969010D01*
X937260Y825500D02*
X945510Y833750D01*
X937260Y767080D02*
Y825500D01*
Y767080D02*
X988060Y716280D01*
X919480Y846328D02*
X946902Y873750D01*
X969010D01*
X919480Y764540D02*
Y846328D01*
X988060Y716280D02*
X1026160D01*
X1046734Y695706D01*
Y603758D02*
Y695706D01*
X1021080Y698500D02*
X1033780Y685800D01*
X985520Y698500D02*
X1021080D01*
X919480Y764540D02*
X985520Y698500D01*
X446410Y1068070D02*
X467365Y1047115D01*
X446410Y1068070D02*
X447040Y1068700D01*
X830580Y973836D02*
X906780Y897636D01*
Y717804D02*
Y897636D01*
Y717804D02*
X932180Y692404D01*
X894334Y613156D02*
Y656665D01*
X881380Y669619D02*
X894334Y656665D01*
X881380Y669619D02*
Y849630D01*
X840778Y913600D02*
X894080Y860298D01*
Y680275D02*
Y860298D01*
Y680275D02*
X919734Y654622D01*
X837410Y893600D02*
X881380Y849630D01*
X932180Y632460D02*
Y692404D01*
X919734Y594614D02*
Y654622D01*
X1085162Y590730D02*
X1153840D01*
X1059180Y616712D02*
X1085162Y590730D01*
X1059180Y616712D02*
Y632460D01*
X1059270Y551270D02*
Y591222D01*
X1046734Y603758D02*
X1059270Y591222D01*
X704596Y770128D02*
Y828294D01*
X1116330Y933450D02*
X1134110D01*
X1046480Y863600D02*
X1116330Y933450D01*
X1016000Y863600D02*
X1046480D01*
X1050544Y898906D02*
Y967740D01*
X1040638Y889000D02*
X1050544Y898906D01*
X1016000Y889000D02*
X1040638D01*
X726186Y1145540D02*
X752118D01*
X633450Y1169670D02*
X659278D01*
Y1189988D01*
X671980Y1202690D01*
X547370Y1170140D02*
Y1184656D01*
X565404Y1202690D01*
X601980D01*
X702162Y1169564D02*
X726186Y1145540D01*
X659384Y1169564D02*
X702162D01*
X811390Y1122540D02*
X850252D01*
X671576Y1056238D02*
X703326D01*
X655320Y973836D02*
X830580D01*
X582041Y1047115D02*
X655320Y973836D01*
X467365Y1047115D02*
X582041D01*
X881380Y551180D02*
Y600202D01*
X894334Y613156D01*
X906780Y581660D02*
X919734Y594614D01*
X906780Y551180D02*
Y581660D01*
X843534Y613156D02*
Y664210D01*
Y613156D02*
X844042Y612648D01*
X805180Y573786D02*
X844042Y612648D01*
X784352Y632460D02*
X805180D01*
X764972Y651840D02*
X784352Y632460D01*
X548640Y651840D02*
X764972D01*
X548640D02*
X584200Y687400D01*
Y853440D01*
X548640Y889000D02*
X584200Y853440D01*
X830580Y632460D02*
Y644144D01*
X704596Y770128D02*
X830580Y644144D01*
X593890Y939000D02*
X704596Y828294D01*
X548640Y939000D02*
X593890D01*
X370840Y751840D02*
X548640D01*
X370840Y651840D02*
X548640D01*
X370840Y701840D02*
X548640D01*
X572008Y725208D01*
Y846836D01*
X556514Y862330D02*
X572008Y846836D01*
X355092Y862330D02*
X556514D01*
X338328Y879094D02*
X355092Y862330D01*
X338328Y879094D02*
Y926846D01*
X351282Y939800D01*
X370840D01*
X371640Y939000D01*
X548640D01*
X1080516Y958850D02*
X1134110D01*
X805180Y551180D02*
Y573786D01*
X969370Y673460D02*
X982980D01*
X957580Y661670D02*
X969370Y673460D01*
X957580Y632460D02*
Y661670D01*
X1008380Y525526D02*
Y551180D01*
X1003660Y520806D02*
X1008380Y525526D01*
X1003660Y501650D02*
Y520806D01*
X830580Y505714D02*
X960120Y376174D01*
Y336550D02*
Y376174D01*
X808550Y893600D02*
X837410D01*
X808550Y913600D02*
X840778D01*
X847090Y749560D02*
Y780542D01*
X834032Y793600D02*
X847090Y780542D01*
X808550Y793600D02*
X834032D01*
X805180Y394740D02*
Y459740D01*
X805210Y459770D01*
Y501650D01*
X805180Y501680D02*
X805210Y501650D01*
X805180Y501680D02*
Y551180D01*
X830580Y505714D02*
Y551180D01*
X985520Y336550D02*
Y377952D01*
X855980Y507492D02*
X985520Y377952D01*
X855980Y507492D02*
Y551180D01*
X1034436Y472324D02*
X1047020Y459740D01*
X1034436Y472324D02*
Y501650D01*
X998220Y459740D02*
X1003660Y465180D01*
Y501650D01*
X985160D02*
Y521314D01*
X982980Y523494D02*
X985160Y521314D01*
X982980Y523494D02*
Y551180D01*
X1033780Y502306D02*
X1034436Y501650D01*
X1033780Y502306D02*
Y551180D01*
X982980Y673460D02*
X1008380D01*
X982980Y632460D02*
Y654960D01*
X1033780Y632460D02*
Y685800D01*
X1059180Y551180D02*
X1059270Y551270D01*
X1134110Y877316D02*
Y908050D01*
Y877316D02*
X1184402Y827024D01*
Y621292D02*
Y827024D01*
X1153840Y590730D02*
X1184402Y621292D01*
X1092454Y1009650D02*
X1134110D01*
X1050544Y967740D02*
X1092454Y1009650D01*
X969660Y914400D02*
X1016000D01*
X998012Y933750D02*
X1004062Y939800D01*
X969010Y933750D02*
X998012D01*
X1159510Y933450D02*
Y958850D01*
Y984250D01*
Y908050D02*
Y933450D01*
X807750Y914400D02*
X808550Y913600D01*
X772640Y893600D02*
X808550D01*
X769874Y777240D02*
X786234Y793600D01*
X788200Y813600D02*
X808550D01*
X786234Y793600D02*
X808550D01*
X1006856Y762000D02*
X1016000D01*
X997966Y770890D02*
X1006856Y762000D01*
X997966Y770890D02*
Y785622D01*
X989838Y793750D02*
X997966Y785622D01*
X969010Y793750D02*
X989838D01*
X969010Y833750D02*
X993780D01*
X1014730Y812800D01*
X1016000D01*
X969010Y853750D02*
X993084D01*
X1008634Y838200D01*
X1016000D01*
X969010Y873750D02*
X995182D01*
X1005332Y863600D01*
X1016000D01*
X969010Y893750D02*
X998550D01*
X1003300Y889000D01*
X1016000D01*
X969010Y913750D02*
X969660Y914400D01*
X1004062Y939800D02*
X1016000D01*
X447040Y1190620D02*
X477652D01*
X498132Y1170140D01*
X547370D01*
X447040Y1110620D02*
Y1147176D01*
Y1161176D02*
Y1190620D01*
X446918Y1068070D02*
X479664D01*
X493664D02*
X526918D01*
X547370Y1088522D01*
Y1120140D01*
X447040Y1068700D02*
Y1110620D01*
X597980Y1170140D02*
X598450Y1169670D01*
X547370Y1170140D02*
X597980D01*
X659278Y1169670D02*
X659384Y1169564D01*
X547840Y989800D02*
X548640Y989000D01*
X370840Y989800D02*
X547840D01*
Y889800D02*
X548640Y889000D01*
X370840Y889800D02*
X547840D01*
D11*
X849630Y1037738D02*
X1150218D01*
X785114D02*
X849630D01*
X752118Y1099540D02*
X773964D01*
X370840Y839800D02*
X548640D01*
X957580Y551180D02*
Y567690D01*
X785114Y1037738D02*
Y1088390D01*
X773964Y1099540D02*
X785114Y1088390D01*
X703326Y1037738D02*
X785114D01*
X671576D02*
X703326D01*
X671576Y1007110D02*
X671830Y1006856D01*
X671576Y1007110D02*
Y1037738D01*
X347358Y601840D02*
X370840D01*
X319532Y629666D02*
X347358Y601840D01*
X319532Y629666D02*
Y811276D01*
X348056Y839800D01*
X370840D01*
X548640Y601840D02*
X631330D01*
X940160Y520044D02*
X957580D01*
X933704Y513588D02*
X940160Y520044D01*
X933704Y479044D02*
Y513588D01*
Y479044D02*
X1051306Y361442D01*
Y326644D02*
Y361442D01*
X1028954Y304292D02*
X1051306Y326644D01*
X944118Y304292D02*
X1028954D01*
X934720Y313690D02*
X944118Y304292D01*
X934720Y313690D02*
Y336550D01*
X816610D02*
X934720D01*
X782828Y370332D02*
X816610Y336550D01*
X782828Y370332D02*
Y473202D01*
X777210Y478820D02*
X782828Y473202D01*
X777210Y478820D02*
Y501650D01*
X731520D02*
X777210D01*
X631330Y601840D02*
X731520Y501650D01*
X957580Y520044D02*
Y551180D01*
X1008380Y632460D02*
Y654960D01*
X1159510Y1009650D02*
Y1028446D01*
X1150218Y1037738D02*
X1159510Y1028446D01*
X1008380Y618490D02*
Y632460D01*
X957580Y567690D02*
X1008380Y618490D01*
X548640Y839000D02*
Y839800D01*
X370840Y601840D02*
X548640D01*
D12*
X601980Y1202690D02*
D03*
X671980D02*
D03*
D13*
X849630Y1037844D02*
D03*
X813054Y1037590D02*
D03*
X850252Y1122540D02*
D03*
X811390D02*
D03*
X526918Y1068070D02*
D03*
X446918D02*
D03*
X447040Y1110620D02*
D03*
Y1190620D02*
D03*
D14*
X805180Y632460D02*
D03*
X830580D02*
D03*
X855980D02*
D03*
X881380D02*
D03*
X906780D02*
D03*
X932180D02*
D03*
X957580D02*
D03*
X982980D02*
D03*
X1008380D02*
D03*
X1033780D02*
D03*
X1059180D02*
D03*
X1084580D02*
D03*
X1109980D02*
D03*
X1135380D02*
D03*
Y551180D02*
D03*
X1109980D02*
D03*
X1084580D02*
D03*
X1059180D02*
D03*
X1033780D02*
D03*
X1008380D02*
D03*
X982980D02*
D03*
X957580D02*
D03*
X932180D02*
D03*
X906780D02*
D03*
X881380D02*
D03*
X855980D02*
D03*
X830580D02*
D03*
D15*
X805180D02*
D03*
D16*
X985520Y336550D02*
D03*
X960120D02*
D03*
X934720D02*
D03*
X1010920D02*
D03*
X1016000Y939800D02*
D03*
Y914400D02*
D03*
Y889000D02*
D03*
Y863600D02*
D03*
Y838200D02*
D03*
Y812800D02*
D03*
Y787400D02*
D03*
Y762000D02*
D03*
X762000Y955040D02*
D03*
Y929640D02*
D03*
Y904240D02*
D03*
Y878840D02*
D03*
Y853440D02*
D03*
Y828040D02*
D03*
Y802640D02*
D03*
Y777240D02*
D03*
D17*
X1134110Y1009650D02*
D03*
X1159510D02*
D03*
X1134110Y984250D02*
D03*
X1159510D02*
D03*
X1134110Y958850D02*
D03*
X1159510D02*
D03*
X1134110Y933450D02*
D03*
X1159510D02*
D03*
X1134110Y908050D02*
D03*
X1159510D02*
D03*
D18*
X998220Y459740D02*
D03*
X1047020D02*
D03*
D19*
X548640Y989000D02*
D03*
Y939000D02*
D03*
Y839000D02*
D03*
Y889000D02*
D03*
X370840Y989800D02*
D03*
Y939800D02*
D03*
Y839800D02*
D03*
Y889800D02*
D03*
X548640Y751840D02*
D03*
Y701840D02*
D03*
Y601840D02*
D03*
Y651840D02*
D03*
X370840Y751840D02*
D03*
Y701840D02*
D03*
Y601840D02*
D03*
Y651840D02*
D03*
X547370Y1170140D02*
D03*
Y1120140D02*
D03*
D20*
X805180Y459740D02*
D03*
Y394740D02*
D03*
X760180Y459740D02*
D03*
Y394740D02*
D03*
D21*
X1084580Y777240D02*
D03*
X843534Y664210D02*
D03*
X458470Y839724D02*
D03*
X671830Y1006856D02*
D03*
X1080516Y958850D02*
D03*
D22*
X777210Y501650D02*
D03*
X805210D02*
D03*
D23*
X957580Y520044D02*
D03*
Y501544D02*
D03*
X1008380Y673460D02*
D03*
Y654960D02*
D03*
X982980Y673460D02*
D03*
Y654960D02*
D03*
X658622Y1151022D02*
D03*
Y1169522D02*
D03*
X671576Y1037738D02*
D03*
Y1056238D02*
D03*
X703326D02*
D03*
Y1037738D02*
D03*
D24*
X1034436Y501650D02*
D03*
X1052936D02*
D03*
X1003660D02*
D03*
X985160D02*
D03*
D25*
X832340Y734060D02*
D03*
X861840D02*
D03*
D26*
X847090Y749560D02*
D03*
D27*
X969010Y933750D02*
D03*
Y913750D02*
D03*
Y893750D02*
D03*
Y873750D02*
D03*
Y853750D02*
D03*
Y833750D02*
D03*
Y813750D02*
D03*
Y793750D02*
D03*
X808550Y933600D02*
D03*
Y913600D02*
D03*
Y893600D02*
D03*
Y873600D02*
D03*
Y853600D02*
D03*
Y833600D02*
D03*
Y813600D02*
D03*
Y793600D02*
D03*
D28*
X493664Y1068070D02*
D03*
X479664D02*
D03*
D29*
X447040Y1147176D02*
D03*
Y1161176D02*
D03*
D30*
X633450Y1169670D02*
D03*
X598450D02*
D03*
D31*
X752118Y1145426D02*
D03*
Y1122426D02*
D03*
Y1099426D02*
D03*
D32*
X691618Y1122426D02*
D03*
M02*
