G04 Layer_Color=8421504*
%FSLAX44Y44*%
%MOMM*%
G71*
G01*
G75*
%ADD10R,1.5000X1.4000*%
%ADD11R,1.4000X1.5000*%
%ADD12R,0.9500X0.7000*%
%ADD13R,1.0500X2.2000*%
%ADD14R,1.0500X1.0000*%
%ADD15O,3.5000X1.4500*%
%ADD16R,0.8000X0.7000*%
%ADD17R,1.2500X1.7500*%
%ADD18R,2.3500X1.0000*%
%ADD19R,2.3500X3.3000*%
D10*
X1008380Y673460D02*
D03*
Y654960D02*
D03*
X982980Y673460D02*
D03*
Y654960D02*
D03*
X956310Y507090D02*
D03*
Y488590D02*
D03*
X635000Y1126130D02*
D03*
Y1144630D02*
D03*
D11*
X648060Y1037590D02*
D03*
X629560D02*
D03*
X1035960Y501650D02*
D03*
X1054460D02*
D03*
X1003660D02*
D03*
X985160D02*
D03*
X628290Y1069340D02*
D03*
X646790D02*
D03*
D12*
X483870Y1156320D02*
D03*
Y1170320D02*
D03*
Y1120760D02*
D03*
Y1134760D02*
D03*
D13*
X839960Y993140D02*
D03*
X869460D02*
D03*
D14*
X854710Y977640D02*
D03*
D15*
X977900Y790910D02*
D03*
Y810910D02*
D03*
Y830910D02*
D03*
Y850910D02*
D03*
Y870910D02*
D03*
Y890910D02*
D03*
Y910910D02*
D03*
Y930910D02*
D03*
X817440Y791060D02*
D03*
Y811060D02*
D03*
Y831060D02*
D03*
Y851060D02*
D03*
Y871060D02*
D03*
Y891060D02*
D03*
Y911060D02*
D03*
Y931060D02*
D03*
D16*
X633450Y1169670D02*
D03*
X598450D02*
D03*
D17*
X775940Y499110D02*
D03*
X803940D02*
D03*
D18*
X674370Y1145540D02*
D03*
Y1122540D02*
D03*
Y1099540D02*
D03*
D19*
X734870Y1122540D02*
D03*
M02*
