G04 Layer_Color=32896*
%FSLAX44Y44*%
%MOMM*%
G71*
G01*
G75*
%ADD33C,0.2000*%
%ADD55C,0.6000*%
%ADD56C,0.2500*%
%ADD57C,0.1000*%
%ADD58C,0.1500*%
G36*
X630594Y1154407D02*
X630782Y1154336D01*
X630876Y1154266D01*
X630923Y1154242D01*
X631064Y1154054D01*
X631135Y1153866D01*
X631158Y1153725D01*
Y1153678D01*
Y1153655D01*
Y1139370D01*
X631135Y1139088D01*
X631064Y1138876D01*
X630970Y1138735D01*
X630947Y1138688D01*
X630759Y1138547D01*
X630618Y1138477D01*
X630524Y1138453D01*
X630500D01*
X630359Y1138477D01*
X630242Y1138500D01*
X630148Y1138524D01*
X630124Y1138547D01*
X630007Y1138618D01*
X629889Y1138712D01*
X629819Y1138782D01*
X629795Y1138806D01*
X626624Y1142001D01*
X626483Y1142189D01*
X626412Y1142377D01*
X626389Y1142495D01*
Y1142518D01*
Y1142542D01*
X626412Y1142659D01*
X626436Y1142753D01*
X626530Y1142941D01*
X626600Y1143058D01*
X626647Y1143082D01*
Y1143105D01*
X626835Y1143246D01*
X627023Y1143317D01*
X627141Y1143340D01*
X627188D01*
X627399Y1143293D01*
X627587Y1143223D01*
X627704Y1143152D01*
X627751Y1143105D01*
X629584Y1141273D01*
Y1153655D01*
X629631Y1153913D01*
X629701Y1154101D01*
X629772Y1154195D01*
X629819Y1154242D01*
X630007Y1154360D01*
X630171Y1154407D01*
X630312Y1154430D01*
X630359D01*
X630594Y1154407D01*
D02*
G37*
G36*
X469087Y1154754D02*
X469510Y1154660D01*
X469886Y1154496D01*
X470215Y1154332D01*
X470473Y1154167D01*
X470685Y1154003D01*
X470802Y1153909D01*
X470849Y1153862D01*
X471155Y1153509D01*
X471390Y1153133D01*
X471554Y1152757D01*
X471672Y1152405D01*
X471742Y1152100D01*
X471766Y1151841D01*
X471789Y1151747D01*
Y1151700D01*
Y1151653D01*
Y1151630D01*
Y1146061D01*
X471766Y1145803D01*
X471672Y1145615D01*
X471531Y1145474D01*
X471390Y1145380D01*
X471249Y1145333D01*
X471108Y1145310D01*
X471014Y1145286D01*
X456705D01*
X456447Y1145333D01*
X456259Y1145404D01*
X456165Y1145474D01*
X456118Y1145521D01*
X456001Y1145709D01*
X455953Y1145873D01*
X455930Y1146014D01*
Y1146038D01*
Y1146061D01*
X455953Y1146296D01*
X456024Y1146484D01*
X456095Y1146578D01*
X456118Y1146625D01*
X456306Y1146766D01*
X456494Y1146837D01*
X456635Y1146860D01*
X462274D01*
Y1149586D01*
X456282Y1153321D01*
X456142Y1153439D01*
X456048Y1153533D01*
X456001Y1153603D01*
X455977Y1153627D01*
X455953Y1153744D01*
X455930Y1153862D01*
Y1153932D01*
Y1153956D01*
X455953Y1154191D01*
X456048Y1154379D01*
X456118Y1154496D01*
X456142Y1154543D01*
X456235Y1154637D01*
X456329Y1154684D01*
X456517Y1154778D01*
X456658Y1154801D01*
X456705D01*
X456964Y1154731D01*
X457152Y1154660D01*
X462274Y1151465D01*
Y1151606D01*
X462321Y1152076D01*
X462415Y1152523D01*
X462556Y1152898D01*
X462743Y1153227D01*
X462908Y1153486D01*
X463049Y1153697D01*
X463143Y1153815D01*
X463190Y1153862D01*
X463566Y1154167D01*
X463942Y1154402D01*
X464318Y1154566D01*
X464670Y1154684D01*
X464976Y1154754D01*
X465234Y1154778D01*
X465328Y1154801D01*
X468617D01*
X469087Y1154754D01*
D02*
G37*
G36*
X605196Y1154360D02*
X605337Y1154313D01*
X605431Y1154266D01*
X605455Y1154242D01*
X605572Y1154078D01*
X605666Y1153913D01*
X605713Y1153796D01*
X605737Y1153772D01*
Y1153749D01*
X610483Y1139628D01*
X610530Y1139346D01*
X610483Y1139111D01*
X610412Y1138947D01*
X610342Y1138829D01*
X610295Y1138782D01*
X610107Y1138665D01*
X609919Y1138594D01*
X609778Y1138571D01*
X609731D01*
X609566Y1138594D01*
X609425Y1138641D01*
X609331Y1138712D01*
X609284Y1138735D01*
X609167Y1138876D01*
X609073Y1138994D01*
X609026Y1139088D01*
X609002Y1139135D01*
X604985Y1151000D01*
X600991Y1139111D01*
X600873Y1138900D01*
X600756Y1138735D01*
X600685Y1138665D01*
X600662Y1138641D01*
X600450Y1138571D01*
X600121D01*
X600004Y1138618D01*
X599839Y1138688D01*
X599722Y1138782D01*
X599675Y1138806D01*
Y1138829D01*
X599534Y1139017D01*
X599463Y1139182D01*
X599440Y1139299D01*
Y1139323D01*
Y1139346D01*
X599487Y1139628D01*
X604233Y1153749D01*
X604350Y1153984D01*
X604468Y1154148D01*
X604585Y1154266D01*
X604726Y1154336D01*
X604820Y1154383D01*
X604914Y1154430D01*
X604985D01*
X605196Y1154360D01*
D02*
G37*
G36*
X620515Y1154383D02*
X620938Y1154289D01*
X621314Y1154148D01*
X621643Y1153960D01*
X621901Y1153796D01*
X622113Y1153655D01*
X622230Y1153561D01*
X622277Y1153514D01*
X622583Y1153138D01*
X622817Y1152762D01*
X622982Y1152386D01*
X623099Y1152033D01*
X623170Y1151728D01*
X623193Y1151470D01*
X623217Y1151376D01*
Y1151305D01*
Y1151282D01*
Y1151258D01*
Y1141743D01*
X623170Y1141273D01*
X623076Y1140850D01*
X622911Y1140474D01*
X622747Y1140145D01*
X622583Y1139887D01*
X622418Y1139675D01*
X622324Y1139558D01*
X622277Y1139511D01*
X621925Y1139205D01*
X621549Y1138970D01*
X621173Y1138806D01*
X620820Y1138688D01*
X620515Y1138618D01*
X620257Y1138594D01*
X620163Y1138571D01*
X614477D01*
X614218Y1138594D01*
X614030Y1138688D01*
X613889Y1138829D01*
X613795Y1138970D01*
X613748Y1139111D01*
X613725Y1139252D01*
X613701Y1139346D01*
Y1139370D01*
Y1153655D01*
X613725Y1153913D01*
X613819Y1154101D01*
X613936Y1154242D01*
X614101Y1154336D01*
X614242Y1154383D01*
X614359Y1154407D01*
X614453Y1154430D01*
X620045D01*
X620515Y1154383D01*
D02*
G37*
G36*
X460065Y1167442D02*
X460230Y1167371D01*
X460347Y1167301D01*
X460394Y1167254D01*
X460488Y1167160D01*
X460535Y1167066D01*
X460629Y1166878D01*
X460653Y1166737D01*
Y1166713D01*
Y1166690D01*
Y1165116D01*
X463167D01*
X463284Y1165069D01*
X463472Y1164998D01*
X463589Y1164904D01*
X463613Y1164881D01*
Y1164857D01*
X463730Y1164669D01*
X463801Y1164505D01*
X463824Y1164364D01*
Y1164340D01*
Y1164317D01*
X463801Y1164106D01*
X463730Y1163941D01*
X463636Y1163824D01*
X463613Y1163777D01*
X463401Y1163636D01*
X463214Y1163565D01*
X463073Y1163542D01*
X460653D01*
Y1159806D01*
X470755Y1162696D01*
X470990Y1162719D01*
X471225Y1162672D01*
X471413Y1162602D01*
X471507Y1162531D01*
X471554Y1162484D01*
X471695Y1162296D01*
X471766Y1162108D01*
X471789Y1161967D01*
Y1161920D01*
Y1161897D01*
Y1161779D01*
X471766Y1161685D01*
X471742Y1161615D01*
X471719Y1161591D01*
X471625Y1161451D01*
X471484Y1161310D01*
X471343Y1161239D01*
X471249Y1161192D01*
X471202Y1161169D01*
X460089Y1157997D01*
X459901Y1157950D01*
X459713D01*
X459501Y1157997D01*
X459337Y1158091D01*
X459243Y1158208D01*
X459149Y1158373D01*
X459102Y1158514D01*
X459078Y1158655D01*
Y1158749D01*
Y1158772D01*
Y1163542D01*
X456705D01*
X456447Y1163589D01*
X456259Y1163659D01*
X456165Y1163730D01*
X456118Y1163777D01*
X456001Y1163964D01*
X455953Y1164129D01*
X455930Y1164270D01*
Y1164294D01*
Y1164317D01*
X455953Y1164552D01*
X456024Y1164740D01*
X456095Y1164834D01*
X456118Y1164881D01*
X456306Y1165022D01*
X456494Y1165092D01*
X456635Y1165116D01*
X459078D01*
Y1166690D01*
X459102Y1166831D01*
X459125Y1166948D01*
X459219Y1167136D01*
X459290Y1167254D01*
X459337Y1167277D01*
X459525Y1167395D01*
X459689Y1167465D01*
X459807Y1167489D01*
X459854D01*
X460065Y1167442D01*
D02*
G37*
G36*
X880574Y965153D02*
X880996Y965059D01*
X881372Y964918D01*
X881701Y964730D01*
X881960Y964566D01*
X882171Y964425D01*
X882289Y964331D01*
X882336Y964284D01*
X882641Y963908D01*
X882876Y963532D01*
X883040Y963156D01*
X883158Y962803D01*
X883229Y962498D01*
X883252Y962240D01*
X883276Y962146D01*
Y962075D01*
Y962052D01*
Y962028D01*
Y952513D01*
X883229Y952043D01*
X883135Y951620D01*
X882970Y951244D01*
X882806Y950915D01*
X882641Y950657D01*
X882477Y950445D01*
X882383Y950328D01*
X882336Y950281D01*
X881983Y949975D01*
X881607Y949740D01*
X881231Y949576D01*
X880879Y949458D01*
X880574Y949388D01*
X880315Y949364D01*
X880221Y949341D01*
X874535D01*
X874277Y949364D01*
X874089Y949458D01*
X873948Y949599D01*
X873854Y949740D01*
X873807Y949881D01*
X873783Y950022D01*
X873760Y950116D01*
Y950140D01*
Y964425D01*
X873783Y964683D01*
X873877Y964871D01*
X873995Y965012D01*
X874159Y965106D01*
X874300Y965153D01*
X874418Y965176D01*
X874512Y965200D01*
X880104D01*
X880574Y965153D01*
D02*
G37*
G36*
X893261D02*
X893684Y965059D01*
X894060Y964918D01*
X894389Y964730D01*
X894647Y964566D01*
X894858Y964425D01*
X894976Y964331D01*
X895023Y964284D01*
X895328Y963908D01*
X895563Y963532D01*
X895728Y963156D01*
X895845Y962803D01*
X895916Y962498D01*
X895939Y962240D01*
X895963Y962146D01*
Y962075D01*
Y962052D01*
Y962028D01*
Y952513D01*
X895916Y952043D01*
X895822Y951620D01*
X895657Y951244D01*
X895493Y950915D01*
X895328Y950657D01*
X895164Y950445D01*
X895070Y950328D01*
X895023Y950281D01*
X894671Y949975D01*
X894295Y949740D01*
X893919Y949576D01*
X893566Y949458D01*
X893261Y949388D01*
X893002Y949364D01*
X892908Y949341D01*
X887223D01*
X886964Y949364D01*
X886776Y949458D01*
X886635Y949599D01*
X886541Y949740D01*
X886494Y949881D01*
X886471Y950022D01*
X886447Y950116D01*
Y950140D01*
Y964425D01*
X886471Y964683D01*
X886565Y964871D01*
X886682Y965012D01*
X886847Y965106D01*
X886988Y965153D01*
X887105Y965176D01*
X887199Y965200D01*
X892791D01*
X893261Y965153D01*
D02*
G37*
G36*
X481080Y1092796D02*
X481268Y1092702D01*
X481409Y1092561D01*
X481503Y1092420D01*
X481550Y1092279D01*
X481573Y1092138D01*
X481597Y1092044D01*
Y1092020D01*
Y1085653D01*
X481573Y1085395D01*
X481479Y1085207D01*
X481362Y1085066D01*
X481197Y1084972D01*
X481056Y1084925D01*
X480939Y1084901D01*
X480845Y1084878D01*
X477649D01*
X477297Y1084854D01*
X476968Y1084760D01*
X476663Y1084666D01*
X476428Y1084525D01*
X476216Y1084408D01*
X476075Y1084290D01*
X475981Y1084196D01*
X475958Y1084173D01*
X475723Y1083891D01*
X475559Y1083609D01*
X475418Y1083327D01*
X475347Y1083069D01*
X475300Y1082834D01*
X475253Y1082646D01*
Y1082528D01*
Y1082481D01*
Y1080907D01*
X475276Y1080531D01*
X475370Y1080202D01*
X475465Y1079920D01*
X475606Y1079662D01*
X475723Y1079474D01*
X475840Y1079309D01*
X475934Y1079215D01*
X475958Y1079192D01*
X476240Y1078981D01*
X476522Y1078816D01*
X476804Y1078699D01*
X477062Y1078628D01*
X477297Y1078581D01*
X477485Y1078534D01*
X480962D01*
X481080Y1078487D01*
X481244Y1078417D01*
X481362Y1078323D01*
X481409Y1078299D01*
Y1078276D01*
X481526Y1078088D01*
X481573Y1077900D01*
X481597Y1077782D01*
Y1077759D01*
Y1077735D01*
X481573Y1077500D01*
X481503Y1077336D01*
X481432Y1077218D01*
X481409Y1077171D01*
X481221Y1077054D01*
X481033Y1076983D01*
X480868Y1076960D01*
X477649D01*
X477344Y1076983D01*
X477062Y1077007D01*
X476522Y1077148D01*
X476052Y1077336D01*
X475653Y1077547D01*
X475300Y1077759D01*
X475065Y1077923D01*
X474971Y1078017D01*
X474901Y1078064D01*
X474877Y1078088D01*
X474854Y1078111D01*
X474642Y1078346D01*
X474454Y1078581D01*
X474313Y1078816D01*
X474172Y1079051D01*
X473961Y1079521D01*
X473820Y1079944D01*
X473749Y1080343D01*
X473702Y1080508D01*
Y1080625D01*
X473679Y1080743D01*
Y1080837D01*
Y1080884D01*
Y1080907D01*
Y1082481D01*
X473702Y1082787D01*
X473726Y1083069D01*
X473867Y1083609D01*
X474055Y1084079D01*
X474266Y1084502D01*
X474478Y1084831D01*
X474666Y1085066D01*
X474736Y1085160D01*
X474807Y1085230D01*
X474830Y1085254D01*
X474854Y1085277D01*
X475089Y1085489D01*
X475300Y1085677D01*
X475559Y1085818D01*
X475793Y1085959D01*
X476263Y1086170D01*
X476686Y1086311D01*
X477062Y1086382D01*
X477227Y1086429D01*
X477368D01*
X477485Y1086452D01*
X480023D01*
Y1091245D01*
X474478D01*
X474337Y1091268D01*
X474219Y1091292D01*
X474031Y1091386D01*
X473914Y1091456D01*
X473890Y1091503D01*
X473773Y1091691D01*
X473702Y1091856D01*
X473679Y1091973D01*
Y1092020D01*
X473726Y1092232D01*
X473796Y1092396D01*
X473867Y1092514D01*
X473914Y1092561D01*
X474008Y1092655D01*
X474102Y1092702D01*
X474290Y1092796D01*
X474431Y1092819D01*
X480821D01*
X481080Y1092796D01*
D02*
G37*
G36*
X493767D02*
X493955Y1092702D01*
X494096Y1092561D01*
X494190Y1092420D01*
X494237Y1092279D01*
X494260Y1092138D01*
X494284Y1092044D01*
Y1092020D01*
Y1077735D01*
X494237Y1077477D01*
X494166Y1077289D01*
X494096Y1077195D01*
X494049Y1077148D01*
X493861Y1077030D01*
X493697Y1076983D01*
X493556Y1076960D01*
X493509D01*
X493274Y1076983D01*
X493086Y1077054D01*
X492992Y1077124D01*
X492945Y1077148D01*
X492804Y1077336D01*
X492733Y1077524D01*
X492710Y1077665D01*
Y1077712D01*
Y1077735D01*
Y1083304D01*
X489984D01*
X486249Y1077312D01*
X486131Y1077171D01*
X486037Y1077077D01*
X485967Y1077030D01*
X485943Y1077007D01*
X485826Y1076983D01*
X485708Y1076960D01*
X485614D01*
X485379Y1076983D01*
X485191Y1077077D01*
X485074Y1077148D01*
X485027Y1077171D01*
X484933Y1077265D01*
X484886Y1077359D01*
X484792Y1077547D01*
X484768Y1077688D01*
Y1077712D01*
Y1077735D01*
X484839Y1077994D01*
X484910Y1078182D01*
X488105Y1083304D01*
X487964D01*
X487494Y1083351D01*
X487048Y1083445D01*
X486672Y1083586D01*
X486343Y1083773D01*
X486084Y1083938D01*
X485873Y1084079D01*
X485755Y1084173D01*
X485708Y1084220D01*
X485403Y1084596D01*
X485168Y1084972D01*
X485004Y1085348D01*
X484886Y1085700D01*
X484815Y1086006D01*
X484792Y1086264D01*
X484768Y1086358D01*
Y1086429D01*
Y1086452D01*
Y1086476D01*
Y1089647D01*
X484815Y1090117D01*
X484910Y1090540D01*
X485074Y1090916D01*
X485238Y1091245D01*
X485403Y1091503D01*
X485567Y1091715D01*
X485661Y1091832D01*
X485708Y1091879D01*
X486061Y1092185D01*
X486437Y1092420D01*
X486813Y1092584D01*
X487165Y1092702D01*
X487470Y1092772D01*
X487729Y1092796D01*
X487823Y1092819D01*
X493509D01*
X493767Y1092796D01*
D02*
G37*
G36*
X655606Y1045207D02*
X655770Y1045136D01*
X655888Y1045066D01*
X655935Y1045019D01*
X656029Y1044925D01*
X656076Y1044854D01*
X656170Y1044666D01*
X656193Y1044526D01*
Y1044502D01*
Y1044479D01*
Y1040508D01*
X656146Y1040038D01*
X656052Y1039592D01*
X655888Y1039216D01*
X655723Y1038887D01*
X655559Y1038605D01*
X655394Y1038417D01*
X655300Y1038299D01*
X655253Y1038252D01*
X654901Y1037947D01*
X654525Y1037712D01*
X654149Y1037571D01*
X653797Y1037454D01*
X653491Y1037383D01*
X653233Y1037359D01*
X653139Y1037336D01*
X643506D01*
X643036Y1037383D01*
X642589Y1037477D01*
X642214Y1037641D01*
X641885Y1037806D01*
X641603Y1037970D01*
X641415Y1038135D01*
X641297Y1038229D01*
X641250Y1038276D01*
X640945Y1038652D01*
X640710Y1039028D01*
X640569Y1039404D01*
X640452Y1039756D01*
X640381Y1040061D01*
X640358Y1040296D01*
X640334Y1040390D01*
Y1040461D01*
Y1040484D01*
Y1040508D01*
Y1044479D01*
X640358Y1044620D01*
X640381Y1044737D01*
X640475Y1044901D01*
X640546Y1045019D01*
X640592Y1045042D01*
X640780Y1045160D01*
X640945Y1045230D01*
X641062Y1045254D01*
X641109D01*
X641321Y1045207D01*
X641485Y1045136D01*
X641603Y1045066D01*
X641650Y1045019D01*
X641744Y1044925D01*
X641791Y1044831D01*
X641885Y1044666D01*
X641908Y1044526D01*
Y1044479D01*
Y1044455D01*
Y1040484D01*
X641932Y1040273D01*
X641955Y1040085D01*
X641979Y1039920D01*
X642002Y1039897D01*
Y1039874D01*
X642120Y1039686D01*
X642237Y1039521D01*
X642331Y1039404D01*
X642355Y1039357D01*
X642542Y1039216D01*
X642730Y1039098D01*
X642918Y1039028D01*
X643106Y1038957D01*
X643247Y1038934D01*
X643365Y1038910D01*
X653021D01*
X653256Y1038934D01*
X653444Y1038957D01*
X653585Y1038981D01*
X653609Y1039004D01*
X653632D01*
X653844Y1039098D01*
X654008Y1039216D01*
X654102Y1039310D01*
X654149Y1039357D01*
X654314Y1039545D01*
X654431Y1039733D01*
X654501Y1039920D01*
X654572Y1040108D01*
X654595Y1040249D01*
X654619Y1040367D01*
Y1040461D01*
Y1040484D01*
Y1044455D01*
X654642Y1044596D01*
X654666Y1044713D01*
X654760Y1044901D01*
X654830Y1045019D01*
X654877Y1045042D01*
X655065Y1045160D01*
X655230Y1045230D01*
X655347Y1045254D01*
X655394D01*
X655606Y1045207D01*
D02*
G37*
G36*
X652810Y1056226D02*
X653327Y1056108D01*
X653797Y1055944D01*
X654196Y1055780D01*
X654501Y1055592D01*
X654736Y1055427D01*
X654830Y1055357D01*
X654901Y1055310D01*
X654924Y1055286D01*
X654948Y1055263D01*
X655159Y1055051D01*
X655347Y1054816D01*
X655512Y1054581D01*
X655653Y1054346D01*
X655864Y1053853D01*
X656029Y1053360D01*
X656099Y1052960D01*
X656123Y1052772D01*
X656146Y1052608D01*
X656170Y1052490D01*
Y1052396D01*
Y1052326D01*
Y1052302D01*
Y1049130D01*
Y1048989D01*
X656123Y1048872D01*
X656052Y1048708D01*
X655958Y1048590D01*
X655935Y1048543D01*
X655911D01*
X655723Y1048426D01*
X655535Y1048379D01*
X655418Y1048355D01*
X655371D01*
X655136Y1048379D01*
X654971Y1048449D01*
X654854Y1048520D01*
X654807Y1048543D01*
X654689Y1048731D01*
X654619Y1048919D01*
X654595Y1049083D01*
Y1049107D01*
Y1049130D01*
Y1052302D01*
X654572Y1052702D01*
X654478Y1053054D01*
X654361Y1053360D01*
X654243Y1053618D01*
X654102Y1053806D01*
X653985Y1053947D01*
X653891Y1054041D01*
X653867Y1054064D01*
X653609Y1054252D01*
X653327Y1054393D01*
X653068Y1054487D01*
X652810Y1054558D01*
X652575Y1054605D01*
X652410Y1054628D01*
X652246D01*
X651893Y1054605D01*
X651565Y1054534D01*
X651283Y1054440D01*
X651048Y1054346D01*
X650836Y1054229D01*
X650695Y1054135D01*
X650601Y1054064D01*
X650578Y1054041D01*
X650319Y1053783D01*
X650155Y1053477D01*
X650014Y1053195D01*
X649920Y1052913D01*
X649873Y1052678D01*
X649849Y1052490D01*
X649826Y1052349D01*
Y1052326D01*
Y1052302D01*
Y1050728D01*
Y1050587D01*
X649779Y1050470D01*
X649685Y1050282D01*
X649591Y1050164D01*
X649567Y1050117D01*
X649544D01*
X649356Y1050000D01*
X649192Y1049953D01*
X649074Y1049929D01*
X649027D01*
X648816Y1049953D01*
X648628Y1050047D01*
X648510Y1050117D01*
X648487Y1050141D01*
X648463D01*
X648346Y1050329D01*
X648275Y1050517D01*
X648252Y1050658D01*
Y1050705D01*
Y1050728D01*
Y1052302D01*
X648228Y1052655D01*
X648134Y1052984D01*
X648040Y1053289D01*
X647899Y1053524D01*
X647782Y1053736D01*
X647664Y1053876D01*
X647570Y1053970D01*
X647547Y1053994D01*
X647265Y1054229D01*
X646983Y1054393D01*
X646701Y1054534D01*
X646443Y1054605D01*
X646208Y1054652D01*
X646020Y1054699D01*
X644281D01*
X643929Y1054675D01*
X643600Y1054581D01*
X643318Y1054487D01*
X643059Y1054346D01*
X642871Y1054229D01*
X642707Y1054111D01*
X642613Y1054017D01*
X642589Y1053994D01*
X642355Y1053712D01*
X642190Y1053430D01*
X642073Y1053148D01*
X642002Y1052890D01*
X641955Y1052655D01*
X641908Y1052467D01*
Y1052349D01*
Y1052302D01*
Y1049130D01*
Y1048989D01*
X641861Y1048872D01*
X641767Y1048684D01*
X641673Y1048590D01*
X641650Y1048543D01*
X641626D01*
X641438Y1048426D01*
X641274Y1048379D01*
X641156Y1048355D01*
X641109D01*
X640898Y1048379D01*
X640710Y1048449D01*
X640592Y1048520D01*
X640569Y1048543D01*
X640546D01*
X640428Y1048731D01*
X640358Y1048919D01*
X640334Y1049083D01*
Y1049107D01*
Y1049130D01*
Y1052302D01*
X640358Y1052608D01*
X640381Y1052890D01*
X640522Y1053430D01*
X640710Y1053900D01*
X640921Y1054299D01*
X641133Y1054652D01*
X641297Y1054887D01*
X641391Y1054981D01*
X641438Y1055051D01*
X641462Y1055075D01*
X641485Y1055098D01*
X641720Y1055310D01*
X641955Y1055498D01*
X642190Y1055639D01*
X642425Y1055780D01*
X642895Y1055991D01*
X643318Y1056132D01*
X643717Y1056202D01*
X643882Y1056249D01*
X643999D01*
X644117Y1056273D01*
X645855D01*
X646208Y1056249D01*
X646537Y1056179D01*
X646842Y1056108D01*
X647101Y1056038D01*
X647336Y1055944D01*
X647500Y1055874D01*
X647594Y1055827D01*
X647641Y1055803D01*
X647946Y1055639D01*
X648205Y1055451D01*
X648440Y1055286D01*
X648628Y1055098D01*
X648792Y1054957D01*
X648910Y1054840D01*
X648980Y1054746D01*
X649004Y1054722D01*
X649239Y1055004D01*
X649497Y1055239D01*
X649732Y1055427D01*
X649967Y1055592D01*
X650155Y1055709D01*
X650296Y1055803D01*
X650413Y1055850D01*
X650437Y1055874D01*
X650742Y1055991D01*
X651071Y1056085D01*
X651353Y1056155D01*
X651635Y1056226D01*
X651870Y1056249D01*
X652058Y1056273D01*
X652528D01*
X652810Y1056226D01*
D02*
G37*
G36*
X735415Y1045597D02*
X735580Y1045503D01*
X735674Y1045362D01*
X735768Y1045198D01*
X735815Y1045057D01*
X735838Y1044916D01*
Y1044822D01*
Y1044775D01*
Y1038431D01*
X735815Y1038290D01*
X735791Y1038173D01*
X735697Y1038008D01*
X735627Y1037891D01*
X735580Y1037868D01*
X735392Y1037750D01*
X735227Y1037680D01*
X735110Y1037656D01*
X735063D01*
X734851Y1037703D01*
X734687Y1037774D01*
X734569Y1037844D01*
X734522Y1037891D01*
X734428Y1037985D01*
X734381Y1038055D01*
X734287Y1038243D01*
X734264Y1038384D01*
Y1038408D01*
Y1038431D01*
Y1043365D01*
X726111Y1038243D01*
X725735Y1038079D01*
X725383Y1037938D01*
X725054Y1037844D01*
X724772Y1037797D01*
X724513Y1037750D01*
X724325Y1037727D01*
X724161D01*
X723856Y1037750D01*
X723550Y1037774D01*
X722986Y1037938D01*
X722469Y1038126D01*
X722046Y1038361D01*
X721694Y1038619D01*
X721553Y1038713D01*
X721436Y1038807D01*
X721342Y1038901D01*
X721271Y1038972D01*
X721248Y1038995D01*
X721224Y1039019D01*
X721013Y1039277D01*
X720801Y1039536D01*
X720637Y1039794D01*
X720496Y1040052D01*
X720284Y1040593D01*
X720143Y1041086D01*
X720049Y1041509D01*
X720026Y1041697D01*
X720002Y1041862D01*
X719979Y1041979D01*
Y1042073D01*
Y1042144D01*
Y1042167D01*
X720002Y1042473D01*
X720049Y1042778D01*
X720096Y1042895D01*
X720120Y1042989D01*
X720143Y1043036D01*
Y1043060D01*
X720261Y1043389D01*
X720402Y1043694D01*
X720449Y1043812D01*
X720496Y1043906D01*
X720519Y1043953D01*
X720543Y1043976D01*
X720754Y1044305D01*
X720989Y1044611D01*
X721224Y1044846D01*
X721436Y1045057D01*
X721624Y1045245D01*
X721788Y1045362D01*
X721882Y1045433D01*
X721929Y1045456D01*
X722117Y1045527D01*
X722258Y1045574D01*
X722352Y1045597D01*
X722375D01*
X722493Y1045574D01*
X722610Y1045550D01*
X722775Y1045456D01*
X722892Y1045386D01*
X722939Y1045339D01*
X723057Y1045151D01*
X723127Y1044963D01*
X723151Y1044822D01*
Y1044799D01*
Y1044775D01*
X723080Y1044423D01*
X722986Y1044282D01*
X722892Y1044188D01*
X722822Y1044141D01*
X722798Y1044117D01*
X722422Y1043835D01*
X722258Y1043671D01*
X722117Y1043530D01*
X722023Y1043389D01*
X721953Y1043295D01*
X721906Y1043224D01*
X721882Y1043201D01*
X721765Y1042989D01*
X721694Y1042778D01*
X721624Y1042590D01*
X721600Y1042402D01*
X721577Y1042261D01*
X721553Y1042144D01*
Y1042073D01*
Y1042050D01*
X721577Y1041627D01*
X721624Y1041439D01*
X721647Y1041298D01*
X721694Y1041157D01*
X721741Y1041063D01*
X721765Y1040992D01*
Y1040969D01*
X721953Y1040616D01*
X722117Y1040358D01*
X722211Y1040240D01*
X722258Y1040170D01*
X722305Y1040123D01*
X722328Y1040099D01*
X722610Y1039841D01*
X722916Y1039630D01*
X723221Y1039489D01*
X723480Y1039395D01*
X723738Y1039348D01*
X723926Y1039301D01*
X724090D01*
X724302Y1039324D01*
X724513Y1039348D01*
X724725Y1039395D01*
X724889Y1039442D01*
X725054Y1039512D01*
X725171Y1039559D01*
X725265Y1039583D01*
X725289Y1039606D01*
X734616Y1045456D01*
X734851Y1045574D01*
X735039Y1045621D01*
X735157Y1045644D01*
X735204D01*
X735415Y1045597D01*
D02*
G37*
G36*
X733136Y1056593D02*
X733583Y1056499D01*
X733958Y1056335D01*
X734287Y1056170D01*
X734569Y1056006D01*
X734757Y1055841D01*
X734875Y1055747D01*
X734922Y1055700D01*
X735227Y1055324D01*
X735462Y1054948D01*
X735603Y1054572D01*
X735721Y1054220D01*
X735791Y1053915D01*
X735815Y1053680D01*
X735838Y1053586D01*
Y1053515D01*
Y1053492D01*
Y1053468D01*
Y1049498D01*
X735815Y1049357D01*
X735791Y1049239D01*
X735697Y1049075D01*
X735627Y1048957D01*
X735580Y1048934D01*
X735392Y1048816D01*
X735227Y1048746D01*
X735110Y1048722D01*
X735063D01*
X734851Y1048769D01*
X734687Y1048840D01*
X734569Y1048910D01*
X734522Y1048957D01*
X734428Y1049051D01*
X734381Y1049145D01*
X734287Y1049310D01*
X734264Y1049451D01*
Y1049498D01*
Y1049521D01*
Y1053492D01*
X734240Y1053703D01*
X734217Y1053891D01*
X734193Y1054055D01*
X734170Y1054079D01*
Y1054102D01*
X734052Y1054290D01*
X733935Y1054455D01*
X733841Y1054572D01*
X733817Y1054619D01*
X733630Y1054760D01*
X733441Y1054878D01*
X733254Y1054948D01*
X733066Y1055019D01*
X732925Y1055042D01*
X732807Y1055066D01*
X723151D01*
X722916Y1055042D01*
X722728Y1055019D01*
X722587Y1054995D01*
X722563Y1054972D01*
X722540D01*
X722328Y1054878D01*
X722164Y1054760D01*
X722070Y1054666D01*
X722023Y1054619D01*
X721859Y1054432D01*
X721741Y1054243D01*
X721671Y1054055D01*
X721600Y1053868D01*
X721577Y1053727D01*
X721553Y1053609D01*
Y1053515D01*
Y1053492D01*
Y1049521D01*
X721529Y1049380D01*
X721506Y1049263D01*
X721412Y1049075D01*
X721342Y1048957D01*
X721295Y1048934D01*
X721107Y1048816D01*
X720942Y1048746D01*
X720825Y1048722D01*
X720778D01*
X720566Y1048769D01*
X720402Y1048840D01*
X720284Y1048910D01*
X720237Y1048957D01*
X720143Y1049051D01*
X720096Y1049122D01*
X720002Y1049310D01*
X719979Y1049451D01*
Y1049474D01*
Y1049498D01*
Y1053468D01*
X720026Y1053938D01*
X720120Y1054385D01*
X720284Y1054760D01*
X720449Y1055089D01*
X720613Y1055371D01*
X720778Y1055559D01*
X720872Y1055677D01*
X720919Y1055724D01*
X721271Y1056029D01*
X721647Y1056264D01*
X722023Y1056405D01*
X722375Y1056523D01*
X722681Y1056593D01*
X722939Y1056617D01*
X723033Y1056640D01*
X732666D01*
X733136Y1056593D01*
D02*
G37*
G36*
X726214Y1179042D02*
X726402Y1178948D01*
X726543Y1178807D01*
X726637Y1178666D01*
X726684Y1178525D01*
X726707Y1178384D01*
X726731Y1178290D01*
Y1178266D01*
Y1163981D01*
X726707Y1163723D01*
X726613Y1163535D01*
X726496Y1163394D01*
X726331Y1163300D01*
X726190Y1163253D01*
X726073Y1163230D01*
X725979Y1163206D01*
X720387D01*
X719917Y1163253D01*
X719494Y1163347D01*
X719118Y1163488D01*
X718789Y1163676D01*
X718531Y1163840D01*
X718319Y1163981D01*
X718202Y1164075D01*
X718155Y1164122D01*
X717850Y1164498D01*
X717615Y1164874D01*
X717450Y1165250D01*
X717333Y1165602D01*
X717262Y1165908D01*
X717239Y1166166D01*
X717215Y1166260D01*
Y1166331D01*
Y1166354D01*
Y1166378D01*
Y1175893D01*
X717262Y1176363D01*
X717356Y1176786D01*
X717521Y1177162D01*
X717685Y1177491D01*
X717850Y1177749D01*
X718014Y1177961D01*
X718108Y1178078D01*
X718155Y1178125D01*
X718508Y1178431D01*
X718883Y1178666D01*
X719259Y1178830D01*
X719612Y1178948D01*
X719917Y1179018D01*
X720176Y1179042D01*
X720270Y1179065D01*
X725955D01*
X726214Y1179042D01*
D02*
G37*
G36*
X657777Y1135864D02*
X657895Y1135841D01*
X658059Y1135747D01*
X658177Y1135676D01*
X658200Y1135630D01*
X658318Y1135442D01*
X658388Y1135277D01*
X658412Y1135160D01*
Y1135113D01*
X658365Y1134901D01*
X658294Y1134737D01*
X658224Y1134619D01*
X658177Y1134572D01*
X658083Y1134478D01*
X657989Y1134431D01*
X657824Y1134337D01*
X657683Y1134314D01*
X653642D01*
X653431Y1134290D01*
X653243Y1134267D01*
X653079Y1134243D01*
X653055Y1134220D01*
X653031D01*
X652843Y1134102D01*
X652679Y1133985D01*
X652562Y1133891D01*
X652515Y1133867D01*
X652374Y1133680D01*
X652256Y1133492D01*
X652186Y1133304D01*
X652115Y1133116D01*
X652092Y1132975D01*
X652068Y1132857D01*
Y1132763D01*
Y1132740D01*
Y1123201D01*
X652092Y1122966D01*
X652115Y1122778D01*
X652139Y1122637D01*
X652162Y1122613D01*
Y1122590D01*
X652256Y1122378D01*
X652374Y1122214D01*
X652468Y1122120D01*
X652515Y1122073D01*
X652702Y1121908D01*
X652890Y1121791D01*
X653079Y1121721D01*
X653266Y1121650D01*
X653407Y1121627D01*
X653525Y1121603D01*
X657613D01*
X657754Y1121580D01*
X657871Y1121556D01*
X658059Y1121462D01*
X658177Y1121392D01*
X658200Y1121345D01*
X658318Y1121157D01*
X658388Y1120992D01*
X658412Y1120875D01*
Y1120828D01*
X658365Y1120616D01*
X658294Y1120452D01*
X658224Y1120334D01*
X658177Y1120287D01*
X658083Y1120193D01*
X658012Y1120146D01*
X657824Y1120052D01*
X657683Y1120029D01*
X653666D01*
X653196Y1120076D01*
X652749Y1120170D01*
X652374Y1120334D01*
X652045Y1120499D01*
X651763Y1120663D01*
X651575Y1120828D01*
X651457Y1120922D01*
X651410Y1120969D01*
X651105Y1121321D01*
X650870Y1121697D01*
X650729Y1122073D01*
X650611Y1122425D01*
X650541Y1122731D01*
X650518Y1122989D01*
X650494Y1123083D01*
Y1123130D01*
Y1123177D01*
Y1123201D01*
Y1132716D01*
X650541Y1133186D01*
X650635Y1133633D01*
X650799Y1134008D01*
X650964Y1134337D01*
X651128Y1134619D01*
X651293Y1134807D01*
X651387Y1134925D01*
X651434Y1134972D01*
X651810Y1135277D01*
X652186Y1135512D01*
X652562Y1135653D01*
X652914Y1135770D01*
X653219Y1135841D01*
X653454Y1135864D01*
X653548Y1135888D01*
X657636D01*
X657777Y1135864D01*
D02*
G37*
G36*
X665789D02*
X665977Y1135794D01*
X666071Y1135723D01*
X666118Y1135700D01*
X666259Y1135512D01*
X666330Y1135324D01*
X666353Y1135183D01*
Y1135136D01*
Y1135113D01*
Y1120828D01*
X666330Y1120546D01*
X666259Y1120334D01*
X666165Y1120193D01*
X666142Y1120146D01*
X665954Y1120005D01*
X665813Y1119935D01*
X665719Y1119911D01*
X665695D01*
X665554Y1119935D01*
X665437Y1119958D01*
X665343Y1119982D01*
X665319Y1120005D01*
X665202Y1120076D01*
X665084Y1120170D01*
X665014Y1120240D01*
X664990Y1120264D01*
X661819Y1123459D01*
X661678Y1123647D01*
X661607Y1123835D01*
X661584Y1123952D01*
Y1123976D01*
Y1123999D01*
X661607Y1124117D01*
X661631Y1124211D01*
X661725Y1124399D01*
X661795Y1124516D01*
X661842Y1124540D01*
Y1124563D01*
X662030Y1124704D01*
X662218Y1124775D01*
X662336Y1124798D01*
X662383D01*
X662594Y1124751D01*
X662782Y1124681D01*
X662899Y1124610D01*
X662946Y1124563D01*
X664779Y1122731D01*
Y1135113D01*
X664826Y1135371D01*
X664896Y1135559D01*
X664967Y1135653D01*
X665014Y1135700D01*
X665202Y1135817D01*
X665366Y1135864D01*
X665507Y1135888D01*
X665554D01*
X665789Y1135864D01*
D02*
G37*
G36*
X738901Y1179042D02*
X739089Y1178948D01*
X739230Y1178807D01*
X739324Y1178666D01*
X739371Y1178525D01*
X739395Y1178384D01*
X739418Y1178290D01*
Y1178266D01*
Y1163981D01*
X739395Y1163723D01*
X739301Y1163535D01*
X739183Y1163394D01*
X739019Y1163300D01*
X738878Y1163253D01*
X738760Y1163230D01*
X738666Y1163206D01*
X733074D01*
X732605Y1163253D01*
X732181Y1163347D01*
X731806Y1163488D01*
X731477Y1163676D01*
X731218Y1163840D01*
X731007Y1163981D01*
X730889Y1164075D01*
X730842Y1164122D01*
X730537Y1164498D01*
X730302Y1164874D01*
X730137Y1165250D01*
X730020Y1165602D01*
X729949Y1165908D01*
X729926Y1166166D01*
X729902Y1166260D01*
Y1166331D01*
Y1166354D01*
Y1166378D01*
Y1175893D01*
X729949Y1176363D01*
X730043Y1176786D01*
X730208Y1177162D01*
X730372Y1177491D01*
X730537Y1177749D01*
X730701Y1177961D01*
X730795Y1178078D01*
X730842Y1178125D01*
X731195Y1178431D01*
X731571Y1178666D01*
X731947Y1178830D01*
X732299Y1178948D01*
X732605Y1179018D01*
X732863Y1179042D01*
X732957Y1179065D01*
X738643D01*
X738901Y1179042D01*
D02*
G37*
G36*
X710966D02*
X711271Y1178995D01*
X711388Y1178948D01*
X711482Y1178924D01*
X711529Y1178901D01*
X711553D01*
X711882Y1178783D01*
X712187Y1178642D01*
X712305Y1178595D01*
X712399Y1178548D01*
X712446Y1178525D01*
X712469Y1178501D01*
X712798Y1178290D01*
X713104Y1178055D01*
X713339Y1177820D01*
X713550Y1177608D01*
X713738Y1177421D01*
X713855Y1177256D01*
X713926Y1177162D01*
X713949Y1177115D01*
X714020Y1176927D01*
X714067Y1176786D01*
X714090Y1176692D01*
Y1176669D01*
X714067Y1176551D01*
X714043Y1176434D01*
X713949Y1176269D01*
X713879Y1176152D01*
X713832Y1176105D01*
X713644Y1175987D01*
X713456Y1175917D01*
X713315Y1175893D01*
X713268D01*
X712916Y1175964D01*
X712775Y1176058D01*
X712681Y1176152D01*
X712634Y1176222D01*
X712610Y1176246D01*
X712328Y1176622D01*
X712164Y1176786D01*
X712023Y1176927D01*
X711882Y1177021D01*
X711788Y1177092D01*
X711717Y1177139D01*
X711694Y1177162D01*
X711482Y1177280D01*
X711271Y1177350D01*
X711083Y1177421D01*
X710895Y1177444D01*
X710754Y1177467D01*
X710637Y1177491D01*
X710543D01*
X710120Y1177467D01*
X709932Y1177421D01*
X709791Y1177397D01*
X709650Y1177350D01*
X709556Y1177303D01*
X709485Y1177280D01*
X709462D01*
X709109Y1177092D01*
X708851Y1176927D01*
X708734Y1176833D01*
X708663Y1176786D01*
X708616Y1176739D01*
X708593Y1176716D01*
X708334Y1176434D01*
X708123Y1176128D01*
X707982Y1175823D01*
X707888Y1175564D01*
X707841Y1175306D01*
X707794Y1175118D01*
Y1175001D01*
Y1174977D01*
Y1174954D01*
X707817Y1174742D01*
X707841Y1174531D01*
X707888Y1174319D01*
X707935Y1174155D01*
X708005Y1173990D01*
X708052Y1173873D01*
X708076Y1173779D01*
X708099Y1173755D01*
X713949Y1164428D01*
X714067Y1164193D01*
X714114Y1164005D01*
X714137Y1163887D01*
Y1163840D01*
X714090Y1163629D01*
X713996Y1163464D01*
X713855Y1163371D01*
X713691Y1163277D01*
X713550Y1163230D01*
X713409Y1163206D01*
X706924D01*
X706783Y1163230D01*
X706666Y1163253D01*
X706501Y1163347D01*
X706384Y1163418D01*
X706360Y1163464D01*
X706243Y1163652D01*
X706173Y1163817D01*
X706149Y1163934D01*
Y1163981D01*
X706196Y1164193D01*
X706267Y1164357D01*
X706337Y1164475D01*
X706384Y1164522D01*
X706478Y1164616D01*
X706548Y1164663D01*
X706737Y1164757D01*
X706877Y1164780D01*
X711858D01*
X706737Y1172933D01*
X706572Y1173309D01*
X706431Y1173661D01*
X706337Y1173990D01*
X706290Y1174272D01*
X706243Y1174531D01*
X706220Y1174719D01*
Y1174836D01*
Y1174883D01*
X706243Y1175189D01*
X706267Y1175494D01*
X706431Y1176058D01*
X706619Y1176575D01*
X706854Y1176998D01*
X707112Y1177350D01*
X707206Y1177491D01*
X707300Y1177608D01*
X707394Y1177702D01*
X707465Y1177773D01*
X707488Y1177796D01*
X707512Y1177820D01*
X707770Y1178031D01*
X708029Y1178243D01*
X708287Y1178407D01*
X708546Y1178548D01*
X709086Y1178760D01*
X709579Y1178901D01*
X710002Y1178995D01*
X710190Y1179018D01*
X710355Y1179042D01*
X710472Y1179065D01*
X710660D01*
X710966Y1179042D01*
D02*
G37*
G36*
X903340Y965176D02*
X903528Y965106D01*
X903622Y965035D01*
X903669Y965012D01*
X903810Y964824D01*
X903881Y964636D01*
X903904Y964495D01*
Y964448D01*
Y964425D01*
Y950140D01*
X903881Y949858D01*
X903810Y949646D01*
X903716Y949505D01*
X903693Y949458D01*
X903505Y949317D01*
X903364Y949247D01*
X903270Y949223D01*
X903246D01*
X903105Y949247D01*
X902988Y949270D01*
X902894Y949294D01*
X902870Y949317D01*
X902753Y949388D01*
X902635Y949482D01*
X902565Y949552D01*
X902541Y949576D01*
X899370Y952771D01*
X899229Y952959D01*
X899158Y953147D01*
X899135Y953264D01*
Y953288D01*
Y953311D01*
X899158Y953429D01*
X899182Y953523D01*
X899276Y953711D01*
X899346Y953828D01*
X899393Y953852D01*
Y953875D01*
X899581Y954016D01*
X899769Y954087D01*
X899886Y954110D01*
X899933D01*
X900145Y954063D01*
X900333Y953993D01*
X900450Y953922D01*
X900497Y953875D01*
X902330Y952043D01*
Y964425D01*
X902377Y964683D01*
X902447Y964871D01*
X902518Y964965D01*
X902565Y965012D01*
X902753Y965129D01*
X902917Y965176D01*
X903058Y965200D01*
X903105D01*
X903340Y965176D01*
D02*
G37*
G36*
X1037601Y532980D02*
X1037906Y532956D01*
X1038517Y532815D01*
X1039010Y532604D01*
X1039433Y532392D01*
X1039786Y532157D01*
X1039927Y532040D01*
X1040021Y531946D01*
X1040115Y531875D01*
X1040185Y531805D01*
X1040209Y531781D01*
X1040232Y531758D01*
X1040561Y531311D01*
X1040796Y530842D01*
X1040961Y530372D01*
X1041078Y529949D01*
X1041149Y529573D01*
X1041172Y529408D01*
Y529267D01*
X1041196Y529173D01*
Y529080D01*
Y529033D01*
Y529009D01*
X1041172Y528680D01*
X1041149Y528375D01*
X1041102Y528093D01*
X1041031Y527834D01*
X1040961Y527623D01*
X1040914Y527458D01*
X1040890Y527364D01*
X1040867Y527317D01*
X1040726Y527012D01*
X1040561Y526754D01*
X1040397Y526519D01*
X1040232Y526330D01*
X1040091Y526166D01*
X1039974Y526049D01*
X1039903Y525978D01*
X1039880Y525955D01*
X1040256Y525696D01*
X1040585Y525414D01*
X1040867Y525109D01*
X1041078Y524850D01*
X1041266Y524592D01*
X1041384Y524404D01*
X1041454Y524263D01*
X1041478Y524240D01*
Y524216D01*
X1041642Y523817D01*
X1041783Y523394D01*
X1041877Y522994D01*
X1041924Y522642D01*
X1041971Y522336D01*
X1041994Y522101D01*
Y522007D01*
Y521937D01*
Y521913D01*
Y521890D01*
X1041971Y521538D01*
X1041947Y521185D01*
X1041806Y520551D01*
X1041618Y519987D01*
X1041407Y519517D01*
X1041290Y519305D01*
X1041196Y519118D01*
X1041102Y518977D01*
X1041008Y518836D01*
X1040937Y518742D01*
X1040867Y518671D01*
X1040843Y518624D01*
X1040820Y518601D01*
X1040561Y518342D01*
X1040279Y518131D01*
X1039997Y517919D01*
X1039692Y517755D01*
X1039386Y517614D01*
X1039105Y517496D01*
X1038541Y517332D01*
X1038259Y517262D01*
X1038024Y517215D01*
X1037812Y517191D01*
X1037624Y517168D01*
X1037460Y517144D01*
X1037248D01*
X1036825Y517168D01*
X1036450Y517215D01*
X1036074Y517285D01*
X1035745Y517379D01*
X1035416Y517496D01*
X1035134Y517614D01*
X1034852Y517755D01*
X1034617Y517896D01*
X1034406Y518013D01*
X1034218Y518154D01*
X1034053Y518272D01*
X1033912Y518389D01*
X1033818Y518483D01*
X1033748Y518554D01*
X1033701Y518601D01*
X1033677Y518624D01*
X1033466Y518883D01*
X1033278Y519165D01*
X1033113Y519446D01*
X1032972Y519728D01*
X1032761Y520269D01*
X1032620Y520786D01*
X1032549Y521232D01*
X1032526Y521420D01*
X1032502Y521585D01*
X1032479Y521702D01*
Y521796D01*
Y521866D01*
Y521890D01*
X1032502Y522360D01*
X1032573Y522783D01*
X1032667Y523182D01*
X1032761Y523511D01*
X1032855Y523817D01*
X1032949Y524028D01*
X1033019Y524169D01*
X1033043Y524216D01*
X1033254Y524615D01*
X1033513Y524944D01*
X1033771Y525250D01*
X1034030Y525485D01*
X1034265Y525673D01*
X1034453Y525814D01*
X1034570Y525908D01*
X1034593Y525931D01*
X1034617D01*
X1034382Y526143D01*
X1034194Y526377D01*
X1034006Y526613D01*
X1033865Y526847D01*
X1033771Y527035D01*
X1033701Y527176D01*
X1033654Y527270D01*
X1033630Y527317D01*
X1033513Y527623D01*
X1033419Y527928D01*
X1033372Y528210D01*
X1033325Y528469D01*
X1033301Y528680D01*
X1033278Y528868D01*
Y528962D01*
Y529009D01*
Y529314D01*
X1033325Y529596D01*
X1033442Y530113D01*
X1033607Y530583D01*
X1033771Y530983D01*
X1033959Y531311D01*
X1034124Y531546D01*
X1034194Y531640D01*
X1034241Y531711D01*
X1034265Y531734D01*
X1034288Y531758D01*
X1034500Y531969D01*
X1034734Y532181D01*
X1034969Y532345D01*
X1035228Y532486D01*
X1035721Y532698D01*
X1036191Y532839D01*
X1036614Y532933D01*
X1036778Y532956D01*
X1036943Y532980D01*
X1037060Y533003D01*
X1037248D01*
X1037601Y532980D01*
D02*
G37*
G36*
X1050382Y532956D02*
X1050828Y532862D01*
X1051204Y532698D01*
X1051533Y532533D01*
X1051815Y532369D01*
X1052003Y532204D01*
X1052121Y532110D01*
X1052168Y532063D01*
X1052473Y531711D01*
X1052708Y531335D01*
X1052849Y530959D01*
X1052967Y530607D01*
X1053037Y530301D01*
X1053061Y530043D01*
X1053084Y529949D01*
Y529902D01*
Y529855D01*
Y529831D01*
Y520316D01*
X1053037Y519846D01*
X1052943Y519399D01*
X1052779Y519024D01*
X1052614Y518695D01*
X1052450Y518413D01*
X1052285Y518225D01*
X1052191Y518107D01*
X1052144Y518060D01*
X1051768Y517755D01*
X1051392Y517520D01*
X1051016Y517379D01*
X1050664Y517262D01*
X1050359Y517191D01*
X1050124Y517168D01*
X1050030Y517144D01*
X1045941D01*
X1045801Y517168D01*
X1045683Y517191D01*
X1045519Y517285D01*
X1045401Y517355D01*
X1045378Y517402D01*
X1045260Y517590D01*
X1045190Y517755D01*
X1045166Y517872D01*
Y517919D01*
X1045213Y518131D01*
X1045284Y518295D01*
X1045354Y518413D01*
X1045401Y518460D01*
X1045495Y518554D01*
X1045589Y518601D01*
X1045754Y518695D01*
X1045894Y518718D01*
X1049936D01*
X1050147Y518742D01*
X1050335Y518765D01*
X1050499Y518789D01*
X1050523Y518812D01*
X1050546D01*
X1050734Y518930D01*
X1050899Y519047D01*
X1051016Y519141D01*
X1051063Y519165D01*
X1051204Y519352D01*
X1051322Y519540D01*
X1051392Y519728D01*
X1051463Y519916D01*
X1051486Y520057D01*
X1051510Y520175D01*
Y520269D01*
Y520292D01*
Y529831D01*
X1051486Y530066D01*
X1051463Y530254D01*
X1051439Y530395D01*
X1051416Y530419D01*
Y530442D01*
X1051322Y530654D01*
X1051204Y530818D01*
X1051110Y530912D01*
X1051063Y530959D01*
X1050875Y531124D01*
X1050687Y531241D01*
X1050499Y531311D01*
X1050312Y531382D01*
X1050171Y531405D01*
X1050053Y531429D01*
X1045965D01*
X1045824Y531452D01*
X1045707Y531476D01*
X1045519Y531570D01*
X1045401Y531640D01*
X1045378Y531687D01*
X1045260Y531875D01*
X1045190Y532040D01*
X1045166Y532157D01*
Y532204D01*
X1045213Y532416D01*
X1045284Y532580D01*
X1045354Y532698D01*
X1045401Y532745D01*
X1045495Y532839D01*
X1045566Y532886D01*
X1045754Y532980D01*
X1045894Y533003D01*
X1049912D01*
X1050382Y532956D01*
D02*
G37*
G36*
X1001106Y531940D02*
X1001553Y531846D01*
X1001928Y531682D01*
X1002257Y531517D01*
X1002539Y531353D01*
X1002727Y531188D01*
X1002845Y531094D01*
X1002892Y531047D01*
X1003197Y530695D01*
X1003432Y530319D01*
X1003573Y529943D01*
X1003690Y529591D01*
X1003761Y529285D01*
X1003784Y529027D01*
X1003808Y528933D01*
Y528886D01*
Y528839D01*
Y528815D01*
Y519300D01*
X1003761Y518830D01*
X1003667Y518383D01*
X1003503Y518008D01*
X1003338Y517679D01*
X1003174Y517397D01*
X1003009Y517209D01*
X1002915Y517091D01*
X1002868Y517044D01*
X1002492Y516739D01*
X1002116Y516504D01*
X1001740Y516363D01*
X1001388Y516245D01*
X1001083Y516175D01*
X1000848Y516152D01*
X1000754Y516128D01*
X996665D01*
X996525Y516152D01*
X996407Y516175D01*
X996243Y516269D01*
X996125Y516339D01*
X996102Y516386D01*
X995984Y516574D01*
X995914Y516739D01*
X995890Y516856D01*
Y516903D01*
X995937Y517115D01*
X996008Y517279D01*
X996078Y517397D01*
X996125Y517444D01*
X996219Y517538D01*
X996313Y517585D01*
X996478Y517679D01*
X996618Y517702D01*
X1000660D01*
X1000871Y517726D01*
X1001059Y517749D01*
X1001224Y517773D01*
X1001247Y517796D01*
X1001271D01*
X1001459Y517914D01*
X1001623Y518031D01*
X1001740Y518125D01*
X1001787Y518149D01*
X1001928Y518336D01*
X1002046Y518525D01*
X1002116Y518712D01*
X1002187Y518900D01*
X1002210Y519041D01*
X1002234Y519159D01*
Y519253D01*
Y519276D01*
Y528815D01*
X1002210Y529050D01*
X1002187Y529238D01*
X1002163Y529379D01*
X1002140Y529403D01*
Y529426D01*
X1002046Y529638D01*
X1001928Y529802D01*
X1001834Y529896D01*
X1001787Y529943D01*
X1001600Y530107D01*
X1001412Y530225D01*
X1001224Y530295D01*
X1001036Y530366D01*
X1000895Y530390D01*
X1000777Y530413D01*
X996689D01*
X996548Y530437D01*
X996431Y530460D01*
X996243Y530554D01*
X996125Y530624D01*
X996102Y530671D01*
X995984Y530859D01*
X995914Y531024D01*
X995890Y531141D01*
Y531188D01*
X995937Y531400D01*
X996008Y531564D01*
X996078Y531682D01*
X996125Y531729D01*
X996219Y531823D01*
X996290Y531870D01*
X996478Y531964D01*
X996618Y531987D01*
X1000636D01*
X1001106Y531940D01*
D02*
G37*
G36*
X992202Y531964D02*
X992389Y531870D01*
X992530Y531729D01*
X992624Y531588D01*
X992671Y531447D01*
X992695Y531306D01*
X992718Y531212D01*
Y531188D01*
Y529591D01*
X992671Y529332D01*
X992601Y529144D01*
X992530Y529050D01*
X992483Y529003D01*
X992296Y528886D01*
X992131Y528839D01*
X991990Y528815D01*
X991943D01*
X991708Y528839D01*
X991520Y528909D01*
X991426Y528980D01*
X991379Y529003D01*
X991238Y529191D01*
X991168Y529379D01*
X991144Y529473D01*
Y529544D01*
Y529591D01*
Y529614D01*
Y530413D01*
X986633D01*
X990298Y517115D01*
X990322Y517044D01*
X990345Y516974D01*
Y516903D01*
Y516880D01*
X990322Y516645D01*
X990228Y516457D01*
X990157Y516363D01*
X990134Y516316D01*
X989946Y516199D01*
X989758Y516152D01*
X989594Y516128D01*
X989547D01*
X989359Y516152D01*
X989194Y516222D01*
X989100Y516269D01*
X989053Y516292D01*
X988912Y516433D01*
X988842Y516574D01*
X988795Y516668D01*
Y516715D01*
X984824Y530977D01*
X984777Y531329D01*
X984800Y531541D01*
X984894Y531705D01*
X985035Y531823D01*
X985176Y531917D01*
X985317Y531964D01*
X985458Y531987D01*
X991943D01*
X992202Y531964D01*
D02*
G37*
G36*
X836043Y509246D02*
X836231Y509176D01*
X836325Y509105D01*
X836372Y509082D01*
X836513Y508894D01*
X836583Y508706D01*
X836607Y508565D01*
Y508518D01*
Y508495D01*
Y494210D01*
X836583Y493928D01*
X836513Y493716D01*
X836419Y493575D01*
X836395Y493528D01*
X836207Y493387D01*
X836066Y493317D01*
X835972Y493293D01*
X835949D01*
X835808Y493317D01*
X835691Y493340D01*
X835596Y493364D01*
X835573Y493387D01*
X835455Y493458D01*
X835338Y493552D01*
X835268Y493622D01*
X835244Y493646D01*
X832072Y496841D01*
X831931Y497029D01*
X831861Y497217D01*
X831837Y497335D01*
Y497358D01*
Y497382D01*
X831861Y497499D01*
X831884Y497593D01*
X831978Y497781D01*
X832049Y497898D01*
X832096Y497922D01*
Y497945D01*
X832284Y498086D01*
X832472Y498157D01*
X832589Y498180D01*
X832636D01*
X832848Y498133D01*
X833036Y498063D01*
X833153Y497992D01*
X833200Y497945D01*
X835033Y496113D01*
Y508495D01*
X835080Y508753D01*
X835150Y508941D01*
X835221Y509035D01*
X835268Y509082D01*
X835455Y509199D01*
X835620Y509246D01*
X835761Y509270D01*
X835808D01*
X836043Y509246D01*
D02*
G37*
G36*
X828055D02*
X828243Y509152D01*
X828360Y509082D01*
X828407Y509058D01*
X828501Y508965D01*
X828548Y508871D01*
X828642Y508683D01*
X828665Y508542D01*
Y508518D01*
Y508495D01*
X828595Y508236D01*
X828524Y508048D01*
X825329Y502926D01*
X825470D01*
X825940Y502879D01*
X826386Y502785D01*
X826762Y502644D01*
X827091Y502456D01*
X827350Y502292D01*
X827561Y502151D01*
X827679Y502057D01*
X827726Y502010D01*
X828031Y501634D01*
X828266Y501258D01*
X828430Y500882D01*
X828548Y500530D01*
X828618Y500224D01*
X828642Y499966D01*
X828665Y499872D01*
Y499801D01*
Y499778D01*
Y499754D01*
Y496583D01*
X828618Y496113D01*
X828524Y495690D01*
X828360Y495314D01*
X828196Y494985D01*
X828031Y494727D01*
X827867Y494515D01*
X827773Y494398D01*
X827726Y494351D01*
X827373Y494045D01*
X826997Y493810D01*
X826621Y493646D01*
X826269Y493528D01*
X825964Y493458D01*
X825705Y493434D01*
X825611Y493411D01*
X819925D01*
X819667Y493434D01*
X819479Y493528D01*
X819338Y493669D01*
X819244Y493810D01*
X819197Y493951D01*
X819174Y494092D01*
X819150Y494186D01*
Y494210D01*
Y508495D01*
X819197Y508753D01*
X819268Y508941D01*
X819338Y509035D01*
X819385Y509082D01*
X819573Y509199D01*
X819737Y509246D01*
X819878Y509270D01*
X819925D01*
X820160Y509246D01*
X820348Y509176D01*
X820442Y509105D01*
X820489Y509082D01*
X820630Y508894D01*
X820701Y508706D01*
X820724Y508565D01*
Y508518D01*
Y508495D01*
Y502926D01*
X823450D01*
X827185Y508918D01*
X827303Y509058D01*
X827397Y509152D01*
X827467Y509199D01*
X827491Y509223D01*
X827608Y509246D01*
X827726Y509270D01*
X827820D01*
X828055Y509246D01*
D02*
G37*
G36*
X939638Y518732D02*
X940085Y518638D01*
X940460Y518474D01*
X940789Y518309D01*
X941071Y518145D01*
X941259Y517980D01*
X941377Y517886D01*
X941424Y517839D01*
X941729Y517487D01*
X941964Y517111D01*
X942105Y516735D01*
X942223Y516383D01*
X942293Y516077D01*
X942317Y515819D01*
X942340Y515725D01*
Y515678D01*
Y515631D01*
Y515607D01*
Y506092D01*
X942293Y505622D01*
X942199Y505176D01*
X942035Y504800D01*
X941870Y504471D01*
X941706Y504189D01*
X941541Y504001D01*
X941447Y503883D01*
X941400Y503836D01*
X941024Y503531D01*
X940648Y503296D01*
X940272Y503155D01*
X939920Y503037D01*
X939615Y502967D01*
X939380Y502943D01*
X939286Y502920D01*
X935198D01*
X935057Y502943D01*
X934939Y502967D01*
X934775Y503061D01*
X934657Y503131D01*
X934634Y503178D01*
X934516Y503366D01*
X934446Y503531D01*
X934422Y503648D01*
Y503695D01*
X934469Y503907D01*
X934540Y504071D01*
X934610Y504189D01*
X934657Y504236D01*
X934751Y504330D01*
X934845Y504377D01*
X935010Y504471D01*
X935151Y504494D01*
X939192D01*
X939403Y504518D01*
X939591Y504541D01*
X939755Y504565D01*
X939779Y504588D01*
X939802D01*
X939990Y504706D01*
X940155Y504823D01*
X940272Y504917D01*
X940319Y504941D01*
X940460Y505129D01*
X940578Y505317D01*
X940648Y505504D01*
X940719Y505692D01*
X940742Y505833D01*
X940766Y505951D01*
Y506045D01*
Y506068D01*
Y515607D01*
X940742Y515842D01*
X940719Y516030D01*
X940695Y516171D01*
X940672Y516195D01*
Y516218D01*
X940578Y516430D01*
X940460Y516594D01*
X940366Y516688D01*
X940319Y516735D01*
X940132Y516899D01*
X939943Y517017D01*
X939755Y517088D01*
X939568Y517158D01*
X939427Y517182D01*
X939309Y517205D01*
X935221D01*
X935080Y517229D01*
X934963Y517252D01*
X934775Y517346D01*
X934657Y517416D01*
X934634Y517463D01*
X934516Y517651D01*
X934446Y517816D01*
X934422Y517933D01*
Y517980D01*
X934469Y518192D01*
X934540Y518356D01*
X934610Y518474D01*
X934657Y518521D01*
X934751Y518615D01*
X934822Y518662D01*
X935010Y518756D01*
X935151Y518779D01*
X939168D01*
X939638Y518732D01*
D02*
G37*
G36*
X927538Y518756D02*
X927609Y518732D01*
X927632Y518709D01*
X927773Y518615D01*
X927914Y518474D01*
X927985Y518333D01*
X928031Y518239D01*
X928055Y518192D01*
X931227Y507079D01*
X931274Y506891D01*
Y506703D01*
X931227Y506491D01*
X931133Y506327D01*
X931015Y506233D01*
X930851Y506139D01*
X930710Y506092D01*
X930569Y506068D01*
X925682D01*
Y503695D01*
X925635Y503437D01*
X925565Y503249D01*
X925494Y503155D01*
X925447Y503108D01*
X925259Y502990D01*
X925095Y502943D01*
X924954Y502920D01*
X924907D01*
X924672Y502943D01*
X924484Y503014D01*
X924390Y503084D01*
X924343Y503108D01*
X924202Y503296D01*
X924131Y503484D01*
X924108Y503625D01*
Y503672D01*
Y503695D01*
Y506068D01*
X922534D01*
X922393Y506092D01*
X922275Y506115D01*
X922087Y506209D01*
X921970Y506280D01*
X921946Y506327D01*
X921829Y506515D01*
X921758Y506679D01*
X921735Y506797D01*
Y506844D01*
X921782Y507055D01*
X921852Y507220D01*
X921923Y507337D01*
X921970Y507384D01*
X922064Y507478D01*
X922158Y507525D01*
X922346Y507619D01*
X922487Y507643D01*
X924108D01*
Y510015D01*
Y510157D01*
X924155Y510274D01*
X924225Y510462D01*
X924319Y510579D01*
X924343Y510603D01*
X924366D01*
X924554Y510720D01*
X924719Y510791D01*
X924860Y510814D01*
X924907D01*
X925118Y510791D01*
X925283Y510720D01*
X925400Y510626D01*
X925447Y510603D01*
X925588Y510391D01*
X925658Y510203D01*
X925682Y510062D01*
Y510039D01*
Y510015D01*
Y507643D01*
X929418D01*
X926528Y517745D01*
X926504Y517980D01*
X926551Y518215D01*
X926622Y518403D01*
X926692Y518497D01*
X926739Y518544D01*
X926927Y518685D01*
X927115Y518756D01*
X927256Y518779D01*
X927444D01*
X927538Y518756D01*
D02*
G37*
G36*
X1062828Y672402D02*
X1063275Y672308D01*
X1063650Y672144D01*
X1063979Y671979D01*
X1064261Y671815D01*
X1064449Y671650D01*
X1064567Y671556D01*
X1064614Y671509D01*
X1064919Y671157D01*
X1065154Y670781D01*
X1065295Y670405D01*
X1065413Y670053D01*
X1065483Y669747D01*
X1065507Y669489D01*
X1065530Y669395D01*
Y669348D01*
Y669301D01*
Y669277D01*
Y659762D01*
X1065483Y659292D01*
X1065389Y658846D01*
X1065225Y658470D01*
X1065060Y658141D01*
X1064896Y657859D01*
X1064731Y657671D01*
X1064637Y657553D01*
X1064590Y657506D01*
X1064214Y657201D01*
X1063838Y656966D01*
X1063462Y656825D01*
X1063110Y656708D01*
X1062805Y656637D01*
X1062570Y656613D01*
X1062476Y656590D01*
X1058388D01*
X1058247Y656613D01*
X1058129Y656637D01*
X1057965Y656731D01*
X1057847Y656802D01*
X1057824Y656848D01*
X1057706Y657036D01*
X1057636Y657201D01*
X1057612Y657318D01*
Y657365D01*
X1057659Y657577D01*
X1057730Y657741D01*
X1057800Y657859D01*
X1057847Y657906D01*
X1057941Y658000D01*
X1058035Y658047D01*
X1058200Y658141D01*
X1058341Y658164D01*
X1062382D01*
X1062593Y658188D01*
X1062781Y658211D01*
X1062946Y658235D01*
X1062969Y658258D01*
X1062992D01*
X1063180Y658376D01*
X1063345Y658493D01*
X1063462Y658587D01*
X1063509Y658611D01*
X1063650Y658799D01*
X1063768Y658987D01*
X1063838Y659174D01*
X1063909Y659362D01*
X1063932Y659503D01*
X1063956Y659621D01*
Y659715D01*
Y659738D01*
Y669277D01*
X1063932Y669512D01*
X1063909Y669700D01*
X1063885Y669841D01*
X1063862Y669865D01*
Y669888D01*
X1063768Y670100D01*
X1063650Y670264D01*
X1063556Y670358D01*
X1063509Y670405D01*
X1063322Y670570D01*
X1063133Y670687D01*
X1062946Y670758D01*
X1062758Y670828D01*
X1062617Y670852D01*
X1062499Y670875D01*
X1058411D01*
X1058270Y670899D01*
X1058153Y670922D01*
X1057965Y671016D01*
X1057847Y671086D01*
X1057824Y671133D01*
X1057706Y671321D01*
X1057636Y671486D01*
X1057612Y671603D01*
Y671650D01*
X1057659Y671862D01*
X1057730Y672026D01*
X1057800Y672144D01*
X1057847Y672191D01*
X1057941Y672285D01*
X1058012Y672332D01*
X1058200Y672426D01*
X1058341Y672449D01*
X1062358D01*
X1062828Y672402D01*
D02*
G37*
G36*
X933273Y672426D02*
X933461Y672332D01*
X933602Y672191D01*
X933696Y672050D01*
X933743Y671909D01*
X933767Y671768D01*
X933790Y671674D01*
Y671650D01*
Y665283D01*
X933767Y665025D01*
X933673Y664837D01*
X933555Y664696D01*
X933391Y664602D01*
X933250Y664555D01*
X933132Y664531D01*
X933038Y664508D01*
X929843D01*
X929491Y664484D01*
X929162Y664390D01*
X928856Y664296D01*
X928622Y664155D01*
X928410Y664038D01*
X928269Y663920D01*
X928175Y663827D01*
X928152Y663803D01*
X927917Y663521D01*
X927752Y663239D01*
X927611Y662957D01*
X927541Y662699D01*
X927494Y662464D01*
X927447Y662276D01*
Y662158D01*
Y662111D01*
Y660537D01*
X927470Y660161D01*
X927564Y659832D01*
X927658Y659550D01*
X927799Y659292D01*
X927917Y659104D01*
X928034Y658940D01*
X928128Y658846D01*
X928152Y658822D01*
X928434Y658611D01*
X928715Y658446D01*
X928997Y658329D01*
X929256Y658258D01*
X929491Y658211D01*
X929679Y658164D01*
X933156D01*
X933273Y658117D01*
X933438Y658047D01*
X933555Y657953D01*
X933602Y657929D01*
Y657906D01*
X933720Y657718D01*
X933767Y657530D01*
X933790Y657412D01*
Y657389D01*
Y657365D01*
X933767Y657130D01*
X933696Y656966D01*
X933626Y656848D01*
X933602Y656802D01*
X933414Y656684D01*
X933226Y656613D01*
X933062Y656590D01*
X929843D01*
X929538Y656613D01*
X929256Y656637D01*
X928715Y656778D01*
X928245Y656966D01*
X927846Y657177D01*
X927494Y657389D01*
X927259Y657553D01*
X927165Y657647D01*
X927094Y657694D01*
X927071Y657718D01*
X927047Y657741D01*
X926836Y657976D01*
X926648Y658211D01*
X926507Y658446D01*
X926366Y658681D01*
X926154Y659151D01*
X926013Y659574D01*
X925943Y659973D01*
X925896Y660138D01*
Y660255D01*
X925872Y660373D01*
Y660467D01*
Y660514D01*
Y660537D01*
Y662111D01*
X925896Y662417D01*
X925919Y662699D01*
X926060Y663239D01*
X926248Y663709D01*
X926460Y664132D01*
X926671Y664461D01*
X926859Y664696D01*
X926930Y664790D01*
X927000Y664860D01*
X927024Y664884D01*
X927047Y664907D01*
X927282Y665119D01*
X927494Y665307D01*
X927752Y665448D01*
X927987Y665589D01*
X928457Y665800D01*
X928880Y665941D01*
X929256Y666012D01*
X929420Y666059D01*
X929561D01*
X929679Y666082D01*
X932216D01*
Y670875D01*
X926671D01*
X926530Y670899D01*
X926413Y670922D01*
X926225Y671016D01*
X926107Y671086D01*
X926084Y671133D01*
X925966Y671321D01*
X925896Y671486D01*
X925872Y671603D01*
Y671650D01*
X925919Y671862D01*
X925990Y672026D01*
X926060Y672144D01*
X926107Y672191D01*
X926201Y672285D01*
X926295Y672332D01*
X926483Y672426D01*
X926624Y672449D01*
X933015D01*
X933273Y672426D01*
D02*
G37*
G36*
X942178Y672402D02*
X942625Y672308D01*
X943000Y672144D01*
X943329Y671979D01*
X943611Y671815D01*
X943799Y671650D01*
X943917Y671556D01*
X943964Y671509D01*
X944269Y671157D01*
X944504Y670781D01*
X944645Y670405D01*
X944762Y670053D01*
X944833Y669747D01*
X944856Y669489D01*
X944880Y669395D01*
Y669348D01*
Y669301D01*
Y669277D01*
Y659762D01*
X944833Y659292D01*
X944739Y658846D01*
X944575Y658470D01*
X944410Y658141D01*
X944246Y657859D01*
X944081Y657671D01*
X943987Y657553D01*
X943940Y657506D01*
X943564Y657201D01*
X943188Y656966D01*
X942812Y656825D01*
X942460Y656708D01*
X942155Y656637D01*
X941920Y656613D01*
X941826Y656590D01*
X937738D01*
X937597Y656613D01*
X937479Y656637D01*
X937315Y656731D01*
X937197Y656802D01*
X937174Y656848D01*
X937056Y657036D01*
X936986Y657201D01*
X936962Y657318D01*
Y657365D01*
X937009Y657577D01*
X937080Y657741D01*
X937150Y657859D01*
X937197Y657906D01*
X937291Y658000D01*
X937385Y658047D01*
X937550Y658141D01*
X937691Y658164D01*
X941732D01*
X941943Y658188D01*
X942131Y658211D01*
X942296Y658235D01*
X942319Y658258D01*
X942343D01*
X942531Y658376D01*
X942695Y658493D01*
X942812Y658587D01*
X942859Y658611D01*
X943000Y658799D01*
X943118Y658987D01*
X943188Y659174D01*
X943259Y659362D01*
X943282Y659503D01*
X943306Y659621D01*
Y659715D01*
Y659738D01*
Y669277D01*
X943282Y669512D01*
X943259Y669700D01*
X943235Y669841D01*
X943212Y669865D01*
Y669888D01*
X943118Y670100D01*
X943000Y670264D01*
X942906Y670358D01*
X942859Y670405D01*
X942672Y670570D01*
X942484Y670687D01*
X942296Y670758D01*
X942108Y670828D01*
X941967Y670852D01*
X941849Y670875D01*
X937761D01*
X937620Y670899D01*
X937503Y670922D01*
X937315Y671016D01*
X937197Y671086D01*
X937174Y671133D01*
X937056Y671321D01*
X936986Y671486D01*
X936962Y671603D01*
Y671650D01*
X937009Y671862D01*
X937080Y672026D01*
X937150Y672144D01*
X937197Y672191D01*
X937291Y672285D01*
X937362Y672332D01*
X937550Y672426D01*
X937691Y672449D01*
X941708D01*
X942178Y672402D01*
D02*
G37*
G36*
X848726Y708613D02*
X848914Y708542D01*
X849031Y708472D01*
X849078Y708425D01*
X849172Y708331D01*
X849219Y708237D01*
X849313Y708073D01*
X849337Y707932D01*
Y707908D01*
Y707885D01*
X849290Y707673D01*
X849196Y707438D01*
X844732Y700742D01*
X849196Y694070D01*
X849290Y693882D01*
X849313Y693741D01*
X849337Y693647D01*
Y693623D01*
Y693506D01*
X849290Y693388D01*
X849219Y693224D01*
X849125Y693106D01*
X849102Y693059D01*
X849078D01*
X848984Y692965D01*
X848867Y692918D01*
X848679Y692824D01*
X848538Y692801D01*
X848303D01*
X848138Y692871D01*
X848021Y692965D01*
X847927Y693059D01*
X847880Y693130D01*
X847856Y693153D01*
X843768Y699309D01*
X839657Y693177D01*
X839563Y693059D01*
X839445Y692965D01*
X839351Y692895D01*
X839234Y692848D01*
X839163Y692824D01*
X839093Y692801D01*
X838905D01*
X838787Y692848D01*
X838599Y692918D01*
X838482Y693012D01*
X838435Y693036D01*
Y693059D01*
X838294Y693247D01*
X838223Y693412D01*
X838200Y693553D01*
Y693576D01*
Y693600D01*
Y693811D01*
X838294Y694046D01*
X842805Y700742D01*
X838317Y707438D01*
X838247Y707603D01*
X838223Y707744D01*
X838200Y707838D01*
Y707861D01*
X838223Y707979D01*
X838247Y708096D01*
X838341Y708261D01*
X838411Y708378D01*
X838458Y708425D01*
X838670Y708566D01*
X838834Y708636D01*
X838952Y708660D01*
X838999D01*
X839351Y708589D01*
X839492Y708495D01*
X839586Y708402D01*
X839633Y708331D01*
X839657Y708308D01*
X843768Y702175D01*
X847856Y708308D01*
X847950Y708425D01*
X848068Y708519D01*
X848162Y708566D01*
X848279Y708613D01*
X848350Y708636D01*
X848420Y708660D01*
X848491D01*
X848726Y708613D01*
D02*
G37*
G36*
X856667Y708636D02*
X856855Y708566D01*
X856949Y708495D01*
X856996Y708472D01*
X857137Y708284D01*
X857207Y708096D01*
X857231Y707955D01*
Y707908D01*
Y707885D01*
Y693600D01*
X857207Y693318D01*
X857137Y693106D01*
X857043Y692965D01*
X857020Y692918D01*
X856832Y692777D01*
X856691Y692707D01*
X856597Y692683D01*
X856573D01*
X856432Y692707D01*
X856315Y692730D01*
X856221Y692754D01*
X856197Y692777D01*
X856080Y692848D01*
X855962Y692942D01*
X855892Y693012D01*
X855868Y693036D01*
X852696Y696231D01*
X852555Y696419D01*
X852485Y696607D01*
X852461Y696724D01*
Y696748D01*
Y696771D01*
X852485Y696889D01*
X852508Y696983D01*
X852602Y697171D01*
X852673Y697288D01*
X852720Y697312D01*
Y697335D01*
X852908Y697476D01*
X853096Y697547D01*
X853213Y697570D01*
X853260D01*
X853472Y697523D01*
X853660Y697453D01*
X853777Y697382D01*
X853824Y697335D01*
X855657Y695503D01*
Y707885D01*
X855704Y708143D01*
X855774Y708331D01*
X855845Y708425D01*
X855892Y708472D01*
X856080Y708589D01*
X856244Y708636D01*
X856385Y708660D01*
X856432D01*
X856667Y708636D01*
D02*
G37*
G36*
X1049201Y672355D02*
X1049741Y672097D01*
X1050258Y671791D01*
X1050705Y671486D01*
X1051081Y671204D01*
X1051410Y670945D01*
X1051645Y670734D01*
X1051738Y670664D01*
X1051809Y670593D01*
X1051832Y670570D01*
X1051856Y670546D01*
X1052255Y670100D01*
X1052608Y669653D01*
X1052913Y669230D01*
X1053148Y668831D01*
X1053336Y668502D01*
X1053477Y668220D01*
X1053524Y668126D01*
X1053571Y668056D01*
X1053595Y668009D01*
Y667985D01*
X1053876Y667233D01*
X1054088Y666458D01*
X1054229Y665753D01*
X1054299Y665401D01*
X1054323Y665095D01*
X1054370Y664790D01*
X1054393Y664531D01*
X1054417Y664296D01*
Y664085D01*
X1054440Y663920D01*
Y663803D01*
Y663733D01*
Y663709D01*
Y659738D01*
X1054393Y659268D01*
X1054299Y658846D01*
X1054135Y658446D01*
X1053970Y658141D01*
X1053806Y657859D01*
X1053642Y657671D01*
X1053548Y657553D01*
X1053501Y657506D01*
X1053125Y657201D01*
X1052749Y656966D01*
X1052396Y656825D01*
X1052044Y656708D01*
X1051738Y656637D01*
X1051504Y656613D01*
X1051410Y656590D01*
X1049694D01*
X1049224Y656637D01*
X1048778Y656731D01*
X1048402Y656872D01*
X1048073Y657060D01*
X1047815Y657224D01*
X1047627Y657365D01*
X1047509Y657459D01*
X1047462Y657506D01*
X1047157Y657882D01*
X1046922Y658258D01*
X1046758Y658634D01*
X1046640Y658987D01*
X1046570Y659292D01*
X1046546Y659527D01*
X1046523Y659621D01*
Y659691D01*
Y659715D01*
Y659738D01*
Y662910D01*
X1046570Y663380D01*
X1046664Y663827D01*
X1046828Y664202D01*
X1046992Y664531D01*
X1047157Y664790D01*
X1047321Y664978D01*
X1047415Y665095D01*
X1047462Y665142D01*
X1047838Y665448D01*
X1048214Y665683D01*
X1048590Y665847D01*
X1048919Y665965D01*
X1049224Y666035D01*
X1049483Y666059D01*
X1049577Y666082D01*
X1052561D01*
X1052373Y666716D01*
X1052138Y667351D01*
X1051926Y667797D01*
X1051715Y668196D01*
X1051457Y668549D01*
X1051245Y668878D01*
X1051034Y669136D01*
X1050869Y669324D01*
X1050752Y669442D01*
X1050705Y669489D01*
X1050352Y669818D01*
X1050023Y670076D01*
X1049906Y670170D01*
X1049812Y670264D01*
X1049741Y670288D01*
X1049718Y670311D01*
X1049506Y670429D01*
X1049342Y670546D01*
X1049224Y670593D01*
X1049177Y670617D01*
X1048966Y670711D01*
X1048778Y670805D01*
X1048637Y670875D01*
X1048614Y670899D01*
X1048590D01*
X1048402Y671016D01*
X1048285Y671133D01*
X1048238Y671204D01*
X1048214Y671227D01*
X1048167Y671345D01*
X1048120Y671486D01*
Y671580D01*
Y671603D01*
X1048144Y671838D01*
X1048214Y672026D01*
X1048285Y672144D01*
X1048308Y672191D01*
X1048402Y672285D01*
X1048496Y672332D01*
X1048684Y672426D01*
X1048825Y672449D01*
X1048872D01*
X1049201Y672355D01*
D02*
G37*
%LPC*%
G36*
X468735Y1153227D02*
X465422D01*
X465163Y1153204D01*
X464952Y1153157D01*
X464741Y1153086D01*
X464576Y1152992D01*
X464459Y1152898D01*
X464341Y1152828D01*
X464294Y1152781D01*
X464271Y1152757D01*
X464130Y1152570D01*
X464036Y1152382D01*
X463942Y1152194D01*
X463895Y1152029D01*
X463871Y1151865D01*
X463848Y1151747D01*
Y1151653D01*
Y1151630D01*
Y1146860D01*
X470215D01*
Y1151630D01*
X470191Y1151865D01*
X470145Y1152100D01*
X470074Y1152288D01*
X469980Y1152452D01*
X469886Y1152570D01*
X469815Y1152687D01*
X469769Y1152734D01*
X469745Y1152757D01*
X469557Y1152922D01*
X469369Y1153039D01*
X469181Y1153110D01*
X469017Y1153180D01*
X468852Y1153204D01*
X468735Y1153227D01*
D02*
G37*
G36*
X620163Y1152856D02*
X615276D01*
Y1140145D01*
X620045D01*
X620280Y1140169D01*
X620515Y1140216D01*
X620703Y1140286D01*
X620867Y1140380D01*
X620985Y1140474D01*
X621102Y1140545D01*
X621149Y1140591D01*
X621173Y1140615D01*
X621337Y1140803D01*
X621455Y1140991D01*
X621525Y1141179D01*
X621596Y1141343D01*
X621619Y1141508D01*
X621643Y1141625D01*
Y1141719D01*
Y1141743D01*
Y1151282D01*
X621619Y1151540D01*
X621572Y1151752D01*
X621502Y1151963D01*
X621408Y1152128D01*
X621314Y1152245D01*
X621243Y1152362D01*
X621196Y1152409D01*
X621173Y1152433D01*
X620985Y1152574D01*
X620797Y1152668D01*
X620609Y1152762D01*
X620444Y1152809D01*
X620280Y1152832D01*
X620163Y1152856D01*
D02*
G37*
G36*
X880221Y963626D02*
X875334D01*
Y950915D01*
X880104D01*
X880339Y950938D01*
X880574Y950985D01*
X880761Y951056D01*
X880926Y951150D01*
X881043Y951244D01*
X881161Y951314D01*
X881208Y951361D01*
X881231Y951385D01*
X881396Y951573D01*
X881513Y951761D01*
X881584Y951949D01*
X881654Y952113D01*
X881678Y952278D01*
X881701Y952395D01*
Y952489D01*
Y952513D01*
Y962052D01*
X881678Y962310D01*
X881631Y962522D01*
X881560Y962733D01*
X881466Y962897D01*
X881372Y963015D01*
X881302Y963132D01*
X881255Y963179D01*
X881231Y963203D01*
X881043Y963344D01*
X880855Y963438D01*
X880667Y963532D01*
X880503Y963579D01*
X880339Y963602D01*
X880221Y963626D01*
D02*
G37*
G36*
X892908D02*
X888021D01*
Y950915D01*
X892791D01*
X893026Y950938D01*
X893261Y950985D01*
X893449Y951056D01*
X893613Y951150D01*
X893731Y951244D01*
X893848Y951314D01*
X893895Y951361D01*
X893919Y951385D01*
X894083Y951573D01*
X894201Y951761D01*
X894271Y951949D01*
X894342Y952113D01*
X894365Y952278D01*
X894389Y952395D01*
Y952489D01*
Y952513D01*
Y962052D01*
X894365Y962310D01*
X894318Y962522D01*
X894248Y962733D01*
X894154Y962897D01*
X894060Y963015D01*
X893989Y963132D01*
X893942Y963179D01*
X893919Y963203D01*
X893731Y963344D01*
X893543Y963438D01*
X893355Y963532D01*
X893190Y963579D01*
X893026Y963602D01*
X892908Y963626D01*
D02*
G37*
G36*
X492710Y1091245D02*
X487940D01*
X487705Y1091221D01*
X487470Y1091174D01*
X487282Y1091104D01*
X487118Y1091010D01*
X487001Y1090916D01*
X486883Y1090845D01*
X486836Y1090799D01*
X486813Y1090775D01*
X486648Y1090587D01*
X486531Y1090399D01*
X486460Y1090211D01*
X486390Y1090047D01*
X486366Y1089882D01*
X486343Y1089765D01*
Y1089671D01*
Y1089647D01*
Y1086452D01*
X486366Y1086193D01*
X486413Y1085982D01*
X486484Y1085771D01*
X486578Y1085606D01*
X486672Y1085489D01*
X486742Y1085371D01*
X486789Y1085324D01*
X486813Y1085301D01*
X487001Y1085160D01*
X487188Y1085066D01*
X487377Y1084972D01*
X487541Y1084925D01*
X487705Y1084901D01*
X487823Y1084878D01*
X492710D01*
Y1091245D01*
D02*
G37*
G36*
X725156Y1177491D02*
X720387D01*
X720152Y1177467D01*
X719917Y1177421D01*
X719729Y1177350D01*
X719565Y1177256D01*
X719447Y1177162D01*
X719330Y1177092D01*
X719283Y1177045D01*
X719259Y1177021D01*
X719095Y1176833D01*
X718977Y1176645D01*
X718907Y1176457D01*
X718836Y1176293D01*
X718813Y1176128D01*
X718789Y1176011D01*
Y1175917D01*
Y1175893D01*
Y1166354D01*
X718813Y1166096D01*
X718860Y1165884D01*
X718930Y1165673D01*
X719024Y1165508D01*
X719118Y1165391D01*
X719189Y1165274D01*
X719236Y1165227D01*
X719259Y1165203D01*
X719447Y1165062D01*
X719635Y1164968D01*
X719823Y1164874D01*
X719988Y1164827D01*
X720152Y1164804D01*
X720270Y1164780D01*
X725156D01*
Y1177491D01*
D02*
G37*
G36*
X737844D02*
X733074D01*
X732839Y1177467D01*
X732605Y1177421D01*
X732417Y1177350D01*
X732252Y1177256D01*
X732135Y1177162D01*
X732017Y1177092D01*
X731970Y1177045D01*
X731947Y1177021D01*
X731782Y1176833D01*
X731665Y1176645D01*
X731594Y1176457D01*
X731524Y1176293D01*
X731500Y1176128D01*
X731477Y1176011D01*
Y1175917D01*
Y1175893D01*
Y1166354D01*
X731500Y1166096D01*
X731547Y1165884D01*
X731618Y1165673D01*
X731712Y1165508D01*
X731806Y1165391D01*
X731876Y1165274D01*
X731923Y1165227D01*
X731947Y1165203D01*
X732135Y1165062D01*
X732322Y1164968D01*
X732511Y1164874D01*
X732675Y1164827D01*
X732839Y1164804D01*
X732957Y1164780D01*
X737844D01*
Y1177491D01*
D02*
G37*
G36*
X1037413Y531429D02*
X1037248D01*
X1036849Y531405D01*
X1036473Y531311D01*
X1036168Y531194D01*
X1035933Y531053D01*
X1035721Y530889D01*
X1035580Y530771D01*
X1035486Y530677D01*
X1035463Y530654D01*
X1035251Y530395D01*
X1035110Y530113D01*
X1034993Y529855D01*
X1034922Y529596D01*
X1034875Y529361D01*
X1034852Y529197D01*
Y529080D01*
Y529033D01*
X1034875Y528680D01*
X1034946Y528375D01*
X1035040Y528093D01*
X1035157Y527858D01*
X1035275Y527646D01*
X1035369Y527505D01*
X1035439Y527411D01*
X1035463Y527388D01*
X1035745Y527129D01*
X1036027Y526965D01*
X1036332Y526824D01*
X1036614Y526730D01*
X1036872Y526683D01*
X1037060Y526660D01*
X1037201Y526636D01*
X1037248D01*
X1037648Y526660D01*
X1038024Y526754D01*
X1038329Y526871D01*
X1038564Y527012D01*
X1038775Y527153D01*
X1038916Y527270D01*
X1039010Y527364D01*
X1039034Y527388D01*
X1039222Y527646D01*
X1039363Y527928D01*
X1039480Y528187D01*
X1039551Y528469D01*
X1039598Y528680D01*
X1039621Y528868D01*
Y528985D01*
Y529033D01*
X1039598Y529361D01*
X1039527Y529690D01*
X1039433Y529949D01*
X1039316Y530207D01*
X1039222Y530395D01*
X1039128Y530536D01*
X1039057Y530630D01*
X1039034Y530654D01*
X1038752Y530912D01*
X1038447Y531100D01*
X1038141Y531241D01*
X1037859Y531335D01*
X1037624Y531382D01*
X1037413Y531429D01*
D02*
G37*
G36*
X1037389Y525062D02*
X1036966D01*
X1036708Y525015D01*
X1036238Y524897D01*
X1035839Y524733D01*
X1035486Y524568D01*
X1035204Y524380D01*
X1035016Y524216D01*
X1034899Y524099D01*
X1034852Y524075D01*
Y524052D01*
X1034593Y523699D01*
X1034382Y523323D01*
X1034241Y522971D01*
X1034147Y522618D01*
X1034100Y522336D01*
X1034053Y522101D01*
Y522007D01*
Y521937D01*
Y521913D01*
Y521890D01*
X1034077Y521420D01*
X1034171Y520997D01*
X1034312Y520621D01*
X1034453Y520292D01*
X1034593Y520034D01*
X1034734Y519846D01*
X1034828Y519728D01*
X1034852Y519682D01*
X1035204Y519352D01*
X1035604Y519118D01*
X1036003Y518953D01*
X1036379Y518836D01*
X1036731Y518765D01*
X1036990Y518742D01*
X1037107Y518718D01*
X1037248D01*
X1037765Y518765D01*
X1038235Y518883D01*
X1038658Y519024D01*
X1039010Y519212D01*
X1039269Y519399D01*
X1039480Y519540D01*
X1039598Y519658D01*
X1039645Y519705D01*
X1039903Y520057D01*
X1040091Y520433D01*
X1040232Y520786D01*
X1040326Y521138D01*
X1040373Y521444D01*
X1040397Y521679D01*
X1040420Y521772D01*
Y521843D01*
Y521866D01*
Y521890D01*
X1040397Y522360D01*
X1040303Y522759D01*
X1040185Y523135D01*
X1040021Y523464D01*
X1039880Y523723D01*
X1039762Y523911D01*
X1039668Y524028D01*
X1039645Y524075D01*
X1039292Y524404D01*
X1038893Y524639D01*
X1038494Y524827D01*
X1038118Y524944D01*
X1037765Y525015D01*
X1037507Y525038D01*
X1037389Y525062D01*
D02*
G37*
G36*
X825611Y501352D02*
X820724D01*
Y494985D01*
X825494D01*
X825729Y495009D01*
X825964Y495056D01*
X826152Y495126D01*
X826316Y495220D01*
X826433Y495314D01*
X826551Y495384D01*
X826598Y495431D01*
X826621Y495455D01*
X826786Y495643D01*
X826903Y495831D01*
X826974Y496019D01*
X827044Y496183D01*
X827068Y496348D01*
X827091Y496465D01*
Y496559D01*
Y496583D01*
Y499778D01*
X827068Y500037D01*
X827021Y500248D01*
X826950Y500459D01*
X826856Y500624D01*
X826762Y500741D01*
X826692Y500859D01*
X826645Y500906D01*
X826621Y500929D01*
X826433Y501070D01*
X826245Y501164D01*
X826058Y501258D01*
X825893Y501305D01*
X825729Y501329D01*
X825611Y501352D01*
D02*
G37*
G36*
X1052843Y664508D02*
X1049694D01*
X1049459Y664484D01*
X1049224Y664437D01*
X1049036Y664367D01*
X1048872Y664273D01*
X1048755Y664179D01*
X1048637Y664108D01*
X1048590Y664061D01*
X1048567Y664038D01*
X1048402Y663850D01*
X1048285Y663662D01*
X1048214Y663474D01*
X1048144Y663310D01*
X1048120Y663145D01*
X1048097Y663028D01*
Y662934D01*
Y662910D01*
Y659738D01*
X1048120Y659480D01*
X1048167Y659268D01*
X1048238Y659057D01*
X1048332Y658893D01*
X1048426Y658775D01*
X1048496Y658658D01*
X1048543Y658611D01*
X1048567Y658587D01*
X1048755Y658446D01*
X1048942Y658352D01*
X1049130Y658258D01*
X1049295Y658211D01*
X1049459Y658188D01*
X1049577Y658164D01*
X1051292D01*
X1051504Y658188D01*
X1051691Y658211D01*
X1051856Y658235D01*
X1051879Y658258D01*
X1051903D01*
X1052091Y658376D01*
X1052255Y658493D01*
X1052373Y658587D01*
X1052420Y658611D01*
X1052561Y658799D01*
X1052678Y658987D01*
X1052749Y659174D01*
X1052819Y659362D01*
X1052843Y659503D01*
X1052866Y659621D01*
Y659715D01*
Y659738D01*
Y663709D01*
X1052843Y664508D01*
D02*
G37*
%LPD*%
D33*
X787210Y493900D02*
X795210D01*
X787210Y509400D02*
X795210D01*
X839250Y943600D02*
X938750D01*
X839250Y783600D02*
X938750D01*
X601450Y1178170D02*
X630450D01*
X601450Y1161170D02*
X630450D01*
Y1176170D02*
Y1178170D01*
X601450Y1176170D02*
Y1178170D01*
X630450Y1161170D02*
Y1163170D01*
X601450Y1161170D02*
Y1163170D01*
X737368Y1088926D02*
Y1155926D01*
X706368Y1088926D02*
Y1155926D01*
X737368D01*
X706368Y1088926D02*
X737368D01*
D55*
X852250Y793600D02*
X851120Y795946D01*
X848582Y796525D01*
X846547Y794902D01*
Y792298D01*
X848582Y790675D01*
X851120Y791255D01*
X852250Y793600D01*
D56*
X822500Y780850D02*
X820625Y781933D01*
Y779767D01*
X822500Y780850D01*
X753368Y1155926D02*
X751493Y1157009D01*
Y1154844D01*
X753368Y1155926D01*
D57*
X636950Y1176170D02*
D03*
D58*
X870590Y718798D02*
Y757682D01*
X823590Y718798D02*
X870590D01*
X823590D02*
Y757682D01*
X870590D01*
M02*
