M48
;Layer_Color=9474304
;FILE_FORMAT=4:4
METRIC,LZ
;TYPE=PLATED
T1F00S00C0.6800
T2F00S00C0.7112
T3F00S00C0.7830
T4F00S00C0.9100
T5F00S00C1.2400
T6F00S00C1.3000
%
T01
X0097028Y0085344
X0101908
T02
X0093218Y0043688
X0096901Y0040386
X0100584Y0043688
X0072771Y0089281
X0064643Y0101854
X00635Y0110617
X0096647Y0109093
T03
X0077724Y0092456
Y0102616
X0080264
X0082804
X0085344
X0087884
X0090424
X0092964
X0095504
X0098044
X0100584
X0103124
X0105664
X0108204
X0110744
Y0092456
X0108204
X0105664
X0103124
X0100584
X0098044
X0095504
X0092964
X0090424
X0087884
X0085344
X0082804
X0080264
T04
X010668Y004826
Y00508
Y005334
Y005588
Y005842
Y006096
Y00635
Y006604
X011176
Y00635
Y006096
Y005842
Y005588
Y005334
Y00508
Y004826
X0078232
Y00508
Y005334
Y005588
Y005842
Y006096
Y00635
Y006604
X007366
Y00635
Y006096
Y005842
Y005588
Y005334
Y00508
Y004826
T05
X0073224Y0078844
X0077724
Y0085344
X0073224
T06
X0054864Y0060184
Y0065184
Y0070184
Y0075184
X0037084
Y0070184
Y0065184
Y0060184
Y008398
Y008898
Y009398
Y009898
X0054864Y00989
Y00939
Y00889
Y00839
X0054737Y0112014
Y0117014
M30
