M48
;Layer_Color=9474304
;FILE_FORMAT=4:4
METRIC,LZ
;TYPE=PLATED
T1F00S00C0.6800
T2F00S00C0.7112
T3F00S00C0.7830
T4F00S00C0.8000
T5F00S00C0.9100
T6F00S00C1.0100
T7F00S00C1.2400
T8F00S00C1.2700
T9F00S00C1.3000
%
T01
X0099822Y0045974
X0104702
T02
X00843534Y0066421
X0108458Y0077724
X0067183Y01006856
X0045847Y00839724
X01080516Y0095885
T03
X0080518Y0055118
X0083058
X0085598
X0088138
X0090678
X0093218
X0095758
X0098298
X0100838
X0103378
X0105918
X0108458
X0110998
X0113538
Y0063246
X0110998
X0108458
X0105918
X0103378
X0100838
X0098298
X0095758
X0093218
X0090678
X0088138
X0085598
X0083058
X0080518
T04
X00446918Y0106807
X0044704Y0111062
X00526918Y0106807
X00813054Y0103759
X0084963Y01037844
X00850252Y0112254
X0081139
X0044704Y0119062
T05
X0093472Y0033655
X0096012
X0098552
X0101092
X01016Y00762
Y007874
X00762Y0077724
Y0080264
Y0082804
Y0085344
Y0087884
Y0090424
Y0092964
Y0095504
X01016Y009398
Y009144
Y00889
Y008636
Y008382
Y008128
T06
X0060198Y0120269
X0067198
T07
X0076018Y0039474
X0080518
Y0045974
X0076018
T08
X0113411Y0090805
Y0093345
Y0095885
Y0098425
Y0100965
X0115951
Y0098425
Y0095885
Y0093345
Y0090805
T09
X0054864Y0060184
Y0065184
Y0070184
Y0075184
X0037084
Y0070184
Y0065184
Y0060184
Y008398
Y008898
Y009398
Y009898
X0054864Y00989
Y00939
Y00889
Y00839
X0054737Y0112014
Y0117014
M30
