M48
;Layer_Color=9474304
;FILE_FORMAT=4:4
METRIC,LZ
;TYPE=PLATED
T1F00S00C0.5000
T2F00S00C0.6800
T3F00S00C0.7112
T4F00S00C0.7830
T5F00S00C0.9100
T6F00S00C1.2400
T7F00S00C1.2700
T8F00S00C1.3000
%
T01
X009Y003
X01
X0105Y004
X011Y005
X0115Y006
X0105
X011Y007
X01
X009
X008
X009Y005
X0085Y004
X0065
X0055
X0045
X005Y005
X006
Y007
X007
X004Y005
X003
X0035Y006
X003Y007
X0035Y008
X003Y009
X0035Y01
X0045
X005Y011
X006
X007
X0075Y01
X007Y009
X005
X004
X0045Y008
X0055
X0085
X0095
X009Y009
X0095Y01
X0105
X01Y011
X009
X008
T02
X0099822Y0045974
X0104702
T03
X0084201Y0067818
X00635Y0110617
X0050546Y0113411
X0081661Y0099314
X0085598Y0102108
X0089027Y0099314
T04
X0080518Y0053086
X0083058
X0085598
X0088138
X0090678
X0093218
X0095758
X0098298
X0100838
X0103378
X0105918
X0108458
X0110998
X0113538
Y0063246
X0110998
X0108458
X0105918
X0103378
X0100838
X0098298
X0095758
X0093218
X0090678
X0088138
X0085598
X0083058
X0080518
T05
X0093472Y0033655
X0096012
X0098552
X0101092
X0104013Y0076962
X0075565
Y0079502
Y0082042
Y0084582
Y0087122
Y0089662
Y0092202
Y0094742
X0104013
Y0092202
Y0089662
Y0087122
Y0084582
Y0082042
Y0079502
T06
X0076018Y0039474
X0080518
Y0045974
X0076018
T07
X0113411Y0090805
Y0093345
Y0095885
Y0098425
Y0100965
X0115951
Y0098425
Y0095885
Y0093345
Y0090805
T08
X0054864Y0060184
Y0065184
Y0070184
Y0075184
X0037084
Y0070184
Y0065184
Y0060184
Y008398
Y008898
Y009398
Y009898
X0054864Y00989
Y00939
Y00889
Y00839
X0054737Y0112014
Y0117014
M30
