M48
;Layer_Color=9474304
;FILE_FORMAT=4:4
METRIC,LZ
;TYPE=PLATED
T1F00S00C0.4000
T2F00S00C0.7000
T3F00S00C0.9100
T4F00S00C1.2400
T5F00S00C1.3000
T6F00S00C1.5000
%
T01
X0105Y0095
X011
X0115
X01175Y01
X01125
X01075
X011Y0105
X0115
X01175Y011
X01125
X01075
X01025
X00975
X00925
X009Y0115
X0105Y0105
X012
X0125
X013
X0135
X014
X0145
X015
X0155
X01575Y01
X01525
X01475
X01425
X01375
X01325
X01275
X01225
X0125Y0095
X013
X0135
X014
X0145
X015
X0155
X01475Y011
X01425
X0145Y0115
X0135
X013
X0125
X012
X01225Y011
X01275
X01325
X012Y0095
X016
X0165
X01625Y01
X0165Y0105
X016
X01625Y011
X01675
X01725
X01775
X017Y0115
X0165
X016
X01625Y012
X01675
X01725
X01775
Y013
X01725
X0175Y0135
X017
X0165
X016
X01625Y014
X016Y0145
X017
X01725Y014
X01775
Y015
X0175Y0155
X017
X016
X01625Y013
X0165Y0125
X017
X01575Y013
X01525
X01475
X01425
X01375
X014Y0135
X0145
X015
X0155
X01575Y014
X01525
X01475
X01425
X01375
X01325
X01275
X013Y0145
X0135
X014
X0145
X015
X0155
X01575Y012
X01525
X01375
X01325
X01275
X01225
Y013
X01275
X013Y0135
X0135
X0125
Y0145
X012
X01225Y015
X01275
X013Y0155
X0125
X012
X013Y0125
X0115
X01175Y012
X01125
X01075
X01025
X00975
X00925
X0095Y0125
X009
X00925Y013
X00975
X01025
X01075
X0105Y0145
X0115
X01125Y015
X0115Y0155
X0095
X009
Y0145
X0095
Y0135
X009
X00925Y016
X00975
X01Y0165
X0105
X011
X0115
X01175Y016
X01125
X01075
Y017
X01125
X0115Y0175
X011
X0105
X01075Y018
X01125
X01175
X0095Y0165
X009
X012
X0125
X013
X0135
X014
X01425Y016
X01475
X01525
X01575
X015Y0165
Y0175
X0155
X01575Y018
X01525
X0145Y0175
X014
X0135
X013
X0125
X012
X01225Y018
X01275
X01375Y017
Y016
X01325
X01225
X01625
X01675
X01725
X01775
X0175Y0165
X017
X0165
X016
X01625Y017
X0165Y0175
X016
X01625Y018
T02
X0137846Y0109979
Y0112519
X0144831
Y0109979
T03
X0160706Y0122044
Y0124584
Y0147444
X0163246
X0165786
X0168326
X0170866
Y0149984
X0168326
X0165786
X0163246
X0160706
X0158166
Y0147444
X0155626
X0153086
X0150546
X0148006
X0145466
X0142926
X0140386
X0137846
X0135306
X0132766
Y0149984
X0135306
X0137846
X0140386
X0142926
X0145466
X0148006
X0150546
X0153086
X0155626
Y0124584
X0158166
Y0122044
X0155626
X0153086
Y0124584
X0150546
X0148006
X0145466
X0142926
X0140386
X0137846
X0135306
X0132766
Y0122044
X0135306
X0137846
X0140386
X0142926
X0145466
X0148006
X0150546
T04
X0151181Y0109344
Y0113844
X0157681
Y0109344
T05
X0094031Y0114424
X0099031
X0104031
X0109031
Y0122044
X0104031
X0099031
X0094031
X0094111Y0132204
X0099111
X0104111
X0109111
Y0139824
X0104111
X0099111
X0094111
Y0149984
X0099111
X0104111
X0109111
Y0157604
X0104111
X0099111
X0094111
X0117588Y016891
Y017653
X0122588
X0127588
X0132588
Y016891
X0127588
X0122588
X0141558
X0146558
X0151558
X0156558
Y017653
X0151558
X0146558
X0141558
T06
X0174676Y0110614
X0179676
X0174676Y0125854
Y0146174
X0126416
Y0125854
M30
